<svg width="101" height="116" viewBox="0 0 101 116" xmlns="http://www.w3.org/2000/svg"><title>96222ADC-CA7D-431D-AB1A-CFF6D0419E52</title><g fill="none" fill-rule="evenodd"><path d="M18.01 9.6h65.185c8.616 0 15.6 6.984 15.6 15.6v66c0 8.616-6.984 15.6-15.6 15.6H18.01c-8.616 0-15.6-6.984-15.6-15.6v-66c0-8.616 6.984-15.6 15.6-15.6z" fill="#F9DD8E"/><path d="M10.8 1.2h4.906c5.965 0 10.8 4.835 10.8 10.8v4.8c0 5.965-4.835 10.8-10.8 10.8H10.8C4.835 27.6 0 22.765 0 16.8V12C0 6.035 4.835 1.2 10.8 1.2zM84.33 0h4.906c5.965 0 10.8 4.835 10.8 10.8v4.8c0 5.965-4.835 10.8-10.8 10.8H84.33c-5.965 0-10.8-4.835-10.8-10.8v-4.8c0-5.965 4.835-10.8 10.8-10.8z" fill="#F9DD8E"/><path d="M39.759 41.854l-11.458 3.708M60.83 41.854l11.46 3.708" stroke="#FFF" stroke-width="3.6" stroke-linecap="round"/><path d="M34.867 52.8h32.2c9.941 0 18 8.059 18 18v24.913c0 9.941-8.059 18-18 18h-32.2c-9.94 0-18-8.059-18-18V70.8c0-9.941 8.06-18 18-18z" fill="#F5E5D6"/><path d="M50.602 76.8S61.446 71.965 61.446 66c0-5.965-4.855-4.8-10.844-4.8-5.988 0-10.843-1.165-10.843 4.8s10.843 10.8 10.843 10.8z" fill="#EF9E9E"/><path d="M33.95 101.825s5.983-5.347 15.735-5.347c9.752 0 14.386 5.347 14.386 5.347M49.59 77.6v18" stroke="#EF9E9E" stroke-width="3.6" stroke-linecap="square"/><path d="M36.145 48c0 1.988-1.619 3.6-3.615 3.6a3.607 3.607 0 0 1-3.614-3.6c0-1.988 1.618-3.6 3.614-3.6a3.607 3.607 0 0 1 3.615 3.6zM66.265 48c0 1.988-1.618 3.6-3.614 3.6a3.607 3.607 0 0 1-3.615-3.6c0-1.988 1.618-3.6 3.615-3.6a3.607 3.607 0 0 1 3.614 3.6z" fill="#CE8282"/></g></svg>