<svg width="71" height="131" viewBox="0 0 71 131" xmlns="http://www.w3.org/2000/svg"><title>6F9548EB-1C42-4930-8020-CA8A61916D32</title><g fill="none" fill-rule="evenodd"><path d="M39.923 113.216s16.79-22.122 16.79-49.412-12.737-49.412-16.79-49.412c-4.053 0-16.79 22.122-16.79 49.412s16.79 49.412 16.79 49.412z" fill="#D2D67E"/><path d="M45.33 124.294s7.747-26.67-2.033-52.147c-9.78-25.477-29.6-41.566-33.383-40.113-3.784 1.452-7.747 26.67 2.032 52.147 9.78 25.477 33.384 40.113 33.384 40.113z" fill="#DFE38B"/><path d="M26.84 124.294s23.604-14.636 33.384-40.113c9.78-25.477 5.816-50.695 2.032-52.147-3.784-1.453-23.603 14.636-33.383 40.113-9.78 25.477-2.033 52.147-2.033 52.147z" fill="#E6EA8F"/><path d="M4.903 82.603h60.635a4.797 4.797 0 0 1 4.797 4.798v3.818a4.797 4.797 0 0 1-4.797 4.798H4.903a4.797 4.797 0 0 1-4.798-4.798v-3.818a4.797 4.797 0 0 1 4.798-4.798z" fill="#F9DD8E"/><path d="M9.336 93.6c-2.648 0-4.374 2.103-3.851 4.71l5.505 27.467c.52 2.601 3.1 4.71 5.74 4.71h37.72c2.648 0 5.217-2.103 5.74-4.71l5.505-27.467c.521-2.601-1.212-4.71-3.852-4.71H9.336z" fill="#F9DD8E"/><path d="M21.693 18.71v62.769" stroke="#EF9E9E" stroke-width="3" stroke-linecap="round"/><path d="M15.66.674c-3.292 0-5.96 2.579-5.96 5.76 0 6.569 4.586 11.3 8.103 13.732 1.575 1.089 2.29 1.95 3.817 1.892 1.528-.058 1.892-.66 3.639-1.892 3.532-2.49 8.282-7.314 8.282-13.732 0-3.181-2.669-5.76-5.96-5.76-2.955 0-6.042 2.859-6.042 2.859S18.615.674 15.66.674z" fill="#F4B5B5"/></g></svg>