<?xml version="1.0" encoding="UTF-8" standalone="no"?>
<svg width="101px" height="116px" viewBox="0 0 101 116" version="1.1" xmlns="http://www.w3.org/2000/svg" xmlns:xlink="http://www.w3.org/1999/xlink">
    <!-- Generator: Sketch 41.2 (35397) - http://www.bohemiancoding.com/sketch -->
    <title>Page 1</title>
    <desc>Created with Sketch.</desc>
    <defs></defs>
    <g id="Dashboard" stroke="none" stroke-width="1" fill="none" fill-rule="evenodd">
        <g id="404" transform="translate(-660.000000, -316.000000)">
            <g id="Page-1" transform="translate(660.000000, 316.000000)">
                <path d="M18.00964,9.6 L83.19518,9.6 C91.81083,9.6 98.79518,16.58435 98.79518,25.2 L98.79518,91.2 C98.79518,99.81564 91.81083,106.799995 83.19518,106.799995 L18.00964,106.799995 C9.393993,106.799995 2.409639,99.81564 2.409639,91.2 L2.409639,25.2 C2.409639,16.58435 9.393993,9.6 18.00964,9.6 Z" id="Fill-1" fill="#F9DD8E"></path>
                <path d="M10.8,1.2 L15.70602,1.2 C21.6707,1.2 26.50602,6.0353 26.50602,12 L26.50602,16.8 C26.50602,22.76468 21.6707,27.6 15.70602,27.6 L10.8,27.6 C4.835322,27.6 0,22.76468 0,16.8 L0,12 C0,6.0353 4.835322,1.2 10.8,1.2 Z" id="Fill-3" fill="#F9DD8E"></path>
                <path d="M84.33002,0 L89.23604,0 C95.20072,0 100.036,4.8353 100.036,10.8 L100.036,15.6 C100.036,21.56468 95.20072,26.4 89.23604,26.4 L84.33002,26.4 C78.36533,26.4 73.53001,21.56468 73.53001,15.6 L73.53001,10.8 C73.53001,4.8353 78.36533,0 84.33002,0 Z" id="Fill-4" fill="#F9DD8E"></path>
                <path d="M39.75904,41.85392 L28.30052,45.56213" id="Stroke-5" stroke="#FFFFFF" stroke-width="3.6" stroke-linecap="round"></path>
                <path d="M60.83065,41.85392 L72.28916,45.56213" id="Stroke-6" stroke="#FFFFFF" stroke-width="3.6" stroke-linecap="round"></path>
                <path d="M34.86747,52.8 L67.067,52.8 C77.00813,52.8 85.067,60.85887 85.067,70.8 L85.067,95.71317 C85.067,105.654305 77.00813,113.713173 67.067,113.713173 L34.86747,113.713173 C24.92634,113.713173 16.86747,105.654305 16.86747,95.71317 L16.86747,70.8 C16.86747,60.85887 24.92634,52.8 34.86747,52.8 Z" id="Fill-7" fill="#F5E5D6"></path>
                <path d="M50.60241,76.8 C50.60241,76.8 61.44578,71.96468 61.44578,66 C61.44578,60.03532 56.59104,61.2 50.60241,61.2 C44.61378,61.2 39.75904,60.03532 39.75904,66 C39.75904,71.96468 50.60241,76.8 50.60241,76.8 Z" id="Fill-8" fill="#EF9E9E"></path>
                <path d="M33.95088,101.825 C33.95088,101.825 39.93335,96.47832 49.68539,96.47832 C59.43744,96.47832 64.07137,101.825 64.07137,101.825" id="Stroke-9" stroke="#EF9E9E" stroke-width="3.6" stroke-linecap="square"></path>
                <path d="M49.59036,77.6 L49.59036,95.6" id="Stroke-10" stroke="#EF9E9E" stroke-width="3.6" stroke-linecap="square"></path>
                <path d="M36.14458,48 C36.14458,49.98823 34.52633,51.6 32.53012,51.6 C30.53391,51.6 28.91566,49.98823 28.91566,48 C28.91566,46.01178 30.53391,44.4 32.53012,44.4 C34.52633,44.4 36.14458,46.01178 36.14458,48 Z" id="Fill-11" fill="#CE8282"></path>
                <path d="M66.26506,48 C66.26506,49.98823 64.64682,51.6 62.65061,51.6 C60.6544,51.6 59.03615,49.98823 59.03615,48 C59.03615,46.01178 60.6544,44.4 62.65061,44.4 C64.64682,44.4 66.26506,46.01178 66.26506,48 Z" id="Fill-12" fill="#CE8282"></path>
            </g>
        </g>
    </g>
</svg>