<?xml version="1.0" encoding="UTF-8" standalone="no"?>
<svg width="62px" height="88px" viewBox="0 0 62 88" version="1.1" xmlns="http://www.w3.org/2000/svg" xmlns:xlink="http://www.w3.org/1999/xlink">
    <!-- Generator: Sketch 41.2 (35397) - http://www.bohemiancoding.com/sketch -->
    <title>illus-delete</title>
    <desc>Created with Sketch.</desc>
    <defs>
        <filter x="-50%" y="-50%" width="200%" height="200%" filterUnits="objectBoundingBox" id="filter-1">
            <feOffset dx="0" dy="0" in="SourceAlpha" result="shadowOffsetOuter1"></feOffset>
            <feGaussianBlur stdDeviation="5" in="shadowOffsetOuter1" result="shadowBlurOuter1"></feGaussianBlur>
            <feColorMatrix values="0 0 0 0 0   0 0 0 0 0   0 0 0 0 0  0 0 0 0.100996377 0" type="matrix" in="shadowBlurOuter1" result="shadowMatrixOuter1"></feColorMatrix>
            <feMerge>
                <feMergeNode in="shadowMatrixOuter1"></feMergeNode>
                <feMergeNode in="SourceGraphic"></feMergeNode>
            </feMerge>
        </filter>
    </defs>
    <g id="Dashboard" stroke="none" stroke-width="1" fill="none" fill-rule="evenodd">
        <g id="Delete" transform="translate(-679.000000, -105.000000)">
            <g id="PopUp" filter="url(#filter-1)" transform="translate(410.000000, 113.000000)">
                <g id="illus-delete" transform="translate(279.000000, 2.000000)">
                    <path d="M41.4814815,37.7943948 L41.4814815,16.609237 C41.4814815,7.43622963 34.0534548,0 24.8856948,0 L16.5957867,0 C7.43018889,0 0,7.43633333 0,16.609237 L0,37.7943948 C0,37.8607341 0.000388448407,39.2307326 0.00116319415,41.2814267 C0.000389126111,41.3154881 0,63.7049285 0,63.7049285 C0,66.1421854 1.98170778,68.1179731 4.41518519,68.1179731 C6.85362222,68.1179731 8.83037037,66.1459473 8.83037037,63.7049285 L8.83037037,58.6255496 C9.53906074,57.3481326 10.9023444,56.4825126 12.4677778,56.4825126 C14.0307378,56.4825126 15.5555556,56.4825126 16.1051852,58.626457 L16.1051852,63.4465077 C16.1051852,66.0264847 18.1974385,68.1179731 20.7796296,68.1179731 C23.3612556,68.1179731 25.4540741,66.0259548 25.4540741,63.4465077 L25.4540741,54.4774015 C26.1627644,53.1999844 27.5260481,52.3343644 29.0914815,52.3343644 C30.6544415,52.3343644 32.0194104,53.1998911 32.7288889,54.4783089 L32.7288889,63.7049285 C32.7288889,66.1421854 34.7105941,68.1179731 37.1440741,68.1179731 C39.5825163,68.1179731 41.5592593,66.1459473 41.5592593,63.7049285 L41.5592593,41.3838911 C41.5592593,41.0992089 41.5322237,40.8208267 41.4805896,40.5511556 C41.4811859,38.9110141 41.4814815,37.8525052 41.4814815,37.7943948 Z" id="Fill-1" fill="#9FDCD7"></path>
                    <path d="M18.1481481,26.1851852 C18.1481481,30.3375489 16.4070356,33.7037037 14.2592593,33.7037037 C12.111483,33.7037037 10.3703704,30.3375489 10.3703704,26.1851852 C10.3703704,22.0328215 12.111483,18.6666667 14.2592593,18.6666667 C16.4070356,18.6666667 18.1481481,22.0328215 18.1481481,26.1851852 Z" id="Fill-3" fill="#FFFFFF"></path>
                    <path d="M31.1111111,25.6666667 C31.1111111,29.8190304 29.3699985,33.1851852 27.2222222,33.1851852 C25.0744459,33.1851852 23.3333333,29.8190304 23.3333333,25.6666667 C23.3333333,21.514303 25.0744459,18.1481481 27.2222222,18.1481481 C29.3699985,18.1481481 31.1111111,21.514303 31.1111111,25.6666667 Z" id="Fill-4" fill="#FFFFFF"></path>
                </g>
            </g>
        </g>
    </g>
</svg>