<?xml version="1.0" encoding="UTF-8" standalone="no"?>
<svg width="77px" height="93px" viewBox="0 0 77 93" version="1.1" xmlns="http://www.w3.org/2000/svg" xmlns:xlink="http://www.w3.org/1999/xlink">
    <!-- Generator: Sketch 41.2 (35397) - http://www.bohemiancoding.com/sketch -->
    <title>illus-share</title>
    <desc>Created with Sketch.</desc>
    <defs>
        <filter x="-50%" y="-50%" width="200%" height="200%" filterUnits="objectBoundingBox" id="filter-1">
            <feOffset dx="0" dy="0" in="SourceAlpha" result="shadowOffsetOuter1"></feOffset>
            <feGaussianBlur stdDeviation="5" in="shadowOffsetOuter1" result="shadowBlurOuter1"></feGaussianBlur>
            <feColorMatrix values="0 0 0 0 0   0 0 0 0 0   0 0 0 0 0  0 0 0 0.100996377 0" type="matrix" in="shadowBlurOuter1" result="shadowMatrixOuter1"></feColorMatrix>
            <feMerge>
                <feMergeNode in="shadowMatrixOuter1"></feMergeNode>
                <feMergeNode in="SourceGraphic"></feMergeNode>
            </feMerge>
        </filter>
    </defs>
    <g id="Dashboard" stroke="none" stroke-width="1" fill="none" fill-rule="evenodd">
        <g id="Share" transform="translate(-672.000000, -103.000000)">
            <g id="PopUp" filter="url(#filter-1)" transform="translate(410.000000, 113.000000)">
                <g id="illus-share" transform="translate(272.000000, 0.000000)">
                    <path d="M38.7382122,3.1289069 C35.837266,1.15680517 32.3075017,0 28.5,0 C24.5503128,0 20.8994824,1.24486034 17.9394331,3.35322155 L17.9394331,3.35322155 C16.9368031,1.36824569 14.82057,0 12.3720957,0 C8.95563362,0 6.18604784,2.66396379 6.18604784,5.95016121 C6.18604784,8.96418362 8.51585405,11.4547397 11.537714,11.8466638 C10.9326246,13.5935172 10.6046534,15.4643457 10.6046534,17.4097164 C10.6046534,27.02484 18.6166717,34.8194328 28.5,34.8194328 C38.3833283,34.8194328 46.3953466,27.02484 46.3953466,17.4097164 C46.3953466,15.4389414 46.0587566,13.5446741 45.4384492,11.7783129 C48.2544851,11.2213836 50.3720793,8.82364914 50.3720793,5.95016121 C50.3720793,2.66396379 47.6025034,0 44.1860462,0 C41.830934,0 39.7832041,1.26589138 38.7382122,3.1289069 L38.7382122,3.1289069 Z" id="Fill-1" fill="#F9DD8E"></path>
                    <path d="M16.2687091,4.36000862 C15.3544634,3.55336034 14.0298817,3.20978793 12.7199382,3.56078017 C10.6891412,4.10493362 9.46254052,6.11231638 9.98025284,8.04446897 C10.2549732,9.0697319 10.96566,9.86778103 11.8757092,10.3097276 C12.5804897,7.92530948 14.1276318,5.80481121 16.2687091,4.36000862 L16.2687091,4.36000862 L16.2687091,4.36000862 Z" id="Fill-3" fill="#FFFFFF"></path>
                    <path d="M40.2894328,4.36000862 C41.2036784,3.55336034 42.5282553,3.20978793 43.8382037,3.56078017 C45.8690007,4.10493362 47.0956014,6.11231638 46.5778891,8.04446897 C46.3031687,9.0697319 45.5924819,9.86778103 44.6824327,10.3097276 C43.9776473,7.92530948 42.4305101,5.80481121 40.2894328,4.36000862 L40.2894328,4.36000862 L40.2894328,4.36000862 Z" id="Fill-4" fill="#FFFFFF"></path>
                    <path d="M51.6976733,46.940129 C51.6976733,59.2328767 41.3117229,69.1981204 28.5,69.1981204 C15.6882771,69.1981204 5.30232672,59.2328767 5.30232672,46.940129 C5.30232672,34.6473763 15.6882771,24.6821302 28.5,24.6821302 C41.3117229,24.6821302 51.6976733,34.6473763 51.6976733,46.940129 Z" id="Fill-5" fill="#F9DD8E"></path>
                    <path d="M17.6744175,62.3664566 C17.6744175,68.0868464 13.915695,72.7241379 9.27906931,72.7241379 C4.64244608,72.7241379 0.883720629,68.0868464 0.883720629,62.3664566 C0.883720629,56.6460693 4.64244608,52.0087753 9.27906931,52.0087753 C13.915695,52.0087753 17.6744175,56.6460693 17.6744175,62.3664566 Z" id="Fill-6" fill="#F9DD8E"></path>
                    <path d="M57,62.3664566 C57,68.0868464 53.2412922,72.7241379 48.6046469,72.7241379 C43.9680261,72.7241379 40.2092987,68.0868464 40.2092987,62.3664566 C40.2092987,56.6460693 43.9680261,52.0087753 48.6046469,52.0087753 C53.2412922,52.0087753 57,56.6460693 57,62.3664566 Z" id="Fill-7" fill="#F9DD8E"></path>
                    <path d="M28.5,30.8526652 C34.9668662,30.8526652 40.2093036,26.3140402 40.2093036,20.7153724 C40.2093036,15.1166948 34.9668662,10.5780698 28.5,10.5780698 C22.0331338,10.5780698 16.7906964,15.1166948 16.7906964,20.7153724 C16.7906964,26.3140402 22.0331338,30.8526652 28.5,30.8526652 Z" id="Fill-8" fill="#FFFFFF"></path>
                    <path d="M30.9302343,15.6466966 C30.9302343,16.9855086 29.8421829,18.0708672 28.5,18.0708672 C27.157822,18.0708672 26.0697657,16.9855086 26.0697657,15.6466966 C26.0697657,14.3078845 27.157822,13.222575 28.5,13.222575 C29.8421829,13.222575 30.9302343,14.3078845 30.9302343,15.6466966 Z" id="Fill-9" fill="#9FDCD7"></path>
                    <path d="M17.4948626,26.0043877 C11.249176,26.0043877 6.18604784,30.8920099 6.18604784,36.9211947 C6.18604784,54.9451451 28.8036773,66.5357609 28.8036773,66.5357609 C28.8036773,66.5357609 51.4213216,55.1035363 51.4213216,36.9211947 C51.4213216,30.8920099 46.3581835,26.0043877 40.1124921,26.0043877 C34.5061981,26.0043877 28.6486373,31.4230386 28.6486373,31.4230386 C28.6486373,31.4230386 23.1011222,26.0043877 17.4948626,26.0043877 Z" id="Fill-10" fill="#F4B5B5"></path>
                    <path d="M12.3720957,40.3288415 C12.3720957,44.588707 9.602505,48.0420078 6.18604784,48.0420078 C2.76958725,48.0420078 0,44.588707 0,40.3288415 C0,36.0689809 2.76958725,32.6156752 6.18604784,32.6156752 C9.602505,32.6156752 12.3720957,36.0689809 12.3720957,40.3288415 Z" id="Fill-11" fill="#F9DD8E"></path>
                    <path d="M55.2325578,40.3288415 C55.2325578,44.588707 52.4629474,48.0420078 49.0465148,48.0420078 C45.6300528,48.0420078 42.860467,44.588707 42.860467,40.3288415 C42.860467,36.0689809 45.6300528,32.6156752 49.0465148,32.6156752 C52.4629474,32.6156752 55.2325578,36.0689809 55.2325578,40.3288415 Z" id="Fill-12" fill="#F9DD8E"></path>
                    <path d="M23.4186023,11.2391716 C23.4186023,12.5779836 22.3305509,13.6633422 20.9883729,13.6633422 C19.64619,13.6633422 18.5581386,12.5779836 18.5581386,11.2391716 C18.5581386,9.90035948 19.64619,8.81505 20.9883729,8.81505 C22.3305509,8.81505 23.4186023,9.90035948 23.4186023,11.2391716 Z" id="Fill-13" fill="#9FDCD7"></path>
                    <path d="M19.6627888,7.49279741 L19.6627888,7.49279741 C21.9811016,7.49279741 23.8604653,8.38076897 23.8604653,9.47615172 L23.8604653,9.47615172 C23.8604653,10.5715836 21.9811016,11.4595552 19.6627888,11.4595552 L19.6627888,11.4595552 C17.3444759,11.4595552 15.4651172,10.5715836 15.4651172,9.47615172 L15.4651172,9.47615172 C15.4651172,8.38076897 17.3444759,7.49279741 19.6627888,7.49279741 Z" id="Fill-14" fill="#FFFFFF"></path>
                    <path d="M37.9999984,10.7984534 C37.9999984,9.45964138 36.911947,8.37428276 35.569769,8.37428276 C34.227586,8.37428276 33.1395347,9.45964138 33.1395347,10.7984534 C33.1395347,12.1372655 34.227586,13.222575 35.569769,13.222575 C36.911947,13.222575 37.9999984,12.1372655 37.9999984,10.7984534 Z" id="Fill-15" fill="#9FDCD7"></path>
                    <path d="M36.8953482,7.05203017 L36.8953482,7.05203017 C34.5770353,7.05203017 32.6976716,7.94005086 32.6976716,9.03543362 L32.6976716,9.03543362 C32.6976716,10.1308164 34.5770353,11.0187879 36.8953482,11.0187879 L36.8953482,11.0187879 C39.213661,11.0187879 41.0930247,10.1308164 41.0930247,9.03543362 L41.0930247,9.03543362 C41.0930247,7.94005086 39.213661,7.05203017 36.8953482,7.05203017 Z" id="Fill-16" fill="#FFFFFF"></path>
                    <path d="M24.5942666,22.9191251 C24.5942666,22.9191251 25.6436858,25.673827 29.2159249,25.1228827 C32.788169,24.5719433 32.9949709,22.9191251 32.9949709,22.9191251" id="Stroke-17" stroke="#EF9E9E" stroke-width="4" stroke-linecap="round"></path>
                    <path d="M17.548418,39.6195059 L17.548418,47.603835 L20.2910615,47.603835 L20.2910615,48.9235128 L16.1408522,48.9235128 L16.1408522,39.6195059 L17.548418,39.6195059 Z M21.0884816,45.9467074 C21.0884816,45.0990634 21.3925472,44.3779691 22.0006831,43.78341 C22.6088191,43.1888509 23.3498485,42.8915762 24.2237912,42.8915762 C25.1017632,42.8915762 25.846822,43.1908606 26.4589872,43.7894343 C27.0630939,44.3880129 27.3651447,45.1231655 27.3651447,45.9949166 C27.3651447,46.8747018 27.0610792,47.6118691 26.4529433,48.2064282 C25.840778,48.7969678 25.0896802,49.0922377 24.1996252,49.0922377 C23.3176288,49.0922377 22.578614,48.7909435 21.9825561,48.1883503 C21.3865032,47.5937912 21.0884816,46.8465851 21.0884816,45.9467074 Z M22.4779254,45.9708145 C22.4779254,46.5573396 22.6349899,47.0213294 22.9491287,47.3627987 C23.2713212,47.7082875 23.6962022,47.881027 24.2237912,47.881027 C24.7554096,47.881027 25.1802905,47.7102972 25.4984537,47.3688279 C25.8166218,47.0273586 25.9757009,46.5714028 25.9757009,46.0009459 C25.9757009,45.4304889 25.8166218,44.9745282 25.4984537,44.6330638 C25.1762612,44.287575 24.7513803,44.1148355 24.2237912,44.1148355 C23.7042608,44.1148355 23.2834042,44.287575 22.9612117,44.6330638 C22.6390192,44.9785477 22.4779254,45.4244597 22.4779254,45.9708145 Z M29.286202,43.0542719 L30.8085491,46.3504443 L32.3248523,43.0542719 L33.8532434,43.0542719 L30.7964661,49.3272497 L27.7638548,43.0542719 L29.286202,43.0542719 Z M39.9184709,46.3082692 L35.7018075,46.3082692 C35.7380516,46.7903418 35.895121,47.1739862 36.1730108,47.4592122 C36.4509005,47.7404237 36.8073225,47.881027 37.2422816,47.881027 C37.5805766,47.881027 37.8604761,47.8006865 38.081985,47.6399907 C38.2994646,47.4792998 38.5471443,47.1820252 38.8250341,46.7481569 L39.9728372,47.3869058 C39.795631,47.6881999 39.6083615,47.9463067 39.4110186,48.161236 C39.2136807,48.3761555 39.0022451,48.5529194 38.7767069,48.6915129 C38.5511736,48.8301114 38.3075232,48.9315468 38.0457359,48.9958192 C37.7839585,49.0601015 37.5000347,49.0922377 37.1939496,49.0922377 C36.3159776,49.0922377 35.6111922,48.8110262 35.0795788,48.2486131 C34.5479653,47.6821707 34.2821586,46.93095 34.2821586,45.9949166 C34.2821586,45.0669222 34.5399067,44.3157016 35.0554128,43.7412251 C35.5749481,43.1747925 36.2636211,42.8915762 37.1214564,42.8915762 C37.9873503,42.8915762 38.671994,43.1667535 39.175417,43.7171278 C39.6748156,44.2634778 39.92451,45.0207228 39.92451,45.9888923 L39.9184709,46.3082692 Z M38.5229832,45.1994964 C38.333699,44.4763826 37.8765934,44.1148355 37.1516664,44.1148355 C36.9865384,44.1148355 36.8314885,44.1399401 36.6865022,44.1901591 C36.5415158,44.2403731 36.4096197,44.3126845 36.2908091,44.4070883 C36.1720034,44.501497 36.0703125,44.614981 35.9857363,44.7475552 C35.9011601,44.8801244 35.8367255,45.0307715 35.7924228,45.1994964 L38.5229832,45.1994964 Z" id="Fill-18" fill="#FFFFFF"></path>
                    <path d="M17.548418,39.6195059 L17.548418,47.603835 L20.2910615,47.603835 L20.2910615,48.9235128 L16.1408522,48.9235128 L16.1408522,39.6195059 L17.548418,39.6195059 Z M21.0884816,45.9467074 C21.0884816,45.0990634 21.3925472,44.3779691 22.0006831,43.78341 C22.6088191,43.1888509 23.3498485,42.8915762 24.2237912,42.8915762 C25.1017632,42.8915762 25.846822,43.1908606 26.4589872,43.7894343 C27.0630939,44.3880129 27.3651447,45.1231655 27.3651447,45.9949166 C27.3651447,46.8747018 27.0610792,47.6118691 26.4529433,48.2064282 C25.840778,48.7969678 25.0896802,49.0922377 24.1996252,49.0922377 C23.3176288,49.0922377 22.578614,48.7909435 21.9825561,48.1883503 C21.3865032,47.5937912 21.0884816,46.8465851 21.0884816,45.9467074 Z M22.4779254,45.9708145 C22.4779254,46.5573396 22.6349899,47.0213294 22.9491287,47.3627987 C23.2713212,47.7082875 23.6962022,47.881027 24.2237912,47.881027 C24.7554096,47.881027 25.1802905,47.7102972 25.4984537,47.3688279 C25.8166218,47.0273586 25.9757009,46.5714028 25.9757009,46.0009459 C25.9757009,45.4304889 25.8166218,44.9745282 25.4984537,44.6330638 C25.1762612,44.287575 24.7513803,44.1148355 24.2237912,44.1148355 C23.7042608,44.1148355 23.2834042,44.287575 22.9612117,44.6330638 C22.6390192,44.9785477 22.4779254,45.4244597 22.4779254,45.9708145 Z M29.286202,43.0542719 L30.8085491,46.3504443 L32.3248523,43.0542719 L33.8532434,43.0542719 L30.7964661,49.3272595 L27.7638548,43.0542719 L29.286202,43.0542719 Z M39.9184709,46.3082692 L35.7018075,46.3082692 C35.7380516,46.7903418 35.895121,47.1739862 36.1730108,47.4592122 C36.4509005,47.7404237 36.8073225,47.881027 37.2422816,47.881027 C37.5805766,47.881027 37.8604761,47.8006865 38.081985,47.6399907 C38.2994646,47.4792998 38.5471443,47.1820252 38.8250341,46.7481569 L39.9728372,47.3869058 C39.795631,47.6881999 39.6083615,47.9463067 39.4110186,48.161236 C39.2136807,48.3761555 39.0022451,48.5529194 38.7767069,48.6915129 C38.5511736,48.8301114 38.3075232,48.9315468 38.0457359,48.9958192 C37.7839585,49.0601015 37.5000347,49.0922377 37.1939496,49.0922377 C36.3159776,49.0922377 35.6111922,48.8110262 35.0795788,48.2486131 C34.5479653,47.6821707 34.2821586,46.93095 34.2821586,45.9949166 C34.2821586,45.0669222 34.5399067,44.3157016 35.0554128,43.7412251 C35.5749481,43.1747925 36.2636211,42.8915762 37.1214564,42.8915762 C37.9873503,42.8915762 38.671994,43.1667535 39.175417,43.7171278 C39.6748156,44.2634778 39.92451,45.0207228 39.92451,45.9888923 L39.9184709,46.3082692 Z M38.5229832,45.1994964 C38.333699,44.4763826 37.8765934,44.1148355 37.1516664,44.1148355 C36.9865384,44.1148355 36.8314885,44.1399401 36.6865022,44.1901591 C36.5415158,44.2403731 36.4096197,44.3126845 36.2908091,44.4070883 C36.1720034,44.501497 36.0703125,44.614981 35.9857363,44.7475552 C35.9011601,44.8801244 35.8367255,45.0307715 35.7924228,45.1994964 L38.5229832,45.1994964 Z" id="Stroke-19" stroke="#FFFFFF"></path>
                </g>
            </g>
        </g>
    </g>
</svg>