<svg width="73" height="119" viewBox="0 0 73 119" xmlns="http://www.w3.org/2000/svg"><title>2C7C2E40-3AD1-49E0-B597-87F988AEC00A</title><g fill="none" fill-rule="evenodd"><path d="M30.906 116.392c0 .772.77 1.398 1.721 1.398.95 0 1.721-.626 1.721-1.398V59.08c0-.772-.77-1.398-1.72-1.398-.951 0-1.722.626-1.722 1.398v57.312z" fill="#D5B9AE"/><path d="M34.218 116.392c0 .772.77 1.398 1.721 1.398.95 0 1.721-.626 1.721-1.398V59.08c0-.772-.77-1.398-1.72-1.398-.951 0-1.722.626-1.722 1.398v57.312z" fill="#D5B9AE"/><path d="M37.66 116.392c0 .772.771 1.398 1.722 1.398.95 0 1.72-.626 1.72-1.398V59.08c0-.772-.77-1.398-1.72-1.398-.951 0-1.722.626-1.722 1.398v57.312z" fill="#D5B9AE"/><path d="M42.054 61.684c-.473 3.044-1.16 7.984-2.102 15.252-.44 3.395-.617 7.177-.56 11.282.084 6.037.661 12.491 1.572 18.972.346 2.46.716 4.755 1.087 6.82a132.218 132.218 0 0 0 .497 2.616c.159.76 1.047 1.274 1.985 1.145.937-.13 1.568-.85 1.41-1.612a130.025 130.025 0 0 1-.485-2.552 180.479 180.479 0 0 1-1.074-6.734c-.898-6.393-1.468-12.756-1.55-18.687-.055-4.003.116-7.68.541-10.957.94-7.251 1.625-12.174 2.094-15.196.274-1.762.415-2.513.447-2.617.229-.749-.334-1.507-1.256-1.693-.923-.186-1.856.271-2.085 1.02-.076.25-.23 1.064-.521 2.94zM26.67 62.033c.47 3.022 1.154 7.945 2.094 15.196.425 3.277.597 6.954.541 10.957-.082 5.93-.651 12.294-1.55 18.687-.341 2.43-.707 4.696-1.073 6.734a129.811 129.811 0 0 1-.485 2.552c-.159.761.472 1.483 1.41 1.612.937.129 1.825-.384 1.984-1.145a132.209 132.209 0 0 0 .497-2.616c.37-2.065.742-4.36 1.087-6.82.911-6.48 1.489-12.935 1.572-18.972.057-4.105-.12-7.887-.56-11.282-.942-7.268-1.629-12.208-2.101-15.252-.292-1.877-.445-2.692-.521-2.94-.23-.75-1.163-1.207-2.085-1.02-.923.185-1.485.943-1.257 1.692.032.104.174.855.447 2.617zM34.068 116.742c0 .772.77 1.398 1.722 1.398.95 0 1.72-.626 1.72-1.398V59.429c0-.772-.77-1.398-1.72-1.398-.951 0-1.722.626-1.722 1.398v57.313z" fill="#F6E6D7"/><path fill="#9FDCD7" d="M26.527 59.573l-2.182 1.26-1.117-2.18-2.554-.058.302-2.407-2.115-1.36 1.625-1.87-1.004-2.23 2.433-.739.425-2.39 2.468.626 1.72-1.793 1.719 1.793 2.468-.626.425 2.39 2.433.74-1.004 2.229 1.625 1.87-2.115 1.36.302 2.407-2.554.059-1.117 2.18zM7.745 39.686l-2.182 1.26-1.117-2.18-2.554-.059.302-2.407-2.115-1.36 1.625-1.87L.7 30.841l2.433-.74.425-2.39 2.468.627 1.72-1.793 1.719 1.793 2.468-.626.425 2.39 2.433.74-1.004 2.228 1.625 1.87-2.115 1.36.302 2.407-2.554.06-1.117 2.18z"/><path fill="#9FDCD7" d="M9.315 27.58l-2.182 1.261-1.117-2.18-2.554-.059.302-2.407-2.115-1.36 1.625-1.87-1.004-2.229 2.433-.74.425-2.39 2.468.626 1.72-1.793 1.719 1.793 2.468-.626.425 2.39 2.433.74-1.004 2.229 1.625 1.87-2.115 1.36.302 2.407-2.554.06-1.118 2.18z"/><path fill="#9FDCD7" d="M17.921 18.07l-2.182 1.26-1.117-2.18-2.554-.06.302-2.406-2.115-1.36 1.625-1.87-1.004-2.23 2.433-.739.425-2.39 2.468.626 1.72-1.793 1.719 1.793 2.468-.626.425 2.39 2.433.74-1.004 2.229 1.625 1.87-2.115 1.36.302 2.407-2.554.059-1.117 2.18z"/><path fill="#9FDCD7" d="M29.97 13.746l-2.182 1.26-1.118-2.18-2.554-.059.302-2.407L22.303 9l1.626-1.87-1.005-2.229 2.433-.74.425-2.39 2.468.627L29.97.605l1.72 1.793 2.467-.626.425 2.39 2.433.74-1.004 2.228L37.636 9l-2.114 1.36.301 2.407-2.553.06-1.118 2.18z"/><path fill="#9FDCD7" d="M42.018 13.746l-2.182 1.26-1.117-2.18-2.554-.059.301-2.407L34.352 9l1.625-1.87-1.004-2.229 2.433-.74.425-2.39 2.468.627 1.72-1.793 1.719 1.793 2.468-.626.425 2.39 2.433.74-1.005 2.228L49.685 9l-2.115 1.36.302 2.407-2.554.06-1.118 2.18z"/><path fill="#9FDCD7" d="M53.206 18.07l-2.182 1.26-1.118-2.18-2.553-.06.301-2.406-2.114-1.36 1.625-1.87-1.004-2.23 2.433-.739.425-2.39 2.468.626 1.72-1.793 1.719 1.793 2.468-.626.425 2.39 2.433.74-1.005 2.229 1.626 1.87-2.115 1.36.302 2.407-2.554.059-1.118 2.18z"/><path fill="#9FDCD7" d="M61.812 25.851l-2.182 1.26-1.118-2.18-2.553-.058.301-2.407-2.114-1.36 1.625-1.87-1.004-2.23 2.433-.739.425-2.39 2.468.626 1.72-1.793 1.719 1.793L66 13.877l.425 2.39 2.433.74-1.005 2.229 1.626 1.87-2.115 1.36.302 2.407-2.554.059-1.118 2.18z"/><path fill="#9FDCD7" d="M65.255 35.363l-2.183 1.26-1.117-2.18-2.554-.059.302-2.407-2.115-1.36 1.625-1.87-1.004-2.229 2.433-.74.425-2.39 2.468.626 1.72-1.792 1.72 1.792 2.467-.626.425 2.39 2.433.74-1.004 2.229 1.625 1.87-2.115 1.36.302 2.407-2.554.06-1.117 2.18z"/><path fill="#9FDCD7" d="M61.812 46.603l-2.182 1.26-1.118-2.18-2.553-.058.301-2.407-2.114-1.36 1.625-1.87-1.004-2.23 2.433-.739.425-2.39 2.468.626 1.72-1.793 1.719 1.793L66 34.629l.425 2.39 2.433.74-1.005 2.229 1.626 1.87-2.115 1.36.302 2.407-2.554.059-1.118 2.18z"/><path fill="#9FDCD7" d="M54.927 55.25l-2.182 1.26-1.117-2.18-2.554-.058.302-2.408-2.115-1.36 1.625-1.87-1.004-2.229 2.433-.74.425-2.39 2.468.627 1.72-1.793 1.719 1.793 2.468-.626.425 2.39 2.433.74-1.004 2.228 1.625 1.87-2.115 1.36.302 2.408-2.554.059-1.118 2.18zM18.858 57.605l-2.183 1.26-1.117-2.18-2.554-.059.302-2.407-2.115-1.36 1.625-1.87-1.004-2.229 2.433-.74.425-2.39 2.468.626 1.72-1.792 1.72 1.792 2.467-.626.425 2.39 2.433.74-1.004 2.23 1.625 1.87-2.115 1.36.302 2.406-2.554.06-1.117 2.18z"/><path fill="#9FDCD7" d="M11.188 50.062l-2.182 1.26-1.118-2.18-2.554-.058.302-2.408-2.115-1.36 1.626-1.87-1.005-2.229 2.433-.74.425-2.39 2.468.627 1.72-1.793 1.72 1.793 2.467-.626.425 2.39 2.433.74-1.004 2.228 1.625 1.87-2.114 1.36.301 2.408-2.553.059-1.118 2.18z"/><path fill="#FBD4D5" d="M13.618 32.769l-2.182 1.26-1.117-2.18-2.554-.059.302-2.407-2.115-1.36 1.625-1.87-1.004-2.229 2.433-.74.425-2.39 2.468.626 1.72-1.793 1.719 1.793 2.468-.626.425 2.39 2.433.74-1.004 2.229 1.625 1.87-2.115 1.36.302 2.407-2.554.06-1.118 2.18z"/><path fill="#FBD4D5" d="M19.643 24.122l-2.183 1.26-1.117-2.18-2.554-.058.302-2.408-2.115-1.36 1.625-1.87-1.004-2.229 2.433-.74.425-2.39 2.468.627 1.72-1.793 1.72 1.793 2.467-.626.425 2.39 2.433.74-1.004 2.228 1.625 1.87-2.115 1.36.302 2.408-2.554.059-1.117 2.18z"/><path fill="#FFF" d="M30.83 18.934l-2.182 1.26-1.117-2.18-2.554-.059.302-2.407-2.115-1.36 1.625-1.87-1.004-2.229 2.433-.74.425-2.39 2.468.627 1.72-1.793 1.719 1.793 2.468-.626.425 2.39 2.433.74-1.004 2.228 1.625 1.87-2.115 1.36.302 2.407-2.554.06-1.117 2.18z"/><path fill="#EF9E9E" d="M43.74 19.799l-2.183 1.26-1.117-2.18-2.554-.059.302-2.407-2.115-1.36 1.625-1.87-1.004-2.229 2.433-.74.425-2.39 2.468.626 1.72-1.793 1.719 1.793 2.468-.626.425 2.39 2.433.74-1.004 2.229 1.625 1.87-2.115 1.36.302 2.407-2.554.06-1.117 2.18z"/><path fill="#FBD4D5" d="M54.067 26.716l-2.182 1.26-1.118-2.18-2.554-.058.302-2.408-2.115-1.36 1.625-1.87-1.004-2.229 2.433-.74.425-2.39 2.468.627 1.72-1.793 1.72 1.793 2.467-.626.425 2.39 2.433.74-1.004 2.228 1.625 1.87-2.114 1.36.301 2.408-2.554.059-1.117 2.18z"/><path fill="#EF9E9E" d="M58.37 34.498l-2.182 1.26-1.118-2.18-2.554-.059.302-2.407-2.115-1.36 1.626-1.87-1.005-2.229 2.433-.74.425-2.39 2.468.627 1.72-1.793 1.72 1.793 2.467-.626.425 2.39 2.433.74-1.004 2.228 1.625 1.87-2.114 1.36.301 2.407-2.554.06-1.117 2.18z"/><path fill="#FBD4D5" d="M29.11 26.284l-2.183 1.26-1.118-2.18-2.553-.058.301-2.408-2.114-1.36 1.625-1.87-1.004-2.229 2.433-.739.425-2.39 2.468.626 1.72-1.793 1.719 1.793 2.468-.626.425 2.39 2.433.74-1.005 2.228 1.626 1.87-2.115 1.36.302 2.408-2.554.059-1.118 2.18z"/><path fill="#FBD4D5" d="M41.158 25.42l-2.182 1.26-1.118-2.18-2.554-.06.302-2.406-2.115-1.36 1.625-1.87-1.004-2.23 2.433-.739.425-2.39 2.468.626 1.72-1.793 1.72 1.793 2.467-.626.425 2.39 2.433.74-1.004 2.229 1.625 1.87-2.115 1.36.302 2.407-2.554.059-1.117 2.18z"/><path fill="#9FDCD7" d="M46.321 58.709l-2.182 1.26-1.117-2.18-2.554-.059.301-2.407-2.114-1.36 1.625-1.87-1.004-2.229 2.433-.74.425-2.39 2.468.626 1.72-1.793 1.719 1.793 2.468-.626.425 2.39 2.433.74-1.004 2.229 1.625 1.87-2.115 1.36.302 2.407-2.554.06-1.118 2.18z"/><path fill="#9FDCD7" d="M35.133 59.573l-2.182 1.26-1.117-2.18-2.554-.058.302-2.407-2.115-1.36 1.625-1.87-1.004-2.23 2.433-.739.425-2.39 2.468.626 1.72-1.793 1.719 1.793 2.468-.626.425 2.39 2.433.74-1.004 2.229 1.625 1.87-2.115 1.36.302 2.407-2.554.059-1.117 2.18z"/><path fill="#FFF" d="M21.364 31.904l-2.182 1.26-1.118-2.18-2.554-.059.302-2.407-2.115-1.36 1.626-1.87-1.005-2.229 2.433-.74.425-2.39 2.468.627 1.72-1.793 1.72 1.793 2.467-.626.425 2.39 2.433.74-1.004 2.228 1.625 1.87-2.114 1.36.301 2.407-2.554.06-1.117 2.18z"/><path fill="#FBD4D5" d="M35.133 31.904l-2.182 1.26-1.117-2.18-2.554-.059.302-2.407-2.115-1.36 1.625-1.87-1.004-2.229 2.433-.74.425-2.39 2.468.627 1.72-1.793 1.719 1.793 2.468-.626.425 2.39 2.433.74-1.004 2.228 1.625 1.87-2.115 1.36.302 2.407-2.554.06-1.117 2.18z"/><path fill="#FBD4D5" d="M48.042 31.904l-2.182 1.26-1.117-2.18-2.554-.059.302-2.407-2.115-1.36L42 25.288l-1.004-2.229 2.433-.74.425-2.39 2.468.627 1.72-1.793 1.719 1.793 2.468-.626.425 2.39 2.433.74-1.004 2.228 1.625 1.87-2.115 1.36.302 2.407-2.554.06-1.117 2.18z"/><path fill="#FFF" d="M24.806 51.791l-2.182 1.26-1.118-2.18-2.553-.058.301-2.407-2.114-1.36 1.625-1.87-1.004-2.23 2.433-.739.425-2.39 2.468.626 1.72-1.793 1.719 1.793 2.468-.626.425 2.39 2.433.74-1.005 2.229 1.626 1.87-2.115 1.36.302 2.407-2.554.059-1.118 2.18z"/><path fill="#FBD4D5" d="M46.321 51.791l-2.182 1.26-1.117-2.18-2.554-.058.301-2.407-2.114-1.36 1.625-1.87-1.004-2.23 2.433-.739.425-2.39 2.468.626 1.72-1.793 1.719 1.793 2.468-.626.425 2.39 2.433.74-1.004 2.229 1.625 1.87-2.115 1.36.302 2.407-2.554.059-1.118 2.18z"/><path fill="#EF9E9E" d="M17.06 42.28l-2.181 1.26-1.118-2.18-2.554-.058.302-2.408-2.115-1.36 1.626-1.87-1.005-2.229 2.433-.74.425-2.39 2.468.627 1.72-1.793 1.72 1.793 2.467-.626.425 2.39 2.433.74-1.004 2.228 1.625 1.87-2.114 1.36.301 2.408-2.554.059-1.117 2.18z"/><path fill="#FBD4D5" d="M35.133 48.333l-2.182 1.26-1.117-2.18-2.554-.059.302-2.407-2.115-1.36 1.625-1.87-1.004-2.229 2.433-.74.425-2.39 2.468.626 1.72-1.793 1.719 1.793 2.468-.626.425 2.39 2.433.74-1.004 2.229 1.625 1.87-2.115 1.36.302 2.407-2.554.06-1.117 2.18z"/><path fill="#FBD4D5" d="M27.388 40.55l-2.182 1.261-1.118-2.18-2.554-.059.302-2.407-2.115-1.36 1.626-1.87-1.004-2.229 2.432-.74.426-2.39 2.467.626 1.72-1.793 1.72 1.793 2.467-.626.426 2.39 2.432.74-1.004 2.229 1.626 1.87-2.115 1.36.302 2.407-2.554.06-1.118 2.18zM53.206 41.415l-2.182 1.26-1.118-2.18-2.553-.058.301-2.407-2.114-1.36 1.625-1.87-1.004-2.23 2.433-.739.425-2.39 2.468.626 1.72-1.793 1.719 1.793 2.468-.626.425 2.39 2.433.74-1.005 2.229 1.626 1.87-2.115 1.36.302 2.407-2.554.059-1.118 2.18z"/><path fill="#FFF" d="M42.018 39.686l-2.182 1.26-1.117-2.18-2.554-.059.301-2.407-2.114-1.36 1.625-1.87-1.004-2.229 2.433-.74.425-2.39 2.468.627 1.72-1.793 1.719 1.793 2.468-.626.425 2.39 2.433.74-1.005 2.228 1.626 1.87-2.115 1.36.302 2.407-2.554.06-1.118 2.18z"/><path d="M27.447 69.662h16.536c1.3 0 2.355 1.055 2.355 2.355v29.043c0 1.3-1.054 2.355-2.355 2.355H27.447a2.355 2.355 0 0 1-2.355-2.355V72.017c0-1.3 1.054-2.355 2.355-2.355z" fill="#F6E6D7"/><path d="M32.968 83.6c-1.518 0-2.748 1.136-2.748 2.537 0 2.893 2.114 4.977 3.736 6.048.725.48 1.055.86 1.76.834.703-.026.87-.291 1.676-.834 1.628-1.096 3.818-3.221 3.818-6.048 0-1.4-1.23-2.536-2.748-2.536-1.362 0-2.785 1.259-2.785 1.259s-1.347-1.26-2.71-1.26z" fill="#F4B5B5"/></g></svg>