<svg width="102" height="116" viewBox="0 0 102 116" xmlns="http://www.w3.org/2000/svg"><title>A568BF8B-330E-40CF-8FA4-1D3346F49288</title><g fill="none" fill-rule="evenodd"><path d="M28.398 87.87v13.494l-3.932.137a3.051 3.051 0 0 0-2.94 3.158 3.05 3.05 0 0 0 3.153 2.944l3.72-.13v5.345a3.05 3.05 0 0 0 3.047 3.053 3.05 3.05 0 0 0 3.049-3.053v-5.558l4.657-.163a3.051 3.051 0 0 0 2.94-3.158 3.05 3.05 0 0 0-3.153-2.944l-4.444.155V87.87C50.32 86.337 62.69 72.978 62.69 56.725c0-17.282-13.988-31.293-31.244-31.293-17.255 0-31.243 14.01-31.243 31.293 0 16.253 12.37 29.612 28.195 31.147zM6.3 56.725c0-13.91 11.259-25.187 25.147-25.187 13.889 0 25.148 11.277 25.148 25.187 0 13.911-11.259 25.188-25.148 25.188C17.558 81.912 6.3 70.635 6.3 56.724z" fill="#9FDCD7"/><path d="M79.533 24.933l14.826-12.887-.444 6.342c-.19 2.72.21 6.518 2.924 6.708 2.72.19 3.638-3.51 3.829-6.236l.841-12.033a4.922 4.922 0 0 0-1.28-3.673 4.922 4.922 0 0 0-3.46-1.78L84.737.533c-2.726-.19-6.517.204-6.708 2.924-.16 2.283 1.163 3.474 1.594 3.504l10.453.73-14.542 12.642C63.993 9.396 45.795 8.824 33.53 19.487c-13.044 11.338-14.44 31.087-3.12 44.11 11.321 13.023 31.072 14.388 44.116 3.05 12.266-10.663 14.232-28.763 5.008-41.714zm-9.008 37.113c-10.498 9.126-26.396 8.027-35.507-2.455-9.112-10.482-7.988-26.377 2.51-35.503 10.499-9.126 26.396-8.027 35.508 2.454 9.112 10.482 7.987 26.378-2.511 35.504z" fill="#FBD4D5"/></g></svg>