<?xml version="1.0" encoding="UTF-8" standalone="no"?>
<svg width="242px" height="116px" viewBox="0 0 242 116" version="1.1" xmlns="http://www.w3.org/2000/svg" xmlns:xlink="http://www.w3.org/1999/xlink">
    <!-- Generator: Sketch 41.2 (35397) - http://www.bohemiancoding.com/sketch -->
    <title>logo</title>
    <desc>Created with Sketch.</desc>
    <defs></defs>
    <g id="Website" stroke="none" stroke-width="1" fill="none" fill-rule="evenodd">
        <g id="Home-1" transform="translate(-588.000000, -137.000000)">
            <g id="All">
                <g id="logo" transform="translate(588.000000, 137.000000)">
                    <path d="M16.25,92.1 C16.6166685,91.9333325 17.1916627,91.7416677 17.975,91.525 C18.7583373,91.3083322 19.549996,91.2 20.35,91.2 C21.750007,91.2 22.916662,91.4083312 23.85,91.825 C24.783338,92.2416687 25.349999,92.849996 25.55,93.65 C25.9166685,95.0166735 26.2583317,96.2916607 26.575,97.475 C26.8916683,98.6583392 27.1999985,99.7916612 27.5,100.875 C27.8000015,101.958339 28.0916653,103.033328 28.375,104.1 C28.6583347,105.166672 28.933332,106.283327 29.2,107.45 L29.45,107.45 C29.7500015,105.416656 30.0166655,103.475009 30.25,101.625 C30.4833345,99.7749907 30.699999,97.9583422 30.9,96.175 C31.100001,94.3916577 31.299999,92.6250087 31.5,90.875 C31.700001,89.1249912 31.899999,87.350009 32.1,85.55 C33.3333395,84.8499965 34.649993,84.5 36.05,84.5 C37.2833395,84.5 38.3499955,84.766664 39.25,85.3 C40.1500045,85.833336 40.6,86.733327 40.6,88 C40.6,88.733337 40.5250008,89.7749932 40.375,91.125 C40.2249993,92.4750067 40.0250013,93.983325 39.775,95.65 C39.5249988,97.316675 39.233335,99.0666575 38.9,100.9 C38.566665,102.733342 38.2166685,104.483325 37.85,106.15 C37.4833315,107.816675 37.1083353,109.324993 36.725,110.675 C36.3416647,112.025007 35.983335,113.066663 35.65,113.8 C35.1499975,114.266669 34.333339,114.649998 33.2,114.95 C32.066661,115.250001 30.900006,115.4 29.7,115.4 C28.1333255,115.4 26.8083388,115.191669 25.725,114.775 C24.6416612,114.358331 23.9833345,113.76667 23.75,113 C23.3166645,111.66666 22.8500025,110.083342 22.35,108.25 C21.8499975,106.416657 21.3166695,104.400011 20.75,102.2 C20.283331,104.366677 19.8000025,106.483323 19.3,108.55 C18.7999975,110.616677 18.350002,112.366659 17.95,113.8 C17.4499975,114.266669 16.700005,114.649998 15.7,114.95 C14.699995,115.250001 13.600006,115.4 12.4,115.4 C10.8999925,115.4 9.54167275,115.191669 8.325,114.775 C7.10832725,114.358331 6.3166685,113.76667 5.95,113 C5.6499985,112.399997 5.32500175,111.508339 4.975,110.325 C4.62499825,109.141661 4.2666685,107.791674 3.9,106.275 C3.5333315,104.758326 3.15833525,103.116675 2.775,101.35 C2.39166475,99.5833245 2.04166825,97.8166755 1.725,96.05 C1.40833175,94.2833245 1.116668,92.5583417 0.85,90.875 C0.583332,89.1916582 0.383334,87.650007 0.25,86.25 C0.716669,85.8166645 1.3666625,85.4166685 2.2,85.05 C3.0333375,84.6833315 3.9333285,84.5 4.9,84.5 C6.166673,84.5 7.20832925,84.7749972 8.025,85.325 C8.84167075,85.8750027 9.349999,86.7999935 9.55,88.1 C10.083336,91.500017 10.5249983,94.333322 10.875,96.6 C11.2250018,98.866678 11.5083323,100.724993 11.725,102.175 C11.9416678,103.625007 12.0999995,104.749996 12.2,105.55 C12.3000005,106.350004 12.3999995,106.983331 12.5,107.45 L12.75,107.45 C13.0500015,106.11666 13.333332,104.883339 13.6,103.75 C13.866668,102.616661 14.1416652,101.475006 14.425,100.325 C14.7083348,99.1749942 14.9999985,97.9416732 15.3,96.625 C15.6000015,95.3083267 15.916665,93.8000085 16.25,92.1 Z M45.4,89.35 C45.4,87.9166595 45.8166625,86.7833375 46.65,85.95 C47.4833375,85.1166625 48.6166595,84.7 50.05,84.7 L66.55,84.7 C66.7833345,85.0666685 66.9916658,85.549997 67.175,86.15 C67.3583342,86.750003 67.45,87.38333 67.45,88.05 C67.45,89.316673 67.1750028,90.216664 66.625,90.75 C66.0749973,91.283336 65.3500045,91.55 64.45,91.55 L53.9,91.55 L53.9,96.2 L65.15,96.2 C65.3833345,96.5666685 65.5916658,97.0416637 65.775,97.625 C65.9583343,98.2083362 66.05,98.83333 66.05,99.5 C66.05,100.766673 65.783336,101.666664 65.25,102.2 C64.716664,102.733336 64.0000045,103 63.1,103 L53.9,103 L53.9,108.25 L66.75,108.25 C66.9833345,108.616668 67.1916658,109.099997 67.375,109.7 C67.5583343,110.300003 67.65,110.93333 67.65,111.6 C67.65,112.866673 67.3750028,113.774997 66.825,114.325 C66.2749973,114.875003 65.5500045,115.15 64.65,115.15 L50.05,115.15 C48.6166595,115.15 47.4833375,114.733337 46.65,113.9 C45.8166625,113.066662 45.4,111.93334 45.4,110.5 L45.4,89.35 Z M81.5,108.5 C81.8666685,108.566667 82.316664,108.625 82.85,108.675 C83.383336,108.725 83.883331,108.75 84.35,108.75 C85.483339,108.75 86.5249953,108.583335 87.475,108.25 C88.4250047,107.916665 89.2416633,107.400003 89.925,106.7 C90.6083368,105.999996 91.1416648,105.091672 91.525,103.975 C91.9083353,102.858328 92.1,101.516674 92.1,99.95 C92.1,96.949985 91.400007,94.6916742 90,93.175 C88.599993,91.6583257 86.733345,90.9 84.4,90.9 C83.933331,90.9 83.4583358,90.9166665 82.975,90.95 C82.4916643,90.9833335 82.0000025,91.033333 81.5,91.1 L81.5,108.5 Z M84.3,115.8 C83.7333305,115.8 83.083337,115.783333 82.35,115.75 C81.616663,115.716666 80.8583373,115.65 80.075,115.55 C79.2916628,115.449999 78.5083373,115.325001 77.725,115.175 C76.9416628,115.024999 76.21667,114.816668 75.55,114.55 C73.7166575,113.849996 72.8,112.633342 72.8,110.9 L72.8,87.55 C72.8,86.8499965 72.9916648,86.3083352 73.375,85.925 C73.7583353,85.5416647 74.28333,85.2333345 74.95,85 C76.3833405,84.533331 77.899992,84.2250007 79.5,84.075 C81.100008,83.9249992 82.533327,83.85 83.8,83.85 C86.400013,83.85 88.7583228,84.1666635 90.875,84.8 C92.9916773,85.4333365 94.8083258,86.4083267 96.325,87.725 C97.8416743,89.0416732 99.0166625,90.69999 99.85,92.7 C100.683338,94.70001 101.1,97.066653 101.1,99.8 C101.1,102.46668 100.700004,104.791657 99.9,106.775 C99.099996,108.758343 97.9583408,110.424993 96.475,111.775 C94.9916593,113.125007 93.216677,114.13333 91.15,114.8 C89.083323,115.46667 86.8000125,115.8 84.3,115.8 Z M104.7,91.7 C104.466666,91.3333315 104.250001,90.8333365 104.05,90.2 C103.849999,89.5666635 103.75,88.9000035 103.75,88.2 C103.75,86.8999935 104.041664,85.9666695 104.625,85.4 C105.208336,84.8333305 105.966662,84.55 106.9,84.55 L128.7,84.55 C128.933335,84.9166685 129.149999,85.4166635 129.35,86.05 C129.550001,86.6833365 129.65,87.3499965 129.65,88.05 C129.65,89.3500065 129.358336,90.2833305 128.775,90.85 C128.191664,91.4166695 127.433338,91.7 126.5,91.7 L120.95,91.7 L120.95,114.8 C120.583332,114.9 120.008337,114.999999 119.225,115.1 C118.441663,115.2 117.666671,115.25 116.9,115.25 C116.13333,115.25 115.458336,115.191667 114.875,115.075 C114.291664,114.958333 113.800002,114.750001 113.4,114.45 C112.999998,114.149998 112.700001,113.733336 112.5,113.2 C112.299999,112.666664 112.2,111.966671 112.2,111.1 L112.2,91.7 L104.7,91.7 Z M140.35,85.6 C140.91667,85.266665 141.774994,84.9500015 142.925,84.65 C144.075006,84.3499985 145.233328,84.2 146.4,84.2 C148.066675,84.2 149.54166,84.4416642 150.825,84.925 C152.10834,85.4083357 152.933332,86.1666615 153.3,87.2 C153.900003,88.933342 154.549997,90.9499885 155.25,93.25 C155.950004,95.5500115 156.649997,97.9249877 157.35,100.375 C158.050004,102.825012 158.73333,105.241655 159.4,107.625 C160.06667,110.008345 160.649998,112.116657 161.15,113.95 C160.749998,114.416669 160.150004,114.791665 159.35,115.075 C158.549996,115.358335 157.600006,115.5 156.5,115.5 C155.699996,115.5 155.025003,115.433334 154.475,115.3 C153.924997,115.166666 153.475002,114.966668 153.125,114.7 C152.774998,114.433332 152.491668,114.083335 152.275,113.65 C152.058332,113.216664 151.866668,112.716669 151.7,112.15 L150.8,108.7 L141.75,108.7 C141.483332,109.700005 141.216668,110.733328 140.95,111.8 C140.683332,112.866672 140.416668,113.899995 140.15,114.9 C139.683331,115.066667 139.191669,115.208333 138.675,115.325 C138.158331,115.441667 137.533337,115.5 136.8,115.5 C135.099992,115.5 133.841671,115.208336 133.025,114.625 C132.208329,114.041664 131.8,113.233338 131.8,112.2 C131.8,111.733331 131.866666,111.266669 132,110.8 C132.133334,110.333331 132.283333,109.783336 132.45,109.15 C132.683335,108.249995 133.008331,107.13334 133.425,105.8 C133.841669,104.46666 134.299998,103.025008 134.8,101.475 C135.300003,99.9249922 135.833331,98.3333415 136.4,96.7 C136.966669,95.0666585 137.499998,93.5250072 138,92.075 C138.500003,90.6249927 138.958331,89.333339 139.375,88.2 C139.791669,87.066661 140.116666,86.200003 140.35,85.6 Z M146.35,92.05 C145.883331,93.450007 145.358336,95.0083247 144.775,96.725 C144.191664,98.4416752 143.666669,100.183324 143.2,101.95 L149.4,101.95 C148.933331,100.149991 148.458336,98.3916752 147.975,96.675 C147.491664,94.9583247 147.050002,93.4166735 146.65,92.05 L146.35,92.05 Z M169.9,115.15 C168.46666,115.15 167.333338,114.733337 166.5,113.9 C165.666663,113.066662 165.25,111.93334 165.25,110.5 L165.25,84.65 C165.616669,84.583333 166.199996,84.4916672 167,84.375 C167.800004,84.2583327 168.566663,84.2 169.3,84.2 C170.066671,84.2 170.741664,84.2583327 171.325,84.375 C171.908336,84.4916672 172.399998,84.6999985 172.8,85 C173.200002,85.3000015 173.499999,85.716664 173.7,86.25 C173.900001,86.783336 174,87.483329 174,88.35 L174,108.1 L185.45,108.1 C185.683335,108.466668 185.899999,108.95833 186.1,109.575 C186.300001,110.19167 186.4,110.83333 186.4,111.5 C186.4,112.83334 186.11667,113.774997 185.55,114.325 C184.983331,114.875003 184.233338,115.15 183.3,115.15 L169.9,115.15 Z M190.9,89.35 C190.9,87.9166595 191.316663,86.7833375 192.15,85.95 C192.983338,85.1166625 194.11666,84.7 195.55,84.7 L212.05,84.7 C212.283335,85.0666685 212.491666,85.549997 212.675,86.15 C212.858334,86.750003 212.95,87.38333 212.95,88.05 C212.95,89.316673 212.675003,90.216664 212.125,90.75 C211.574997,91.283336 210.850005,91.55 209.95,91.55 L199.4,91.55 L199.4,96.2 L210.65,96.2 C210.883335,96.5666685 211.091666,97.0416637 211.275,97.625 C211.458334,98.2083362 211.55,98.83333 211.55,99.5 C211.55,100.766673 211.283336,101.666664 210.75,102.2 C210.216664,102.733336 209.500005,103 208.6,103 L199.4,103 L199.4,108.25 L212.25,108.25 C212.483335,108.616668 212.691666,109.099997 212.875,109.7 C213.058334,110.300003 213.15,110.93333 213.15,111.6 C213.15,112.866673 212.875003,113.774997 212.325,114.325 C211.774997,114.875003 211.050005,115.15 210.15,115.15 L195.55,115.15 C194.11666,115.15 192.983338,114.733337 192.15,113.9 C191.316663,113.066662 190.9,111.93334 190.9,110.5 L190.9,89.35 Z M226.9,102.95 C225.433326,102.449997 224.100006,101.941669 222.9,101.425 C221.699994,100.908331 220.666671,100.283337 219.8,99.55 C218.933329,98.816663 218.258336,97.9416717 217.775,96.925 C217.291664,95.9083282 217.05,94.666674 217.05,93.2 C217.05,90.3666525 218.141656,88.1000085 220.325,86.4 C222.508344,84.6999915 225.566647,83.85 229.5,83.85 C230.933341,83.85 232.266661,83.949999 233.5,84.15 C234.73334,84.350001 235.791662,84.6583312 236.675,85.075 C237.558338,85.4916687 238.249998,86.0249967 238.75,86.675 C239.250003,87.3250032 239.5,88.083329 239.5,88.95 C239.5,89.816671 239.300002,90.5583302 238.9,91.175 C238.499998,91.7916697 238.01667,92.3166645 237.45,92.75 C236.716663,92.283331 235.73334,91.8750017 234.5,91.525 C233.266661,91.1749982 231.916674,91 230.45,91 C228.949993,91 227.850004,91.2083312 227.15,91.625 C226.449997,92.0416687 226.1,92.5666635 226.1,93.2 C226.1,93.7000025 226.316665,94.1083317 226.75,94.425 C227.183336,94.7416682 227.833329,95.033332 228.7,95.3 L231.35,96.15 C234.483349,97.150005 236.891658,98.4249922 238.575,99.975 C240.258342,101.525008 241.1,103.63332 241.1,106.3 C241.1,109.133347 239.983345,111.424991 237.75,113.175 C235.516656,114.925009 232.233355,115.8 227.9,115.8 C226.366659,115.8 224.941673,115.675001 223.625,115.425 C222.308327,115.174999 221.158338,114.808336 220.175,114.325 C219.191662,113.841664 218.425003,113.24167 217.875,112.525 C217.324997,111.80833 217.05,110.983338 217.05,110.05 C217.05,109.083328 217.333331,108.258337 217.9,107.575 C218.46667,106.891663 219.08333,106.366668 219.75,106 C220.683338,106.733337 221.824993,107.366664 223.175,107.9 C224.525007,108.433336 225.999992,108.7 227.6,108.7 C229.233342,108.7 230.38333,108.450002 231.05,107.95 C231.71667,107.449997 232.05,106.86667 232.05,106.2 C232.05,105.53333 231.783336,105.025002 231.25,104.675 C230.716664,104.324998 229.966672,103.983335 229,103.65 L226.9,102.95 Z" id="WEDTALES" fill="#333333"></path>
                    <g transform="translate(59.000000, 0.000000)">
                        <path d="M106.975138,9.9347166 L120.754291,23.7138877 C123.67125,26.6307772 123.671335,31.3508756 120.760213,34.2620498 C118.294988,36.7272145 114.517128,37.1030011 111.648655,35.3797809 C108.762848,37.2551521 104.855921,36.9336182 102.324533,34.4021952 L102.166718,34.2443546 C99.2604865,36.2956908 95.2045837,36.025775 92.6006809,33.4218464 L88.1622979,28.983472 C87.9659518,28.787143 87.7828642,28.5826273 87.6130179,28.3710232 C86.773072,28.0613919 85.9852247,27.5694196 85.3107999,26.8949948 C82.8205941,24.4047805 82.8162862,20.3532628 85.3125419,17.8570157 L93.5786355,9.5908878 C93.8826801,9.09032539 94.2509149,8.61785043 94.6834255,8.18530546 C95.1149064,7.75385035 95.5866348,7.38639652 96.0865965,7.08299546 L96.2464709,6.92306092 C98.7412163,4.42830695 102.789224,4.42603284 105.284484,6.92131887 C106.145301,7.78213518 106.709023,8.82950603 106.975138,9.9347166 Z" id="Fill-1" fill="#9FDCD7"></path>
                        <path d="M102.334051,32.2902222 L101.301727,33.0188787 C98.9539956,34.6760031 95.716504,34.4163695 93.6613463,32.3611915 L89.222957,27.9228108 C89.0665248,27.7663923 88.9197029,27.6026068 88.7825905,27.4318535 L88.5221276,27.107485 L88.1318028,26.9636016 C87.4761535,26.721913 86.8782146,26.3410892 86.37146,25.8343347 C84.4651904,23.9280585 84.4645824,20.826289 86.3732003,18.9176777 L94.7669473,10.5238932 L94.8606652,10.369602 C95.1066177,9.96468148 95.402005,9.5880735 95.7441225,9.24593224 C96.0849881,8.90508566 96.4606587,8.6105914 96.8647847,8.36534948 L97.0195185,8.27145003 L97.3073502,7.98349935 C99.2167518,6.07409059 102.315006,6.07314236 104.223818,7.98197713 C104.867828,8.62598291 105.308103,9.41904239 105.516816,10.2858551 L105.615721,10.6966206 L119.693631,24.7745472 C122.024103,27.104965 122.025587,30.8753144 119.699543,33.201399 C117.759327,35.1415682 114.74613,35.4907122 112.421103,34.0939642 L111.617427,33.61116 L110.831296,34.1220351 C108.494527,35.6406084 105.378262,35.3346311 103.3852,33.3415423 L103.227502,33.1838185 L102.334051,32.2902222 Z M106.345141,5.86065928 C103.264473,2.77995563 98.2667121,2.78148521 95.1858087,5.86240018 C94.599702,6.24923997 94.0887297,6.65871031 93.6227949,7.12461919 C93.1558704,7.59157607 92.7456329,8.10329243 92.396278,8.6519229 L84.2518794,16.7963579 C81.171503,19.8767237 81.1724834,24.8779881 84.2501379,27.9556532 C84.9651294,28.6706447 85.7978084,29.2328794 86.7074097,29.6241114 C86.8340347,29.7679163 86.9654877,29.907994 87.1016841,30.0441785 L91.5400217,34.4825076 C94.3362347,37.2787482 98.58088,37.8655438 101.981865,36.1076742 C104.739101,38.3277494 108.55543,38.6984967 111.678913,37.0939359 C115.04394,38.6751741 119.119564,38.0239531 121.82086,35.3227229 C125.318855,31.8246663 125.316624,26.1548175 121.814939,22.653215 L108.317744,9.15600419 C107.946391,7.92219029 107.276319,6.79183073 106.345141,5.86065928 Z" id="Stroke-3" fill="#4E4E4E"></path>
                        <path d="M18.4242396,9.9347166 L4.64507116,23.7138877 C1.72818208,26.6307772 1.72802341,31.3508756 4.63919365,34.2620498 C7.10436183,36.7272145 10.8822496,37.1030011 13.7507133,35.3797809 C16.6365805,37.2551521 20.543456,36.9336182 23.0748789,34.4021952 L23.2327196,34.2443546 C26.1388735,36.2956908 30.1948021,36.025775 32.7987393,33.4218464 L37.2371051,28.983472 C37.433434,28.787143 37.6165302,28.5826273 37.7863765,28.3710232 C38.6263224,28.0613919 39.4141697,27.5694196 40.0885945,26.8949948 C42.5788089,24.4047805 42.5831082,20.3532628 40.0868611,17.8570157 L31.8207246,9.5908878 C31.51674,9.09032539 31.1484709,8.61785043 30.7159345,8.18530546 C30.2844709,7.75385035 29.8128111,7.38639652 29.3128409,7.08299546 L29.1528977,6.92306092 C26.6581438,4.42830695 22.6102132,4.42603284 20.1149272,6.92131887 C19.2541109,7.78213518 18.6903538,8.82950603 18.4242396,9.9347166 Z" id="Fill-4" fill="#9FDCD7"></path>
                        <path d="M3.58441092,22.6532276 C0.0827777135,26.1548618 0.0805361539,31.8247075 3.57853269,35.3227092 C6.27977959,38.0239523 10.3554322,38.6751774 13.7204626,37.0939334 C16.8440114,38.6985107 20.660348,38.3277506 23.4175546,36.107675 C26.8184867,37.8655445 31.0631523,37.2787445 33.8593977,34.4825083 L38.2977663,30.0441311 C38.4340041,29.9078934 38.5654601,29.7678168 38.6920205,29.6240833 C39.6016112,29.2328448 40.4342945,28.6706152 41.1492547,27.955655 C44.2269153,24.8779944 44.2278957,19.87673 41.1475212,16.7963555 L33.0031193,8.65195944 C32.6538232,8.1033517 32.243548,7.59160668 31.7766,7.12465398 C31.3105837,6.65864508 30.799602,6.2491425 30.2516005,5.90044013 C27.1326472,2.78148642 22.1349689,2.77995685 19.0542663,5.86066371 C18.1230825,6.79184095 17.4529893,7.92220544 17.0816346,9.15600223 L3.58441092,22.6532276 Z M5.70573148,24.7745477 L19.7836564,10.696621 L19.8825614,10.2858551 C20.091266,9.41907666 20.5315605,8.62600571 21.1755836,7.98198703 C23.0844269,6.07314115 26.1826091,6.07408937 28.0922374,7.98371834 L28.2521892,8.1436676 L28.3800625,8.27153886 L28.5346623,8.3653554 C28.9386978,8.61053816 29.3143073,8.90500742 29.6552828,9.2459775 C29.9974429,9.58814098 30.2928143,9.96471981 30.5386266,10.3694896 L30.6323666,10.5238477 L39.0262013,18.9176762 C40.9348163,20.8262912 40.9342082,23.9280608 39.0279344,25.8343347 C38.5212041,26.3410649 37.9232303,26.7219025 37.2675565,26.963605 L36.8770882,27.1075443 L36.6165929,27.4320842 C36.4798372,27.6024622 36.3330355,27.7662213 36.1764449,27.9228118 L31.7380781,32.3611872 C29.6828918,34.4163668 26.4453779,34.676002 24.0977256,33.0188896 L23.0654827,32.2902712 L22.0142188,33.3415351 C20.021118,35.3346358 16.9048917,35.6406095 14.5680603,34.1220273 L13.7819318,33.6111643 L12.9782638,34.0939653 C10.6532465,35.4907118 7.64003246,35.1415656 5.69985308,33.2013889 C3.3738047,30.8753371 3.3752953,27.1049845 5.70573148,24.7745477 Z" id="Stroke-5" fill="#4E4E4E"></path>
                        <path d="M46.0986302,2 C37.383867,2 30.3191489,8.82692298 30.3191489,17.2483685 C30.3191489,42.423843 61.8781115,58.6133727 61.8781115,58.6133727 C61.8781115,58.6133727 93.4370397,42.6450843 93.4370397,17.2483685 C93.4370397,8.82692298 86.3723646,2 77.6576013,2 C69.8349943,2 61.6617789,9.56865298 61.6617789,9.56865298 C61.6617789,9.56865298 53.9211944,2 46.0986302,2 Z" id="Fill-6" fill="#F4B5B5"></path>
                        <path d="M61.2927392,7.23570664 C60.1889551,6.31201771 58.9592058,5.38932292 57.6307648,4.52641291 C53.7684944,2.01761369 49.8636183,0.5 46.0986302,0.5 C36.5667122,0.5 28.8191489,7.98679068 28.8191489,17.2483685 C28.8191489,28.7593103 34.9439528,39.2301847 45.0879435,48.4800542 C48.6057563,51.6877966 52.369193,54.519073 56.1331338,56.9503817 C57.4515852,57.8020323 58.6771886,58.5435696 59.7792838,59.1717347 C60.16706,59.3927568 60.5123745,59.5841491 60.8113915,59.7454938 C60.9940389,59.8440474 61.1226725,59.9116906 61.1934543,59.9480012 L61.8734271,60.2968224 L62.5553306,59.9517908 C62.6262714,59.9158959 62.755065,59.8490568 62.9378736,59.751655 C63.2370652,59.5922434 63.5825554,59.4030503 63.9705083,59.1844526 C65.0730048,58.563235 66.2990116,57.829056 67.6178699,56.9848465 C71.3828716,54.574845 75.1473429,51.7612605 78.666136,48.5649548 C88.8114332,39.3494453 94.9370397,28.8557158 94.9370397,17.2483685 C94.9370397,7.98678681 87.1895066,0.5 77.6576013,0.5 C77.3006687,0.5 76.9404729,0.514020658 76.5771786,0.541696575 C73.1276046,0.804486626 69.5263125,2.26068327 65.9300168,4.51307938 C64.5565326,5.37330636 63.277943,6.29319293 62.125005,7.21397019 C61.9724976,7.33576798 61.8262039,7.45441194 61.6863376,7.56950974 C61.563386,7.46377437 61.432099,7.35232832 61.2927392,7.23570664 Z M61.2648409,56.5653732 C60.2095851,55.9639053 59.0312831,55.2509872 57.7609134,54.4303949 C54.1282224,52.0838667 50.4950272,49.3505725 47.1093169,46.2632886 C37.5289561,37.527369 31.8191489,27.7659669 31.8191489,17.2483685 C31.8191489,9.66706392 38.201018,3.5 46.0986302,3.5 C49.1783858,3.5 52.5764212,4.82063215 55.9965675,7.04224264 C57.2169723,7.83497603 58.3514466,8.68618489 59.3674309,9.5363996 C59.7216111,9.83279122 60.0348203,10.1070618 60.303149,10.3517665 C60.4601741,10.4949669 60.5647741,10.5939106 60.6130965,10.6411597 L61.6336655,11.6390605 L62.6809536,10.6692386 C62.7330284,10.6210156 62.8443724,10.5210954 63.0107162,10.3769128 C63.294346,10.1310695 63.6245948,9.8556632 63.9971392,9.55813606 C65.0653691,8.70500968 66.2524039,7.8509926 67.5224081,7.05557618 C70.7435556,5.03813917 73.9227947,3.75260129 76.8050596,3.53302909 C77.0933964,3.51106347 77.377621,3.5 77.6576013,3.5 C85.5551986,3.5 91.9370397,9.66705769 91.9370397,17.2483685 C91.9370397,27.8631475 86.2280481,37.6431772 76.6490152,46.344319 C73.2642927,49.4188412 69.6321403,52.1335299 66.0005182,54.4581543 C64.7305581,55.2710638 63.5526622,55.9764322 62.4978101,56.5708039 C62.2771764,56.6951231 62.0718174,56.8089752 61.8825728,56.9122688 C61.6926208,56.8073371 61.486427,56.6916714 61.2648409,56.5653732 Z" id="Stroke-7" fill="#545454"></path>
                    </g>
                </g>
            </g>
        </g>
    </g>
</svg>