<svg width="152" height="28" viewBox="0 0 152 28" xmlns="http://www.w3.org/2000/svg"><title>6D5CC660-C07F-4C77-9896-5DE09E272B0F</title><g fill="none" fill-rule="evenodd"><path d="M67.832 10.475a4.72 4.72 0 0 1 .64-.213c.292-.08.586-.12.883-.12.52 0 .953.076 1.3.231.346.155.556.38.63.678l.381 1.42c.118.44.232.86.343 1.263.112.402.22.801.325 1.197.106.396.208.81.307 1.244h.093c.11-.755.21-1.476.297-2.163.086-.687.167-1.361.241-2.024.074-.662.148-1.318.223-1.968l.223-1.977c.457-.26.946-.39 1.466-.39.458 0 .854.1 1.188.297.335.198.502.533.502 1.003 0 .272-.028.659-.084 1.16-.056.501-.13 1.062-.223 1.68a63.946 63.946 0 0 1-.714 3.9 29.004 29.004 0 0 1-.418 1.68 8.665 8.665 0 0 1-.4 1.16c-.185.173-.488.315-.909.427-.42.111-.854.167-1.3.167-.581 0-1.073-.077-1.476-.232-.402-.155-.646-.375-.733-.66a38.992 38.992 0 0 1-.52-1.763c-.185-.68-.383-1.43-.594-2.246-.173.804-.353 1.59-.538 2.357a59.283 59.283 0 0 1-.502 1.95c-.185.173-.464.315-.835.427-.371.111-.78.167-1.225.167a4.65 4.65 0 0 1-1.514-.232c-.451-.155-.745-.375-.881-.66-.112-.222-.232-.553-.362-.993-.13-.439-.263-.94-.4-1.503a80.017 80.017 0 0 1-.417-1.83 55.256 55.256 0 0 1-.39-1.967 96.278 96.278 0 0 1-.325-1.922 28.051 28.051 0 0 1-.223-1.717c.173-.16.415-.31.724-.446.31-.136.644-.204 1.003-.204.47 0 .857.102 1.16.307.303.204.492.547.566 1.03.198 1.262.362 2.315.492 3.156.13.842.235 1.532.316 2.07.08.539.14.956.176 1.253.037.298.075.533.112.706h.093a144.885 144.885 0 0 1 .622-2.646c.105-.427.213-.885.324-1.374a57.13 57.13 0 0 0 .353-1.68zm10.824-1.02c0-.533.155-.954.464-1.263.31-.31.73-.464 1.263-.464h6.126c.087.136.164.315.232.538.069.223.103.458.103.705 0 .47-.103.805-.307 1.003-.204.198-.473.297-.807.297h-3.918v1.727h4.178c.086.136.164.312.232.529.068.216.102.448.102.696 0 .47-.1.805-.297 1.003-.198.198-.464.297-.799.297h-3.416v1.949h4.772c.086.136.164.316.232.538.068.223.102.458.102.706 0 .47-.102.808-.306 1.012-.205.204-.474.306-.808.306h-5.421c-.533 0-.953-.155-1.263-.464-.31-.31-.464-.73-.464-1.263V9.454zm13.405 7.11c.136.025.303.046.5.065.199.018.385.028.558.028.42 0 .807-.062 1.16-.186a2.33 2.33 0 0 0 .91-.576c.254-.26.452-.597.594-1.011.142-.415.214-.913.214-1.495 0-1.114-.26-1.952-.78-2.516-.52-.563-1.213-.844-2.08-.844a7.69 7.69 0 0 0-1.076.074v6.46zm1.04 2.71c-.211 0-.452-.006-.725-.018a10.408 10.408 0 0 1-.845-.074 14.2 14.2 0 0 1-.872-.14 4.398 4.398 0 0 1-.808-.232c-.68-.26-1.02-.711-1.02-1.355v-8.67c0-.26.07-.461.213-.604.142-.142.337-.256.584-.343a7.79 7.79 0 0 1 1.69-.344 17.284 17.284 0 0 1 1.597-.083c.965 0 1.84.117 2.627.353.786.235 1.46.597 2.023 1.086.564.489 1 1.104 1.31 1.847.309.743.463 1.621.463 2.636 0 .99-.148 1.854-.445 2.59a4.995 4.995 0 0 1-1.272 1.857 5.32 5.32 0 0 1-1.977 1.123c-.768.248-1.615.371-2.544.371zm7.574-8.948a2.404 2.404 0 0 1-.241-.557 2.452 2.452 0 0 1-.112-.743c0-.483.109-.83.325-1.04.217-.21.498-.315.845-.315h8.095c.086.136.167.322.241.557.074.235.111.482.111.742 0 .483-.108.83-.324 1.04-.217.21-.499.316-.845.316h-2.061v8.577c-.136.037-.35.074-.64.112-.291.037-.58.055-.864.055-.284 0-.535-.021-.752-.065-.216-.043-.399-.12-.547-.232a1.003 1.003 0 0 1-.335-.464c-.074-.198-.111-.458-.111-.78v-7.203h-2.785zm13.238-2.265c.21-.124.529-.242.956-.353a5.092 5.092 0 0 1 1.29-.167c.619 0 1.167.09 1.643.269.477.18.783.461.92.845.222.643.463 1.392.723 2.246.26.854.52 1.736.78 2.646a504.142 504.142 0 0 1 1.411 5.04c-.149.174-.371.313-.668.418-.297.105-.65.158-1.059.158-.297 0-.547-.025-.752-.074a1.339 1.339 0 0 1-.5-.223 1.097 1.097 0 0 1-.316-.39 3.381 3.381 0 0 1-.214-.557l-.334-1.28h-3.36c-.1.37-.199.754-.298 1.15-.099.396-.198.78-.297 1.151a4.715 4.715 0 0 1-.547.158 3.209 3.209 0 0 1-.697.065c-.63 0-1.098-.108-1.401-.325a1.045 1.045 0 0 1-.455-.9c0-.174.025-.347.074-.52.05-.173.105-.378.167-.613.087-.334.208-.749.362-1.244.155-.495.325-1.03.51-1.606.186-.575.384-1.166.595-1.773l.594-1.717a76.208 76.208 0 0 1 .873-2.404zm2.227 2.395c-.173.52-.368 1.098-.584 1.736a29.232 29.232 0 0 0-.585 1.94h2.302a97.698 97.698 0 0 0-.53-1.959c-.179-.637-.343-1.21-.491-1.717h-.112zm8.745 8.577c-.532 0-.953-.155-1.262-.464-.31-.31-.465-.73-.465-1.263V7.71c.137-.025.353-.059.65-.102.297-.043.582-.065.854-.065.285 0 .536.022.752.065.217.043.4.12.548.232.148.111.26.266.334.464.074.198.111.458.111.78v7.333h4.252c.087.136.167.319.241.548.075.229.112.467.112.715 0 .495-.105.845-.316 1.049-.21.204-.489.306-.835.306h-4.976zm7.798-9.58c0-.532.154-.953.464-1.262.31-.31.73-.464 1.262-.464h6.127c.087.136.164.315.232.538.068.223.102.458.102.705 0 .47-.102.805-.306 1.003-.204.198-.474.297-.808.297h-3.917v1.727h4.177c.087.136.164.312.232.529.068.216.102.448.102.696 0 .47-.099.805-.297 1.003-.198.198-.464.297-.798.297h-3.416v1.949h4.771c.087.136.164.316.232.538.068.223.102.458.102.706 0 .47-.102.808-.306 1.012-.204.204-.473.306-.807.306h-5.422c-.532 0-.953-.155-1.262-.464-.31-.31-.464-.73-.464-1.263V9.454zm13.367 5.05a20.484 20.484 0 0 1-1.485-.566 4.558 4.558 0 0 1-1.151-.696 2.888 2.888 0 0 1-.752-.975c-.18-.378-.27-.839-.27-1.383 0-1.052.406-1.894 1.217-2.525.81-.632 1.946-.947 3.406-.947.533 0 1.028.037 1.486.111.458.075.85.189 1.179.344.328.154.585.352.77.594.186.241.279.523.279.845 0 .321-.075.597-.223.826a2.316 2.316 0 0 1-.539.585c-.272-.174-.637-.325-1.095-.455a5.494 5.494 0 0 0-1.504-.195c-.557 0-.965.077-1.225.232-.26.155-.39.35-.39.585 0 .185.08.337.241.455.161.117.403.225.724.324l.984.316c1.164.371 2.058.845 2.683 1.42.625.576.938 1.359.938 2.349 0 1.052-.415 1.903-1.244 2.553-.83.65-2.049.974-3.658.974-.569 0-1.098-.046-1.587-.139a5.025 5.025 0 0 1-1.281-.408c-.365-.18-.65-.402-.854-.669a1.468 1.468 0 0 1-.306-.919c0-.359.105-.665.315-.919.21-.253.44-.448.687-.584.347.272.77.507 1.272.705a4.433 4.433 0 0 0 1.643.297c.606 0 1.033-.093 1.281-.278.248-.186.371-.403.371-.65a.636.636 0 0 0-.297-.566c-.198-.13-.476-.257-.835-.381l-.78-.26z" fill="#FFF"/><path d="M48.298 4.485l6.22 6.221a3.366 3.366 0 0 1-4.11 5.267 3.367 3.367 0 0 1-4.21-.44l-.071-.072a3.37 3.37 0 0 1-4.32-.372l-2.003-2.003a3.406 3.406 0 0 1-.248-.277 2.887 2.887 0 0 1-1.039-4.747L42.25 4.33a3.375 3.375 0 0 1 1.133-1.132l.072-.072a2.886 2.886 0 0 1 4.844 1.36z" fill="#9FDCD7"/><path d="M46.202 14.579l-.466.329a2.692 2.692 0 0 1-3.45-.297l-2.003-2.004a2.735 2.735 0 0 1-.199-.222l-.118-.146-.176-.065a2.21 2.21 0 0 1-.794-3.633l3.79-3.79.042-.07a2.697 2.697 0 0 1 .905-.904l.07-.043.13-.13a2.209 2.209 0 0 1 3.706 1.04l.045.185 6.356 6.356a2.69 2.69 0 0 1-3.284 4.208l-.362-.218-.355.23a2.69 2.69 0 0 1-3.362-.352l-.071-.071-.404-.403zm1.811-11.933a3.563 3.563 0 0 0-5.038 0c-.265.175-.495.36-.706.57-.21.211-.396.443-.553.69l-3.678 3.677a3.565 3.565 0 0 0 1.11 5.792c.056.065.116.128.177.19l2.004 2.003a4.048 4.048 0 0 0 4.714.734 4.047 4.047 0 0 0 4.378.445 4.044 4.044 0 0 0 4.576-6.52l-6.093-6.093a3.545 3.545 0 0 0-.89-1.488z" fill="#FFF"/><path d="M8.318 4.485l-6.22 6.221a3.366 3.366 0 0 0 4.11 5.267 3.367 3.367 0 0 0 4.21-.44l.071-.072a3.37 3.37 0 0 0 4.32-.372l2.003-2.003c.089-.089.171-.181.248-.277a2.887 2.887 0 0 0 1.039-4.747L14.367 4.33a3.373 3.373 0 0 0-1.133-1.132l-.072-.072a2.886 2.886 0 0 0-4.844 1.36z" fill="#9FDCD7"/><path d="M1.618 10.228a4.044 4.044 0 0 0 4.577 6.52 4.047 4.047 0 0 0 4.378-.446 4.048 4.048 0 0 0 4.714-.734l2.004-2.004a4.1 4.1 0 0 0 .178-.19 3.565 3.565 0 0 0 1.109-5.792L14.9 3.907a4.054 4.054 0 0 0-1.242-1.242 3.568 3.568 0 0 0-5.055-.018c-.42.42-.723.93-.89 1.488l-6.095 6.094zm.958.957L8.932 4.83l.045-.185a2.209 2.209 0 0 1 3.707-1.04l.071.073.058.057.07.043a2.685 2.685 0 0 1 .905.905l.042.07 3.79 3.789a2.21 2.21 0 0 1-.794 3.633l-.177.065-.117.146a2.73 2.73 0 0 1-.199.222L14.33 14.61a2.692 2.692 0 0 1-3.45.297l-.465-.33-.475.475a2.69 2.69 0 0 1-3.362.353l-.355-.231-.363.218a2.69 2.69 0 0 1-3.283-4.208z" fill="#FFF"/><path d="M20.813.903c-3.935 0-7.124 3.082-7.124 6.884 0 11.367 14.248 18.676 14.248 18.676s14.248-7.21 14.248-18.676c0-3.802-3.19-6.884-7.124-6.884-3.532 0-7.222 3.417-7.222 3.417S24.345.903 20.813.903z" fill="#F4B5B5"/><path d="M27.673 3.267a17.12 17.12 0 0 0-1.654-1.223C24.276.91 22.513.226 20.813.226c-4.304 0-7.802 3.38-7.802 7.561 0 5.197 2.766 9.925 7.346 14.101a38.126 38.126 0 0 0 7.098 5.086l.173.092.307.157.308-.156.173-.09a34.374 34.374 0 0 0 2.113-1.25c1.7-1.087 3.399-2.358 4.988-3.8 4.58-4.161 7.346-8.9 7.346-14.14 0-4.181-3.498-7.561-7.802-7.561a6.42 6.42 0 0 0-.488.019c-1.557.118-3.183.776-4.807 1.793a18.514 18.514 0 0 0-1.916 1.38 17.335 17.335 0 0 0-.177-.151zm-.013 22.271a36.787 36.787 0 0 1-6.391-4.651c-4.325-3.944-6.903-8.351-6.903-13.1 0-3.422 2.881-6.207 6.447-6.207 1.39 0 2.924.596 4.469 1.6a15.776 15.776 0 0 1 1.944 1.494l.14.13.46.45.474-.437a14.482 14.482 0 0 1 .594-.502c.482-.385 1.018-.77 1.591-1.13 1.455-.91 2.89-1.49 4.191-1.59.13-.01.259-.015.385-.015 3.566 0 6.447 2.785 6.447 6.207 0 4.793-2.577 9.208-6.902 13.137a36.206 36.206 0 0 1-6.667 4.771c-.086-.047-.179-.1-.279-.157z" fill="#FFF"/></g></svg>