<svg width="75" height="122" viewBox="0 0 75 122" xmlns="http://www.w3.org/2000/svg"><title>78F7D205-FB28-4067-9B66-3520ADEE8B65</title><g fill="none" fill-rule="evenodd"><path d="M0 35.782V50.11c0 9.393 7.611 17.008 17.002 17.008h.973c9.39 0 17.002-7.613 17.002-17.009V5A5 5 0 0 0 29.984 0H4.993A4.993 4.993 0 0 0 0 4.999v30.783z" fill="#F6E6D7"/><path d="M0 45.24v4.88c0 9.387 7.611 16.997 17.002 16.997h.973c9.39 0 17.002-7.609 17.002-16.997V22.02c0-2.764-2.242-5.004-4.993-5.004H4.993A5 5 0 0 0 0 22.02V45.24z" fill="#FBD4D5"/><path d="M17.488 67.59v34.031" stroke="#F6E6D7" stroke-width="3" stroke-linecap="square"/><path d="M30.25 104.93H2.836v-.13c6.602-.726 11.947-4.45 13.628-9.323h1.104c1.6 4.637 6.519 8.236 12.682 9.198v.255z" fill="#F6E6D7"/><path d="M30.25 104.93H2.836v-.13c6.602-.726 11.947-4.45 13.628-9.323h1.104c1.6 4.638 6.519 8.236 12.682 9.198v.255z" stroke="#F6E6D7" stroke-width="3"/><path d="M17.016 41.594a1.89 1.89 0 1 1-3.782 0 1.89 1.89 0 0 1 3.782 0zM23.633 33.559a1.418 1.418 0 1 1-2.836 0 1.418 1.418 0 0 1 2.836 0zM10.398 43.957a.473.473 0 1 1-.945 0 .473.473 0 0 1 .945 0zM12.29 25.05a.473.473 0 1 1-.946 0 .473.473 0 0 1 .945 0zM19.866 52.938c-1.052 0-1.905.797-1.905 1.781 0 .296.077.575.214.82l.105.167c.082.115.178.221.286.315l3.205 3.53 3.205-3.53c.107-.094.203-.2.286-.315 0 0 .126-.157.105-.166.136-.246.213-.525.213-.821 0-.984-.852-1.782-1.904-1.782-.945 0-1.729.643-1.88 1.486a1.908 1.908 0 0 0-.051 0c-.151-.843-.935-1.486-1.88-1.486z" fill="#FFF"/><path d="M39.703 50.907v14.327c0 9.393 7.611 17.008 17.002 17.008h.973c9.39 0 17.002-7.613 17.002-17.008v-45.11a5 5 0 0 0-4.993-4.999H44.696a4.993 4.993 0 0 0-4.993 4.999v30.783z" fill="#F6E6D7"/><path d="M39.703 60.365v4.88c0 9.387 7.611 16.997 17.002 16.997h.973c9.39 0 17.002-7.609 17.002-16.997V37.145c0-2.764-2.241-5.004-4.993-5.004H44.696a5 5 0 0 0-4.993 5.005v23.219z" fill="#FBD4D5"/><path d="M57.191 82.715v34.031" stroke="#F6E6D7" stroke-width="3" stroke-linecap="square"/><path d="M69.953 120.055H42.54v-.13c6.602-.726 11.947-4.45 13.628-9.323h1.104c1.6 4.637 6.519 8.236 12.682 9.198v.255z" fill="#F6E6D7"/><path d="M69.953 120.055H42.54v-.13c6.602-.726 11.947-4.45 13.628-9.323h1.104c1.6 4.638 6.519 8.236 12.682 9.198v.255z" stroke="#F6E6D7" stroke-width="3"/><path d="M56.719 56.719a1.89 1.89 0 1 1-3.782 0 1.89 1.89 0 0 1 3.782 0zM63.336 48.684a1.418 1.418 0 1 1-2.836 0 1.418 1.418 0 0 1 2.836 0zM50.102 59.082a.473.473 0 1 1-.946 0 .473.473 0 0 1 .946 0zM51.992 40.176a.473.473 0 1 1-.945 0 .473.473 0 0 1 .945 0zM59.569 22.688c-1.052 0-1.905.797-1.905 1.781 0 .296.077.575.214.82l.105.167c.082.115.178.221.286.315l3.205 3.53 3.205-3.53c.107-.094.204-.2.286-.315 0 0 .126-.157.105-.166.136-.246.214-.525.214-.821 0-.984-.853-1.782-1.905-1.782-.945 0-1.728.643-1.879 1.486a1.91 1.91 0 0 0-.052 0c-.15-.843-.935-1.485-1.879-1.485z" fill="#FFF"/></g></svg>