<svg width="86" height="100" viewBox="0 0 86 100" xmlns="http://www.w3.org/2000/svg"><title>0D21A70D-86AD-463C-9353-6B22DDB77814</title><g fill="none" fill-rule="evenodd"><path d="M2.06 0h72.298c1.08 0 1.954.875 1.954 1.954v89.885c0 1.08-.875 1.954-1.954 1.954H2.06A1.954 1.954 0 0 1 .105 91.84V1.954C.105.874.98 0 2.06 0z" fill="#D5B9AE"/><path d="M10.852 5.862h72.3c1.078 0 1.953.875 1.953 1.954v89.885c0 1.08-.875 1.954-1.954 1.954H10.852a1.954 1.954 0 0 1-1.954-1.954V7.816c0-1.08.875-1.954 1.954-1.954z" fill="#F6E6D7"/><path d="M38.521 29.31c-5.029 0-9.105 4.004-9.105 8.944 0 1.485.368 2.886 1.02 4.119l.504.835c.392.579.852 1.11 1.367 1.583l15.32 17.723 15.319-17.723a9.034 9.034 0 0 0 1.368-1.583s.603-.786.502-.834a8.777 8.777 0 0 0 1.022-4.12c0-4.94-4.077-8.944-9.106-8.944-4.514 0-8.26 3.226-8.98 7.46a8.785 8.785 0 0 0-.25 0c-.72-4.234-4.467-7.46-8.98-7.46z" fill="#9FDCD7"/><path d="M25.02 78.16h45.929" stroke="#FFF" stroke-width="2" stroke-linecap="round" stroke-dasharray="8,7,23,5"/><path d="M25.02 83.046h45.929" stroke="#FFF" stroke-width="2" stroke-linecap="round" stroke-dasharray="22,7,23,5"/></g></svg>