<?xml version="1.0" encoding="UTF-8" standalone="no"?>
<svg width="45px" height="40px" viewBox="0 0 45 40" version="1.1" xmlns="http://www.w3.org/2000/svg" xmlns:xlink="http://www.w3.org/1999/xlink">
    <!-- Generator: Sketch 41.2 (35397) - http://www.bohemiancoding.com/sketch -->
    <title>bird-yellow</title>
    <desc>Created with Sketch.</desc>
    <defs>
        <polygon id="path-1" points="44.6272222 35.9548764 44.6272222 0.05 0.0333333333 0.05 0.0333333333 35.9548764"></polygon>
        <polygon id="path-3" points="0.28147622 7.74444444 9.93855207 7.74444444 9.93855207 0.534025747 0.28147622 0.534025747"></polygon>
    </defs>
    <g id="Templates" stroke="none" stroke-width="1" fill="none" fill-rule="evenodd">
        <g id="Template1-location" transform="translate(-266.000000, -314.000000)">
            <g id="bird-yellow" transform="translate(266.000000, 314.000000)">
                <g id="Group-5">
                    <mask id="mask-2" fill="white">
                        <use xlink:href="#path-1"></use>
                    </mask>
                    <g id="Clip-2"></g>
                    <path d="M7.80555556,5.31555556 C6.97277778,4.28833333 6.02833333,3.35666667 5.22944444,2.30277778 C3.18444444,-0.395555556 4.75777778,6.53777778 5.07777778,7.37055556 C5.35444444,8.09611111 8.17833333,5.775 7.80555556,5.31555556" id="Fill-1" fill="#EF9E9E" mask="url(#mask-2)"></path>
                    <path d="M5.67,6.98 C4.60611111,6.72222222 -1.92388889,4.99333333 0.559444444,6.69111111 C1.29444444,7.19444444 2.03222222,7.69388889 2.77055556,8.19277778 C2.90555556,8.29777778 4.05277778,9.315 4.19944444,9.39888889 C4.425,9.52888889 5.75277778,7.00055556 5.67,6.98" id="Fill-3" fill="#EF9E9E" mask="url(#mask-2)"></path>
                    <path d="M42.0983333,29.7383333 C43.0405556,28.8977778 44.005,27.9944444 44.3744444,27.1672222 C45.5227778,24.5927778 42.59,24.6205556 39.0416667,25.7588889 C31.6411111,28.1327778 30.2666667,21.3977778 29.765,15.4566667 C29.2566667,9.43555556 29.6366667,6.46944444 24.3011111,2.315 C18.3355556,-2.33055556 9.05,0.682222222 5.26944444,6.71166667 C2.68388889,10.835 1.97666667,16.1933333 2.91611111,20.3605556 C4.85611111,28.97 16.4455556,35.6427778 24.9083333,33.6233333 C25.0855556,33.5811111 25.22,33.5077778 25.3155556,33.4161111 C29.4944444,35.6277778 38.135,37.72 39.7733333,33.5983333 C40.8494444,33.4588889 41.8933333,33.1661111 42.8144444,32.6488889 C45.1844444,31.3205556 44.39,30.4966667 42.0983333,29.7383333" id="Fill-4" fill="#F9C957" mask="url(#mask-2)"></path>
                </g>
                <path d="M18.4638889,18.4305556 C17.92,20.495 18.62,22.5872222 21.1816667,24.2227778 C26.2261111,27.4433333 32.5772222,27.9061111 38.3116667,26.5733333 C41.1872222,25.905 42.9966667,24.4661111 40.5416667,23.2905556 C39.8722222,22.9694444 39.2155556,22.6505556 38.5405556,22.3922222 C39.67,21.645 40.6705556,20.7955556 41.47,19.5933333 C41.9133333,18.9261111 41.1144444,18.4433333 40.5305556,18.5222222 C39.4105556,18.6727778 38.4188889,18.7172222 37.5111111,18.3511111 C39.055,17.6444444 40.2194444,16.4044444 41.0533333,14.7905556 C41.4016667,14.1183333 40.925,13.4261111 40.1755556,13.42 C33.8727778,13.3683333 20.7755556,9.65055556 18.4638889,18.4305556" id="Fill-6" fill="#FDF388"></path>
                <g id="Group-10" transform="translate(16.666667, 32.222222)">
                    <mask id="mask-4" fill="white">
                        <use xlink:href="#path-3"></use>
                    </mask>
                    <g id="Clip-8"></g>
                    <path d="M4.27277778,0.955555556 C3.62,1.95222222 0.981111111,4.46666667 0.377222222,5.49166667 C0.265,5.68166667 0.235,5.92611111 0.377222222,6.11333333 C0.45,6.21 0.523333333,6.27777778 0.631111111,6.33388889 C0.919444444,6.48444444 1.24055556,6.42111111 1.49222222,6.23777778 C2.51,5.49777778 5.10388889,2.77055556 5.79055556,1.74055556 C6.39666667,0.833888889 4.81722222,0.125555556 4.27277778,0.955555556" id="Fill-7" fill="#EF9E9E" mask="url(#mask-4)"></path>
                    <path d="M8.90388889,0.665 C7.57277778,1.61555556 3.67611111,5.63444444 2.96444444,7.10666667 C2.71333333,7.625 3.53833333,7.90777778 3.89277778,7.71888889 C5.33277778,6.94888889 8.46666667,2.85055556 9.77,1.40611111 C10.3038889,0.814444444 9.44666667,0.278333333 8.90388889,0.665" id="Fill-9" fill="#EF9E9E" mask="url(#mask-4)"></path>
                </g>
                <path d="M16.2383333,14.39 C15.6533333,13.5244444 14.6961111,12.9477778 13.6922222,12.715 C9.97444444,11.8516667 8.31555556,15.8483333 9.94333333,18.2005556 C10.7144444,19.3144444 12.5877778,20.7616667 14.6516667,19.8477778 C16.8005556,18.8966667 17.5461111,16.3255556 16.2383333,14.39" id="Fill-11" fill="#E98965"></path>
                <path d="M15.7961111,23.7216667 C15.7611111,23.7216667 15.7611111,23.7661111 15.7961111,23.7661111 C15.8305556,23.7661111 15.8305556,23.7216667 15.7961111,23.7216667" id="Fill-12" fill="#0A0A08"></path>
                <path d="M18.8688889,30.57 C17.8711111,30.66 16.9016667,30.4594444 16.01,30.0083333 C15.69,29.8472222 15.1727778,30.2361111 15.5361111,30.5188889 C16.57,31.3238889 17.8061111,31.5205556 19.0361111,31.0811111 C19.3522222,30.9683333 19.155,30.5444444 18.8688889,30.57 Z M18.2483333,27.5566667 C17.4844444,26.9755556 16.7038889,26.4222222 15.8638889,25.9555556 C15.4388889,25.7183333 14.7494444,26.3044444 15.2411111,26.6383333 C15.9883333,27.1466667 16.6677778,27.7333333 17.335,28.3422222 C17.8338889,28.7988889 18.5505556,29.6388889 19.3122222,29.4 C19.4133333,29.3688889 19.5433333,29.3061111 19.5672222,29.1888889 C19.7166667,28.4622222 18.7372222,27.9294444 18.2483333,27.5566667 Z M15.9416667,28.0788889 C14.9566667,27.7022222 13.9927778,27.0788889 13.2738889,26.3027778 C12.9994444,26.0072222 12.3594444,26.1883333 12.5883333,26.6361111 C13.1738889,27.7861111 14.3283333,28.5672222 15.5861111,28.7883333 C16.0127778,28.8633333 16.4683333,28.28 15.9416667,28.0788889 Z M13.3355556,29.3488889 C12.385,28.8561111 11.4572222,28.4327778 10.6194444,27.7488889 C10.3766667,27.5511111 9.77722222,27.7955556 10.0466667,28.1155556 C10.8611111,29.0805556 11.8261111,29.8888889 13.1388889,29.9544444 C13.4983333,29.9727778 13.6783333,29.5255556 13.3355556,29.3488889 Z M11.8116667,26.5477778 C11.5005556,26.1344444 11.0155556,25.8583333 10.6477778,25.495 C10.1922222,25.0433333 9.83944444,24.4294444 9.62111111,23.8316667 C9.50611111,23.5188889 8.95444444,23.6188889 9.01888889,23.9683333 C9.24,25.1788889 10.1805556,26.8116667 11.5422222,26.935 C11.7361111,26.9533333 11.9494444,26.7305556 11.8116667,26.5477778 Z M9.19388889,26.7833333 C8.17888889,26.0394444 7.30611111,25.1411111 6.32333333,24.3627778 C6.13666667,24.2155556 5.68777778,24.3838889 5.88333333,24.6411111 C6.65944444,25.6605556 7.43833333,26.8694444 8.69611111,27.3205556 C9.01611111,27.4355556 9.60888889,27.0883333 9.19388889,26.7833333 Z M23.3038889,30.3472222 C23.0094444,30.1472222 22.7038889,29.9305556 22.3716667,29.7988889 C22.0222222,29.6611111 21.6733333,29.5244444 21.3355556,29.3616667 C20.7672222,29.0888889 20.1283333,29.855 20.7766667,30.1744444 C21.4611111,30.5116667 22.1633333,30.7161111 22.8861111,30.9483333 C23.2172222,31.0544444 23.6716667,30.5977778 23.3038889,30.3472222 L23.3038889,30.3472222 Z" id="Fill-13" fill="#FDF388"></path>
                <path d="M33.7611111,20.9538889 C33.635,20.4177778 33.1077778,20.0983333 32.6555556,19.8572222 C32.3372222,19.6872222 31.8544444,20.0655556 32.1894444,20.3583333 C32.3694444,20.5144444 32.6716667,20.7444444 32.705,21.0027778 C32.73,21.1938889 32.4694444,21.4783333 32.3577778,21.6122222 C32.2427778,21.7494444 32.3016667,21.9566667 32.4261111,22.0616667 C32.5822222,22.1916667 32.7844444,22.1894444 32.9633333,22.1194444 C33.465,21.925 33.9,21.5438889 33.7611111,20.9538889 Z M30.3005556,19.7972222 C30.0355556,19.6661111 29.6038889,19.9805556 29.9055556,20.2188889 C30.355,20.5722222 30.665,20.8838889 30.4516667,21.4561111 C30.2661111,21.9527778 29.7461111,22.2183333 29.765,22.8066667 C29.7711111,22.985 29.9588889,23.1338889 30.1355556,23.1144444 C30.9083333,23.0316667 31.5905556,22.2705556 31.6233333,21.4772222 C31.6577778,20.645 30.9761111,20.1311111 30.3005556,19.7972222 Z M28.7905556,22.8433333 C28.6177778,22.7733333 28.4188889,22.7744444 28.27,22.8994444 C28.1161111,23.0277778 28.0944444,23.2827778 28.27,23.4077778 C28.6166667,23.655 28.5244444,24.0455556 28.5255556,24.0355556 C28.4927778,24.1988889 28.3738889,24.2966667 28.4972222,24.4372222 C28.7011111,24.67 28.9266667,24.6877778 29.1383333,24.4688889 C29.6061111,23.9866667 29.5305556,23.0822222 28.7905556,22.8433333 Z M28.9722222,20.6077778 C28.7383333,20.0505556 28.1716667,19.7261111 27.6411111,19.5066667 C27.3172222,19.3722222 27.0661111,19.7344444 27.3927778,19.9283333 C27.6755556,20.0961111 28.1011111,20.355 28.1422222,20.7172222 C28.1816667,21.0672222 27.8722222,21.4338889 27.795,21.7633333 C27.7172222,22.0977778 28.1888889,22.2966667 28.4405556,22.1505556 C28.9866667,21.8333333 29.2194444,21.1922222 28.9722222,20.6077778 Z M25.9611111,21.3866667 C25.7966667,21.2688889 25.4544444,21.3844444 25.5933333,21.6183333 C25.8322222,22.0211111 26.01,22.4283333 25.7366667,22.8588889 C25.5466667,23.1566667 25.1583333,23.3694444 25.1594444,23.7438889 C25.1605556,23.8888889 25.2877778,24.0033333 25.4222222,24.03 C26.0505556,24.1527778 26.5844444,23.5238889 26.7022222,22.9538889 C26.8377778,22.3122222 26.4661111,21.7455556 25.9611111,21.3866667 Z M26.1555556,18.97 C25.9177778,18.0772222 24.755,18.1444444 24.0472222,18.2233333 C23.7588889,18.2561111 23.7633333,18.6711111 24.0472222,18.7094444 C24.2394444,18.735 25.2127778,18.8227778 25.1477778,19.1483333 C25.0266667,19.7505556 24.3355556,20.06 24.2611111,20.6883333 C24.2294444,20.9605556 24.595,21.0716667 24.7972222,21.03 C25.5361111,20.8738889 26.3638889,19.7527778 26.1555556,18.97 Z M27.6888889,16.3266667 C27.3655556,15.7588889 26.6827778,15.53 26.0733333,15.4811111 C25.8411111,15.4627778 25.7238889,15.7572222 25.945,15.8683333 C26.3288889,16.0588889 26.7055556,16.3044444 26.8444444,16.7272222 C26.98,17.1361111 26.6861111,17.5855556 26.7572222,18.0094444 C26.8144444,18.3472222 27.2961111,18.305 27.4977778,18.1733333 C28.1172222,17.7672222 28.0077778,16.8855556 27.6888889,16.3266667 Z M30.9116667,16.7261111 C30.7227778,16.0261111 30.1466667,15.5833333 29.5044444,15.3127778 C28.7294444,14.9866667 28.1672222,16.0594444 28.9916667,16.4066667 C29.2472222,16.5138889 29.4966667,16.6694444 29.5722222,16.9511111 C29.6655556,17.2966667 29.4844444,17.6455556 29.5855556,17.9827778 C29.6983333,18.3561111 30.1,18.4505556 30.4244444,18.2877778 C30.9538889,18.0222222 31.0505556,17.2405556 30.9116667,16.7261111 L30.9116667,16.7261111 Z" id="Fill-14" fill="#F9C957"></path>
                <path d="M13.7188889,9.405 C14.4344444,7.16722222 11.9494444,6.43166667 11.2038889,7.25055556 C10.6827778,7.82333333 10.7505556,8.86166667 11.2833333,9.48 C11.8305556,10.1144444 13.4311111,10.3027778 13.7188889,9.405" id="Fill-15" fill="#CE8282"></path>
                <path d="M13.3783333,8.93388889 C13.67,8.02055556 12.6555556,7.72 12.3511111,8.05444444 C12.1377778,8.28833333 12.1655556,8.71222222 12.3833333,8.965 C12.6066667,9.22388889 13.2605556,9.30111111 13.3783333,8.93388889" id="Fill-16" fill="#FFFFFF"></path>
            </g>
        </g>
    </g>
</svg>