<?xml version="1.0" encoding="UTF-8" standalone="no"?>
<svg width="148px" height="138px" viewBox="0 0 148 138" version="1.1" xmlns="http://www.w3.org/2000/svg" xmlns:xlink="http://www.w3.org/1999/xlink">
    <!-- Generator: Sketch 41.2 (35397) - http://www.bohemiancoding.com/sketch -->
    <title>birds</title>
    <desc>Created with Sketch.</desc>
    <defs></defs>
    <g id="Templates" stroke="none" stroke-width="1" fill="none" fill-rule="evenodd">
        <g id="Template1-Cover" transform="translate(-109.000000, -349.000000)">
            <g id="birds" transform="translate(109.000000, 349.000000)">
                <path d="M78.3248889,20.5316364 C76.9629899,22.1753333 75.6182828,23.8250101 74.1173535,25.3558384 C73.4797576,26.0068889 74.576303,26.7790303 75.1339192,26.2169293 C75.2751919,26.0749091 75.4082424,25.9276566 75.5465253,25.7841414 C75.6108081,25.8985051 75.7042424,25.9986667 75.8208485,26.0786465 C75.6504242,27.0204646 77.2881414,27.4353131 77.7680202,26.6198182 C77.9294747,26.3462424 78.8854949,23.7741818 79.2211111,21.9159596 C79.4969293,20.3948485 79.3115556,19.3394141 78.3248889,20.5316364" id="Fill-1" fill="#CE8282"></path>
                <path d="M77.019798,26.6370101 C76.6116768,27.7372929 77.6925253,28.5281212 78.6814343,28.5281212 C79.5073939,28.5281212 81.7311313,26.5054545 82.2080202,25.8476768 C83.1647879,24.4207475 81.7191717,24.6397576 80.0739798,25.2661414 C78.7748687,25.7609697 77.2096566,26.1242424 77.019798,26.6370101" id="Fill-2" fill="#CE8282"></path>
                <g id="Group-6" transform="translate(59.050505, 13.454545)">
                    <path d="M9.75529293,4.662 C9.67456566,3.16406061 7.83054545,-0.927616162 6.89694949,1.61529293 C6.54563636,2.56981818 6.16890909,3.51985859 5.71145455,4.42206061 C5.26521212,2.86955556 4.64555556,1.48224242 3.82109091,0.375232323 C3.4899596,0.0493333333 2.77163636,0.217515152 2.64680808,0.669737374 C2.00547475,2.98616162 1.27743434,5.25624242 0.47389899,7.52034343 C-1.1750303,12.1771111 10.9534949,7.95836364 11.0955152,7.17426263 C11.218101,6.49181818 11.3638586,4.52446465 11.0245051,4.04832323 C10.7950303,3.72466667 10.2090101,4.80551515 9.75529293,4.662" id="Fill-3" fill="#CBE4CB"></path>
                    <path d="M28.3756364,110.533576 C37.8050303,105.434303 35.4871111,94.0016768 24.7346869,97.6949495 C24.700303,90.6230909 13.9695556,89.0511515 13.3439192,97.4811717 C4.18511111,95.785899 1.1720404,105.672747 6.91488889,109.283051 C-0.482121212,114.125939 3.94816162,123.316889 10.3151515,124.030727 C13.0793131,124.340182 15.8434747,123.279515 18.7705859,119.193818 C25.0949697,126.17299 38.2490303,116.402 28.3756364,110.533576" id="Fill-5" fill="#FFFFFF"></path>
                </g>
                <path d="M130.112182,89.6730505 C126.427879,107.29701 113.36501,122.257717 94.882202,123.401354 C93.6085051,123.535899 93.5419798,125.178848 94.882202,125.205758 C112.765535,125.56604 130.438081,107.125838 132.193899,89.9197172 C132.306768,88.8171919 130.404444,88.6968485 130.112182,89.6730505" id="Fill-7" fill="#89B571"></path>
                <g id="Group-11" transform="translate(124.080808, 65.777778)" fill="#89B571">
                    <path d="M13.8290303,7.60480808 C13.3282222,3.73214141 10.2478788,-0.812505051 5.85347475,0.734767677 C0.861838384,2.49282828 0.386444444,9.37931313 0.757191919,13.7079394 C1.06589899,17.3115152 5.63446465,30.4042828 7.90155556,25.9082222 C10.6477778,20.4568889 14.6452727,13.9291919 13.8290303,7.60480808" id="Fill-8"></path>
                    <path d="M10.3629899,30.9282626 C5.13216162,34.4929697 1.09131313,39.4883434 1.1189697,39.5892525 C2.06377778,41.2411717 4.07523232,41.8877374 6.38343434,42.0192929 C11.3541414,42.3033333 17.7809293,40.0280202 21.2275354,36.3609091 C24.0073939,33.4031515 23.9969293,30.7899798 22.9183232,29.1761818 C21.3142424,26.773798 16.7150303,26.5996364 10.3629899,30.9282626" id="Fill-10"></path>
                </g>
                <path d="M124.225071,92.9178384 C123.42602,90.3816566 119.836646,87.8484646 117.304949,89.9339192 C114.990768,91.8369899 116.346687,95.2619192 117.218242,97.5753535 C118.346929,100.563758 119.826182,104.813899 122.202404,107.034646 C122.650889,107.454727 123.583737,107.283556 123.671192,106.603354 C124.216848,102.359192 125.740202,97.7315758 124.225071,92.9178384" id="Fill-12" fill="#89B571"></path>
                <path d="M126.563172,112.628747 C121.192566,112.699758 113.724545,115.611172 114.586384,117.124061 C115.710586,119.100384 118.187717,120.451818 120.068364,121.664222 C122.11196,122.980525 124.354384,123.715293 126.772465,123.866283 C129.95297,124.064364 134.627677,122.496909 135.149414,118.92099 C135.716747,115.027394 129.807212,112.586141 126.563172,112.628747" id="Fill-13" fill="#89B571"></path>
                <path d="M111.07101,103.480404 C103.929636,103.560384 106.681091,115.978182 106.281939,120.435374 C106.022566,123.336323 108.606586,121.64703 110.943939,118.245273 C114.660384,112.83804 118.094283,103.402667 111.07101,103.480404" id="Fill-14" fill="#89B571"></path>
                <path d="M117.620384,75.8567273 C115.562586,67.7974545 103.710626,68.6323838 97.7801616,70.0555758 C86.033596,72.8735556 75.2901414,75.4269293 63.1391919,73.2129091 C57.8014747,72.2404444 52.7500404,70.7910909 47.2927273,70.4405253 C43.8834949,70.2222626 38.7842222,70.6356162 36.0753737,72.7995556 C32.0786263,73.4289293 32.7035152,78.9849091 33.2865455,79.6023232 C30.6972929,82.5114949 32.0524646,86.8565657 34.2597576,89.2058788 C36.659899,95.2910707 43.5546061,97.5955354 49.4290101,98.6569495 C60.2539394,100.613838 71.6312525,98.5448283 82.4741212,97.7315758 C91.6381616,97.0446465 102.011616,96.8899192 109.702384,91.0409293 C114.214889,87.6100202 119.183354,81.976303 117.620384,75.8567273" id="Fill-15" fill="#786C54"></path>
                <path d="M41.2374343,55.0956162 C38.3596566,56.4821818 33.8157576,58.8008485 31.2698586,60.635899 C30.7219596,61.0305657 30.9686263,61.8191515 31.4843838,62.0919798 C33.0750101,62.9328889 34.6596566,63.2094545 36.2779394,63.1631111 C36.0649091,63.5973939 36.1433939,64.1378182 36.6942828,64.3717778 C40.7470909,66.0932121 47.3510303,65.712 52.154303,63.5532929 C52.2776364,63.611596 52.4181616,63.6519596 52.5751313,63.669899 C65.3517172,65.105798 77.7231717,50.4410909 80.2541212,38.939697 C81.9561212,31.2085657 78.0819596,23.9984242 71.3741212,21.2058586 C64.4435354,18.3198586 54.6919798,20.0883838 50.9650707,29.0169697 L50.8469697,29.0042626 L50.8043636,29.4153737 C50.7228889,29.6269091 50.6429091,29.8406869 50.5666667,30.059697 C50.4762222,30.325798 50.5337778,30.5492929 50.6750505,30.7174747 C50.5584444,31.923899 50.4246465,33.3934343 50.4246465,33.7918384 C50.4246465,34.2836768 49.4544242,36.5926263 48.7480606,38.2729495 C48.5327879,38.7857172 48.3414343,39.2386869 48.1979192,39.5989697 C47.9848889,40.1311717 47.7262626,40.7149495 47.4422222,41.3562828 C46.9914949,42.3750909 46.4742424,43.540404 45.954,44.9299596 C45.5817576,45.9226061 45.1773737,46.6715758 44.8215758,47.3308485 C44.3753333,48.1575556 44.0023434,48.8489697 43.8416364,49.7317374 C43.6465455,50.8036162 42.106,53.5849697 41.2374343,55.0956162" id="Fill-16" fill="#A4B9A6"></path>
                <path d="M70.6707475,31.7347879 C70.3523232,30.8452929 69.1107677,31.0740202 68.9889293,31.9717374 C68.9896768,33.4584646 68.865596,34.9130505 67.0716566,33.4659394 C66.0094949,32.6085859 65.0930909,33.9039596 65.8256162,34.6835758 C66.7203434,35.638101 68.5359596,36.4192121 69.7177172,35.5125253 C70.7163434,34.7456162 71.0811111,32.8806667 70.6707475,31.7347879" id="Fill-17" fill="#CE8282"></path>
                <path d="M79.5851313,40.7874545 C71.4653131,56.6234545 89.7149091,72.875798 107.805293,63.8657374 C110.733899,62.4066667 112.483737,60.2412323 113.831434,58.4652323 C115.964727,55.6547273 116.047697,52.3396768 112.716202,53.2545859 C113.567576,51.088404 112.976323,50.6272121 112.495697,50.2243232 C111.389434,49.2959596 108.340485,51.3231111 106.788727,52.4570303 C107.051838,48.3578788 103.816768,39.1452525 100.322323,36.3302626 C93.9388889,31.1883838 83.2402828,33.655798 79.5851313,40.7874545" id="Fill-18" fill="#F9C959"></path>
                <path d="M81.2579798,48.4131919 C79.1291717,48.8153333 82.2685657,50.2048889 84.2112525,50.0210101 C84.3517778,51.1235354 83.1386263,54.878101 85.4640202,52.4809495 C85.8915758,52.0391919 86.2653131,51.3268485 86.4200404,50.2407677 C86.5575758,49.2854949 86.0044444,48.4042222 85.3541414,47.9557374 C84.2359192,47.182101 82.5458788,48.1702626 81.2579798,48.4131919" id="Fill-19" fill="#CE8282"></path>
                <path d="M90.8518182,47.1365051 C91.5178182,45.0547879 89.2058788,44.370101 88.5122222,45.1325253 C88.0263636,45.6654747 88.0906465,46.6312121 88.5854747,47.2067677 C89.0945051,47.7972727 90.5842222,47.9721818 90.8518182,47.1365051" id="Fill-20" fill="#CE8282"></path>
                <path d="M90.4803232,46.3232525 C90.7389495,45.5129899 89.8389899,45.2468889 89.5691515,45.5436364 C89.3807879,45.7506869 89.4054545,46.1266667 89.598303,46.3501616 C89.7971313,46.5796364 90.3764242,46.648404 90.4803232,46.3232525" id="Fill-21" fill="#FFFFFF"></path>
                <path d="M94.1975152,59.9968081 C94.0487677,59.5490707 93.8043434,59.2112121 93.4859192,58.8703636 C93.2429899,58.6124848 92.9372727,58.4248687 92.6861212,58.1752121 C92.0971111,57.5884444 90.9168485,58.431596 91.6217172,59.0811515 C92.1105657,59.5326263 92.7459192,59.8278788 93.1570303,60.3638182 C93.4612525,60.7592323 94.3970909,60.5947879 94.1975152,59.9968081 Z M91.2726465,60.2868283 C90.5154545,60.0461414 89.9055152,59.8689899 89.5923232,59.0699394 C89.3067879,58.3359192 87.9105051,58.5751111 88.1736162,59.4018182 C88.6071515,60.7592323 89.8449697,61.5889293 91.2726465,61.1748283 C91.7973737,61.0230909 91.7764444,60.4467879 91.2726465,60.2868283 Z M94.7282222,63.4202424 C94.2588081,63.3036364 93.7751919,63.2423434 93.3005455,63.1347071 C92.7825455,63.0158586 92.2832323,62.8207677 91.7854141,62.6331515 C91.1956566,62.410404 90.3412929,63.3507273 91.0349495,63.6923232 C92.0761818,64.203596 93.2631717,64.8449293 94.4628687,64.5698586 C94.7476566,64.5048283 95.016,64.3403838 95.0877576,64.0361616 C95.1475556,63.7805253 94.9928283,63.4860202 94.7282222,63.4202424 Z M88.4524242,61.670404 C88.0076768,61.3512323 87.4687475,61.1972525 86.9806465,60.9520808 C86.2944646,60.606 85.7600202,60.0850101 85.350404,59.4384444 C85.0177778,58.9129697 84.0333535,59.3659394 84.3323434,59.9616768 C85.0043232,61.2989091 86.6891313,62.9351313 88.3223636,62.2848283 C88.5488485,62.1951313 88.680404,61.8333535 88.4524242,61.670404 Z M96.9385051,62.4410505 C96.7815354,62.1293535 96.5094545,61.9634141 96.2044848,61.8154141 C95.9652929,61.6980606 95.682,61.6434949 95.4921414,61.464101 C94.8470707,60.8526667 93.5928081,61.7765455 94.3649495,62.4268485 C94.8889293,62.8678586 95.519798,62.8790707 96.1230101,63.1242424 C96.5931717,63.3133535 97.2135758,62.9859596 96.9385051,62.4410505 L96.9385051,62.4410505 Z" id="Fill-22" fill="#FDF388"></path>
                <path d="M91.4176566,64.9734949 C91.3152525,64.9084646 91.123899,64.9114545 91.0207475,64.9734949 C90.2104848,65.4586061 90.2665455,67.1979798 90.1678788,68.0157172 C90.058,68.9111919 89.9496162,69.8066667 89.8247879,70.699899 C89.7059394,71.5535152 89.4189091,72.4482424 89.6528687,73.2958788 C89.8337576,73.9499192 90.8630303,73.9932727 91.2061212,73.4692929 C92.0492727,72.179899 91.8437172,69.9434545 91.9386465,68.4514949 C91.9969495,67.547798 92.3265859,65.5430707 91.4176566,64.9734949" id="Fill-23" fill="#FDF388"></path>
                <g id="Group-27" transform="translate(81.474747, 0.000000)">
                    <path d="M14.844101,65.5101818 C14.2423838,66.7151111 13.8357576,68.0074949 13.3633535,69.2662424 C12.994101,70.254404 12.1651515,71.4227071 12.668202,72.4542222 C12.7668687,72.6545455 13.0015758,72.7898384 13.230303,72.7173333 C14.4202828,72.3391111 14.6348081,71.2836768 14.9719192,70.1654545 C15.4114343,68.7056364 15.6379192,67.1307071 15.8763636,65.6267879 C15.9668081,65.060202 15.0347071,65.1267273 14.844101,65.5101818" id="Fill-24" fill="#FDF388"></path>
                    <path d="M11.4348687,6.24888889 C10.6395556,6.89620202 9.93244444,7.66909091 9.22010101,8.45244444 C9.47274747,5.40050505 9.52955556,4.37646465 9.09153535,2.99662626 C7.84773737,-0.934343434 4.2239798,0.281050505 2.32165657,6.10014141 C0.889494949,10.4810909 1.84626263,15.7941414 0.743737374,19.9112323 C0.438767677,21.0533737 1.98006061,21.9368889 2.90468687,21.3927273 C6.06575758,19.536 11.455798,16.9646869 15.3718182,13.8275354 C21.4076768,8.99361616 19.550202,-0.361777778 11.4348687,6.24888889" id="Fill-26" fill="#EF9E9E"></path>
                </g>
                <path d="M97.4131515,49.4716162 C96.925798,48.751798 96.1297374,48.2719192 95.2948081,48.0783232 C92.2032525,47.36 90.8234141,50.6847677 92.1763434,52.6409091 C92.8176768,53.5670303 94.3761616,54.7719596 96.0938586,54.0117778 C97.8803232,53.2209495 98.4999798,51.0816768 97.4131515,49.4716162" id="Fill-28" fill="#EE9A5F"></path>
                <path d="M68.7519798,39.3807071 C68.2653737,38.6608889 67.4685657,38.1810101 66.6336364,37.9874141 C63.5413333,37.2690909 62.1622424,40.5938586 63.5151717,42.55 C64.1565051,43.4761212 65.7149899,44.6810505 67.4326869,43.9208687 C69.2191515,43.1300404 69.8395556,40.9907677 68.7519798,39.3807071" id="Fill-29" fill="#E4A27B"></path>
                <path d="M84.1245455,46.0152929 C84.7905455,43.9335758 82.4786061,43.2488889 81.7849495,44.0113131 C81.2990909,44.5442626 81.3633737,45.51 81.858202,46.0855556 C82.3672323,46.6760606 83.8569495,46.8509697 84.1245455,46.0152929" id="Fill-30" fill="#CE8282"></path>
                <path d="M77.9601212,117.59497 C73.2069293,117.20404 71.4503636,123.703333 75.7087273,125.557071 C77.5923636,126.377051 80.0463232,125.759636 80.8461212,123.481333 C81.7191717,120.992242 80.9933737,117.845374 77.9601212,117.59497" id="Fill-31" fill="#F9C959"></path>
                <path d="M17.5596768,92.1957778 C21.2439798,109.819737 34.3068485,124.780444 52.7896566,125.924081 C54.0633535,126.058626 54.1313737,127.701576 52.7896566,127.728485 C34.9055758,128.088768 17.2330303,109.648566 15.4772121,92.4424444 C15.3650909,91.3399192 17.2674141,91.2195758 17.5596768,92.1957778" id="Fill-32" fill="#89B571"></path>
                <g id="Group-36" transform="translate(0.000000, 68.020202)" fill="#89B571">
                    <path d="M9.76276768,7.88511111 C10.2628283,4.01244444 13.3431717,-0.53220202 17.7375758,1.01507071 C22.7284646,2.77313131 23.2046061,9.65961616 22.8331111,13.9882424 C22.5251515,17.5918182 17.9558384,30.6845859 15.6894949,26.1885253 C12.9440202,20.7371919 8.94577778,14.2094949 9.76276768,7.88511111" id="Fill-33"></path>
                    <path d="M13.2280606,31.2085657 C18.4588889,34.7732727 22.4997374,39.7686465 22.4728283,39.8695556 C21.5272727,41.5214747 19.5158182,42.1680404 17.2076162,42.299596 C12.2369091,42.5836364 5.81012121,40.3083232 2.36351515,36.6412121 C-0.416343434,33.6834545 -0.405131313,31.0702828 0.671979798,29.4564848 C2.27680808,27.054101 6.8760202,26.8799394 13.2280606,31.2085657" id="Fill-35"></path>
                </g>
                <path d="M23.4467879,95.4405657 C24.2458384,92.9036364 27.8352121,90.3711919 30.3676566,92.4566465 C32.6810909,94.3597172 31.3251717,97.7846465 30.4528687,100.097333 C29.3249293,103.086485 27.8456768,107.336626 25.4694545,109.557374 C25.0209697,109.977455 24.0881212,109.806283 24.0014141,109.126081 C23.4550101,104.881919 21.9309091,100.254303 23.4467879,95.4405657" id="Fill-37" fill="#89B571"></path>
                <path d="M21.1086869,115.151475 C26.4800404,115.222485 33.9480606,118.133899 33.0854747,119.646788 C31.9620202,121.623111 29.4833939,122.974545 27.6034949,124.186202 C25.5591515,125.503253 23.3167273,126.23802 20.8993939,126.38901 C17.7188889,126.587091 13.0441818,125.019636 12.5224444,121.443717 C11.9551111,117.550121 17.863899,115.108121 21.1086869,115.151475" id="Fill-38" fill="#89B571"></path>
                <path d="M36.6008485,106.003131 C43.7422222,106.083111 40.9915152,118.500909 41.3899192,122.958101 C41.6500404,125.859051 39.0652727,124.16901 36.7279192,120.768 C33.0122222,115.360768 29.5775758,105.925394 36.6008485,106.003131" id="Fill-39" fill="#89B571"></path>
                <path d="M63.1010707,38.6362222 C61.169596,27.320202 48.4640202,27.5347273 43.5501212,35.1836364 C40.2589899,40.3068283 38.3731111,47.5289293 35.474404,51.9696768 C35.046101,52.6244646 35.4886061,53.5049899 36.2390707,53.6477576 C38.0823434,53.9998182 39.5892525,53.7658586 41.0924242,53.161899 C40.8315556,53.8062222 40.5034141,54.4228889 40.0414747,55.0066667 C39.4330303,55.7758182 40.3606465,56.5232929 41.0640202,56.5845859 C42.3429495,56.6952121 43.4409899,56.5255354 44.4657778,56.137596 C44.5607071,56.4948889 44.8522222,56.8043434 45.2491313,56.8678788 C54.6486263,58.3762828 64.5354747,48.9715556 63.1010707,38.6362222" id="Fill-40" fill="#CBE4CB"></path>
                <path d="M46.9010505,48.0028283 C46.1363838,48.7525455 45.3971313,48.8108485 45.3612525,47.1544444 C45.3791919,46.8061212 44.6870303,46.6648485 44.6010707,47.2972121 C44.4657778,48.2995758 45.0248889,49.712303 46.2335556,49.5844848 C46.694,49.535899 47.0610101,49.2660606 47.8234343,48.4879394 C48.2950909,47.9467677 47.7202828,47.1985455 46.9010505,48.0028283 Z M55.7586263,46.8823636 C54.9939596,47.6320808 54.2547071,47.6896364 54.2195758,46.0332323 C54.2375152,45.6849091 53.5438586,45.5443838 53.4586465,46.176 C53.3233535,47.1783636 53.8817172,48.5910909 55.0911313,48.4632727 C55.5515758,48.4146869 55.9193333,48.1448485 56.6810101,47.3667273 C57.1526667,46.8255556 56.5778586,46.0773333 55.7586263,46.8823636 Z M52.7836768,45.4666465 C52.5190707,45.2431515 52.1490707,45.2760404 51.8807273,45.4666465 C51.5712727,45.6856566 50.9867475,45.9779192 50.7520404,45.8560808 C50.3917576,45.6714545 50.4493131,44.932202 50.4485657,44.725899 C50.4485657,43.5964646 49.0993737,43.5964646 49.0993737,44.725899 C49.0911515,47.6657172 51.0876566,48.0828081 52.8830909,46.1184444 C53.0475354,45.9173737 52.9668081,45.6206263 52.7836768,45.4666465 Z M47.597697,43.570303 C46.2440202,43.7818384 45.673697,43.8042626 45.5227071,42.2285859 C45.450202,41.4833535 44.429899,41.6926465 44.3656162,42.3803232 C44.2714343,43.3879192 44.3902828,44.3297374 45.2356768,44.9740606 C46.1184444,45.6445455 47.3854141,45.2095152 48.188202,44.6586263 C48.8407475,44.2101414 48.2218384,43.4746263 47.597697,43.570303 Z M58.4973737,42.1351515 C57.2154545,42.6852929 57.0442828,42.6808081 57.0779192,40.7358788 C57.0861414,40.2380606 56.1390909,39.8015354 55.8176768,41.1215758 C55.6001616,42.0103232 55.5433535,42.9805455 56.2444848,43.6652323 C57.1945253,44.5943434 58.7006869,43.8737778 59.4018182,42.9282222 C59.8884242,42.2719394 59.0138788,41.913899 58.4973737,42.1351515 Z M53.5543232,40.5564848 C51.962202,41.4646667 51.7245051,40.9548889 51.6250909,39.2080404 C51.5839798,38.4912121 50.4896768,38.6048283 50.4119394,39.2543838 C49.8789899,41.2366869 51.297697,44.192202 54.5671515,41.4183232 C55.0133939,40.7568081 54.123899,40.2320808 53.5543232,40.5564848 Z M50.2587071,38.5323232 C50.0165253,38.1802626 49.5568283,38.1451313 49.1920606,38.2931313 C47.8025051,38.8574747 46.9010505,38.731899 47.4952929,36.8310707 C47.6044242,36.4805051 47.1282828,36.288404 46.8644242,36.4319192 C46.2103838,36.4745253 44.5009091,42.4281616 49.9821414,39.309697 C50.2377778,39.1332929 50.4246465,38.7745051 50.2587071,38.5323232 Z M51.4217778,49.5665455 C50.2205859,50.2519798 50.0411919,49.8677778 49.965697,48.5492323 C49.9350505,48.0080606 49.1098384,48.0940202 49.0507879,48.5843636 C48.6486465,50.0800606 49.7197778,52.3105253 52.1864444,50.217596 C52.5235556,49.7175354 51.8523232,49.3221212 51.4217778,49.5665455 L51.4217778,49.5665455 Z" id="Fill-41" fill="#A4B9A6"></path>
                <path d="M63.3230707,73.5395556 C62.7093939,72.2254949 61.4229899,70.8426667 60.4467879,68.8132727 C59.5273939,66.9027273 58.9204444,64.3672929 58.2110909,62.3707879 C57.8186667,61.3542222 55.9170909,61.7137576 56.3020404,62.8289899 C56.7677172,64.573596 58.1288687,72.7128485 62.5636364,74.3909293 C62.9725051,74.4126061 63.5166667,73.9962626 63.3230707,73.5395556" id="Fill-42" fill="#CBE4CB"></path>
                <path d="M69.2752121,74.620404 C66.9266465,69.5390707 64.0144848,65.6230505 62.8671111,59.6641818 C62.7579798,59.1005859 61.1890303,60.0304444 61.1920202,60.6097374 C61.5717374,64.9503232 64.8703434,72.4467475 67.8116566,75.3536768 C68.302,75.7924444 69.6504444,75.4299192 69.2752121,74.620404" id="Fill-43" fill="#CBE4CB"></path>
                <path d="M66.5245051,51.1115758 C66.0326667,51.4464444 65.4989697,51.696101 65.0235758,52.0578788 C64.5676162,52.4047071 64.1497778,52.7993737 63.759596,53.2194545 C63.0412727,53.9930909 64.2402222,54.8444646 64.9361212,54.2270505 C65.3696566,53.8443434 65.845798,53.5184444 66.288303,53.1469495 C66.7599596,52.7492929 67.146404,52.2484848 67.5014545,51.7446869 C67.932,51.1302626 66.9535556,50.8200606 66.5245051,51.1115758 Z M65.0295556,54.8489495 C63.6325253,55.9021414 62.2332525,56.9740202 60.6306667,57.6960808 C59.7792929,58.0802828 60.620202,58.9929495 61.3377778,58.7208687 C63.1713333,58.0234747 64.7963434,57.0420404 66.0065051,55.4820606 C66.4557374,54.9020202 65.4518788,54.5305253 65.0295556,54.8489495 Z M61.9656566,53.6754141 C60.0663232,54.2502222 58.3845051,55.1449495 56.8013535,56.3379192 C56.1562828,56.8237778 57.1481818,57.4785657 57.6923434,57.0883838 C59.1506667,56.0411717 60.7809091,55.2974343 62.3700404,54.4744646 C62.9067273,54.197899 62.4784242,53.5206869 61.9656566,53.6754141 Z M57.942,58.8008485 C57.4972525,58.993697 57.0756768,59.2381212 56.6339192,59.4391919 C56.1495556,59.659697 55.633798,59.807697 55.1255152,59.9601818 C54.5208081,60.1410707 54.4116768,61.405798 55.1703636,61.2570505 C56.3080202,61.0328081 57.6415152,60.8220202 58.4286061,59.8764646 C58.6154747,59.6522222 58.7290909,59.3592121 58.6005253,59.0736768 C58.4936364,58.8337374 58.192404,58.6924646 57.942,58.8008485 Z M53.4638788,58.6124848 C52.6984646,59.184303 51.7088081,59.4339596 50.7841818,59.598404 C50.1637778,59.7082828 50.1376162,60.6082424 50.7841818,60.6964444 C52.2552121,60.8960202 53.5894545,60.4684646 54.5507071,59.3210909 C55.0754343,58.6947071 53.9332929,58.2611717 53.4638788,58.6124848 Z M69.042,50.9957172 C68.5015758,52.0459192 67.7458788,52.9638182 67.0903434,53.9415152 C66.6201818,54.6448889 67.8662222,55.1427071 68.286303,54.5327677 C68.9866869,53.5154545 69.8649697,52.6192323 70.1310707,51.3799192 C70.2566465,50.7968889 69.3103434,50.4754747 69.042,50.9957172 L69.042,50.9957172 Z" id="Fill-44" fill="#CBE4CB"></path>
                <path d="M83.8928283,45.3066869 C84.1514545,44.4971717 83.2522424,44.2310707 82.983899,44.5270707 C82.7940404,44.7348687 82.8187071,45.110101 83.0115556,45.3343434 C83.2096364,45.5638182 83.7896768,45.6318384 83.8928283,45.3066869" id="Fill-45" fill="#FFFFFF"></path>
                <path d="M43.8782626,89.806101 C43.2653333,89.5026263 42.6890303,89.154303 42.1560808,88.7566465 C42.565697,88.6034141 42.9812929,88.4673737 43.3998788,88.3477778 C44.1899596,88.8381212 44.9994747,89.2985657 45.820202,89.7418182 C45.1728889,89.7530303 44.5255758,89.7739596 43.8782626,89.806101 Z M56.1682424,90.2628081 C56.6197172,90.2755152 57.0577374,90.2882222 57.4785657,90.3024242 C62.707899,90.487798 67.6232929,89.6588485 72.8578586,89.7530303 C65.5146667,90.6178586 63.8986263,91.0558788 56.1682424,90.2628081 Z M45.9211111,82.0891717 C45.5227071,82.1183232 45.1250505,82.1497172 44.7266465,82.185596 C44.3476768,82.2192323 43.9926263,82.4300202 43.7489495,82.7118182 C43.1689091,82.0936566 42.594101,81.489697 41.9998586,80.971697 C43.2653333,81.4852121 44.577899,81.8395152 45.9211111,82.0891717 Z M50.409697,84.1843434 C56.3184848,84.0228889 62.263899,84.2815152 68.1569899,83.9944848 C64.7896162,84.5087475 53.0011919,84.9946061 50.409697,84.1843434 Z M107.702889,81.5808889 C107.131818,81.9419192 106.542061,82.2835152 105.954545,82.6049293 C106.401535,82.1414949 107.126586,81.8701616 107.702889,81.5808889 Z M101.667778,86.3871515 C101.099697,86.7504242 99.6383838,87.512101 99.0934747,87.9067677 C99.1495354,87.3626061 101.283576,86.2847475 101.667778,86.3871515 Z M73.8385455,93.0411717 C73.8931111,93.0658384 73.9476768,93.0897576 74.0022424,93.1129293 C70.5758182,93.8469495 67.6023636,94.5413535 64.1109091,94.1197778 C67.7032727,93.7041818 69.8552525,92.5403636 73.8385455,93.0411717 Z M85.9453939,84.4952929 C81.858202,86.2944646 81.5539798,85.9132525 77.1849899,86.2369091 C80.1442424,85.811596 83.0474343,85.2367879 85.9453939,84.4952929 Z M98.4409293,76.9786869 C98.1374545,77.2320808 97.8309899,77.4817374 97.5200404,77.7276566 C92.0395556,80.0590303 85.8990505,81.1137172 80.1203232,82.0181616 C82.332101,78.6111717 93.7968687,77.7426061 98.4409293,76.9786869 Z M99.7333131,81.8649293 C102.161111,78.4504646 100.909838,78.9258586 105.289293,77.1035152 C105.408141,77.2223636 105.547919,77.3225253 105.705636,77.3995152 C103.841434,79.0402222 101.838202,80.526202 99.7333131,81.8649293 Z M98.4476566,80.3677374 C95.0787879,85.2248283 92.9679192,86.5403838 87.1727475,86.1255354 C91.5417374,84.3891515 94.5301414,82.1631717 98.4476566,80.3677374 Z M59.3980808,78.9198788 L59.6791313,79.0379798 C57.3828889,79.5477576 55.1643838,78.912404 52.9025253,78.2800404 C55.0694545,78.5633333 57.217697,78.765899 59.3980808,78.9198788 Z M54.0566263,76.9278586 C51.7521616,76.7409899 49.4499394,76.530202 47.1394949,76.4128485 C46.5041414,76.3807071 46.3127879,77.2851515 46.9795354,77.3950303 C48.3414343,77.6162828 49.7033333,77.8308081 51.0667273,78.0273939 C47.7292525,77.654404 43.0366061,77.7246667 40.2126465,75.7072323 C44.7131919,74.4253131 49.6614747,75.5338182 54.0566263,76.9278586 Z M55.8438384,75.4478586 C55.0754343,75.2064242 54.2487273,74.9522828 53.3876364,74.7138384 C60.5088283,75.3589091 67.6591717,77.4279192 74.7968081,78.5797778 C72.5910101,78.8316768 58.3426465,76.2334545 55.8438384,75.4478586 Z M104.725697,72.2927677 C104.682343,72.3062222 104.636747,72.3189293 104.591899,72.3308889 C102.689576,72.8257172 100.765576,73.2114141 98.8378384,73.5963636 C90.8361212,75.1944646 88.5167071,77.5034141 79.5410303,76.753697 C83.6394343,76.3911717 103.130586,70.847899 104.725697,72.2927677 Z M98.0836364,93.211596 C100.610848,92.2974343 104.092586,90.8772323 106.895616,90.0983636 C104.910323,91.1777172 101.341879,92.2234343 99.175697,92.8939192 C98.8131717,93.0060404 98.448404,93.1114343 98.0836364,93.211596 L98.0836364,93.211596 Z" id="Fill-46" fill="#B8A280"></path>
                <path d="M110.18899,57.0614747 C110.262242,52.511596 105.96202,45.9569899 101.765697,44.1944444 C98.2951717,42.7353737 97.1694747,44.6100404 96.8480606,45.9689495 C96.1768283,48.810101 96.9183232,51.1108283 98.3377778,52.8980404 C101.883798,57.3649495 109.663515,58.6214545 110.18899,57.0614747" id="Fill-47" fill="#FDF388"></path>
            </g>
        </g>
    </g>
</svg>