<?xml version="1.0" encoding="UTF-8" standalone="no"?>
<svg width="75px" height="145px" viewBox="0 0 75 145" version="1.1" xmlns="http://www.w3.org/2000/svg" xmlns:xlink="http://www.w3.org/1999/xlink">
    <!-- Generator: Sketch 41.2 (35397) - http://www.bohemiancoding.com/sketch -->
    <title>blue flower</title>
    <desc>Created with Sketch.</desc>
    <defs>
        <polygon id="path-1" points="89.1023077 29.0979792 89.1023077 0.379615385 0 0.379615385 0 158.007692 89.1023077 158.007692 89.1023077 29.0979792 89.1028502 0.379684483 59.8242216 0.379684483 59.8242216 29.0979792 89.1023077 29.0979792"></polygon>
        <polygon id="path-3" points="0.073345754 137.238462 62.1180506 137.238462 62.1180506 0.920573197 0.073345754 0.920573197 0.073345754 137.238462"></polygon>
    </defs>
    <g id="Templates" stroke="none" stroke-width="1" fill="none" fill-rule="evenodd">
        <g id="Template1-Gallery2" transform="translate(-282.000000, -471.000000)">
            <g id="All">
                <g id="Group">
                    <g id="blue-flower" transform="translate(282.000000, 457.000000)">
                        <g id="Group-3">
                            <mask id="mask-2" fill="white">
                                <use xlink:href="#path-1"></use>
                            </mask>
                            <g id="Clip-2"></g>
                            <path d="M67.4296154,4.22307692 C70.0315385,0.228461538 77.9676923,-1.83461538 78.4569231,4.01653846 C83.67,2.43461538 88.5080769,6.56884615 86.0134615,11.4876923 C88.86,11.6538462 89.6307692,14.3226923 88.77,17.5903846 C87.2953846,23.1726923 81.9657692,26.2223077 76.7596154,27.6542308 C74.5880769,28.2496154 60.6357692,30.3669231 60.1892308,28.0096154 C58.5392308,19.3188462 62.7519231,11.4034615 67.4296154,4.22307692" id="Fill-1" fill="#C2BFD5" mask="url(#mask-2)"></path>
                        </g>
                        <path d="M67.5726923,14.0815385 C68.145,13.8911538 68.625,14.6273077 68.2073077,15.0703846 C65.1992308,18.3 62.3053846,20.8684615 62.3053846,25.6292308 C62.3053846,26.1553846 61.5657692,26.4623077 61.2726923,25.9580769 C59.1415385,22.2553846 64.0338462,15.2573077 67.5726923,14.0815385" id="Fill-4" fill="#948EB9"></path>
                        <path d="M62.6273077,25.38 C64.9534615,22.3903846 67.6984615,18.2123077 71.3353846,16.7503846 C71.9030769,16.5230769 72.3773077,17.3157692 71.9734615,17.7369231 C70.5853846,19.1826923 68.985,20.3734615 67.6257692,21.8676923 C66.2896154,23.3365385 65.1069231,24.9438462 63.6842308,26.3330769 C63.0242308,26.9769231 62.0665385,26.1046154 62.6273077,25.38" id="Fill-5" fill="#948EB9"></path>
                        <g id="Group-9" transform="translate(12.692308, 20.769231)">
                            <mask id="mask-4" fill="white">
                                <use xlink:href="#path-3"></use>
                            </mask>
                            <g id="Clip-7"></g>
                            <path d="M50.5026923,5.59153846 C54.8503846,5.42769231 57.525,3.05192308 61.1226923,1.00615385 C61.7215385,0.665769231 62.4634615,1.41461538 61.9407692,1.95576923 C59.1611538,4.81846154 54.5457692,7.71807692 50.3884615,7.00384615 C49.5865385,6.86538462 49.7030769,5.62269231 50.5026923,5.59153846" id="Fill-6" fill="#948EB9" mask="url(#mask-4)"></path>
                            <path d="M24.6392308,31.3684615 C27.5296154,26.2823077 31.1526923,21.7292308 35.31,17.6226923 C39.4315385,13.5519231 44.1980769,10.2542308 47.6423077,5.52115385 C48.2226923,4.72384615 49.3292308,5.75307692 48.7707692,6.54 C45.6288462,10.9811538 41.34,14.295 37.3696154,17.9503846 C32.5823077,22.3580769 28.7319231,27.5769231 25.5369231,33.2226923 C19.4446154,43.9892308 15.0807692,55.3869231 12.0196154,67.3534615 C9.02884615,79.035 6.585,91.3119231 5.73346154,103.35 C4.94307692,114.546923 5.55576923,125.964231 1.74807692,136.707692 C1.39615385,137.698846 -0.212307692,137.382692 0.117692308,136.341923 C3.81115385,124.726154 3.08307692,112.810385 4.18730769,100.836923 C5.30884615,88.6546154 7.83461538,76.35 10.9534615,64.5357692 C14.0365385,52.8565385 18.6726923,41.8626923 24.6392308,31.3684615" id="Fill-8" fill="#A5B78B" mask="url(#mask-4)"></path>
                        </g>
                        <path d="M39.3634615,41.0665385 C39.7776923,40.2911538 40.8507692,40.8946154 40.5461538,41.6769231 C39.1396154,45.3069231 37.44,48.8203846 36.0069231,52.4446154 C34.2473077,56.9030769 33.2469231,61.4226923 32.0526923,66.0380769 C31.8646154,66.7673077 30.6161538,66.7257692 30.6819231,65.9134615 C31.3823077,57.45 35.4092308,48.4823077 39.3634615,41.0665385" id="Fill-10" fill="#A5B78B"></path>
                        <path d="M35.1069231,69.8146154 C39.5053846,66.2515385 45.3219231,65.3307692 49.9557692,62.16 C50.7126923,61.6419231 51.3773077,62.7657692 50.7126923,63.3230769 C46.9453846,66.4880769 41.8338462,67.455 37.6661538,69.9773077 C32.2165385,73.2773077 29.7057692,78.8134615 25.9707692,83.625 C25.4780769,84.2573077 24.6415385,83.5280769 24.8976923,82.8842308 C26.9065385,77.8465385 30.9415385,73.1907692 35.1069231,69.8146154" id="Fill-11" fill="#A5B78B"></path>
                        <path d="M14.8742308,91.32 C14.8592308,99.4580769 18.2619231,106.891154 18.7384615,114.919615 C18.7996154,115.959231 17.2730769,115.985769 17.1461538,114.981923 C16.1838462,107.440385 11.9607692,98.8430769 13.5069231,91.1953846 C13.6615385,90.4315385 14.8753846,90.5307692 14.8742308,91.32" id="Fill-12" fill="#A5B78B"></path>
                        <g id="Group-16" transform="translate(0.000000, 70.384615)">
                            <path d="M16.9615385,58.8634615 C20.1796154,54.2307692 23.6411538,49.8011538 26.73,45.0634615 C29.5119231,40.7942308 32.1657692,36.3934615 35.3123077,32.3769231 C35.8084615,31.7469231 36.9138462,32.505 36.4719231,33.1811538 C33.4973077,37.7273077 30.4857692,42.2492308 27.5238462,46.8046154 C24.6611538,51.21 21.78,56.1207692 18.0023077,59.8003846 C17.3388462,60.4476923 16.4561538,59.5892308 16.9615385,58.8634615" id="Fill-13" fill="#A5B78B"></path>
                            <path d="M12.9069231,12.3011538 C13.7296154,14.9446154 14.8915385,17.7726923 14.16,20.565 C12.9403846,25.2196154 7.24153846,21.8734615 5.19461538,20.0642308 C1.26,16.5911538 -1.18153846,10.3823077 0.583846154,5.26846154 C5.325,-8.475 11.8765385,8.99653846 12.9069231,12.3011538" id="Fill-15" fill="#948EB9"></path>
                        </g>
                        <path d="M10.9407692,70.2969231 C18.63,59.9630769 22.11,104.928462 9.95307692,91.7953846 C7.81730769,89.4876923 6.62307692,86.0480769 5.59269231,83.1426923 C4.71230769,80.6596154 4.08923077,78.3680769 4.56576923,75.7638462 C5.19230769,72.3346154 7.8,67.0488462 10.9407692,70.2980769 L10.9407692,70.2969231" id="Fill-17" fill="#C2BFD5"></path>
                        <path d="M16.3223077,82.8265385 C17.0330769,86.1519231 16.1111538,90.0957692 14.9146154,93.2088462 C14.6215385,93.9680769 13.4665385,93.4857692 13.6176923,92.7380769 C14.2903846,89.4138462 14.7946154,86.2523077 15.1396154,82.8796154 C15.1984615,82.2773077 16.1988462,82.245 16.3223077,82.8276923 L16.3223077,82.8265385" id="Fill-18" fill="#948EB9"></path>
                        <path d="M11.2615385,82.5634615 C12.0565385,85.7930769 12.9426923,89.2096154 13.2357692,92.5257692 C13.3038462,93.2792308 12.12,93.4857692 11.9273077,92.7565385 C11.0723077,89.5384615 10.2680769,86.1115385 9.91038462,82.8 C9.82961538,82.0257692 11.0769231,81.8053846 11.2615385,82.5634615" id="Fill-19" fill="#948EB9"></path>
                        <path d="M7.54269231,83.1138462 C8.96076923,85.7261538 10.3696154,88.4607692 11.4773077,91.2196154 C11.8361538,92.1126923 10.4607692,92.5084615 10.0788462,91.6673077 C8.87538462,89.0134615 7.13769231,86.5073077 6.24692308,83.7288462 C6.00230769,82.9673077 7.14461538,82.3811538 7.54269231,83.1138462" id="Fill-20" fill="#948EB9"></path>
                        <path d="M46.8842308,88.5865385 C50.6826923,87.6069231 54.0703846,88.6753846 52.7319231,92.1092308 C53.4357692,92.1576923 54.1130769,92.3780769 55.065,92.4784615 C55.4861538,92.5234615 55.8438462,93.0888462 55.7019231,93.4892308 C53.4957692,99.7396154 48.5838462,107.659615 40.8196154,106.825385 C26.6480769,105.302308 38.0884615,90.8561538 46.8842308,88.5865385" id="Fill-21" fill="#C2BFD5"></path>
                        <path d="M36.4130769,102.995769 C37.4457692,101.697692 38.8338462,100.635 40.02,99.4742308 C41.3053846,98.2176923 42.5919231,96.7707692 44.175,95.8938462 C44.8061538,95.5442308 45.4869231,96.2907692 45.0023077,96.8630769 C43.7411538,98.3526923 42.1638462,99.6542308 40.7561538,101.012308 C39.6230769,102.106154 38.4646154,103.285385 36.9830769,103.880769 C36.4430769,104.098846 36.1015385,103.385769 36.4130769,102.995769" id="Fill-22" fill="#948EB9"></path>
                        <path d="M41.5453846,93.7292308 C42.1603846,93.3657692 42.9646154,94.1988462 42.3923077,94.7215385 C39.7073077,97.1792308 37.5865385,99.4823077 35.7161538,102.633462 C35.4046154,103.159615 34.4676923,102.894231 34.6638462,102.250385 C35.6838462,98.8684615 38.5234615,95.5211538 41.5453846,93.7292308" id="Fill-23" fill="#948EB9"></path>
                        <path d="M38.3861538,103.793077 C41.5269231,103.835769 44.2603846,102.800769 47.2938462,102.198462 C48.0276923,102.051923 48.1073077,103.122692 47.535,103.391538 C44.9180769,104.623846 41.0123077,106.118077 38.1461538,104.974615 C37.5761538,104.748462 37.7780769,103.785 38.3861538,103.793077" id="Fill-24" fill="#948EB9"></path>
                        <path d="M71.1415385,58.7734615 C71.1484615,58.7803846 71.1576923,58.7803846 71.1634615,58.7884615 C75.3842308,63.6496154 68.4380769,67.3742308 64.3580769,68.0446154 C59.6480769,68.8165385 51.7453846,68.265 50.7876923,62.1911538 C48.2492308,48.2007692 77.4276923,51.1430769 71.1415385,58.7734615" id="Fill-25" fill="#948EB9"></path>
                        <path d="M61.7492308,47.7657692 C67.2611538,47.1415385 72.3426923,49.7953846 69.9023077,55.4307692 C71.7576923,56.4219231 72.825,58.08 71.3584615,60.1176923 C69.4465385,62.7761538 65.2153846,64.0430769 62.2419231,64.8680769 C58.9765385,65.775 55.0557692,66.4661538 51.8007692,65.1784615 C48.3161538,63.7984615 48.9103846,59.52 50.4553846,55.8819231 C52.89,50.1507692 55.5288462,48.4707692 61.7492308,47.7657692" id="Fill-26" fill="#C2BFD5"></path>
                        <path d="M49.9384615,60.3576923 C51.7534615,57.9369231 54.7811538,54.0357692 58.0165385,53.6480769 C58.4919231,53.5903846 58.8392308,54.2838462 58.47,54.6115385 C57.2146154,55.7215385 55.6996154,56.4461538 54.4488462,57.6126923 C53.2142308,58.7665385 52.1734615,60.1038462 50.9896154,61.3073077 C50.3411538,61.965 49.3984615,61.0788462 49.9384615,60.3576923" id="Fill-27" fill="#948EB9"></path>
                        <path d="M51.8803846,61.4238462 C53.7934615,60.3888462 55.6869231,59.235 57.6853846,58.3719231 C58.4769231,58.0315385 58.9788462,59.085 58.2807692,59.5407692 C56.4542308,60.7315385 54.4465385,61.6707692 52.5242308,62.6930769 C51.7107692,63.1246154 51.0761538,61.8588462 51.8803846,61.4238462" id="Fill-28" fill="#948EB9"></path>
                        <path d="M52.635,64.5023077 C55.6592308,64.4561538 60.5953846,64.2992308 62.8096154,61.9096154 C63.1361538,61.56 62.7784615,60.8711538 62.2961538,60.9784615 C60.6611538,61.3384615 59.1842308,62.1403846 57.5053846,62.4680769 C55.845,62.7888462 54.1523077,62.8453846 52.4838462,63.0957692 C51.57,63.2342308 51.7338462,64.5161538 52.635,64.5023077" id="Fill-29" fill="#948EB9"></path>
                        <path d="M52.1307692,29.7773077 C50.7265385,33.9773077 45.1673077,43.9465385 39.9230769,42.7961538 C31.1665385,40.8761538 38.5476923,27.3842308 44.9261538,21.5573077 C51.0807692,15.9357692 56.1680769,17.7103846 52.1307692,29.7773077" id="Fill-30" fill="#948EB9"></path>
                        <path d="M41.4288462,16.2057692 C43.6788462,16.4907692 44.6284615,17.9873077 44.9076923,19.8103846 C46.5819231,18.2896154 48.9796154,17.4276923 50.3596154,19.9476923 C51.8919231,22.7573077 47.4092308,35.1830769 43.1030769,40.1942308 C35.9123077,48.5596154 30.0865385,31.3823077 33.9876923,21.8919231 C35.145,19.0707692 37.9626923,15.7673077 41.4288462,16.2069231 L41.4288462,16.2057692" id="Fill-31" fill="#C2BFD5"></path>
                        <path d="M43.29,30.2146154 C43.455,33.645 41.6030769,36.9715385 40.8969231,40.2726923 C40.7896154,40.7815385 39.9957692,40.7157692 39.9876923,40.1907692 C39.9369231,36.7823077 41.2303846,33.3853846 42.0473077,30.1026923 C42.2192308,29.4092308 43.2565385,29.4923077 43.2911538,30.2146154 L43.29,30.2146154" id="Fill-32" fill="#948EB9"></path>
                        <path d="M37.1953846,33.1084615 C37.38,32.3503846 38.5638462,32.4334615 38.5684615,33.2376923 C38.5880769,35.6284615 38.8476923,37.9026923 39.0923077,40.2773077 C39.1823077,41.1542308 37.7203846,41.4080769 37.5542308,40.53 C37.1053846,38.1415385 36.6092308,35.5107692 37.1953846,33.1084615" id="Fill-33" fill="#948EB9"></path>
                    </g>
                </g>
            </g>
        </g>
    </g>
</svg>