<?xml version="1.0" encoding="UTF-8" standalone="no"?>
<svg width="234px" height="63px" viewBox="0 0 234 63" version="1.1" xmlns="http://www.w3.org/2000/svg" xmlns:xlink="http://www.w3.org/1999/xlink">
    <!-- Generator: Sketch 41.2 (35397) - http://www.bohemiancoding.com/sketch -->
    <title>branch</title>
    <desc>Created with Sketch.</desc>
    <defs>
        <polygon id="path-1" points="0.000248279828 36.5644898 233.361469 36.5644898 233.361469 0.269830691 0.000248279828 0.269830691 0.000248279828 36.5644898"></polygon>
        <polygon id="path-3" points="14.1826051 0.0819795918 0.660483455 0.0819795918 0.660483455 9.98742776 14.1826051 9.98742776 14.1826051 0.0819795918"></polygon>
    </defs>
    <g id="Templates" stroke="none" stroke-width="1" fill="none" fill-rule="evenodd">
        <g id="Template1-Gallery1" transform="translate(-61.000000, -88.000000)">
            <g id="branch" transform="translate(61.000000, 88.000000)">
                <path d="M31.2334286,41.8748571 C31.1291633,42.0746327 31.0185306,42.2696327 30.9254082,42.4781633 C30.6213673,43.1594694 29.6678571,43.046449 29.630449,42.2632653 C29.4712653,38.9936327 32.4527755,39.331898 31.9784082,40.4032041 C31.9433878,40.4788163 31.9027959,40.5488571 31.8661837,40.6228776 C37.9477959,41.3917347 43.8153061,42.256898 49.9454694,41.5915102 C50.7413878,41.164898 51.528551,40.7279388 52.3109388,40.2838163 C59.855449,35.9938163 67.0648776,31.0057959 75.0837551,27.7282041 C68.8891224,28.1826735 62.6594694,28.9841633 56.4600612,28.5702857 C56.2212857,28.8146327 54.2092041,29.0024694 55.2940408,26.5016939 C55.4508367,25.7407959 56.5117959,26.032898 56.5468163,26.7110204 C56.5579592,26.9076122 56.5659184,27.105 56.5754694,27.3015918 C63.7076939,27.7703878 70.7507755,26.3807143 77.8798163,26.461898 C78.0127347,26.461898 78.1193878,26.500102 78.2021633,26.5613878 C79.0840408,26.2613265 79.9802449,25.9843469 80.8907755,25.7336327 C87.0074082,24.0415102 93.4678776,23.5567959 99.9323265,23.4644694 C97.9703878,22.3167551 96.1867347,20.6540816 94.6991633,19.2644082 C92.956898,17.6303878 91.2934286,15.9072245 89.6275714,14.1928163 C88.9462653,13.4908163 88.2625714,12.7872245 87.5701224,12.0947755 C87.4873469,12.0080204 87.2613061,11.8146122 87.0647143,11.6347347 C86.0722041,12.0326939 84.8759388,11.5822041 85.5787347,10.7043061 C88.0341429,7.84138776 88.3803673,9.19763265 88.1296531,10.3819592 C88.1089592,10.4782653 88.081898,10.5713878 88.0468776,10.656551 C88.2028776,10.8085714 88.3413673,10.9621837 88.4575714,11.0775918 C89.9013673,12.5022857 91.2838776,13.991449 92.7069796,15.4384286 C95.511,18.2989592 98.9804082,22.347 103.105653,23.4469592 C106.76449,23.4533265 110.402633,23.5432653 113.964367,23.565551 C114.733224,23.5703265 114.66,24.6901837 113.919,24.7387347 C107.211796,25.1804694 100.468776,24.7737551 93.7512245,25.1215714 C92.5477959,25.1836531 91.3467551,25.2799592 90.1560612,25.4096939 C90.1146735,25.4646122 90.0565714,25.515551 89.982551,25.5601224 C85.8413878,28.021102 82.5988163,30.5879388 79.8497143,34.5754898 C78.7425918,36.1904082 76.9987347,38.5550816 74.9802857,39.5643061 C75.2938776,40.5217959 74.850551,41.5867347 74.0068776,40.9221429 C71.136,38.4786735 72.4874694,38.1268776 73.6733878,38.3720204 C73.7179592,38.3815714 73.7593469,38.3919184 73.7991429,38.4014694 C74.7454898,37.7790612 76.1813265,36.8701224 76.7591633,36.3209388 C78.2769796,34.866 79.3180408,32.9000816 80.5962857,31.2453673 C82.2350816,29.1314082 84.5281224,27.212449 86.9747755,25.8386939 C81.7885714,26.6799796 76.7655306,28.2033673 71.9542041,30.5163061 C66.6915918,33.0473265 61.7521224,36.1458367 56.7680816,39.1520204 C56.7776327,39.2220612 56.7760408,39.2968776 56.7529592,39.3756735 C55.4635714,43.933898 52.4000816,50.0003878 47.9564694,52.669102 C47.7694286,53.4682041 47.4852857,54.0356939 46.9384898,54.8125102 C46.6615102,55.2080816 45.9754286,55.2773265 45.7501837,54.7703265 C45.698449,54.6469592 43.3926735,50.4580408 45.7342653,51.616898 C46.4155714,51.9559592 46.4617347,51.6925102 47.2425306,51.4250816 C47.3189388,51.3988163 47.3977347,51.4091633 47.4797143,51.4203061 C51.3104694,49.0779184 53.2294286,44.0190612 55.2311633,40.072898 C49.9502449,43.2199592 44.5809796,46.1863469 38.688,48.1912653 C36.972,48.7738776 35.2066531,49.237102 33.4094694,49.5904898 C31.6393469,52.7359592 27.592898,54.9788571 24.560449,56.686898 C21.8909388,58.1911837 18.6563265,59.8347551 15.4758367,60.1292449 C15.4089796,60.5693878 14.244551,61.3103878 13.7630204,60.8137347 C13.6086122,58.1203469 15.9231429,57.5671837 16.2303673,58.6392857 C18.9452449,58.1704898 21.6099796,56.7465918 23.9388367,55.4938163 C26.8256327,53.9401837 29.3717755,52.0936531 31.7292857,49.8897551 C24.5262245,51.0334898 16.8901837,50.5471837 9.85267347,49.3047551 C8.75191837,49.110551 6.40395918,48.6377755 5.2864898,47.5282653 C4.797,47.0411633 4.54230612,46.4314898 4.73332653,45.6697959 C4.96653061,44.7409592 5.51889796,44.2570408 6.38644898,44.8396531 C7.30493878,45.454102 7.17838776,46.0231837 6.89822449,46.9185918 C7.08844898,47.0188776 7.27230612,47.0992653 7.4012449,47.1573673 C8.92861224,47.833102 10.7019184,48.038449 12.3367347,48.2453878 C15.4368367,48.6393673 18.5759388,48.6807551 21.6879796,48.9402245 C30.751102,49.6987347 39.2085306,46.9910204 47.1446327,43.0448571 C41.8796327,43.6354286 36.5032041,42.5474082 31.2334286,41.8748571" id="Fill-1" fill="#786C54"></path>
                <path d="M81.2266531,9.22787755 C81.022898,8.83469388 81.2497347,8.32291837 81.6898776,8.23138776 C82.4412245,8.07538776 83.2140612,7.95759184 83.9558571,8.21706122 C84.0012245,8.23218367 84.0402245,8.26402041 84.0855918,8.28471429 C85.0924286,8.39614286 86.0960816,8.96522449 86.7352041,9.66085714 C87.0758571,10.032551 86.8999592,10.695551 86.3842041,10.7950408 C84.5153878,11.1524082 82.221551,11.1524082 81.2266531,9.22946939 L81.2266531,9.22787755" id="Fill-2" fill="#F4D6C7"></path>
                <path d="M69.4502449,43.0217755 C67.6180408,43.4969388 68.6606939,39.858 72.7564898,38.8782245 C73.2730408,38.7540612 73.7338776,39.2682245 73.5842449,39.7696531 C73.125,41.3033878 72.0123061,42.3659388 70.5685102,42.6763469 C70.2111429,42.8092653 69.8362653,42.9206939 69.4502449,43.0217755" id="Fill-3" fill="#F4D6C7"></path>
                <path d="M48.8001429,28.050551 C48.3783061,27.7783469 48.3544286,27.0835102 48.8447143,26.8550816 C51.1839184,25.7567143 53.3647347,25.3770612 55.5789796,26.5574082 C55.8917755,26.7213673 56.0398163,27.2395102 55.8082041,27.5268367 C54.1136939,29.6511429 50.8599796,29.3837143 48.8001429,28.0513469 L48.8001429,28.050551" id="Fill-4" fill="#F4D6C7"></path>
                <g id="Group-12" transform="translate(0.000000, 25.469388)">
                    <mask id="mask-2" fill="white">
                        <use xlink:href="#path-1"></use>
                    </mask>
                    <g id="Clip-6"></g>
                    <path d="M43.5876735,32.3071224 C40.3196327,34.2929388 39.9320204,31.2891429 41.9655918,29.0900204 C42.6906735,28.3052449 43.728551,27.6239388 45.054551,27.3071633 C47.0164898,26.8407551 46.0056735,31.083 43.5868776,32.3079184 L43.5876735,32.3071224" id="Fill-5" fill="#F4D6C7" mask="url(#mask-2)"></path>
                    <path d="M9.85267347,35.5401429 C9.80571429,35.3499184 9.82163265,35.1413878 9.93226531,34.9957347 C10.6191429,34.0875918 14.1434694,31.6918776 15.0786735,33.3696735 C15.4264898,33.5471633 15.6453673,34.0087959 15.3819184,34.3550204 C14.137102,35.9946122 9.52953061,37.8228367 9.85267347,35.5409388 L9.85267347,35.5401429" id="Fill-7" fill="#F4D6C7" mask="url(#mask-2)"></path>
                    <path d="M24.1855714,16.1953469 C23.1031224,14.6711633 24.3383878,12.3287755 27.3326327,12.9082041 C35.4541837,14.4809388 27.0691837,20.2521429 24.1855714,16.1953469" id="Fill-8" fill="#F4D6C7" mask="url(#mask-2)"></path>
                    <path d="M0.0947142857,19.5939184 C-0.12177551,19.2341633 0.0509387755,18.6650816 0.43855102,18.4963469 C1.08483673,18.2169796 2.58912245,17.8771224 3.31022449,18.008449 C5.15834694,18.3514898 7.90346939,20.8888776 4.73093878,21.7381224 C2.84142857,22.2435306 1.0442449,21.1738163 0.0947142857,19.5947143 L0.0947142857,19.5939184" id="Fill-9" fill="#F4D6C7" mask="url(#mask-2)"></path>
                    <path d="M229.593,28.0847755 C229.487939,28.0720408 229.389245,28.1205918 229.297714,28.148449 C225.621367,23.7382653 221.640184,19.7292245 216.422143,17.1026939 L216.175408,16.9785306 C219.564429,16.6776735 224.289,15.414551 226.303469,14.1410816 C227.276878,14.7507551 228.698388,14.4132857 228.030612,13.425551 C225.900735,10.5093061 225.39851,11.5973265 225.49402,12.7482245 C224.623286,13.113551 223.431,13.7916735 222.222796,14.1140204 C219.252429,14.9059592 215.760735,15.4272857 213.930122,15.9907959 C206.778,13.1867755 198.920694,13.1796122 191.328429,12.5962041 C186.540184,12.2276939 181.637327,11.5360408 176.901612,10.2999796 C183.782327,10.4917959 190.648714,7.90028571 196.818673,4.79620408 C198.41051,6.26785714 199.007449,4.14116327 198.075429,2.98389796 C197.580367,2.36706122 196.582286,0.460836735 196.291776,3.02130612 C196.268694,3.22665306 196.215367,3.41289796 196.223327,3.59038776 C193.147102,5.15357143 189.992878,6.54006122 186.664347,7.53655102 C181.893612,8.96602041 177.177,8.85618367 172.272551,8.88722449 C169.964388,8.07220408 167.72149,7.10118367 165.578878,5.94471429 C160.626673,3.27042857 154.541878,-0.822183673 148.715755,1.27426531 C148.10051,1.49473469 148.484143,2.55171429 149.104163,2.35273469 C155.574184,0.284938776 162.081612,5.97655102 167.641102,8.45902041 C173.048571,10.871449 178.804653,12.236449 184.634755,13.1390204 C184.677735,13.2289592 184.756531,13.3117347 184.873531,13.3754082 C188.211612,15.2561633 191.925367,16.5527143 195.110633,18.6873673 C197.984694,20.5227551 200.445673,23.478 202.038306,25.4773469 C201.00998,26.3759388 201.282184,28.3545918 202.416367,27.5944898 C202.776122,27.3366122 206.663388,24.7984286 203.125531,25.0602857 C199.237469,19.3400204 192.615429,15.7456531 188.256184,13.6436327 L189.033796,13.7415306 C197.619367,14.7825918 206.164347,14.3456327 214.333653,17.6654082 C220.089735,20.0062041 224.343122,24.4028571 228.247898,29.0605714 C227.783082,30.0132857 228.133286,31.2230816 229.062918,30.6022653 C228.748531,31.0798163 233.242286,28.5153673 229.593,28.0855714 L229.593,28.0847755" id="Fill-10" fill="#786C54" mask="url(#mask-2)"></path>
                    <path d="M206.551959,31.1888571 C206.583796,30.8943673 206.587776,30.5879388 206.570265,30.2783265 C206.567082,28.4134898 205.573776,26.7778776 203.719286,26.1419388 C203.383408,26.0273265 202.970327,26.2438163 202.877204,26.5900408 C202.327224,28.6594286 203.497224,30.7041429 205.497367,31.7452041 C205.966959,31.989551 206.497837,31.7284898 206.551959,31.1888571 Z M233.20249,32.3262245 C233.179408,32.2776735 232.506061,30.4908367 231.535041,29.6169184 C230.551286,28.7302653 228.521694,29.3009388 228.958653,30.5592857 C230.085673,33.8153878 234.217286,34.417102 233.20249,32.3262245 Z M232.162224,12.4616939 C232.447163,12.0677143 232.153469,11.6164286 231.782571,11.4484898 C231.20951,11.1906122 230.646796,11.0632653 230.101592,11.0521224 C229.92251,10.9820816 229.725122,10.9375102 229.504653,10.9303469 C228.422204,10.9016939 227.381143,11.7851633 226.644122,12.4728367 C226.319388,12.7752857 226.367143,13.318898 226.746796,13.5560816 C228.785939,14.839898 230.887959,14.2365918 232.160633,12.4624898 L232.162224,12.4616939 Z M203.037184,3.4407551 C203.705755,3.01016327 204.280408,2.41561224 204.672,1.59820408 C204.885306,1.1612449 204.770694,0.576244898 204.236633,0.431387755 C202.262755,-0.104265306 198.580041,0.727469388 197.299408,2.40208163 C196.735102,3.13910204 197.374224,3.9955102 198.446327,4.32342857 C200.015082,4.80097959 201.825,4.5932449 203.037184,3.4407551 L203.037184,3.4407551 Z" id="Fill-11" fill="#F4D6C7" mask="url(#mask-2)"></path>
                </g>
                <path d="M141.793653,31.3010816 C142.187633,31.3018776 142.405714,30.7534898 141.979898,30.5879388 C140.518592,30.0260204 139.443306,29.5333469 138.372,28.3346939 C137.499673,27.3573061 136.804041,26.2191429 136.071,25.1382857 C137.611102,25.3810408 139.072408,25.7392041 140.556,26.286 C141.983082,26.8113061 143.330571,27.3787959 144.846796,27.5841429 C145.138898,27.6239388 145.429408,27.6486122 145.718327,27.6613469 C145.212918,29.610551 146.144143,32.1742041 147.918245,33.2025306 C148.254122,33.3959388 148.772265,33.0011633 148.446735,32.6676735 L148.448327,32.6668776 C147.027612,31.2071633 146.179959,29.7840612 146.326408,27.6740816 C147.10402,27.670102 147.880837,27.5960816 148.657653,27.5021633 C149.044469,28.5511837 149.683592,29.4187347 150.473939,30.1493878 C149.716224,31.8486735 150.115776,34.0700816 151.382878,35.4446327 C151.647122,35.7311633 152.237694,35.470898 152.025184,35.0745306 C151.244388,33.6331224 150.613224,32.1869388 150.988102,30.5903265 C152.327633,31.6576531 153.985531,32.409 155.55349,33.0258367 C156.058102,33.2240204 156.363735,32.467102 155.871061,32.2506122 C154.416122,31.6106939 153.028041,30.9699796 151.824612,30.1111837 C154.596,30.2966327 156.668571,31.6982449 158.96798,33.3147551 C159.234612,33.5025918 159.517959,33.6991837 159.815633,33.8949796 C159.807673,33.9379592 159.811653,33.9849184 159.829163,34.0350612 C160.496939,35.8051837 161.355735,37.6564898 162.771673,38.9578163 C163.11949,39.2769796 163.566796,38.8368367 163.296184,38.4667347 C162.347449,37.1685918 161.471939,35.899898 160.755612,34.4775918 C162.298898,35.3682245 164.076184,36.0296327 165.715776,35.4127959 L165.717367,35.412 C166.084286,35.2711224 166.094633,34.680551 165.63698,34.680551 C164.074592,34.6717959 162.891061,34.593 161.462388,33.8527959 C160.302735,33.2494898 159.248143,32.4320816 158.177633,31.6823265 C159.704204,31.3631633 161.198143,31.180102 162.778041,31.1625918 C164.298245,31.1466735 165.762735,31.1992041 167.251898,30.8513878 C167.537633,30.7853265 167.816204,30.7065306 168.090796,30.6157959 C168.310469,32.6167347 170.091735,34.6829388 172.117347,35.0132449 C172.498592,35.0745306 172.843224,34.5221633 172.420592,34.3255714 L172.422184,34.3255714 C170.576449,33.4651837 169.27751,32.4352653 168.666245,30.410449 C169.392122,30.1310816 170.090143,29.786449 170.781796,29.4227143 C171.517224,30.2679796 172.423776,30.8513878 173.421857,31.2541224 C173.319184,33.1102041 174.479633,35.0450816 176.149469,35.8807959 C176.501265,36.0535102 176.961306,35.6006327 176.619061,35.304551 C175.37902,34.2348367 174.276673,33.1086122 174.058592,31.4841429 C175.690224,32.0054694 177.50651,32.1176939 179.192265,32.1391837 C179.732694,32.1439592 179.751796,31.326551 179.210571,31.2994898 L179.210571,31.2986939 C176.31502,31.1530408 173.625612,30.9182449 171.339735,29.1250408 C172.805816,28.3370816 174.263939,27.5204694 175.899551,27.1185306 C176.438388,26.9864082 176.231449,26.2334694 175.703755,26.3003265 C172.555898,26.7070408 170.051143,29.1067347 167.049735,30.0061224 C166.891347,30.0538776 166.730571,30.0960612 166.570592,30.1342653 C166.423347,28.6307755 166.555469,27.378 167.870327,26.3401224 C168.106714,26.1530816 167.82098,25.7670612 167.566286,25.915102 C166.069959,26.7826531 165.333735,28.616449 165.782633,30.2854898 C163.011245,30.7049388 160.153898,30.0347755 157.433449,31.1761224 C155.519265,29.9249388 153.335265,28.9045714 151.027898,29.484 C150.363306,28.9069592 149.774327,28.2344082 149.284837,27.4225714 C150.935571,27.2068776 152.587898,26.9609388 154.259327,27.1646939 C154.809306,27.2331429 154.883327,26.4547347 154.36598,26.3313673 C151.278612,25.5943469 148.087776,26.9458163 144.95902,26.7221633 C144.793469,26.7102245 144.628714,26.6935102 144.465551,26.6720204 C144.860327,25.2154898 145.431,24.0900612 147.029204,23.585449 C147.316531,23.4955102 147.186,23.0338776 146.897082,23.0816327 C145.186653,23.3602041 143.851102,24.8127551 143.674408,26.5335306 C140.936449,25.9405714 138.504122,24.3001837 135.555245,24.4020612 C134.188653,22.5213061 132.477429,20.767102 130.050673,20.5307143 C129.727531,20.4996735 129.577898,20.9804082 129.902633,21.0950204 C132.932694,22.1663265 134.497469,24.384551 136.229388,26.9442245 C136.412449,27.2140408 136.607449,27.4981837 136.815184,27.787898 C136.793694,27.8253061 136.781755,27.8706735 136.780163,27.924 C136.773796,29.8174898 136.918653,31.8510612 137.779041,33.569449 C137.992347,33.9920816 138.570184,33.7389796 138.447612,33.2980408 C138.021796,31.7467959 137.653286,30.2512653 137.487735,28.6665918 C138.613959,30.0483061 140.041041,31.2963061 141.791265,31.3010816 L141.793653,31.3010816" id="Fill-13" fill="#786C54"></path>
                <path d="M157.85449,28.3466327 C158.527837,27.826898 158.821531,27.1607143 158.99902,26.3568367 C159.162184,25.613449 158.849388,24.7220204 158.402082,24.1402041 C157.916571,23.5106327 157.197061,23.0983469 156.413082,22.9956735 C155.626714,22.8937959 154.822041,23.1110816 154.193265,23.5934082 C153.522306,24.1123469 153.22702,24.7785306 153.049531,25.5832041 C152.887959,26.3257959 153.199959,27.2180204 153.646469,27.7998367 C154.129592,28.4278163 154.854673,28.8424898 155.636265,28.9443673 C156.422633,29.045449 157.22651,28.8297551 157.852898,28.3466327 L157.85449,28.3466327" id="Fill-14" fill="#DC3C4C"></path>
                <path d="M159.940592,36.5374286 C160.625082,36.0105306 160.923551,35.3332041 161.101837,34.5157959 C161.269776,33.7620612 160.951408,32.8531224 160.495347,32.2633469 C160.005857,31.6250204 159.270429,31.2039796 158.471327,31.1013061 C157.674612,30.9962449 156.859592,31.2151224 156.220469,31.707 C155.535184,32.233102 155.238306,32.9120204 155.057633,33.7302245 C154.891286,34.4823673 155.208857,35.3913061 155.664122,35.9810816 C156.155204,36.6202041 156.889041,37.0420408 157.687347,37.1439184 C158.484061,37.2481837 159.301469,37.0285102 159.940592,36.5374286" id="Fill-15" fill="#DC3C4C"></path>
                <path d="M152.844184,39.9742041 C153.932204,39.8365102 154.888898,39.1010816 155.300388,38.083102 C155.707898,37.0802449 155.547918,35.9118367 154.888898,35.0522449 C154.194857,34.1520612 153.072612,33.7485306 151.984592,33.9085102 C151.989367,33.9077143 151.992551,33.9085102 151.995735,33.9053265 C151.962306,33.9093061 151.928878,33.9132857 151.895449,33.920449 C151.893061,33.9188571 151.891469,33.920449 151.888286,33.920449 C151.826204,33.9323878 151.759347,33.9451224 151.695673,33.9602449 C150.719082,34.1647959 149.881776,34.8222245 149.502122,35.7614082 C149.027755,36.9353878 149.355673,38.5550816 150.473939,39.2769796 C150.488265,39.2833469 150.503388,39.2952857 150.516918,39.3056327 C150.750122,39.4942653 151.008796,39.6542449 151.296122,39.7728367 C151.798347,39.9726122 152.310918,40.0394694 152.844184,39.975 L152.844184,39.9742041" id="Fill-16" fill="#DC3C4C"></path>
                <path d="M150.118959,34.2213061 C150.945122,30.4701429 145.037816,29.7355102 144.21802,33.4548367 C143.394245,37.206 149.298367,37.9422245 150.118959,34.222102 L150.118959,34.2213061" id="Fill-17" fill="#DC3C4C"></path>
                <path d="M149.032531,25.4160612 C149.69951,24.9026939 149.986837,24.2460612 150.162735,23.4525306 C150.511347,21.8766122 149.104163,20.3301429 147.608633,20.1367347 C146.835796,20.0372449 146.043061,20.250551 145.424633,20.7265102 C144.760837,21.2374898 144.471918,21.8957143 144.294429,22.688449 C143.947408,24.2659592 145.353,25.8116327 146.846939,26.0050408 C147.622959,26.1053265 148.415694,25.8920204 149.032531,25.4160612" id="Fill-18" fill="#DC3C4C"></path>
                <path d="M145.236,32.3684082 C146.091612,28.4938776 139.98851,27.7337755 139.142449,31.5772653 C138.290816,35.4517959 144.390735,36.211102 145.236,32.3684082" id="Fill-19" fill="#DC3C4C"></path>
                <path d="M140.773286,34.4632653 C141.639245,30.537 135.456551,29.766551 134.598551,33.6585918 C133.735776,37.5856531 139.916878,38.356898 140.773286,34.4640612 L140.773286,34.4632653" id="Fill-20" fill="#DC3C4C"></path>
                <path d="M120.287939,37.4861633 C119.905898,37.888102 119.364673,37.3222041 119.598673,36.8924082 C121.208816,33.9323878 124.411592,32.038102 126.51202,29.4386327 C127.367633,28.382449 127.953429,27.2243878 128.35298,26.0050408 C128.082367,26.2708776 127.760816,26.4555306 127.325449,26.461898 C125.962041,26.4873673 124.772939,26.0878163 123.359388,26.3066939 C121.559816,26.5900408 120.108857,27.3270612 118.668245,28.1532245 C119.275531,31.2994898 117.502224,35.1787959 114.666367,36.601102 L114.666367,36.5995102 C114.261245,36.8032653 113.910245,36.2652245 114.22702,35.9603878 C116.517673,33.7413673 117.552367,31.6425306 117.743388,28.6904694 C117.128939,29.0494286 116.502551,29.4091837 115.839551,29.7434694 C115.782245,29.7713265 115.727327,29.786449 115.671612,29.7912245 C114.976776,30.2982245 114.293878,30.819551 113.612571,31.3679388 C113.314898,31.6051224 112.823816,31.2374082 113.084082,30.9086939 C114.045551,29.6973061 115.342898,28.5432245 116.761224,27.8499796 C117.824571,27.1121633 119.005714,26.5088571 120.20198,26.0400612 C119.567633,25.564102 118.942041,25.0873469 118.254367,24.6846122 C117.192612,24.0677755 116.386347,24.0415102 115.277633,24.4800612 C114.895592,24.6312857 114.498429,24.2492449 114.733224,23.8727755 C116.195327,21.5391429 119.805612,24.2349184 120.989143,25.5179388 C121.044857,25.5792245 121.079082,25.6468776 121.093408,25.7161224 L121.198469,25.681102 C122.375633,25.2926939 123.618857,25.1366939 124.846959,25.0101429 C126.128388,24.8804082 126.981612,25.7033878 128.281347,25.0427755 C128.399143,24.9822857 128.524898,25.0013878 128.623592,25.0634694 C129.214163,22.6916327 129.214163,20.1399184 129.202224,17.6940612 C129.198245,17.0294694 130.182796,17.1225918 130.215429,17.7617143 C130.405653,21.3783673 130.207469,24.8756327 128.633939,28.1357143 C128.099082,31.0201224 128.162755,33.6315306 128.36651,36.5557347 C128.534449,38.9641837 128.593347,41.5166939 127.581735,43.7659592 C127.332612,44.3183265 126.526347,44.0588571 126.681551,43.4611224 L126.683143,43.4611224 C127.463143,40.4772245 127.359673,37.7774694 127.166265,34.7275102 C127.081102,33.3489796 126.98798,31.9099592 127.162286,30.5242653 C126.268469,31.6966531 125.190796,32.7910408 124.081286,33.8488163 C124.208633,33.9013469 124.311306,34.0159592 124.345531,34.2053878 C124.753837,36.5565306 124.54849,39.2403673 122.963816,41.1378367 L122.964612,41.1378367 C122.689224,41.4657551 122.021449,41.2397143 122.229184,40.7788776 C123.193041,38.6577551 123.586224,36.8311224 123.376898,34.5134082 C122.302408,35.519449 121.227122,36.4976327 120.287939,37.4861633" id="Fill-21" fill="#786C54"></path>
                <path d="M125.75351,45.5575714 C122.014286,43.533551 125.672327,38.0528571 129.381306,40.0593673 C133.122122,42.0833878 129.46249,47.5656735 125.75351,45.5575714" id="Fill-22" fill="#DC3C4C"></path>
                <path d="M124.083673,45.5352857 C124.059,45.5607551 124.032735,45.5862245 124.008857,45.6132857 C123.045796,46.6511633 121.237469,46.6368367 120.123184,45.9006122 C118.851306,45.0617143 118.508265,43.6234898 118.860061,42.2147143 C118.868816,42.178898 118.87598,42.1406939 118.885531,42.1048776 C119.078143,41.3288571 119.782531,40.6212857 120.471,40.2694898 C121.496939,39.7497551 122.748122,39.8197959 123.706408,40.4517551 C124.416367,40.9189592 124.913816,41.6599592 125.086531,42.4924898 C125.329286,43.6815918 124.875612,44.6812653 124.082878,45.5352857 L124.083673,45.5352857" id="Fill-23" fill="#DC3C4C"></path>
                <path d="M116.831265,42.8379184 C113.061,40.7971837 116.750878,35.2735102 120.48851,37.2959388 C124.259571,39.3374694 120.567306,44.8603469 116.831265,42.8379184" id="Fill-24" fill="#DC3C4C"></path>
                <path d="M113.675449,41.3455714 C112.740245,41.5373878 111.956265,41.2978163 111.141245,40.8560816 C109.524735,39.9805714 109.239796,37.6206735 110.186143,36.1864286 C110.676429,35.4446327 111.449265,34.9209184 112.322388,34.739449 C113.259184,34.5500204 114.041571,34.7903878 114.855,35.2297347 C116.473898,36.1052449 116.758041,38.4667347 115.813286,39.9001837 C115.322204,40.6427755 114.54698,41.1688776 113.675449,41.3455714" id="Fill-25" fill="#DC3C4C"></path>
                <path d="M109.337694,35.0880612 C105.625531,33.0783673 109.258102,27.641449 112.938429,29.6312449 C116.649796,31.6409388 113.019612,37.0802449 109.337694,35.0880612" id="Fill-26" fill="#DC3C4C"></path>
                <path d="M112.683735,26.5056735 C108.972367,24.4983673 112.602551,19.0590612 116.285265,21.050449 C119.997429,23.0577551 116.364857,28.499449 112.683735,26.5056735" id="Fill-27" fill="#DC3C4C"></path>
                <path d="M112.496694,9.01616327 C114.102061,9.60673469 115.503673,10.0795102 116.867878,11.0513265 C115.855469,11.6339388 114.769837,11.7111429 113.555265,11.6880612 C113.133429,11.6777143 111.992082,11.4341633 111.650633,11.836898 C111.438918,12.0876122 111.820163,12.411551 112.037449,12.168 C111.903735,12.3168367 112.010388,12.2643061 112.218122,12.3311633 C112.431429,12.3964286 112.659061,12.421102 112.880327,12.4473673 C113.526612,12.5253673 114.176878,12.5643673 114.827143,12.5468571 C115.772694,12.5174082 116.91802,12.3287755 117.604898,11.6275714 C117.694837,11.7047755 117.784776,11.7835714 117.873918,11.8631633 L117.884265,11.8727143 L117.895408,11.8830612 C119.103612,12.9718776 120.127959,14.2692245 121.180959,15.4965306 C121.265327,15.5952245 121.352082,15.6939184 121.438041,15.7918163 C120.528306,16.2733469 119.675082,16.672102 118.714408,16.9283878 C117.841286,15.8554898 116.78351,14.8725306 115.445571,14.459449 C115.029306,14.3273265 114.917878,14.9377959 115.230673,15.1288163 L115.233061,15.1280204 C116.239102,15.7424694 117.165551,16.2948367 117.99649,17.0883673 C117.932816,17.0995102 117.869143,17.1106531 117.804673,17.1202041 C116.524041,17.3191837 115.385082,16.9331633 114.137878,16.8758571 C113.899898,16.8631224 113.84498,17.1902449 113.991429,17.325551 C114.890816,18.1461429 116.356102,18.3236327 117.833327,18.115102 C117.781592,18.3936735 117.747367,18.6754286 117.676531,18.9524082 C117.548388,19.4307551 117.300061,19.8693061 116.968959,20.2370204 C116.617959,20.6278163 117.215694,21.1125306 117.580224,20.7583469 C118.260735,20.0961429 118.789224,18.944449 118.678592,17.9543265 C119.987878,17.6431224 121.221551,17.062898 121.982449,16.3983061 C124.012837,18.6053878 126.322592,20.4503265 129.387673,20.9804082 C129.886714,21.0663673 129.994163,20.3564082 129.52298,20.2226939 C125.500408,19.0829388 123.137327,16.3394082 120.498061,13.289449 C120.003,12.7179796 119.465755,12.1282041 118.886327,11.563102 C119.496,11.0298367 119.827898,10.2657551 119.945694,9.43720408 C121.242245,9.36397959 122.882633,9.02093878 123.277408,7.64638776 C123.392816,7.24046939 122.83249,7.05422449 122.585755,7.31846939 C122.171878,7.76418367 121.851918,8.10165306 121.270102,8.33087755 C120.865776,8.49244898 120.429612,8.58397959 119.997429,8.6755102 C119.991061,7.69414286 119.728408,6.69606122 119.304184,5.94073469 C119.067796,5.51969388 118.472449,5.88342857 118.588653,6.3004898 C119.059837,8.02206122 119.353531,9.58444898 118.276653,10.9916327 C116.688,9.56932653 114.824755,8.41365306 112.72751,8.29028571 C112.331939,8.26720408 112.054163,8.85140816 112.496694,9.01616327" id="Fill-28" fill="#786C54"></path>
                <path d="M108.383388,16.0242245 C108.053878,16.8304898 107.964735,17.6606327 108.256041,18.4979388 C108.642061,19.6058571 109.621837,20.4431633 110.776714,20.6493061 C112.467245,20.9517551 114.279551,19.7499184 114.601898,18.0784898 C114.621,18.0044694 114.652041,17.9384082 114.666367,17.8627959 C114.851816,16.8193469 114.479327,15.5586122 113.606204,14.9011837 C112.834959,14.3209592 112.117837,14.0360204 111.126122,14.079 C109.98,14.127551 108.815571,14.9600816 108.382592,16.0242245 L108.383388,16.0242245" id="Fill-29" fill="#DC3C4C"></path>
                <path d="M114.580408,20.3420816 C113.980286,21.0456735 113.816327,21.8216939 113.809959,22.717102 C113.802796,23.5432653 114.336061,24.4219592 114.943347,24.940898 C115.598388,25.5020204 116.458776,25.7797959 117.315184,25.7129388 C118.177163,25.6444898 118.983429,25.2337959 119.542959,24.5787551 C120.143082,23.8759592 120.305449,23.0983469 120.312612,22.2045306 C120.320571,21.3759796 119.785714,20.4996735 119.179224,19.9799388 C118.52498,19.4204082 117.662204,19.1410408 116.803408,19.207898 C115.947,19.2779388 115.139939,19.6878367 114.580408,20.3420816" id="Fill-30" fill="#DC3C4C"></path>
                <path d="M106.323551,11.8193878 C106.289327,15.6700408 112.232449,15.1702041 112.266673,11.3521837 C112.297714,7.50312245 106.355388,8.00534694 106.323551,11.8201837 L106.323551,11.8193878" id="Fill-31" fill="#DC3C4C"></path>
                <g id="Group-35" transform="translate(107.448980, 0.000000)">
                    <mask id="mask-4" fill="white">
                        <use xlink:href="#path-3"></use>
                    </mask>
                    <g id="Clip-33"></g>
                    <path d="M0.660612245,7.23012245 C0.627979592,11.2335918 6.8074898,10.7098776 6.84171429,6.74302041 C6.87832653,2.7387551 0.694836735,3.26008163 0.660612245,7.23012245" id="Fill-32" fill="#DC3C4C" mask="url(#mask-4)"></path>
                    <path d="M7.72836735,3.47020408 C7.69255102,7.64877551 14.1442653,7.10436735 14.1824694,2.96002041 C14.2166939,-1.21855102 7.76577551,-0.673346939 7.72757143,3.47020408 L7.72836735,3.47020408" id="Fill-34" fill="#DC3C4C" mask="url(#mask-4)"></path>
                </g>
                <path d="M122.524469,5.01110204 C121.960163,5.67330612 121.805755,6.40236735 121.798592,7.2452449 C121.785061,8.91746939 123.541653,10.1829796 125.097673,10.0596122 C125.905531,9.99753061 126.663245,9.60991837 127.188551,8.99387755 C127.752857,8.33246939 127.904878,7.60340816 127.911245,6.76291837 C127.927959,5.09069388 126.172959,3.82438776 124.615347,3.94695918 C123.809082,4.00983673 123.050571,4.3982449 122.524469,5.01110204" id="Fill-36" fill="#DC3C4C"></path>
                <path d="M111.611633,13.9293673 C111.575816,17.7792245 117.518939,17.277 117.553163,13.4605714 C117.585796,9.61230612 111.642673,10.1121429 111.610837,13.9293673 L111.611633,13.9293673" id="Fill-37" fill="#DC3C4C"></path>
                <path d="M179.680163,26.9458163 C180.127469,26.2223265 180.163286,25.4948571 180.043898,24.6798367 C179.933265,23.9284898 179.322796,23.205 178.699592,22.8197755 C178.024653,22.405102 177.202469,22.2729796 176.431224,22.4576327 C175.662367,22.639102 174.986633,23.1285918 174.573551,23.8019388 C174.125449,24.5254286 174.087245,25.252898 174.208224,26.0687143 C174.318857,26.8200612 174.927735,27.5443469 175.552531,27.9279796 C176.227469,28.3426531 177.049653,28.4747755 177.820898,28.2925102 C178.590551,28.1078571 179.264694,27.6207551 179.680163,26.9458163" id="Fill-38" fill="#DC3C4C"></path>
                <path d="M184.540041,33.8631429 C184.990531,33.1277143 185.029531,32.3875102 184.907755,31.5613469 C184.796327,30.7956735 184.17551,30.0602449 183.541959,29.6686531 C182.85349,29.2468163 182.019367,29.1146939 181.236184,29.3001429 C180.454592,29.4871837 179.76851,29.9806531 179.347469,30.6675306 C178.895388,31.4029592 178.854796,32.1439592 178.978959,32.9701224 C179.089592,33.7357959 179.711204,34.4712245 180.343959,34.8612245 C181.029245,35.2830612 181.865755,35.4167755 182.648143,35.2297347 C183.431327,35.0426939 184.116612,34.5484286 184.540041,33.8631429" id="Fill-39" fill="#DC3C4C"></path>
                <path d="M179.125408,39.594551 C180.094837,39.0795918 180.727592,38.0520612 180.749878,36.9560816 C180.774551,35.8728367 180.211837,34.8373469 179.290163,34.2698571 C178.321531,33.6729184 177.127653,33.6944082 176.170163,34.2300612 C176.173347,34.2260816 176.174939,34.2252857 176.178122,34.222898 C176.147082,34.2404082 176.119224,34.2555306 176.087388,34.2722449 C176.087388,34.2738367 176.084204,34.2738367 176.082612,34.2762245 C176.02849,34.3088571 175.972776,34.3430816 175.919449,34.3804898 C175.077367,34.9177347 174.528184,35.8322449 174.50749,36.8438571 C174.478837,38.1093673 175.36151,39.5085918 176.662837,39.7831837 C176.679551,39.7879592 176.695469,39.7919388 176.712184,39.7943265 C177.000306,39.8914286 177.297184,39.9479388 177.610776,39.955898 C178.145633,39.9638571 178.649449,39.8452653 179.125408,39.594551" id="Fill-40" fill="#DC3C4C"></path>
                <path d="M174.536143,35.1843673 C173.976612,31.3870408 168.193469,32.7942245 168.74902,36.5636939 C169.308551,40.3634082 175.09249,38.9522449 174.536143,35.1843673" id="Fill-41" fill="#DC3C4C"></path>
                <path d="M170.39498,27.3374082 C170.835122,26.6226735 170.870143,25.9063469 170.752347,25.1024694 C170.517551,23.5066531 168.655898,22.561102 167.191408,22.9105102 C166.43051,23.0895918 165.765918,23.5735102 165.353633,24.2373061 C164.916673,24.9512449 164.877673,25.6683673 164.996265,26.4738367 C165.231061,28.0680612 167.094306,29.0152041 168.557204,28.6665918 C169.319694,28.4851224 169.982694,28.0051837 170.39498,27.3382041 L170.39498,27.3374082" id="Fill-42" fill="#DC3C4C"></path>
                <path d="M169.313327,35.1867551 C168.736286,31.2612857 162.762918,32.7170204 163.33598,36.6098571 C163.913816,40.5345306 169.88798,39.0795918 169.313327,35.187551 L169.313327,35.1867551" id="Fill-43" fill="#DC3C4C"></path>
                <path d="M165.88849,38.7301837 C165.301102,34.7521837 159.247347,36.2262245 159.829163,40.1723878 C160.416551,44.1487959 166.466327,42.6731633 165.887694,38.7301837 L165.88849,38.7301837" id="Fill-44" fill="#DC3C4C"></path>
            </g>
        </g>
    </g>
</svg>