<?xml version="1.0" encoding="UTF-8" standalone="no"?>
<svg width="92px" height="92px" viewBox="0 0 92 92" version="1.1" xmlns="http://www.w3.org/2000/svg" xmlns:xlink="http://www.w3.org/1999/xlink">
    <!-- Generator: Sketch 41.2 (35397) - http://www.bohemiancoding.com/sketch -->
    <title>bride</title>
    <desc>Created with Sketch.</desc>
    <defs>
        <circle id="path-1" cx="46" cy="46" r="46"></circle>
        <mask id="mask-2" maskContentUnits="userSpaceOnUse" maskUnits="objectBoundingBox" x="0" y="0" width="92" height="92" fill="white">
            <use xlink:href="#path-1"></use>
        </mask>
    </defs>
    <g id="Templates" stroke="none" stroke-width="1" fill="none" fill-rule="evenodd">
        <g id="Template1-Bio" transform="translate(-142.000000, -418.000000)">
            <g id="All">
                <g id="bridegroom-copy" transform="translate(49.000000, 418.000000)">
                    <g id="bride" transform="translate(93.000000, 0.000000)">
                        <use id="Oval" stroke="#EFEFEF" mask="url(#mask-2)" stroke-width="6" fill="#F5F5F5" xlink:href="#path-1"></use>
                        <g id="Page-1" transform="translate(26.000000, 17.000000)">
                            <path d="M3.88349515,50.7516699 L36.1165049,50.7516699 C38.261301,50.7516699 40,52.490365 40,54.635165 L40,57.7419612 C40,59.8867592 38.261301,61.6254551 36.1165049,61.6254551 L3.88349515,61.6254551 C1.73869903,61.6254551 0,59.8867592 0,57.7419612 L0,54.635165 C0,52.490365 1.73869903,50.7516699 3.88349515,50.7516699 Z" id="Fill-1" fill="#FBD4D5"></path>
                            <path d="M25.0638214,10.1207379 C26.6250019,10.72 28.574633,9.42384466 29.4184388,7.22563107 C30.2622485,5.02745631 28.1195184,2.16034951 28.1195184,2.16034951 C28.1195184,2.16034951 24.6087068,2.85724272 23.764901,5.05545631 C22.9210913,7.25363107 23.5026369,9.52143689 25.0638214,10.1207379 Z" id="Fill-3" fill="#DFE38B"></path>
                            <path d="M10.9860388,8.94594175 C11.5864233,8.14920388 11.1637049,6.81801942 10.0418718,5.97266019 C8.92003495,5.12730097 6.92351068,5.88462136 6.92351068,5.88462136 C6.92351068,5.88462136 6.74584466,8.01254369 7.86767767,8.85790291 C8.98951456,9.70326214 10.3856505,9.74267961 10.9860388,8.94594175 Z" id="Fill-4" fill="#DFE38B"></path>
                            <path d="M29.769099,11.2636893 C29.1687107,10.4669515 29.5914291,9.13576699 30.713266,8.29036893 C31.835099,7.44500971 33.8316233,8.2023301 33.8316233,8.2023301 C33.8316233,8.2023301 34.0092893,10.3302524 32.8874563,11.1756505 C31.7656194,12.0210097 30.3694835,12.0604272 29.769099,11.2636893 Z" id="Fill-5" fill="#DFE38B"></path>
                            <path d="M9.08380583,9.75568932 C9.68419417,10.5524272 9.26147573,11.8836117 8.13963883,12.7289709 C7.01780583,13.5743301 5.02128155,12.8170097 5.02128155,12.8170097 C5.02128155,12.8170097 4.84361165,10.6890874 5.96544854,9.84372816 C7.08728544,8.99836893 8.48342136,8.95895146 9.08380583,9.75568932 Z" id="Fill-6" fill="#DFE38B"></path>
                            <path d="M29.6818951,9.88768932 C29.0815107,10.6844272 29.5042291,12.0156117 30.6260621,12.8609709 C31.747899,13.7063301 33.7444233,12.9490097 33.7444233,12.9490097 C33.7444233,12.9490097 33.9220893,10.8210874 32.8002563,9.97572816 C31.6784194,9.13036893 30.2822835,9.09095146 29.6818951,9.88768932 Z" id="Fill-7" fill="#DFE38B"></path>
                            <polygon id="Fill-8" fill="#F4B5B5" points="10.4206757 11.9012816 9.90561165 12.2839612 9.55908738 11.8007379 8.92125437 12.0488544 8.77405825 11.5079612 8.07012427 11.5994563 8.13533592 11.0490485 7.42785243 10.975767 7.69967767 10.464699 7.05150291 10.2332039 7.50579029 9.80687379 6.97452427 9.43770874 7.57090485 9.13398058 7.20374757 8.65996117 7.88923495 8.50590291 7.71880777 7.96912621 8.4324932 7.97836893 8.47394563 7.42652427 9.15240777 7.59825243 9.40205437 7.08042718 9.98501748 7.39937864 10.4206757 6.96151456 10.856334 7.39937864 11.4392932 7.08042718 11.6889398 7.59825243 12.3674058 7.42652427 12.4088583 7.97836893 13.1225398 7.96912621 12.9521165 8.50590291 13.6376039 8.65996117 13.2704427 9.13398058 13.8668272 9.43770874 13.3355573 9.80687379 13.7898447 10.2332039 13.1416699 10.464699 13.413499 10.975767 12.7060117 11.0490485 12.7712272 11.5994563 12.0672893 11.5079612 11.9200971 12.0488544 11.2822602 11.8007379 10.9357359 12.2839612"></polygon>
                            <polygon id="Fill-9" fill="#F4B5B5" points="28.6135146 9.67087379 28.0984544 10.0535534 27.7519301 9.5703301 27.1140932 9.8184466 26.966901 9.2775534 26.2629631 9.36904854 26.3281786 8.81860194 25.6206913 8.74535922 25.8925204 8.23425243 25.2443456 8.00279612 25.698633 7.57642718 25.1673631 7.20730097 25.7637476 6.90357282 25.3965864 6.4295534 26.0820738 6.27549515 25.9116505 5.73871845 26.625332 5.74796117 26.6667845 5.1961165 27.3452505 5.36784466 27.5948971 4.85001942 28.1778563 5.16897087 28.6135146 4.7311068 29.0491728 5.16897087 29.6321359 4.85001942 29.8817825 5.36784466 30.5602447 5.1961165 30.601701 5.74796117 31.3153825 5.73871845 31.1449592 6.27549515 31.8304427 6.4295534 31.4632854 6.90357282 32.059666 7.20730097 31.5283961 7.57642718 31.9826874 8.00279612 31.3345126 8.23425243 31.6063379 8.74535922 30.8988505 8.81860194 30.9640699 9.36904854 30.260132 9.2775534 30.1129398 9.8184466 29.475099 9.5703301 29.1285786 10.0535534"></polygon>
                            <polygon id="Fill-10" fill="#FFFFFF" points="22.4164117 6.54897087 21.9013476 6.93165049 21.5548233 6.44838835 20.9169864 6.69650485 20.7697942 6.15561165 20.0658563 6.2471068 20.1310718 5.69669903 19.4235845 5.62345631 19.6954136 5.11234951 19.0472388 4.88085437 19.5015262 4.45452427 18.9702563 4.08535922 19.5666408 3.7816699 19.1994796 3.30765049 19.884967 3.1535534 19.7145437 2.6167767 20.4282252 2.62601942 20.4696777 2.07421359 21.1481437 2.24590291 21.3977903 1.72807767 21.9807495 2.04702913 22.4164117 1.60916505 22.852066 2.04702913 23.4350291 1.72807767 23.6846757 2.24590291 24.3631379 2.07421359 24.4045942 2.62601942 25.1182757 2.6167767 24.9478524 3.1535534 25.6333359 3.30765049 25.2661786 3.7816699 25.8625631 4.08535922 25.3312932 4.45452427 25.7855806 4.88085437 25.1374058 5.11234951 25.409235 5.62345631 24.7017476 5.69669903 24.7669631 6.2471068 24.0630252 6.15561165 23.915833 6.69650485 23.2779961 6.44838835 22.9314718 6.93165049"></polygon>
                            <polygon id="Fill-11" fill="#F6E6D7" points="13.4780117 9.5304466 12.8651612 10.0403883 12.4528466 9.39642718 11.6939107 9.72706796 11.5187689 9.0063301 10.6811845 9.12823301 10.7587806 8.39479612 9.91697087 8.29716505 10.2404078 7.6161165 9.46917282 7.30765049 10.0097087 6.73953398 9.37757282 6.24765049 10.0871883 5.84295146 9.65031845 5.21130097 10.4659534 5.00598058 10.2631728 4.29071845 11.1123534 4.30302913 11.1616777 3.56772816 11.9689553 3.79654369 12.266 3.10652427 12.9596388 3.53153398 13.4780117 2.94807767 13.9963845 3.53153398 14.6900272 3.10652427 14.9870718 3.79654369 15.7943495 3.56772816 15.8436699 4.30302913 16.6928544 4.29071845 16.4900738 5.00598058 17.3057049 5.21130097 16.8688388 5.84295146 17.5784505 6.24765049 16.9463146 6.73953398 17.4868544 7.30765049 16.7156155 7.6161165 17.0390524 8.29716505 16.1972427 8.39479612 16.2748388 9.12823301 15.4372544 9.0063301 15.2621165 9.72706796 14.5031806 9.39642718 14.090866 10.0403883"></polygon>
                            <polygon id="Fill-12" fill="#F4B5B5" points="17.3323068 6.54897087 16.8172427 6.93165049 16.4707184 6.44838835 15.8328816 6.69650485 15.6856893 6.15561165 14.9817553 6.2471068 15.046967 5.69669903 14.3394835 5.62345631 14.6113087 5.11234951 13.963134 4.88085437 14.4174214 4.45452427 13.8861553 4.08535922 14.4825359 3.7816699 14.1153786 3.30765049 14.800866 3.1535534 14.6304388 2.6167767 15.3441243 2.62601942 15.3855767 2.07421359 16.0640388 2.24590291 16.3136854 1.72807767 16.8966485 2.04702913 17.3323068 1.60916505 17.767965 2.04702913 18.3509243 1.72807767 18.6005709 2.24590291 19.2790369 2.07421359 19.3204893 2.62601942 20.0341709 2.6167767 19.8637476 3.1535534 20.549235 3.30765049 20.1820738 3.7816699 20.7784583 4.08535922 20.2471883 4.45452427 20.7014757 4.88085437 20.053301 5.11234951 20.3251301 5.62345631 19.6176427 5.69669903 19.6828583 6.2471068 18.9789204 6.15561165 18.8317282 6.69650485 18.1938913 6.44838835 17.847367 6.93165049"></polygon>
                            <path d="M4.83418641,38.0896311 C4.80970485,37.3538291 4.79725825,36.6110835 4.79725825,35.8622524 C4.79725825,18.4227961 4.92575534,4.28535922 19.8743573,4.28535922 C34.8229592,4.28535922 34.9514563,18.4227961 34.9514563,35.8622524 C34.9514563,36.6114097 34.9390019,37.3544738 34.9144971,38.0905786 C34.9386951,38.1992971 34.9514563,38.3122408 34.9514563,38.428066 L34.9514563,48.3010524 C34.9514563,48.3548233 34.9487262,48.4079573 34.9434019,48.4603184 C34.8363534,50.6919806 33.6754524,52.4492505 32.2591184,52.4492505 C31.7687262,52.4492505 31.3089553,52.2385864 30.9129476,51.8705087 C30.5169398,52.2385864 30.0571728,52.4492505 29.5667767,52.4492505 C29.0763883,52.4492505 28.6166175,52.2385864 28.2206097,51.8705087 L28.2206097,51.8705087 C27.8246019,52.2385864 27.3648311,52.4492505 26.8744388,52.4492505 C26.2683379,52.4492505 25.7090136,52.1274408 25.2590369,51.5843612 C24.8090602,52.1274408 24.2497359,52.4492505 23.6436311,52.4492505 C23.0375301,52.4492505 22.4782058,52.1274408 22.0282291,51.5843612 L22.0282291,51.5843612 C21.5782524,52.1274408 21.0189282,52.4492505 20.4128272,52.4492505 C19.8067223,52.4492505 19.2473981,52.1274408 18.7974214,51.5843612 C18.3474447,52.1274408 17.7881204,52.4492505 17.1820194,52.4492505 C16.5759146,52.4492505 16.0165903,52.1274408 15.5666136,51.5843612 C15.1166369,52.1274408 14.5573126,52.4492505 13.9512117,52.4492505 C13.3451107,52.4492505 12.7857864,52.1274408 12.3358097,51.5843612 C11.885833,52.1274408 11.3265087,52.4492505 10.7204039,52.4492505 C10.1143029,52.4492505 9.55497864,52.1274408 9.10500194,51.5843612 C8.65502524,52.1274408 8.09570097,52.4492505 7.48959612,52.4492505 C6.07302913,52.4492505 4.91198058,50.6913981 4.80525825,48.4592155 C4.79996893,48.4071922 4.79725825,48.3544311 4.79725825,48.3010524 L4.79725825,38.428066 C4.79725825,38.3118291 4.81000777,38.1985748 4.83418641,38.0896311 Z" id="Fill-13" fill="#FBD4D5"></path>
                            <path d="M19.4174757,4.27184466 L19.4174757,4.27184466 C26.9242602,4.27184466 33.0097087,10.3572816 33.0097087,17.8640777 L33.0097087,17.8640777 C33.0097087,25.3708621 26.9242602,31.4563107 19.4174757,31.4563107 L19.4174757,31.4563107 C11.9106874,31.4563107 5.82524272,25.3708621 5.82524272,17.8640777 L5.82524272,17.8640777 C5.82524272,10.3572816 11.9106874,4.27184466 19.4174757,4.27184466 Z" id="Fill-14" fill="#F9DD8E"></path>
                            <path d="M2.38511961,50.9812039 L2.33009709,50.9812039 C4.58655534,46.542132 9.67992233,43.1743146 15.9223301,42.1594757 L15.9223301,36.8932039 L23.6245942,36.8932039 L23.6245942,42.1266058 C29.5180427,43.0316621 34.4121087,46.0296777 36.9035456,50.0550602 C37.3614408,50.325033 37.6699029,50.8232466 37.6699029,51.3931961 L37.6699029,51.9240583 C37.6699029,52.7840427 36.9747573,53.4764311 36.1172505,53.4764311 L3.88274718,53.4764311 C3.02807922,53.4764311 2.33009709,52.7814136 2.33009709,51.9240583 L2.33009709,51.3931961 C2.33009709,51.2504427 2.3492501,51.1123146 2.38511961,50.9812039 Z" id="Fill-15" fill="#F6E6D7"></path>
                            <path d="M30.6796117,25.4967883 L30.6796117,21.7487379 C30.6796117,15.7426796 25.8125748,10.8737864 19.8058252,10.8737864 C13.8004,10.8737864 8.93203883,15.7447767 8.93203883,21.7487379 L8.93203883,25.3304272 C8.03553398,25.6070447 7.37864078,26.5062447 7.37864078,27.5728155 C7.37864078,28.6393864 8.03553398,29.5385864 8.93203883,29.8152039 L8.93203883,29.9017631 C8.93203883,35.9078252 13.7990796,40.776699 19.8058252,40.776699 C25.8112505,40.776699 30.6796117,35.9057243 30.6796117,29.9017631 L30.6796117,29.6488427 C31.3712,29.263165 31.8446602,28.4783107 31.8446602,27.5728155 C31.8446602,26.6673204 31.3712,25.882466 30.6796117,25.4967883 Z" id="Fill-16" fill="#F6E6D7"></path>
                            <path d="M15.7691146,31.9622252 C15.7691146,33.0995534 14.8471262,34.0215417 13.7097981,34.0215417 C12.5724738,34.0215417 11.6504854,33.0995534 11.6504854,31.9622252 C11.6504854,30.824901 12.5724738,29.9029126 13.7097981,29.9029126 C14.8471262,29.9029126 15.7691146,30.824901 15.7691146,31.9622252 Z" id="Fill-17" fill="#FBD4D5"></path>
                            <path d="M28.5846485,31.9622252 C28.5846485,33.0995534 27.6626602,34.0215417 26.525332,34.0215417 C25.3880078,34.0215417 24.4660194,33.0995534 24.4660194,31.9622252 C24.4660194,30.824901 25.3880078,29.9029126 26.525332,29.9029126 C27.6626602,29.9029126 28.5846485,30.824901 28.5846485,31.9622252 Z" id="Fill-18" fill="#FBD4D5"></path>
                            <path d="M19.8058252,36.5048544 C20.8782252,36.5048544 21.7475728,35.5920388 21.7475728,34.4660194 C21.7475728,33.34 20.776699,34.4660194 19.8058252,34.4660194 C18.8349515,34.4660194 17.8640777,33.34 17.8640777,34.4660194 C17.8640777,35.5920388 18.7334252,36.5048544 19.8058252,36.5048544 Z" id="Fill-19" fill="#EF9E9E"></path>
                            <path d="M19.2506214,14.3985631 C20.7336078,12.751534 21.2304893,10.5622136 19.4409825,8.95091262 C17.6514757,7.33965049 15.2112621,7.7792233 13.7282757,9.42621359 C12.2452893,11.0732427 13.8625282,15.1464466 12.1057903,17.0974757 C10.3490485,19.0485437 17.767635,16.0455922 19.2506214,14.3985631 Z" id="Fill-20" fill="#F9DD8E"></path>
                            <path d="M19.0291262,8.72951456 C22.6752777,8.72951456 25.631068,7.44842718 25.631068,4.66019417 C25.631068,1.87196117 22.6752777,0.334485437 19.0291262,0.334485437 C15.3829748,0.334485437 12.4271845,1.87196117 12.4271845,4.66019417 C12.4271845,7.44842718 15.3829748,8.72951456 19.0291262,8.72951456 Z" id="Fill-21" fill="#F9DD8E"></path>
                            <path d="M14.7572816,24.8543689 C14.7572816,25.4978058 14.2356699,26.0194175 13.592233,26.0194175 C12.9487961,26.0194175 12.4271845,25.4978058 12.4271845,24.8543689 C12.4271845,24.210932 12.9487961,23.6893204 13.592233,23.6893204 C14.2356699,23.6893204 14.7572816,24.210932 14.7572816,24.8543689 Z" id="Fill-22" fill="#9FDCD7"></path>
                            <path d="M26.407767,24.8543689 C26.407767,25.4978058 25.8861553,26.0194175 25.2427184,26.0194175 C24.5992816,26.0194175 24.0776699,25.4978058 24.0776699,24.8543689 C24.0776699,24.210932 24.5992816,23.6893204 25.2427184,23.6893204 C25.8861553,23.6893204 26.407767,24.210932 26.407767,24.8543689 Z" id="Fill-23" fill="#9FDCD7"></path>
                            <path d="M21.4499379,29.1262136 C21.1573165,27.9859456 20.4647612,27.184466 19.6570097,27.184466 C18.8492544,27.184466 18.1567029,27.9859456 17.8640777,29.1262136 L21.4499379,29.1262136 L21.4499379,29.1262136 L21.4499379,29.1262136 Z" id="Fill-24" fill-opacity="0.5" fill="#D5B9AE"></path>
                        </g>
                    </g>
                </g>
            </g>
        </g>
    </g>
</svg>