<?xml version="1.0" encoding="UTF-8" standalone="no"?>
<svg width="34px" height="34px" viewBox="0 0 34 34" version="1.1" xmlns="http://www.w3.org/2000/svg" xmlns:xlink="http://www.w3.org/1999/xlink">
    <!-- Generator: Sketch 41.2 (35397) - http://www.bohemiancoding.com/sketch -->
    <title>close</title>
    <desc>Created with Sketch.</desc>
    <defs></defs>
    <g id="Page-1" stroke="none" stroke-width="1" fill="none" fill-rule="evenodd">
        <path d="M33.5143461,4.83914775 C34.1219692,4.23031496 34.1219692,3.24448438 33.5143461,2.63565159 L31.3044753,0.4257808 C30.6956425,-0.181842322 29.709812,-0.181842322 29.1009792,0.4257808 L16.9700635,12.5609463 L4.83914775,0.4257808 C4.23031496,-0.181842322 3.24448438,-0.181842322 2.63565159,0.4257808 L0.4257808,2.63565159 C-0.181842322,3.24448438 -0.181842322,4.23031496 0.4257808,4.83914775 L12.5609463,16.9700635 L0.427905675,29.1009792 C-0.180206793,29.7112683 -0.180206793,30.6984359 0.427905675,31.3087251 L2.63777646,33.5122212 C3.24660926,34.1198444 4.23243984,34.1198444 4.84127263,33.5122212 L16.9700635,21.3813055 L29.1009792,33.5143461 C29.709812,34.1219692 30.6956425,34.1219692 31.3044753,33.5143461 L33.5143461,31.3044753 C34.1219692,30.6956425 34.1219692,29.709812 33.5143461,29.1009792 L21.3791807,16.9700635 L33.5143461,4.83914775 Z" id="close" fill="#FFFFFF"></path>
    </g>
</svg>