<?xml version="1.0" encoding="UTF-8" standalone="no"?>
<svg width="217px" height="107px" viewBox="0 0 217 107" version="1.1" xmlns="http://www.w3.org/2000/svg" xmlns:xlink="http://www.w3.org/1999/xlink">
    <!-- Generator: Sketch 41.2 (35397) - http://www.bohemiancoding.com/sketch -->
    <title>cover-title</title>
    <desc>Created with Sketch.</desc>
    <defs>
        <polygon id="path-1" points="7.69453685 0.268555479 0.117378835 0.268555479 0.117378835 23.4371907 7.69453685 23.4371907 7.69453685 0.268555479"></polygon>
    </defs>
    <g id="Templates" stroke="none" stroke-width="1" fill="none" fill-rule="evenodd">
        <g id="Template1-Cover" transform="translate(-86.000000, -108.000000)">
            <g id="All">
                <g id="cover-title" transform="translate(50.000000, 108.000000)">
                    <g id="Group-9" transform="translate(32.000000, 0.000000)">
                        <g id="cover-title">
                            <path d="M11.0368872,53 C10.0768824,53.200001 9.25689058,53.6599964 8.57688718,54.38 C8.37688618,54.580001 8.19688798,54.7699991 8.03688718,54.95 C7.87688638,55.1300009 7.71688798,55.319999 7.55688718,55.52 C7.23688558,55.920002 6.95688838,56.3299979 6.71688718,56.75 C6.47688598,57.1700021 6.31688758,57.6399974 6.23688718,58.16 L5.87688718,60.68 C5.83688698,61.3200032 5.86688668,61.9299971 5.96688718,62.51 C6.06688768,63.0900029 6.21688618,63.6599972 6.41688718,64.22 C6.09688558,64.4600012 5.85688798,64.4600012 5.69688718,64.22 C5.53688638,64.019999 5.38688788,63.8300009 5.24688718,63.65 C5.10688648,63.4699991 4.99688758,63.280001 4.91688718,63.08 C4.55688538,62.3199962 4.34688748,61.5600038 4.28688718,60.8 C4.22688688,60.0399962 4.23688678,59.260004 4.31688718,58.46 C4.47688798,56.3799896 5.21688058,54.4800086 6.53688718,52.76 C7.57689238,51.3999932 8.89687918,50.6000012 10.4968872,50.36 C10.7768886,50.3199998 11.0468859,50.3199998 11.3068872,50.36 C11.5668885,50.4000002 11.816886,50.4599996 12.0568872,50.54 C12.8568912,50.8200014 13.5968838,51.159998 14.2768872,51.56 C14.9568906,51.960002 15.4768854,52.559996 15.8368872,53.36 C16.0768884,53.9200028 16.3368858,54.4499975 16.6168872,54.95 C16.8968886,55.4500025 17.0768868,56.0199968 17.1568872,56.66 C17.2368876,56.9800016 17.3268867,57.2799986 17.4268872,57.56 C17.5268877,57.8400014 17.6168868,58.1399984 17.6968872,58.46 C17.7768876,58.7000012 17.836887,58.9399988 17.8768872,59.18 L17.9968872,59.9 C18.3968892,62.300012 18.4868883,64.7299877 18.2668872,67.19 C18.0468861,69.6500123 17.7868887,72.1199876 17.4868872,74.6 C17.1868857,77.0800124 16.9868877,79.5399878 16.8868872,81.98 C16.7868867,84.4200122 17.0768838,86.8199882 17.7568872,89.18 C17.9568882,89.8600034 18.1368864,90.5199968 18.2968872,91.16 C18.456888,91.8000032 18.7168854,92.419997 19.0768872,93.02 C19.2768882,93.3400016 19.4168868,93.5199998 19.4968872,93.56 C19.5768876,93.6000002 19.7768856,93.5800004 20.0968872,93.5 C20.7768906,93.3399992 21.3668847,93.060002 21.8668872,92.66 C22.3668897,92.259998 22.7968854,91.7800028 23.1568872,91.22 C23.6768898,90.419996 24.1368852,89.5900043 24.5368872,88.73 C24.9368892,87.8699957 25.2768858,86.9800046 25.5568872,86.06 C25.7968884,85.3799966 25.9968864,84.6900035 26.1568872,83.99 C26.316888,83.2899965 26.4968862,82.5800036 26.6968872,81.86 C26.8968882,81.0999962 27.0868863,80.3500037 27.2668872,79.61 C27.4468881,78.8699963 27.6368862,78.1200038 27.8368872,77.36 C28.0368882,76.6799966 28.1668869,76.0100033 28.2268872,75.35 C28.2868875,74.6899967 28.3568868,74.0200034 28.4368872,73.34 C28.5568878,72.4199954 28.6668867,71.4900047 28.7668872,70.55 C28.8668877,69.6099953 28.9768866,68.6800046 29.0968872,67.76 C29.0968872,67.5999992 29.1068871,67.4500007 29.1268872,67.31 C29.1468873,67.1699993 29.1568872,67.0200008 29.1568872,66.86 C29.2368876,66.3799976 29.5168848,66.1000004 29.9968872,66.02 C30.356889,65.9399996 30.6968856,65.9499995 31.0168872,66.05 C31.3368888,66.1500005 31.5968862,66.399998 31.7968872,66.8 C31.956888,67.0800014 32.1368862,67.3299989 32.3368872,67.55 C32.5368882,67.7700011 32.7368862,68.0199986 32.9368872,68.3 C33.1768884,68.6200016 33.316887,68.9199986 33.3568872,69.2 C33.3968874,69.600002 33.4268871,69.999998 33.4468872,70.4 C33.4668873,70.800002 33.4768872,71.2199978 33.4768872,71.66 C33.3968868,73.460009 33.376887,75.2799908 33.4168872,77.12 C33.4568874,78.9600092 33.4768872,80.7999908 33.4768872,82.64 C33.436887,85.640015 33.436887,88.739984 33.4768872,91.94 C33.5168874,95.140016 33.9168834,98.2199852 34.6768872,101.18 C34.7168874,101.380001 34.7868867,101.569999 34.8868872,101.75 C34.9868877,101.930001 35.0968866,102.119999 35.2168872,102.32 C35.7368898,103.000003 36.3968832,103.140002 37.1968872,102.74 C37.3968882,102.619999 37.5868863,102.490001 37.7668872,102.35 C37.9468881,102.209999 38.0968866,102.040001 38.2168872,101.84 C38.7368898,100.999996 39.2568846,100.170004 39.7768872,99.35 C40.2968898,98.5299959 40.7968848,97.6800044 41.2768872,96.8 C41.7168894,95.999996 42.1468851,95.1700043 42.5668872,94.31 C42.9868893,93.4499957 43.3968852,92.6000042 43.7968872,91.76 C44.1168888,91.0399964 44.396886,90.3200036 44.6368872,89.6 C44.8768884,88.8799964 45.1368858,88.1600036 45.4168872,87.44 C45.3368868,87.3599996 45.2568876,87.2700005 45.1768872,87.17 C45.0968868,87.0699995 45.0168876,86.9800004 44.9368872,86.9 C44.096883,86.2199966 43.5768882,85.280006 43.3768872,84.08 C43.2968868,83.479997 43.2068877,82.8700031 43.1068872,82.25 C43.0068867,81.6299969 42.9568872,81.0000032 42.9568872,80.36 C42.916887,79.8399974 42.9368868,79.3200026 43.0168872,78.8 C43.0968876,78.2799974 43.156887,77.7400028 43.1968872,77.18 C43.3168878,76.2599954 43.4368866,75.3300047 43.5568872,74.39 C43.6768878,73.4499953 43.7768868,72.5000048 43.8568872,71.54 C43.9368876,70.339994 44.1568854,69.1600058 44.5168872,68 C44.876889,66.8399942 45.2168856,65.6800058 45.5368872,64.52 C45.7768884,63.719996 46.1668845,62.9800034 46.7068872,62.3 C47.2468899,61.6199966 47.936883,61.1400014 48.7768872,60.86 C49.536891,60.659999 50.2468839,60.6999986 50.9068872,60.98 C51.5668905,61.2600014 51.9568866,61.8199958 52.0768872,62.66 C52.1968878,63.460004 52.2568872,64.2399962 52.2568872,65 C52.2568872,65.7600038 52.276887,66.539996 52.3168872,67.34 C52.3568874,68.340005 52.3468875,69.3299951 52.2868872,70.31 C52.2268869,71.2900049 52.0968882,72.2599952 51.8968872,73.22 C51.6968862,74.1800048 51.4768884,75.1399952 51.2368872,76.1 C50.996886,77.0600048 50.8168878,78.039995 50.6968872,79.04 C50.656887,79.240001 50.6168874,79.4099993 50.5768872,79.55 C50.536887,79.6900007 50.4768876,79.8399992 50.3968872,80 C50.2368864,80.7600038 50.0268885,81.4899965 49.7668872,82.19 C49.5068859,82.8900035 49.2568884,83.5799966 49.0168872,84.26 C48.8968866,84.5800016 48.8668869,84.7899995 48.9268872,84.89 C48.9868875,84.9900005 49.1568858,85.139999 49.4368872,85.34 C50.0768904,85.740002 50.716884,85.7600018 51.3568872,85.4 C52.3968924,84.7599968 53.236884,83.940005 53.8768872,82.94 C54.3168894,82.2999968 54.7368852,81.6700031 55.1368872,81.05 C55.5368892,80.4299969 55.956885,79.7800034 56.3968872,79.1 C56.4768876,78.9399992 56.5568868,78.7900007 56.6368872,78.65 C56.7168876,78.5099993 56.7968868,78.340001 56.8768872,78.14 C57.1568886,77.5799972 57.416886,77.0400026 57.6568872,76.52 C57.8968884,75.9999974 58.136886,75.4600028 58.3768872,74.9 C58.5768882,74.499998 58.8068859,74.1900011 59.0668872,73.97 C59.3268885,73.7499989 59.6968848,73.6799996 60.1768872,73.76 C60.2568876,73.8000002 60.3368868,73.8000002 60.4168872,73.76 C60.4968876,73.7199998 60.5968866,73.7 60.7168872,73.7 C60.8368878,73.7 60.7368888,74.0599964 60.4168872,74.78 C60.0968856,75.5000036 59.6868897,76.3399952 59.1868872,77.3 C58.6868847,78.2600048 58.1668899,79.2299951 57.6268872,80.21 C57.0868845,81.1900049 56.6568888,81.9199976 56.3368872,82.4 C55.8168846,83.1200036 55.2968898,83.8299965 54.7768872,84.53 C54.2568846,85.2300035 53.6568906,85.8599972 52.9768872,86.42 C52.2168834,87.0600032 51.356892,87.6199976 50.3968872,88.1 C49.6768836,88.4200016 48.8968914,88.480001 48.0568872,88.28 C47.8968864,88.2399998 47.6168892,88.1800004 47.2168872,88.1 C47.0968866,88.4200016 46.9668879,88.7299985 46.8268872,89.03 C46.6868865,89.3300015 46.5568878,89.6399984 46.4368872,89.96 C46.2768864,90.4400024 46.1368878,90.9299975 46.0168872,91.43 C45.8968866,91.9300025 45.7368882,92.4199976 45.5368872,92.9 C45.2168856,93.6600038 44.9068887,94.3999964 44.6068872,95.12 C44.3068857,95.8400036 43.9968888,96.5599964 43.6768872,97.28 C43.4768862,97.6400018 43.2768882,98.0799974 43.0768872,98.6 C42.7568856,99.1600028 42.4668885,99.7299971 42.2068872,100.31 C41.9468859,100.890003 41.636889,101.459997 41.2768872,102.02 C40.9968858,102.500002 40.6868889,102.959998 40.3468872,103.4 C40.0068855,103.840002 39.656889,104.279998 39.2968872,104.72 C38.856885,105.240003 38.35689,105.679998 37.7968872,106.04 C37.356885,106.360002 36.8968896,106.54 36.4168872,106.58 C35.9368848,106.62 35.4568896,106.64 34.9768872,106.64 L33.9568872,106.64 C33.0368826,106.68 32.2368906,106.490002 31.5568872,106.07 C30.8768838,105.649998 30.2768898,105.060004 29.7568872,104.3 C29.316885,103.619997 28.9868883,102.920004 28.7668872,102.2 C28.5468861,101.479996 28.3768878,100.720004 28.2568872,99.92 C28.0968864,98.7999944 27.9568878,97.6900055 27.8368872,96.59 C27.7168866,95.4899945 27.5968878,94.4000054 27.4768872,93.32 C27.3968868,92.6399966 27.3368874,91.9700033 27.2968872,91.31 C27.256887,90.6499967 27.2168874,89.9600036 27.1768872,89.24 C27.0968868,89.4000008 27.0268875,89.5299995 26.9668872,89.63 C26.9068869,89.7300005 26.8368876,89.8399994 26.7568872,89.96 C26.4768858,90.4400024 26.2068885,90.9299975 25.9468872,91.43 C25.6868859,91.9300025 25.4168886,92.4399974 25.1368872,92.96 C25.096887,93.0800006 24.996888,93.2199992 24.8368872,93.38 C24.396885,93.7400018 23.9868891,94.0999982 23.6068872,94.46 C23.2268853,94.8200018 22.8368892,95.1799982 22.4368872,95.54 C22.3168866,95.6200004 22.2168876,95.7099995 22.1368872,95.81 C22.0568868,95.9100005 22.0968864,96.059999 22.2568872,96.26 C22.0968864,96.3000002 21.9468879,96.3399998 21.8068872,96.38 C21.6668865,96.4200002 21.516888,96.4599998 21.3568872,96.5 L19.1968872,96.86 C18.156882,97.060001 17.2468911,96.9900017 16.4668872,96.65 C15.6868833,96.3099983 14.9568906,95.7600038 14.2768872,95 C13.7968848,94.4399972 13.4268885,93.8300033 13.1668872,93.17 C12.9068859,92.5099967 12.6768882,91.8400034 12.4768872,91.16 C11.7168834,88.359986 11.3968866,85.4000156 11.5168872,82.28 C11.5168872,82.079999 11.5068873,81.8700011 11.4868872,81.65 C11.4668871,81.4299989 11.4568872,81.220001 11.4568872,81.02 L11.4568872,80.21 C11.4568872,79.9499987 11.4968868,79.7000012 11.5768872,79.46 C11.736888,78.8999972 11.8068873,78.320003 11.7868872,77.72 C11.7668871,77.119997 11.7368874,76.520003 11.6968872,75.92 C11.6168868,75.3999974 11.5868871,74.8900025 11.6068872,74.39 C11.6268873,73.8899975 11.656887,73.3800026 11.6968872,72.86 C11.7768876,71.659994 11.8268871,70.4700059 11.8468872,69.29 C11.8668873,68.1099941 11.9168868,66.920006 11.9968872,65.72 C12.1968882,63.7999904 12.2268879,61.8800096 12.0868872,59.96 C11.9468865,58.0399904 11.7568884,56.1200096 11.5168872,54.2 L11.3968872,53.6 C11.356887,53.399999 11.2368882,53.200001 11.0368872,53 Z M47.5168872,80.3 L47.6368872,80.36 C47.6768874,80.2399994 47.7368868,80.1000008 47.8168872,79.94 C47.8968876,79.6599986 47.9868867,79.3900013 48.0868872,79.13 C48.1868877,78.8699987 48.2768868,78.5800016 48.3568872,78.26 C48.5568882,77.5399964 48.7468863,76.8100037 48.9268872,76.07 C49.1068881,75.3299963 49.2568866,74.5800038 49.3768872,73.82 C49.4568876,73.2599972 49.4868873,72.7200026 49.4668872,72.2 C49.4468871,71.6799974 49.4768868,71.1600026 49.5568872,70.64 C49.716888,69.6799952 49.7768874,68.7200048 49.7368872,67.76 C49.696887,66.7999952 49.6368876,65.8400048 49.5568872,64.88 C49.5568872,64.5599984 49.5068877,64.2300017 49.4068872,63.89 C49.3068867,63.5499983 49.176888,63.2200016 49.0168872,62.9 C48.8168862,63.100001 48.6768876,63.3399986 48.5968872,63.62 C48.3168858,64.4600042 48.1768872,65.3999948 48.1768872,66.44 C48.1768872,66.9200024 48.1468875,67.4099975 48.0868872,67.91 C48.0268869,68.4100025 47.9568876,68.9199974 47.8768872,69.44 C47.8768872,69.5600006 47.8568874,69.6699995 47.8168872,69.77 C47.776887,69.8700005 47.7568872,69.9799994 47.7568872,70.1 C47.7568872,70.7400032 47.7468873,71.359997 47.7268872,71.96 C47.7068871,72.560003 47.6368878,73.1799968 47.5168872,73.82 C47.4368868,74.4600032 47.4068871,75.0999968 47.4268872,75.74 C47.4468873,76.3800032 47.4368874,77.0399966 47.3968872,77.72 L47.3968872,79.28 C47.4368874,79.480001 47.4668871,79.6599992 47.4868872,79.82 C47.5068873,79.9800008 47.5168872,80.1399992 47.5168872,80.3 Z M77.9368872,73.88 C77.9768874,73.9600004 78.0968862,74.099999 78.2968872,74.3 C78.2168868,74.5400012 78.1368876,74.6999996 78.0568872,74.78 C77.616885,75.3400028 77.2368888,75.9999962 76.9168872,76.76 C76.8368868,76.8400004 76.7968872,76.9199996 76.7968872,77 C76.7968872,77.3600018 76.6968882,77.6699987 76.4968872,77.93 C76.2968862,78.1900013 76.1568876,78.4799984 76.0768872,78.8 C75.8768862,79.000001 75.7268877,79.2399986 75.6268872,79.52 C75.5268867,79.8000014 75.3768882,80.0599988 75.1768872,80.3 C74.736885,80.8600028 74.336889,81.439997 73.9768872,82.04 C73.6168854,82.640003 73.2468891,83.239997 72.8668872,83.84 C72.4868853,84.440003 72.0668895,85.0099973 71.6068872,85.55 C71.1468849,86.0900027 70.6168902,86.5799978 70.0168872,87.02 C69.5368848,87.3800018 69.0568896,87.7499981 68.5768872,88.13 C68.0968848,88.5100019 67.6068897,88.8499985 67.1068872,89.15 C66.6068847,89.4500015 66.07689,89.6899991 65.5168872,89.87 C64.9568844,90.0500009 64.3568904,90.1200002 63.7168872,90.08 C63.276885,90.0399998 62.8368894,89.9500007 62.3968872,89.81 C61.956885,89.6699993 61.5168894,89.5400006 61.0768872,89.42 L60.8368872,89.3 C60.4768854,89.0599988 60.1368888,88.8100013 59.8168872,88.55 C59.4968856,88.2899987 59.1968886,87.9800018 58.9168872,87.62 C58.1968836,86.5399946 57.7968876,85.300007 57.7168872,83.9 C57.676887,83.099996 57.6668871,82.3300037 57.6868872,81.59 C57.7068873,80.8499963 57.7568868,80.080004 57.8368872,79.28 C57.9168876,78.7999976 57.976887,78.3100025 58.0168872,77.81 C58.0568874,77.3099975 58.096887,76.8200024 58.1368872,76.34 C58.1368872,76.2199994 58.1468871,76.1100005 58.1668872,76.01 C58.1868873,75.9099995 58.216887,75.8000006 58.2568872,75.68 C58.3768878,75.1999976 58.4868867,74.7200024 58.5868872,74.24 C58.6868877,73.7599976 58.7768868,73.2600026 58.8568872,72.74 C59.016888,72.0999968 59.2068861,71.4900029 59.4268872,70.91 C59.6468883,70.3299971 59.876886,69.740003 60.1168872,69.14 L60.3568872,68.66 C60.5568882,68.459999 60.7068867,68.260001 60.8068872,68.06 C60.9068877,67.859999 60.9968868,67.660001 61.0768872,67.46 C61.0768872,67.4199998 61.0868871,67.3900001 61.1068872,67.37 C61.1268873,67.3499999 61.1368872,67.3200002 61.1368872,67.28 C61.2568878,66.8399978 61.4568858,66.4500017 61.7368872,66.11 C62.0168886,65.7699983 62.3168856,65.4400016 62.6368872,65.12 C62.7568878,64.9999994 62.8968864,64.9000004 63.0568872,64.82 C63.5768898,64.5399986 64.0968846,64.300001 64.6168872,64.1 C65.1368898,63.899999 65.6768844,63.7600004 66.2368872,63.68 C66.5568888,63.5999996 66.8768856,63.5300003 67.1968872,63.47 C67.5168888,63.4099997 67.8368856,63.4199996 68.1568872,63.5 C68.4368886,63.5 68.7768852,63.5399996 69.1768872,63.62 C69.2568876,63.62 69.316887,63.6299999 69.3568872,63.65 C69.3968874,63.6700001 69.4568868,63.68 69.5368872,63.68 C70.496892,63.7200002 71.1468855,64.1199962 71.4868872,64.88 C71.8268889,65.6400038 71.9468877,66.519995 71.8468872,67.52 C71.7468867,68.520005 71.4868893,69.4899953 71.0668872,70.43 C70.6468851,71.3700047 70.1768898,72.039998 69.6568872,72.44 C69.4968864,72.5200004 69.336888,72.6099995 69.1768872,72.71 C69.0168864,72.8100005 68.8768878,72.9399992 68.7568872,73.1 C68.6768868,73.2200006 68.5768878,73.28 68.4568872,73.28 C68.2968864,73.3600004 68.1468879,73.4399996 68.0068872,73.52 C67.8668865,73.6000004 67.6968882,73.6799996 67.4968872,73.76 C67.1368854,73.8800006 66.7868889,73.9999994 66.4468872,74.12 C66.1068855,74.2400006 65.7768888,74.3399996 65.4568872,74.42 C64.8968844,74.5000004 64.5768876,74.5799996 64.4968872,74.66 C64.4168868,74.7400004 64.3168878,74.9999978 64.1968872,75.44 C64.156887,75.6000008 64.1268873,75.7399994 64.1068872,75.86 C64.0868871,75.9800006 64.0768872,76.0999994 64.0768872,76.22 C64.0768872,76.9800038 64.0068879,77.8399952 63.8668872,78.8 C63.7268865,79.7600048 63.6068877,80.7199952 63.5068872,81.68 C63.4068867,82.6400048 63.3868869,83.5699955 63.4468872,84.47 C63.5068875,85.3700045 63.7768848,86.1399968 64.2568872,86.78 C64.5368886,87.180002 64.9368846,87.479999 65.4568872,87.68 C65.616888,87.8000006 65.8768854,87.8200004 66.2368872,87.74 C66.8768904,87.539999 67.3968852,87.2800016 67.7968872,86.96 C68.156889,86.7199988 68.5068855,86.4800012 68.8468872,86.24 C69.1868889,85.9999988 69.5168856,85.7600012 69.8368872,85.52 C70.1168886,85.2799988 70.376886,85.0200014 70.6168872,84.74 C70.976889,84.2599976 71.3268855,83.7900023 71.6668872,83.33 C72.0068889,82.8699977 72.3168858,82.3600028 72.5968872,81.8 C72.6768876,81.6799994 72.7468869,81.5700005 72.8068872,81.47 C72.8668875,81.3699995 72.9368868,81.2800004 73.0168872,81.2 C73.4968896,80.6399972 73.9168854,80.0400032 74.2768872,79.4 C74.636889,78.7599968 75.0168852,78.140003 75.4168872,77.54 C75.576888,77.2999988 75.676887,77.1200006 75.7168872,77 C75.9168882,76.5199976 76.1468859,76.0700021 76.4068872,75.65 C76.6668885,75.2299979 76.9568856,74.8000022 77.2768872,74.36 C77.436888,74.0399984 77.6568858,73.88 77.9368872,73.88 Z M70.6168872,66.98 C70.3368858,66.6599984 70.1368878,66.300002 70.0168872,65.9 C70.0168872,65.7799994 69.9568878,65.6800004 69.8368872,65.6 C69.5168856,65.2799984 69.1868889,65.0400008 68.8468872,64.88 C68.5068855,64.7199992 68.1168894,64.6799996 67.6768872,64.76 C66.9568836,64.8800006 66.4968882,65.239997 66.2968872,65.84 C66.1768866,66.1600016 66.0468879,66.4899983 65.9068872,66.83 C65.7668865,67.1700017 65.6768874,67.539998 65.6368872,67.94 C65.6368872,68.1800012 65.5768878,68.3799992 65.4568872,68.54 C65.2968864,68.8600016 65.1968874,69.1999982 65.1568872,69.56 C65.116887,69.9200018 65.0568876,70.2599984 64.9768872,70.58 C64.936887,70.8600014 64.8968874,71.1199988 64.8568872,71.36 C64.816887,71.6000012 64.7568876,71.8399988 64.6768872,72.08 C64.5968868,72.280001 64.5368874,72.4499993 64.4968872,72.59 C64.456887,72.7300007 64.4768868,72.899999 64.5568872,73.1 C65.5968924,72.9799994 66.536883,72.720002 67.3768872,72.32 C68.0168904,71.9999984 68.4968856,71.6000024 68.8168872,71.12 C69.0968886,70.7599982 69.3468861,70.4000018 69.5668872,70.04 C69.7868883,69.6799982 70.016886,69.300002 70.2568872,68.9 C70.3768878,68.699999 70.3968876,68.5400006 70.3168872,68.42 C70.276887,68.1799988 70.3168866,67.9000016 70.4368872,67.58 C70.4768874,67.4999996 70.5068871,67.4000006 70.5268872,67.28 C70.5468873,67.1599994 70.576887,67.0600004 70.6168872,66.98 Z M111.476887,73.28 C111.516887,73.480001 111.526887,73.6299995 111.506887,73.73 C111.486887,73.8300005 111.476887,73.9399994 111.476887,74.06 C111.556888,74.1800006 111.556888,74.2799996 111.476887,74.36 C111.276886,74.6800016 111.086888,75.0199982 110.906887,75.38 L110.396887,76.4 C110.076886,76.9600028 109.856888,77.4699977 109.736887,77.93 C109.616887,78.3900023 109.416889,78.8999972 109.136887,79.46 C108.656885,80.5000052 108.14689,81.519995 107.606887,82.52 C107.066884,83.520005 106.53689,84.519995 106.016887,85.52 C105.216883,87.0400076 104.316892,88.499993 103.316887,89.9 C102.316882,91.300007 101.116894,92.5199948 99.7168872,93.56 C98.8368828,94.160003 97.8568926,94.7799968 96.7768872,95.42 C96.4568856,95.620001 96.1068891,95.7299999 95.7268872,95.75 C95.3468853,95.7700001 94.9568892,95.7400004 94.5568872,95.66 C94.3968864,95.5799996 94.236888,95.5300001 94.0768872,95.51 C93.9168864,95.4899999 93.756888,95.4600002 93.5968872,95.42 C91.3968762,95.0599982 89.8968912,93.8200106 89.0968872,91.7 C88.856886,91.099997 88.7068875,90.500003 88.6468872,89.9 C88.5868869,89.299997 88.5168876,88.700003 88.4368872,88.1 C88.4368872,87.9399992 88.4268873,87.7900007 88.4068872,87.65 C88.3868871,87.5099993 88.3568874,87.340001 88.3168872,87.14 L87.9568872,87.38 C87.7968864,87.4600004 87.6968874,87.5199998 87.6568872,87.56 L87.5368872,87.68 C87.296886,87.880001 87.1168878,88.1199986 86.9968872,88.4 C86.5168848,89.0800034 85.9368906,89.5399988 85.2568872,89.78 C84.5768838,90.0200012 83.8668909,90.1100003 83.1268872,90.05 C82.3868835,89.9899997 81.6468909,89.8200014 80.9068872,89.54 C80.1668835,89.2599986 79.5368898,88.9000022 79.0168872,88.46 C78.6568854,88.1399984 78.296889,87.8000018 77.9368872,87.44 C77.5768854,87.0799982 77.2568886,86.700002 76.9768872,86.3 C76.2968838,85.2199946 75.8568882,84.0700061 75.6568872,82.85 C75.4568862,81.6299939 75.4368864,80.3800064 75.5968872,79.1 C75.7968882,77.3799914 76.2768834,75.7000082 77.0368872,74.06 C77.796891,72.4199918 78.8168808,71.000006 80.0968872,69.8 C80.456889,69.4399982 80.856885,69.0900017 81.2968872,68.75 C81.7368894,68.4099983 82.1968848,68.1200012 82.6768872,67.88 C83.036889,67.679999 83.4068853,67.5400004 83.7868872,67.46 C84.1668891,67.3799996 84.5368854,67.2800006 84.8968872,67.16 C85.256889,67.0399994 85.5968856,66.880001 85.9168872,66.68 C86.2368888,66.479999 86.5768854,66.3200006 86.9368872,66.2 C87.3768894,66.0399992 87.8368848,65.9400002 88.3168872,65.9 C88.7968896,65.8599998 89.2768848,65.84 89.7568872,65.84 C89.9568882,65.84 90.1368864,65.8200002 90.2968872,65.78 L90.4768872,65.24 C90.7568886,63.9599936 91.016886,62.6400068 91.2568872,61.28 C91.4968884,59.9199932 91.836885,58.6000064 92.2768872,57.32 C92.5568886,56.519996 92.8368858,55.7100041 93.1168872,54.89 C93.3968886,54.0699959 93.6768858,53.260004 93.9568872,52.46 C94.116888,52.0199978 94.2968862,51.600002 94.4968872,51.2 C94.6968882,50.799998 94.9368858,50.4400016 95.2168872,50.12 C95.6168892,49.6799978 96.0668847,49.3700009 96.5668872,49.19 C97.0668897,49.0099991 97.5968844,48.92 98.1568872,48.92 L98.9968872,48.92 C99.156888,48.9600002 99.3068865,48.98 99.4468872,48.98 C99.5868879,48.98 99.6968868,49.0199996 99.7768872,49.1 C100.136889,49.3800014 100.496885,49.6499987 100.856887,49.91 C101.216889,50.1700013 101.536886,50.4599984 101.816887,50.78 C102.45689,51.4600034 102.986885,52.2099959 103.406887,53.03 C103.826889,53.8500041 103.996888,54.759995 103.916887,55.76 C103.916887,55.960001 103.936887,56.159999 103.976887,56.36 C104.016887,56.560001 104.036887,56.759999 104.036887,56.96 C103.996887,58.2400064 103.836889,59.4899939 103.556887,60.71 C103.276886,61.9300061 102.956889,63.139994 102.596887,64.34 C102.276886,65.3800052 101.886889,66.4099949 101.426887,67.43 C100.966885,68.4500051 100.49689,69.4399952 100.016887,70.4 C99.8568864,70.7200016 99.696888,70.9999988 99.5368872,71.24 C99.3768864,71.4800012 99.2368878,71.7399986 99.1168872,72.02 C98.9568864,72.3000014 98.8068879,72.5799986 98.6668872,72.86 C98.5268865,73.1400014 98.376888,73.4199986 98.2168872,73.7 C97.8568854,74.300003 97.496889,74.8899971 97.1368872,75.47 C96.7768854,76.0500029 96.416889,76.639997 96.0568872,77.24 C95.9768868,77.3200004 95.9168874,77.4199994 95.8768872,77.54 C95.836887,77.6600006 95.7768876,77.7599996 95.6968872,77.84 C95.4968862,78.0800012 95.316888,78.3199988 95.1568872,78.56 C94.9968864,78.8000012 94.836888,79.0599986 94.6768872,79.34 C94.4768862,79.7000018 94.3168878,80.0399984 94.1968872,80.36 C93.956886,81.4000052 93.7768878,82.4299949 93.6568872,83.45 C93.5368866,84.4700051 93.4568874,85.4999948 93.4168872,86.54 C93.3368868,87.5800052 93.3368868,88.5799952 93.4168872,89.54 C93.5368878,90.940007 94.1968812,92.0799956 95.3968872,92.96 C95.7168888,93.160001 96.1168848,93.3099995 96.5968872,93.41 C97.0768896,93.5100005 97.4768856,93.460001 97.7968872,93.26 C98.8768926,92.5799966 99.7768836,91.840004 100.496887,91.04 C101.216891,90.239996 101.976883,89.3600048 102.776887,88.4 C103.696892,87.2799944 104.506884,86.0400068 105.206887,84.68 C105.906891,83.3199932 106.556884,82.0000064 107.156887,80.72 C107.356888,80.1999974 107.616886,79.6800026 107.936887,79.16 C108.256889,78.6399974 108.516886,78.1200026 108.716887,77.6 C108.916888,77.2399982 109.116886,76.8400022 109.316887,76.4 C109.516888,75.9599978 109.676887,75.5600018 109.796887,75.2 C109.996888,74.6399972 110.206886,74.2300013 110.426887,73.97 C110.646888,73.7099987 110.996885,73.480001 111.476887,73.28 Z M83.2168872,85.4 C83.4968886,85.600001 83.9868837,85.7099999 84.6868872,85.73 C85.3868907,85.7500001 85.8968856,85.6200014 86.2168872,85.34 C86.5368888,85.0599986 86.8368858,84.8000012 87.1168872,84.56 C87.3968886,84.3199988 87.6968856,84.0800012 88.0168872,83.84 C88.2968886,83.5999988 88.4368872,83.3000018 88.4368872,82.94 C88.4368872,82.4599976 88.4468871,81.9800024 88.4668872,81.5 C88.4868873,81.0199976 88.516887,80.5400024 88.5568872,80.06 C88.5968874,79.3799966 88.6468869,78.6900035 88.7068872,77.99 C88.7668875,77.2899965 88.816887,76.6000034 88.8568872,75.92 C88.9368876,74.7999944 89.0368866,73.7000054 89.1568872,72.62 C89.2768878,71.5399946 89.4368862,70.4600054 89.6368872,69.38 C89.7168876,69.0199982 89.7868869,68.6700017 89.8468872,68.33 C89.9068875,67.9899983 89.9768868,67.6000022 90.0568872,67.16 C89.8568862,67.2000002 89.6968878,67.22 89.5768872,67.22 C89.4568866,67.22 89.3568876,67.2599996 89.2768872,67.34 C88.9568856,67.540001 88.6468887,67.7499989 88.3468872,67.97 C88.0468857,68.1900011 87.7368888,68.399999 87.4168872,68.6 C85.9368798,69.600005 84.5968932,70.7799932 83.3968872,72.14 C82.1968812,73.5000068 81.4368888,75.0399914 81.1168872,76.76 C80.9968866,77.4800036 80.8868877,78.1899965 80.7868872,78.89 C80.6868867,79.5900035 80.656887,80.2899965 80.6968872,80.99 C80.7368874,81.6900035 80.8868859,82.3599968 81.1468872,83 C81.4068885,83.6400032 81.8168844,84.2199974 82.3768872,84.74 C82.536888,84.8600006 82.6768866,84.9799994 82.7968872,85.1 C82.9168878,85.2200006 83.0568864,85.3199996 83.2168872,85.4 Z M95.2168872,74.06 C95.2568874,74.06 95.2868871,74.0699999 95.3068872,74.09 C95.3268873,74.1100001 95.3768868,74.12 95.4568872,74.12 C95.4968874,74.0399996 95.536887,73.9700003 95.5768872,73.91 C95.6168874,73.8499997 95.656887,73.7800004 95.6968872,73.7 C95.8968882,73.299998 96.1068861,72.9100019 96.3268872,72.53 C96.5468883,72.1499981 96.7568862,71.760002 96.9568872,71.36 C97.316889,70.5999962 97.6768854,69.8600036 98.0368872,69.14 C98.396889,68.4199964 98.7368856,67.6800038 99.0568872,66.92 C99.3368886,66.2799968 99.5668863,65.6500031 99.7468872,65.03 C99.9268881,64.4099969 100.116886,63.7800032 100.316887,63.14 C100.756889,61.7799932 101.066886,60.4100069 101.246887,59.03 C101.426888,57.6499931 101.436888,56.2400072 101.276887,54.8 C101.236887,54.5599988 101.176888,54.3200012 101.096887,54.08 L100.856887,53.36 C100.656886,52.6399964 100.416889,52.0000028 100.136887,51.44 C100.056887,51.2799992 99.9568878,51.1200008 99.8368872,50.96 C99.7168866,50.7999992 99.5368884,50.72 99.2968872,50.72 C99.256887,50.7600002 99.1768878,50.78 99.0568872,50.78 C98.9368866,50.78 98.8068879,50.8199996 98.6668872,50.9 C98.5268865,50.9800004 98.3868879,51.1499987 98.2468872,51.41 C98.1068865,51.6700013 98.0168874,52.0599974 97.9768872,52.58 C97.936887,52.6600004 97.8668877,53.0499965 97.7668872,53.75 C97.6668867,54.4500035 97.536888,55.3099949 97.3768872,56.33 C97.2168864,57.3500051 97.0468881,58.4499941 96.8668872,59.63 C96.6868863,60.8100059 96.5268879,61.899995 96.3868872,62.9 C96.2468865,63.900005 96.1268877,64.7499965 96.0268872,65.45 C95.9268867,66.1500035 95.8768872,66.5199998 95.8768872,66.56 C95.7968868,67.0000022 95.7168876,67.419998 95.6368872,67.82 C95.5568868,68.220002 95.4768876,68.6399978 95.3968872,69.08 C95.3168868,69.3600014 95.2468875,69.6399986 95.1868872,69.92 C95.1268869,70.2000014 95.0768874,70.4999984 95.0368872,70.82 C94.996887,71.1000014 94.9468875,71.4199982 94.8868872,71.78 C94.8268869,72.1400018 94.7868873,72.4899983 94.7668872,72.83 C94.7468871,73.1700017 94.7668869,73.4599988 94.8268872,73.7 C94.8868875,73.9400012 95.0168862,74.06 95.2168872,74.06 Z M144.836887,73.28 C144.876887,73.480001 144.886887,73.6299995 144.866887,73.73 C144.846887,73.8300005 144.836887,73.9399994 144.836887,74.06 C144.916888,74.1800006 144.916888,74.2799996 144.836887,74.36 C144.636886,74.6800016 144.446888,75.0199982 144.266887,75.38 L143.756887,76.4 C143.436886,76.9600028 143.216888,77.4699977 143.096887,77.93 C142.976887,78.3900023 142.776889,78.8999972 142.496887,79.46 C142.016885,80.5000052 141.50689,81.519995 140.966887,82.52 C140.426884,83.520005 139.89689,84.519995 139.376887,85.52 C138.576883,87.0400076 137.676892,88.499993 136.676887,89.9 C135.676882,91.300007 134.476894,92.5199948 133.076887,93.56 C132.196883,94.160003 131.216893,94.7799968 130.136887,95.42 C129.816886,95.620001 129.466889,95.7299999 129.086887,95.75 C128.706885,95.7700001 128.316889,95.7400004 127.916887,95.66 C127.756886,95.5799996 127.596888,95.5300001 127.436887,95.51 C127.276886,95.4899999 127.116888,95.4600002 126.956887,95.42 C124.756876,95.0599982 123.256891,93.8200106 122.456887,91.7 C122.216886,91.099997 122.066887,90.500003 122.006887,89.9 C121.946887,89.299997 121.876888,88.700003 121.796887,88.1 C121.796887,87.9399992 121.786887,87.7900007 121.766887,87.65 C121.746887,87.5099993 121.716887,87.340001 121.676887,87.14 L121.316887,87.38 C121.156886,87.4600004 121.056887,87.5199998 121.016887,87.56 L120.896887,87.68 C120.656886,87.880001 120.476888,88.1199986 120.356887,88.4 C119.876885,89.0800034 119.296891,89.5399988 118.616887,89.78 C117.936884,90.0200012 117.226891,90.1100003 116.486887,90.05 C115.746883,89.9899997 115.006891,89.8200014 114.266887,89.54 C113.526883,89.2599986 112.89689,88.9000022 112.376887,88.46 C112.016885,88.1399984 111.656889,87.8000018 111.296887,87.44 C110.936885,87.0799982 110.616889,86.700002 110.336887,86.3 C109.656884,85.2199946 109.216888,84.0700061 109.016887,82.85 C108.816886,81.6299939 108.796886,80.3800064 108.956887,79.1 C109.156888,77.3799914 109.636883,75.7000082 110.396887,74.06 C111.156891,72.4199918 112.176881,71.000006 113.456887,69.8 C113.816889,69.4399982 114.216885,69.0900017 114.656887,68.75 C115.096889,68.4099983 115.556885,68.1200012 116.036887,67.88 C116.396889,67.679999 116.766885,67.5400004 117.146887,67.46 C117.526889,67.3799996 117.896885,67.2800006 118.256887,67.16 C118.616889,67.0399994 118.956886,66.880001 119.276887,66.68 C119.596889,66.479999 119.936885,66.3200006 120.296887,66.2 C120.736889,66.0399992 121.196885,65.9400002 121.676887,65.9 C122.15689,65.8599998 122.636885,65.84 123.116887,65.84 C123.316888,65.84 123.496886,65.8200002 123.656887,65.78 L123.836887,65.24 C124.116889,63.9599936 124.376886,62.6400068 124.616887,61.28 C124.856888,59.9199932 125.196885,58.6000064 125.636887,57.32 C125.916889,56.519996 126.196886,55.7100041 126.476887,54.89 C126.756889,54.0699959 127.036886,53.260004 127.316887,52.46 C127.476888,52.0199978 127.656886,51.600002 127.856887,51.2 C128.056888,50.799998 128.296886,50.4400016 128.576887,50.12 C128.976889,49.6799978 129.426885,49.3700009 129.926887,49.19 C130.42689,49.0099991 130.956884,48.92 131.516887,48.92 L132.356887,48.92 C132.516888,48.9600002 132.666886,48.98 132.806887,48.98 C132.946888,48.98 133.056887,49.0199996 133.136887,49.1 C133.496889,49.3800014 133.856885,49.6499987 134.216887,49.91 C134.576889,50.1700013 134.896886,50.4599984 135.176887,50.78 C135.81689,51.4600034 136.346885,52.2099959 136.766887,53.03 C137.186889,53.8500041 137.356888,54.759995 137.276887,55.76 C137.276887,55.960001 137.296887,56.159999 137.336887,56.36 C137.376887,56.560001 137.396887,56.759999 137.396887,56.96 C137.356887,58.2400064 137.196889,59.4899939 136.916887,60.71 C136.636886,61.9300061 136.316889,63.139994 135.956887,64.34 C135.636886,65.3800052 135.246889,66.4099949 134.786887,67.43 C134.326885,68.4500051 133.85689,69.4399952 133.376887,70.4 C133.216886,70.7200016 133.056888,70.9999988 132.896887,71.24 C132.736886,71.4800012 132.596888,71.7399986 132.476887,72.02 C132.316886,72.3000014 132.166888,72.5799986 132.026887,72.86 C131.886886,73.1400014 131.736888,73.4199986 131.576887,73.7 C131.216885,74.300003 130.856889,74.8899971 130.496887,75.47 C130.136885,76.0500029 129.776889,76.639997 129.416887,77.24 C129.336887,77.3200004 129.276887,77.4199994 129.236887,77.54 C129.196887,77.6600006 129.136888,77.7599996 129.056887,77.84 C128.856886,78.0800012 128.676888,78.3199988 128.516887,78.56 C128.356886,78.8000012 128.196888,79.0599986 128.036887,79.34 C127.836886,79.7000018 127.676888,80.0399984 127.556887,80.36 C127.316886,81.4000052 127.136888,82.4299949 127.016887,83.45 C126.896887,84.4700051 126.816887,85.4999948 126.776887,86.54 C126.696887,87.5800052 126.696887,88.5799952 126.776887,89.54 C126.896888,90.940007 127.556881,92.0799956 128.756887,92.96 C129.076889,93.160001 129.476885,93.3099995 129.956887,93.41 C130.43689,93.5100005 130.836886,93.460001 131.156887,93.26 C132.236893,92.5799966 133.136884,91.840004 133.856887,91.04 C134.576891,90.239996 135.336883,89.3600048 136.136887,88.4 C137.056892,87.2799944 137.866884,86.0400068 138.566887,84.68 C139.266891,83.3199932 139.916884,82.0000064 140.516887,80.72 C140.716888,80.1999974 140.976886,79.6800026 141.296887,79.16 C141.616889,78.6399974 141.876886,78.1200026 142.076887,77.6 C142.276888,77.2399982 142.476886,76.8400022 142.676887,76.4 C142.876888,75.9599978 143.036887,75.5600018 143.156887,75.2 C143.356888,74.6399972 143.566886,74.2300013 143.786887,73.97 C144.006888,73.7099987 144.356885,73.480001 144.836887,73.28 Z M116.576887,85.4 C116.856889,85.600001 117.346884,85.7099999 118.046887,85.73 C118.746891,85.7500001 119.256886,85.6200014 119.576887,85.34 C119.896889,85.0599986 120.196886,84.8000012 120.476887,84.56 C120.756889,84.3199988 121.056886,84.0800012 121.376887,83.84 C121.656889,83.5999988 121.796887,83.3000018 121.796887,82.94 C121.796887,82.4599976 121.806887,81.9800024 121.826887,81.5 C121.846887,81.0199976 121.876887,80.5400024 121.916887,80.06 C121.956887,79.3799966 122.006887,78.6900035 122.066887,77.99 C122.126887,77.2899965 122.176887,76.6000034 122.216887,75.92 C122.296888,74.7999944 122.396887,73.7000054 122.516887,72.62 C122.636888,71.5399946 122.796886,70.4600054 122.996887,69.38 C123.076888,69.0199982 123.146887,68.6700017 123.206887,68.33 C123.266887,67.9899983 123.336887,67.6000022 123.416887,67.16 C123.216886,67.2000002 123.056888,67.22 122.936887,67.22 C122.816887,67.22 122.716888,67.2599996 122.636887,67.34 C122.316886,67.540001 122.006889,67.7499989 121.706887,67.97 C121.406886,68.1900011 121.096889,68.399999 120.776887,68.6 C119.29688,69.600005 117.956893,70.7799932 116.756887,72.14 C115.556881,73.5000068 114.796889,75.0399914 114.476887,76.76 C114.356887,77.4800036 114.246888,78.1899965 114.146887,78.89 C114.046887,79.5900035 114.016887,80.2899965 114.056887,80.99 C114.096887,81.6900035 114.246886,82.3599968 114.506887,83 C114.766888,83.6400032 115.176884,84.2199974 115.736887,84.74 C115.896888,84.8600006 116.036887,84.9799994 116.156887,85.1 C116.276888,85.2200006 116.416886,85.3199996 116.576887,85.4 Z M128.576887,74.06 C128.616887,74.06 128.646887,74.0699999 128.666887,74.09 C128.686887,74.1100001 128.736887,74.12 128.816887,74.12 C128.856887,74.0399996 128.896887,73.9700003 128.936887,73.91 C128.976887,73.8499997 129.016887,73.7800004 129.056887,73.7 C129.256888,73.299998 129.466886,72.9100019 129.686887,72.53 C129.906888,72.1499981 130.116886,71.760002 130.316887,71.36 C130.676889,70.5999962 131.036885,69.8600036 131.396887,69.14 C131.756889,68.4199964 132.096886,67.6800038 132.416887,66.92 C132.696889,66.2799968 132.926886,65.6500031 133.106887,65.03 C133.286888,64.4099969 133.476886,63.7800032 133.676887,63.14 C134.116889,61.7799932 134.426886,60.4100069 134.606887,59.03 C134.786888,57.6499931 134.796888,56.2400072 134.636887,54.8 C134.596887,54.5599988 134.536888,54.3200012 134.456887,54.08 L134.216887,53.36 C134.016886,52.6399964 133.776889,52.0000028 133.496887,51.44 C133.416887,51.2799992 133.316888,51.1200008 133.196887,50.96 C133.076887,50.7999992 132.896888,50.72 132.656887,50.72 C132.616887,50.7600002 132.536888,50.78 132.416887,50.78 C132.296887,50.78 132.166888,50.8199996 132.026887,50.9 C131.886886,50.9800004 131.746888,51.1499987 131.606887,51.41 C131.466886,51.6700013 131.376887,52.0599974 131.336887,52.58 C131.296887,52.6600004 131.226888,53.0499965 131.126887,53.75 C131.026887,54.4500035 130.896888,55.3099949 130.736887,56.33 C130.576886,57.3500051 130.406888,58.4499941 130.226887,59.63 C130.046886,60.8100059 129.886888,61.899995 129.746887,62.9 C129.606886,63.900005 129.486888,64.7499965 129.386887,65.45 C129.286887,66.1500035 129.236887,66.5199998 129.236887,66.56 C129.156887,67.0000022 129.076888,67.419998 128.996887,67.82 C128.916887,68.220002 128.836888,68.6399978 128.756887,69.08 C128.676887,69.3600014 128.606887,69.6399986 128.546887,69.92 C128.486887,70.2000014 128.436887,70.4999984 128.396887,70.82 C128.356887,71.1000014 128.306887,71.4199982 128.246887,71.78 C128.186887,72.1400018 128.146887,72.4899983 128.126887,72.83 C128.106887,73.1700017 128.126887,73.4599988 128.186887,73.7 C128.246887,73.9400012 128.376886,74.06 128.576887,74.06 Z M157.856887,74 C158.096888,74.2400012 158.216887,74.4799988 158.216887,74.72 C158.136887,74.920001 158.086887,75.0899993 158.066887,75.23 C158.046887,75.3700007 158.016887,75.4999994 157.976887,75.62 C157.776886,75.9400016 157.636888,76.2399986 157.556887,76.52 C157.476887,76.8000014 157.356888,77.0999984 157.196887,77.42 C157.116887,77.620001 157.016888,77.819999 156.896887,78.02 C156.736886,78.1400006 156.626887,78.2799992 156.566887,78.44 C156.506887,78.6000008 156.436888,78.779999 156.356887,78.98 C156.276887,79.0600004 156.226887,79.1499995 156.206887,79.25 C156.186887,79.3500005 156.136888,79.4599994 156.056887,79.58 C155.976887,79.780001 155.896888,79.9499993 155.816887,80.09 C155.736887,80.2300007 155.676887,80.399999 155.636887,80.6 L155.336887,81.2 C155.136886,81.6400022 154.946888,82.0799978 154.766887,82.52 C154.586886,82.9600022 154.436888,83.4199976 154.316887,83.9 L154.196887,83.96 C154.036886,84.2000012 153.896888,84.4299989 153.776887,84.65 C153.656887,84.8700011 153.496888,85.0999988 153.296887,85.34 C153.096886,85.7000018 152.806889,86.0099987 152.426887,86.27 C152.046885,86.5300013 151.676889,86.7999986 151.316887,87.08 C151.116886,87.280001 150.896888,87.4499993 150.656887,87.59 C150.416886,87.7300007 150.176888,87.8399996 149.936887,87.92 C149.856887,87.92 149.776888,87.9599996 149.696887,88.04 C149.416886,88.1200004 149.146888,88.1699999 148.886887,88.19 C148.626886,88.2100001 148.396888,88.2599996 148.196887,88.34 C147.756885,88.4200004 147.436888,88.4000006 147.236887,88.28 C146.916886,88.1599994 146.606889,88.0600004 146.306887,87.98 C146.006886,87.8999996 145.716889,87.8000006 145.436887,87.68 C144.996885,87.479999 144.636889,87.2300015 144.356887,86.93 C144.076886,86.6299985 143.836888,86.280002 143.636887,85.88 C143.436886,85.4399978 143.306887,85.0100021 143.246887,84.59 C143.186887,84.1699979 143.116888,83.7400022 143.036887,83.3 C142.956887,82.8599978 142.926887,82.4200022 142.946887,81.98 C142.966887,81.5399978 142.976887,81.1000022 142.976887,80.66 C142.936887,80.1799976 142.926887,79.6900025 142.946887,79.19 C142.966887,78.6899975 142.976887,78.1800026 142.976887,77.66 C142.936887,76.0199918 142.996886,74.3600084 143.156887,72.68 C143.236888,72.2399978 143.286887,71.820002 143.306887,71.42 C143.326887,71.019998 143.376887,70.6000022 143.456887,70.16 C143.496887,69.7199978 143.546887,69.3100019 143.606887,68.93 C143.666887,68.5499981 143.736887,68.1400022 143.816887,67.7 C143.936888,67.3399982 144.056887,66.9900017 144.176887,66.65 C144.296888,66.3099983 144.416887,65.940002 144.536887,65.54 C144.576887,65.3799992 144.716886,65.3 144.956887,65.3 C145.196888,65.3400002 145.426886,65.36 145.646887,65.36 C145.866888,65.36 146.076886,65.4199994 146.276887,65.54 C146.556889,65.6600006 146.756887,65.819999 146.876887,66.02 C146.956888,66.220001 147.036887,66.3799994 147.116887,66.5 C147.196888,66.6200006 147.276887,66.779999 147.356887,66.98 C147.396887,67.0600004 147.436887,67.1499995 147.476887,67.25 C147.516887,67.3500005 147.536887,67.4399996 147.536887,67.52 C147.576887,67.8000014 147.596887,68.0699987 147.596887,68.33 C147.596887,68.5900013 147.636887,68.8599986 147.716887,69.14 C147.796888,69.7000028 147.816887,70.2299975 147.776887,70.73 C147.736887,71.2300025 147.716887,71.7399974 147.716887,72.26 C147.796888,72.7000022 147.776888,73.119998 147.656887,73.52 C147.616887,73.6400006 147.606887,73.7599994 147.626887,73.88 C147.646887,74.0000006 147.656887,74.1199994 147.656887,74.24 C147.696887,74.5600016 147.716887,74.8399988 147.716887,75.08 C147.716887,75.3200012 147.676888,75.5999984 147.596887,75.92 C147.516887,76.2800018 147.476887,76.6299983 147.476887,76.97 C147.476887,77.3100017 147.456887,77.6999978 147.416887,78.14 L147.416887,78.92 L147.296887,79.04 C147.376888,79.4000018 147.386887,79.7399984 147.326887,80.06 C147.266887,80.3800016 147.216887,80.6999984 147.176887,81.02 C147.216887,81.1000004 147.226887,81.1699997 147.206887,81.23 C147.186887,81.2900003 147.176887,81.3399998 147.176887,81.38 C147.256888,81.580001 147.296887,81.7699991 147.296887,81.95 L147.296887,82.46 C147.256887,82.660001 147.226887,82.8499991 147.206887,83.03 C147.186887,83.2100009 147.196887,83.399999 147.236887,83.6 C147.356888,84.200003 147.396887,84.7799972 147.356887,85.34 C147.396887,85.8200024 147.536886,86.259998 147.776887,86.66 C147.816887,86.7400004 147.916886,86.78 148.076887,86.78 C148.356889,86.78 148.556887,86.7600002 148.676887,86.72 C148.916888,86.6399996 149.126886,86.5200008 149.306887,86.36 C149.486888,86.1999992 149.676886,86.0400008 149.876887,85.88 L150.236887,85.52 C150.356888,85.3999994 150.456887,85.2600008 150.536887,85.1 C151.01689,84.5399972 151.476885,83.9700029 151.916887,83.39 C152.356889,82.8099971 152.756885,82.2000032 153.116887,81.56 C153.236888,81.2399984 153.376886,80.9600012 153.536887,80.72 C153.696888,80.4799988 153.836887,80.2000016 153.956887,79.88 C154.156888,79.5999986 154.326886,79.3200014 154.466887,79.04 C154.606888,78.7599986 154.756886,78.4400018 154.916887,78.08 C155.116888,77.6399978 155.306886,77.2300019 155.486887,76.85 C155.666888,76.4699981 155.836886,76.0400024 155.996887,75.56 C156.036887,75.3999992 156.096887,75.2700005 156.176887,75.17 C156.256888,75.0699995 156.336887,74.920001 156.416887,74.72 C156.696889,74.319998 157.176884,74.0800004 157.856887,74 Z M143.936887,59.36 C144.056888,59.3199998 144.166887,59.2800002 144.266887,59.24 C144.366888,59.1999998 144.496886,59.18 144.656887,59.18 C144.776888,59.0999996 144.856887,59.0999996 144.896887,59.18 C145.016888,59.2200002 145.156886,59.2300001 145.316887,59.21 C145.476888,59.1899999 145.636886,59.18 145.796887,59.18 C146.516891,59.0599994 147.056885,59.2799972 147.416887,59.84 C147.336887,60.2000018 147.266887,60.5599982 147.206887,60.92 C147.146887,61.2800018 147.056888,61.6399982 146.936887,62 C146.696886,62.2400012 146.516888,62.4399992 146.396887,62.6 C146.356887,62.6 146.316887,62.6199998 146.276887,62.66 L145.616887,62.66 C145.376886,62.66 145.156888,62.560001 144.956887,62.36 C144.636886,62.0399984 144.436888,61.780001 144.356887,61.58 C144.036886,61.179998 143.896887,60.7600022 143.936887,60.32 C143.976887,60.1599992 143.976887,60.0000008 143.936887,59.84 C143.896887,59.6799992 143.896887,59.5200008 143.936887,59.36 Z M177.596887,72.8 C177.276886,74.1600068 176.946889,75.5099933 176.606887,76.85 C176.266885,78.1900067 175.956889,79.559993 175.676887,80.96 C175.396886,82.360007 175.206888,83.7799928 175.106887,85.22 C175.006887,86.6600072 174.916888,88.079993 174.836887,89.48 C174.796887,89.7600014 174.766887,90.0199988 174.746887,90.26 C174.726887,90.5000012 174.736887,90.7599986 174.776887,91.04 C174.776887,91.1600006 174.736888,91.2999992 174.656887,91.46 C174.656887,91.5800006 174.666887,91.6699997 174.686887,91.73 C174.706887,91.7900003 174.776887,91.8999992 174.896887,92.06 L175.076887,91.88 C175.156888,91.7999996 175.206887,91.7400002 175.226887,91.7 C175.246887,91.6599998 175.296887,91.6000004 175.376887,91.52 L176.456887,89.84 C176.816889,89.2799972 177.156886,88.7200028 177.476887,88.16 C177.916889,87.359996 178.336885,86.5800038 178.736887,85.82 C179.136889,85.0599962 179.536885,84.280004 179.936887,83.48 C180.256889,82.8399968 180.656885,82.2000032 181.136887,81.56 C181.376888,81.2399984 181.596886,80.8900019 181.796887,80.51 C181.996888,80.1299981 182.196886,79.7600018 182.396887,79.4 C182.596888,79.0799984 182.766886,78.7700015 182.906887,78.47 C183.046888,78.1699985 183.216886,77.8600016 183.416887,77.54 L184.136887,76.34 C184.216888,76.139999 184.316887,75.9600008 184.436887,75.8 C184.556888,75.6399992 184.656887,75.460001 184.736887,75.26 C184.816888,75.059999 184.906887,74.8800008 185.006887,74.72 C185.106888,74.5599992 185.196887,74.4000008 185.276887,74.24 C185.476888,73.9999988 185.736886,73.9599992 186.056887,74.12 C185.976887,74.2400006 185.916887,74.3599994 185.876887,74.48 C185.836887,74.6000006 185.776888,74.7199994 185.696887,74.84 C185.576887,75.040001 185.506887,75.239999 185.486887,75.44 C185.466887,75.640001 185.436887,75.839999 185.396887,76.04 L185.396887,76.34 C185.316887,76.8600026 185.176888,77.3399978 184.976887,77.78 C184.816886,78.1400018 184.686888,78.4999982 184.586887,78.86 C184.486887,79.2200018 184.336888,79.5599984 184.136887,79.88 L183.686887,80.78 C183.546886,81.0600014 183.376888,81.3399986 183.176887,81.62 C182.696885,82.420004 182.256889,83.2399958 181.856887,84.08 C181.456885,84.9200042 181.036889,85.739996 180.596887,86.54 C180.116885,87.4600046 179.646889,88.3899953 179.186887,89.33 C178.726885,90.2700047 178.156891,91.1599958 177.476887,92 C176.796884,92.800004 175.936892,93.4899971 174.896887,94.07 C173.856882,94.6500029 172.796893,94.840001 171.716887,94.64 C171.036884,94.4799992 170.536889,94.0400036 170.216887,93.32 C170.136887,93.0799988 170.046888,92.8400012 169.946887,92.6 C169.846887,92.3599988 169.776887,92.1000014 169.736887,91.82 C169.496886,90.4999934 169.376887,89.1600068 169.376887,87.8 L169.376887,86.24 C169.496888,84.039989 169.796885,81.8200112 170.276887,79.58 C170.356888,79.1399978 170.436887,78.6900023 170.516887,78.23 C170.596888,77.7699977 170.676887,77.3200022 170.756887,76.88 C170.836888,76.3199972 170.926887,75.740003 171.026887,75.14 C171.126888,74.539997 171.216887,73.9600028 171.296887,73.4 C171.376888,72.9599978 171.456887,72.5100023 171.536887,72.05 C171.616888,71.5899977 171.696887,71.1400022 171.776887,70.7 C171.856888,70.1399972 171.936887,69.6100025 172.016887,69.11 C172.096888,68.6099975 172.136887,68.0800028 172.136887,67.52 L172.136887,67.22 C171.816886,67.3400006 171.556888,67.4799992 171.356887,67.64 C171.276887,67.6800002 171.196888,67.7799992 171.116887,67.94 C171.036887,68.0200004 170.976887,68.1199994 170.936887,68.24 C170.896887,68.3600006 170.836888,68.4599996 170.756887,68.54 C170.676887,68.6200004 170.626887,68.6899997 170.606887,68.75 C170.586887,68.8100003 170.536888,68.8799996 170.456887,68.96 C170.016885,69.2400014 169.656889,69.6499973 169.376887,70.19 C169.096886,70.7300027 168.816889,71.2199978 168.536887,71.66 C168.176885,72.2200028 167.796889,72.7599974 167.396887,73.28 C166.996885,73.8000026 166.596889,74.3399972 166.196887,74.9 C165.836885,75.4200026 165.516889,75.9499973 165.236887,76.49 C164.956886,77.0300027 164.676889,77.5799972 164.396887,78.14 C164.156886,78.6600026 163.896889,79.1699975 163.616887,79.67 C163.336886,80.1700025 163.096888,80.6799974 162.896887,81.2 C162.896887,81.2400002 162.876887,81.26 162.836887,81.26 C162.636886,81.460001 162.506887,81.6899987 162.446887,81.95 C162.386887,82.2100013 162.316888,82.4799986 162.236887,82.76 C162.196887,82.960001 162.136888,83.1399992 162.056887,83.3 L161.816887,83.78 C161.736887,83.980001 161.656888,84.1599992 161.576887,84.32 C161.496887,84.4800008 161.496887,84.659999 161.576887,84.86 C161.576887,84.9400004 161.536888,85.0599992 161.456887,85.22 C161.376887,85.420001 161.276888,85.6299989 161.156887,85.85 C161.036887,86.0700011 160.916888,86.2999988 160.796887,86.54 C160.676887,86.740001 160.496888,86.8200002 160.256887,86.78 C160.016886,86.6999996 159.776888,86.7399992 159.536887,86.9 C159.416887,87.0200006 159.336887,87.08 159.296887,87.08 C159.056886,87.0399998 158.846888,87.0699995 158.666887,87.17 C158.486886,87.2700005 158.296888,87.3599996 158.096887,87.44 C157.776886,87.6000008 157.476889,87.6600002 157.196887,87.62 C156.916886,87.5799998 156.616889,87.5200004 156.296887,87.44 C156.096886,87.3999998 155.916888,87.2000018 155.756887,86.84 C155.716887,86.7199994 155.696887,86.6000006 155.696887,86.48 C155.696887,86.3599994 155.676887,86.2400006 155.636887,86.12 C155.596887,85.7999984 155.566887,85.5100013 155.546887,85.25 C155.526887,84.9899987 155.516887,84.7000016 155.516887,84.38 C155.516887,84.0999986 155.496887,83.9000006 155.456887,83.78 C155.456887,83.6999996 155.466887,83.6100005 155.486887,83.51 C155.506887,83.4099995 155.496887,83.3200004 155.456887,83.24 C155.376887,82.7199974 155.336887,82.2100025 155.336887,81.71 L155.336887,80.18 C155.336887,79.9399988 155.316887,79.7600006 155.276887,79.64 C155.236887,79.3199984 155.216887,78.9800018 155.216887,78.62 L155.216887,76.1 C155.176887,75.5799974 155.156887,75.0800024 155.156887,74.6 L155.156887,72.59 C155.156887,72.4499993 155.136887,72.280001 155.096887,72.08 L155.096887,71.66 C155.176888,70.859996 155.236887,70.0400042 155.276887,69.2 C155.316887,68.3599958 155.376887,67.5200042 155.456887,66.68 C155.496887,66.1999976 155.536887,65.7100025 155.576887,65.21 C155.616887,64.7099975 155.676887,64.2200024 155.756887,63.74 C155.796887,63.539999 155.836887,63.3300011 155.876887,63.11 C155.916887,62.8899989 155.976887,62.680001 156.056887,62.48 C156.096887,62.1999986 156.296885,62.0200004 156.656887,61.94 C157.456891,61.8199994 158.176884,61.9199984 158.816887,62.24 C158.896888,62.24 158.936887,62.2799996 158.936887,62.36 C159.016888,62.5200008 159.126886,62.6399996 159.266887,62.72 C159.406888,62.8000004 159.536887,62.8799996 159.656887,62.96 C159.696887,63.0800006 159.736887,63.2099993 159.776887,63.35 C159.816887,63.4900007 159.856887,63.6199994 159.896887,63.74 L160.016887,63.86 C160.49689,64.1000012 160.776887,64.519997 160.856887,65.12 C160.856887,65.4800018 160.846887,65.8499981 160.826887,66.23 C160.806887,66.6100019 160.856887,66.9799982 160.976887,67.34 C161.056888,67.6600016 161.156887,67.9699985 161.276887,68.27 C161.396888,68.5700015 161.416888,68.8799984 161.336887,69.2 C161.296887,69.6400022 161.266887,70.0499981 161.246887,70.43 C161.226887,70.8100019 161.176888,71.199998 161.096887,71.6 C161.016887,72.0800024 160.946887,72.5499977 160.886887,73.01 C160.826887,73.4700023 160.816887,73.9399976 160.856887,74.42 C160.856887,74.620001 160.886887,74.7999992 160.946887,74.96 C161.006887,75.1200008 161.036887,75.299999 161.036887,75.5 C161.036887,75.700001 161.016887,75.9099989 160.976887,76.13 C160.936887,76.3500011 160.936887,76.559999 160.976887,76.76 C161.016887,77.3200028 161.016887,77.8599974 160.976887,78.38 L160.976887,79.07 C160.976887,79.2900011 160.996887,79.5199988 161.036887,79.76 C161.156888,79.76 161.226887,79.7300003 161.246887,79.67 C161.266887,79.6099997 161.296887,79.5400004 161.336887,79.46 C161.576888,79.0199978 161.806886,78.5700023 162.026887,78.11 C162.246888,77.6499977 162.476886,77.2000022 162.716887,76.76 L163.136887,75.92 C163.216888,75.7599992 163.336886,75.480002 163.496887,75.08 C163.576888,74.879999 163.666887,74.6600012 163.766887,74.42 C163.866888,74.1799988 163.976887,73.960001 164.096887,73.76 C164.216888,73.5999992 164.356886,73.3600016 164.516887,73.04 L166.496887,69.44 C166.696888,69.1199984 166.886886,68.8100015 167.066887,68.51 C167.246888,68.2099985 167.436886,67.9000016 167.636887,67.58 C167.836888,67.2599984 168.046886,66.9500015 168.266887,66.65 C168.486888,66.3499985 168.696886,66.0400016 168.896887,65.72 C169.37689,65.119997 169.816885,64.6400018 170.216887,64.28 C171.056891,63.5199962 172.096881,63.1799996 173.336887,63.26 L174.776887,63.26 C175.216889,63.2199998 175.636885,63.3599984 176.036887,63.68 L177.176887,64.82 C177.416888,65.1400016 177.516887,65.3799992 177.476887,65.54 C177.436887,65.740001 177.436887,65.9099993 177.476887,66.05 C177.516887,66.1900007 177.576887,66.359999 177.656887,66.56 C177.856888,67.160003 177.966887,67.8999956 177.986887,68.78 C178.006887,69.6600044 177.976888,70.4399966 177.896887,71.12 L177.776887,71.96 C177.736887,72.2400014 177.676888,72.5199986 177.596887,72.8 Z M195.356887,104.24 L194.756887,104.84 C194.636887,104.960001 194.526888,105.079999 194.426887,105.2 C194.326887,105.320001 194.176888,105.4 193.976887,105.44 L193.796887,105.44 C193.596886,105.640001 193.376888,105.78 193.136887,105.86 C192.896886,105.94 192.676888,106.039999 192.476887,106.16 C191.916884,106.480002 191.37689,106.66 190.856887,106.7 C190.416885,106.78 189.966889,106.84 189.506887,106.88 C189.046885,106.92 188.596889,106.96 188.156887,107 C187.756885,107.08 187.27689,107.070001 186.716887,106.97 C186.156884,106.87 185.676889,106.740001 185.276887,106.58 L184.736887,106.4 C184.696887,106.36 184.666887,106.32 184.646887,106.28 C184.626887,106.24 184.576888,106.18 184.496887,106.1 C184.056885,105.779998 183.726888,105.420002 183.506887,105.02 C183.286886,104.619998 183.096888,104.160003 182.936887,103.64 L182.756887,103.1 C182.556886,102.859999 182.456887,102.520002 182.456887,102.08 C182.336887,100.719993 182.516885,99.4200062 182.996887,98.18 C183.876892,95.979989 185.116879,93.980009 186.716887,92.18 C186.996889,91.8599984 187.266886,91.5600014 187.526887,91.28 C187.786888,90.9999986 188.036886,90.7000016 188.276887,90.38 C188.79689,89.8199972 189.326884,89.2900025 189.866887,88.79 C190.40689,88.2899975 190.956884,87.8000024 191.516887,87.32 C191.916889,86.9999984 192.296885,86.7000014 192.656887,86.42 C193.016889,86.1399986 193.376885,85.8400016 193.736887,85.52 C193.976888,85.3599992 194.096887,85.1200016 194.096887,84.8 C194.056887,84.4799984 194.046887,84.1800014 194.066887,83.9 C194.086887,83.6199986 194.076887,83.3200016 194.036887,83 C193.996887,82.5599978 193.996887,82.1200022 194.036887,81.68 L194.156887,80.36 C194.196887,80.0799986 194.216887,79.8100013 194.216887,79.55 C194.216887,79.2899987 194.236887,79.0000016 194.276887,78.68 L194.036887,78.8 C193.836886,78.9600008 193.666888,79.1099993 193.526887,79.25 C193.386886,79.3900007 193.236888,79.5199994 193.076887,79.64 C192.516884,80.1600026 191.836891,80.5799984 191.036887,80.9 C190.836886,80.9800004 190.656888,81.0499997 190.496887,81.11 C190.336886,81.1700003 190.156888,81.2399996 189.956887,81.32 C189.796886,81.4000004 189.656888,81.44 189.536887,81.44 C188.456882,81.5200004 187.436892,81.4400012 186.476887,81.2 C185.996885,80.999999 185.556889,80.7400016 185.156887,80.42 L184.436887,79.7 C183.636883,79.0199966 183.156888,78.2200046 182.996887,77.3 C182.916887,76.8199976 182.866887,76.3300025 182.846887,75.83 C182.826887,75.3299975 182.836887,74.8200026 182.876887,74.3 C182.956888,73.6199966 183.046887,72.980003 183.146887,72.38 C183.246888,71.779997 183.376886,71.1600032 183.536887,70.52 C183.696888,69.6799958 183.956885,68.8900037 184.316887,68.15 C184.676889,67.4099963 185.056885,66.6600038 185.456887,65.9 C185.576888,65.699999 185.696887,65.5200008 185.816887,65.36 C185.936888,65.1999992 186.036887,65.020001 186.116887,64.82 C186.396889,64.3799978 186.696886,64.0800008 187.016887,63.92 C187.056887,63.92 187.076887,63.9100001 187.076887,63.89 C187.076887,63.8699999 187.096887,63.86 187.136887,63.86 L187.586887,63.41 C187.726888,63.2699993 187.876886,63.1400006 188.036887,63.02 C188.196888,62.8999994 188.366886,62.8000004 188.546887,62.72 C188.726888,62.6399996 188.896886,62.5200008 189.056887,62.36 C189.096887,62.3199998 189.216886,62.2400006 189.416887,62.12 C189.616888,62.0799998 189.786886,62.0400002 189.926887,62 C190.066888,61.9599998 190.236886,61.9200002 190.436887,61.88 C190.516888,61.88 190.576887,61.8700001 190.616887,61.85 C190.656887,61.8299999 190.716887,61.82 190.796887,61.82 C191.116889,61.8600002 191.436886,61.88 191.756887,61.88 C192.076889,61.88 192.396886,61.8999998 192.716887,61.94 C193.756892,62.1800012 194.796882,62.5399976 195.836887,63.02 C195.916888,63.1000004 196.016887,63.1499999 196.136887,63.17 C196.256888,63.1900001 196.356887,63.2199998 196.436887,63.26 C196.716889,63.3400004 196.896887,63.4399994 196.976887,63.56 C197.136888,63.7200008 197.116888,63.8599994 196.916887,63.98 C196.596886,64.180001 196.316888,64.2000008 196.076887,64.04 C195.876886,63.9199994 195.656888,63.8100005 195.416887,63.71 C195.176886,63.6099995 194.936888,63.5200004 194.696887,63.44 C194.296885,63.2799992 193.83689,63.299999 193.316887,63.5 C192.596884,63.8600018 191.93689,64.339997 191.336887,64.94 C191.176886,65.0600006 191.036888,65.1999992 190.916887,65.36 C190.796887,65.5200008 190.696888,65.699999 190.616887,65.9 C190.576887,65.9800004 190.476888,66.0999992 190.316887,66.26 C190.036886,66.460001 189.836888,66.759998 189.716887,67.16 C189.596887,67.4800016 189.396889,67.8199982 189.116887,68.18 C188.916886,68.5000016 188.756888,68.859998 188.636887,69.26 C188.556887,69.5800016 188.456888,69.8999984 188.336887,70.22 L187.976887,71.18 C187.896887,71.380001 187.826887,71.579999 187.766887,71.78 C187.706887,71.980001 187.676887,72.179999 187.676887,72.38 C187.636887,72.4600004 187.616887,72.5399996 187.616887,72.62 C187.616887,72.7000004 187.596887,72.7799996 187.556887,72.86 C187.356886,73.5400034 187.256887,74.179997 187.256887,74.78 C187.256887,74.980001 187.176888,75.279998 187.016887,75.68 C186.856886,76.080002 186.796887,76.3999988 186.836887,76.64 C186.836887,76.7200004 186.826887,76.7999996 186.806887,76.88 C186.786887,76.9600004 186.776887,77.0399996 186.776887,77.12 C186.776887,77.2000004 186.736888,77.2799996 186.656887,77.36 C186.576887,77.4400004 186.556887,77.5199996 186.596887,77.6 C186.676888,77.8400012 186.736887,77.9999996 186.776887,78.08 C186.816887,78.280001 186.856887,78.4599992 186.896887,78.62 C186.936887,78.7800008 186.956887,78.959999 186.956887,79.16 C187.036888,79.4400014 187.176886,79.5999998 187.376887,79.64 C187.736889,79.8000008 188.116885,79.8200006 188.516887,79.7 C189.11689,79.5799994 189.616885,79.3400018 190.016887,78.98 C190.816891,78.4199972 191.476885,77.740004 191.996887,76.94 C192.196888,76.6199984 192.396886,76.3100015 192.596887,76.01 C192.796888,75.7099985 192.976886,75.4000016 193.136887,75.08 L193.196887,74.96 C193.596889,74.3999972 193.866886,73.8000032 194.006887,73.16 C194.146888,72.5199968 194.256887,71.8800032 194.336887,71.24 C194.376887,70.5999968 194.496886,69.980003 194.696887,69.38 C194.816888,69.0199982 194.926887,68.6500019 195.026887,68.27 C195.126888,67.8899981 195.216887,67.5200018 195.296887,67.16 C195.336887,67.0399994 195.346887,66.9100007 195.326887,66.77 C195.306887,66.6299993 195.316887,66.4800008 195.356887,66.32 C195.596888,66.1599992 195.776887,66.0600002 195.896887,66.02 C196.296889,65.8999994 196.676885,65.9199992 197.036887,66.08 C197.396889,66.280001 197.576887,66.579998 197.576887,66.98 C197.496887,67.3400018 197.496887,67.6899983 197.576887,68.03 C197.656888,68.3700017 197.756887,68.7199982 197.876887,69.08 C198.036888,69.680003 198.116887,70.3599962 198.116887,71.12 C198.116887,71.6000024 198.136887,72.0699977 198.176887,72.53 C198.216887,72.9900023 198.276887,73.4399978 198.356887,73.88 C198.396887,74.280002 198.436887,74.6699981 198.476887,75.05 C198.516887,75.4300019 198.536887,75.8399978 198.536887,76.28 C198.536887,76.4000006 198.546887,76.5299993 198.566887,76.67 C198.586887,76.8100007 198.596887,76.9599992 198.596887,77.12 C198.636887,77.4400016 198.646887,77.7399986 198.626887,78.02 C198.606887,78.3000014 198.616887,78.5999984 198.656887,78.92 C198.736888,79.720004 198.716888,80.3999972 198.596887,80.96 C198.596887,81.0000002 198.616887,81.0599996 198.656887,81.14 C198.776888,81.0199994 198.836887,80.9799998 198.836887,81.02 C200.196894,79.7799938 201.536881,78.5000066 202.856887,77.18 C203.296889,76.7399978 203.716885,76.3000022 204.116887,75.86 C204.516889,75.4199978 204.936885,74.9800022 205.376887,74.54 C205.456888,74.4599996 205.536887,74.4000002 205.616887,74.36 C205.696888,74.3199998 205.776887,74.2600004 205.856887,74.18 L206.096887,74.06 C206.176888,74.0199998 206.276887,74.0199998 206.396887,74.06 C206.556888,74.1000002 206.676887,74.2599986 206.756887,74.54 C206.676887,74.740001 206.556888,74.9199992 206.396887,75.08 C206.236886,75.2400008 206.076888,75.419999 205.916887,75.62 L205.496887,76.04 C205.376887,76.1600006 205.276888,76.319999 205.196887,76.52 C205.116887,76.720001 205.016888,76.8999992 204.896887,77.06 C204.776887,77.2200008 204.676888,77.3799992 204.596887,77.54 C204.516887,77.7000008 204.436888,77.8499993 204.356887,77.99 C204.276887,78.1300007 204.176888,78.2599994 204.056887,78.38 C203.896886,78.580001 203.736888,78.7499993 203.576887,78.89 C203.416886,79.0300007 203.256888,79.199999 203.096887,79.4 C203.016887,79.4800004 202.936888,79.52 202.856887,79.52 C201.776882,80.320004 200.856891,81.319994 200.096887,82.52 C200.016887,82.6000004 199.876888,82.7199992 199.676887,82.88 C199.556887,82.9600004 199.436888,83.0099999 199.316887,83.03 C199.196887,83.0500001 199.076888,83.0999996 198.956887,83.18 C198.676886,83.3400008 198.516887,83.5599986 198.476887,83.84 C198.396887,84.2000018 198.396887,84.5599982 198.476887,84.92 C198.516887,85.2000014 198.536887,85.4699987 198.536887,85.73 L198.536887,86.54 C198.536887,86.9800022 198.526887,87.4299977 198.506887,87.89 C198.486887,88.3500023 198.456887,88.7999978 198.416887,89.24 C198.336887,89.8000028 198.276887,90.3699971 198.236887,90.95 C198.196887,91.5300029 198.216887,92.0999972 198.296887,92.66 C198.336887,92.860001 198.346887,93.0399992 198.326887,93.2 C198.306887,93.3600008 198.296887,93.539999 198.296887,93.74 L198.296887,94.37 C198.296887,94.5900011 198.276887,94.799999 198.236887,95 L198.236887,96.05 C198.236887,96.3900017 198.196888,96.7199984 198.116887,97.04 C198.076887,97.240001 198.036887,97.4499989 197.996887,97.67 C197.956887,97.8900011 197.916887,98.099999 197.876887,98.3 C197.756887,98.9400032 197.556889,99.4999976 197.276887,99.98 C197.196887,100.100001 197.136887,100.229999 197.096887,100.37 C197.056887,100.510001 197.016887,100.639999 196.976887,100.76 C196.936887,101.160002 196.776889,101.559998 196.496887,101.96 C196.336886,102.200001 196.196888,102.439999 196.076887,102.68 C195.956887,102.920001 195.796888,103.139999 195.596887,103.34 C195.516887,103.500001 195.476887,103.62 195.476887,103.7 C195.436887,103.820001 195.416887,103.92 195.416887,104 C195.416887,104.08 195.396887,104.16 195.356887,104.24 Z M194.036887,87.86 C193.916887,87.9400004 193.776888,88.0199996 193.616887,88.1 C193.416886,88.3400012 193.196888,88.5499991 192.956887,88.73 C192.716886,88.9100009 192.476888,89.099999 192.236887,89.3 C192.156887,89.3800004 192.086887,89.4399998 192.026887,89.48 C191.966887,89.5200002 191.896888,89.5799996 191.816887,89.66 C191.536886,89.9800016 191.266888,90.2899985 191.006887,90.59 C190.746886,90.8900015 190.476889,91.1999984 190.196887,91.52 C189.916886,91.8800018 189.636889,92.2199984 189.356887,92.54 C189.076886,92.8600016 188.796889,93.1999982 188.516887,93.56 C188.356886,93.760001 188.196888,93.9499991 188.036887,94.13 C187.876886,94.3100009 187.756888,94.5199988 187.676887,94.76 C187.356886,95.360003 186.996889,95.8999976 186.596887,96.38 C186.436886,96.580001 186.296888,96.779999 186.176887,96.98 C186.056887,97.180001 185.996887,97.3999988 185.996887,97.64 C185.876887,98.4800042 185.656889,99.3199958 185.336887,100.16 C185.256887,100.440001 185.186887,100.699999 185.126887,100.94 C185.066887,101.180001 185.076887,101.419999 185.156887,101.66 C185.156887,101.74 185.136887,101.8 185.096887,101.84 C184.776886,102.160002 184.716886,102.559998 184.916887,103.04 C184.996888,103.200001 185.056887,103.349999 185.096887,103.49 C185.136887,103.630001 185.196887,103.779999 185.276887,103.94 C185.356888,104.140001 185.456887,104.329999 185.576887,104.51 C185.696888,104.690001 185.856886,104.839999 186.056887,104.96 C186.216888,105.080001 186.436886,105.279999 186.716887,105.56 C187.036889,105.920002 187.476884,106.06 188.036887,105.98 C188.796891,105.859999 189.436885,105.620002 189.956887,105.26 C190.55689,104.859998 191.066885,104.400003 191.486887,103.88 C191.906889,103.359997 192.296885,102.820003 192.656887,102.26 C192.736888,102.139999 192.776887,102.020001 192.776887,101.9 C192.776887,101.779999 192.796887,101.68 192.836887,101.6 C192.876887,101.399999 192.936887,101.140002 193.016887,100.82 C193.096888,100.499998 193.156887,100.280001 193.196887,100.16 C193.236887,99.8799986 193.266887,99.6000014 193.286887,99.32 C193.306887,99.0399986 193.336887,98.7600014 193.376887,98.48 C193.416887,98.1999986 193.446887,97.9200014 193.466887,97.64 C193.486887,97.3599986 193.516887,97.0800014 193.556887,96.8 C193.556887,96.599999 193.566887,96.4300007 193.586887,96.29 C193.606887,96.1499993 193.616887,95.980001 193.616887,95.78 C193.696888,95.3399978 193.756887,94.9100021 193.796887,94.49 C193.836887,94.0699979 193.896887,93.6400022 193.976887,93.2 C194.016887,92.8399982 194.036887,92.4800018 194.036887,92.12 C194.036887,91.7599982 194.076887,91.4000018 194.156887,91.04 C194.236888,90.5199974 194.246887,90.0000026 194.186887,89.48 C194.126887,88.9599974 194.076887,88.4200028 194.036887,87.86 Z M195.956887,101.6 L195.896887,101.66 L195.956887,101.66 L195.956887,101.6 Z" id="Wedding" fill="#FFFFFF"></path>
                            <g id="spring" transform="translate(118.000000, 0.000000)">
                                <path d="M97.5925898,74.3540602 C95.6778363,68.2696296 94.3016073,62.2945057 93.6250359,55.9349235 C92.9955796,50.0238761 93.2500006,43.9385032 92.0608181,38.1047244 C89.8115482,27.0675653 70.2239596,11.15636 60.6417117,20.6302434 C60.1474754,21.1188259 60.897075,21.5456878 61.355975,21.3478048 C68.4774067,17.4127603 72.4581527,18.9411708 78.9967719,23.4609124 C84.8885022,27.5335327 89.7672601,33.6330401 90.8014342,40.4072342 C92.5272565,51.720016 91.1467871,64.1319906 96.6681936,74.6226157 C96.9065954,75.0753908 97.769271,74.9142575 97.5925898,74.3540602" id="Fill-6" fill="#89B571"></path>
                                <path id="Fill-7" fill="#0A0A08"></path>
                                <path d="M81.655,11.5690873 C81.42555,11.0484666 80.3866643,10.9660154 80.2947901,11.6407021 C79.6036131,16.7107469 80.4474426,27.2725156 86.6595549,28.6793694 C87.5547398,26.69253 87.291367,23.9669274 86.6953623,21.8359162 C85.5971117,17.9098235 82.9798737,14.5802067 81.655,11.5690873" id="Fill-8" fill="#89B571"></path>
                                <g id="Group-12" transform="translate(78.682044, 28.268998)" fill="#89B571">
                                    <path d="M10.8011129,8.94007054 C8.21025925,6.48585038 4.49053029,6.24320815 2.00097389,0.647360048 C1.60473677,-0.243584531 0.181863886,0.145585338 0.405188968,1.13217336 C1.12793301,4.32185861 1.34937349,7.64299469 3.35741463,10.3558762 C4.26013796,11.5756834 5.63306895,12.3691 6.97678864,13.0051524 C8.8397156,13.8880874 10.4340871,14.6056488 12.1203328,15.8381771 C14.0652398,17.26105 12.9457875,10.9726115 10.8011129,8.94007054" id="Fill-9"></path>
                                    <path d="M22.7490048,14.0558168 C22.6250923,13.154507 21.351574,13.1163438 21.0717109,13.9408562 C18.9623725,20.1539108 14.7606572,25.7525858 15.4131999,32.6064043 C15.4311036,32.7910951 16.9543314,43.0122224 17.2068678,43.1667596 C17.4386736,43.3085757 17.7618824,43.300095 17.9216023,43.0503855 C18.0115919,42.8525025 17.9932171,42.4722845 17.96165,42.0053749 C17.5267786,35.6486196 20.4761774,31.7616324 22.62415,26.1756785 C24.1690508,22.1619519 23.3186251,18.1995808 22.7490048,14.0558168" id="Fill-11"></path>
                                </g>
                                <path d="M93.3315095,58.4348452 C91.5321878,54.7636447 88.0532165,52.0130713 85.57591,48.6613104 C84.6199467,47.3684749 84.8602332,48.6933486 85.1250195,50.0827699 C86.515383,57.3761713 87.9726498,59.876093 93.0883961,65.1986741 C94.9965535,67.1845712 93.7767462,59.3446358 93.3315095,58.4348452" id="Fill-13" fill="#89B571"></path>
                                <path d="M69.9318466,16.4747007 C64.7077358,16.139242 60.9785839,14.4030544 58.9809081,10.1396183 C58.7495734,9.88284161 58.2930291,9.9987445 58.2044529,10.4072315 C58.1285978,12.636242 60.5978947,14.455352 62.0386713,15.3877578 C64.4104402,16.720641 67.1044757,17.4914424 69.8329051,17.4349044 C70.4307944,17.4221833 70.5721394,16.5302964 69.9318466,16.4747007" id="Fill-14" fill="#89B571"></path>
                                <path d="M66.6964598,16.4351241 C61.9326626,15.8650327 57.2579126,14.5929278 52.4012988,14.9599536 C48.4007645,15.2619607 44.6485262,17.788738 44.2810292,21.6804367 C44.2244912,22.281624 44.4115378,26.6256267 45.6549025,24.9671788 C50.8790133,17.9955728 62.4810811,19.7298758 69.8998084,17.9682461 C72.1377708,17.436789 66.7916321,16.4464317 66.6964598,16.4351241" id="Fill-15" fill="#89B571"></path>
                                <path d="M63.3866314,15.3250948 C58.4645277,14.4148331 51.7195448,10.4948654 46.6721153,10.1028686 C42.5971393,9.78672702 37.6769202,12.1655632 38.1273396,16.9646967 C38.1730411,17.4551638 38.9132177,17.5522207 39.1459658,17.1460894 C39.7806048,15.2143746 40.1952168,13.1125746 42.8967906,12.1443614 C44.8416977,11.2878108 47.1828418,11.6736826 49.1842869,12.0765158 C53.1198025,12.8685189 59.084561,16.0125026 63.0455188,16.6692857 C63.9788669,16.8238229 64.3760463,15.5074299 63.3866314,15.3250948" id="Fill-16" fill="#89B571"></path>
                                <path d="M50.1440194,10.8340934 C48.8926451,10.5796724 43.0112801,5.6976165 40.1787265,5.48465671 C35.5671107,5.13836149 32.3180605,7.96196322 29.8073024,11.4588382 C29.5750254,11.7811048 29.972676,12.1853515 30.3100194,12.1316404 C33.2914563,11.6534232 36.2483935,11.065428 39.2557437,10.7657766 C43.6435633,10.3285495 46.6231157,11.3735601 50.0855968,11.370262 C50.4417861,11.3697909 50.497853,10.9061793 50.1440194,10.8340934" id="Fill-17" fill="#89B571"></path>
                                <path d="M11.2194941,13.5295423 C7.43945791,16.6429013 4.25024381,20.5652247 2.10792493,24.970948 C0.99883792,27.2499004 0.735936241,29.0619431 0.386342969,31.5571533 C0.146056488,33.7682601 0.0541822457,37.1544149 0.481044112,38.3431262 C0.777868588,39.1709367 1.10908701,39.1087449 2.72748713,36.0995101 C4.84342161,32.1635233 6.49904258,29.4539399 8.42039213,25.2244267 C9.4272396,23.0095507 10.5537592,20.8625203 11.9403535,18.860133 C13.6619355,16.3752881 16.0059065,14.5745529 18.3319739,12.6984338 C22.291047,9.33300961 27.3516688,8.56927552 32.200273,10.0251289 C32.5234819,10.1221858 33.104881,9.72453523 32.6662403,9.4592778 C26.0913426,5.48936821 17.7114694,8.18104795 11.2194941,13.5295423" id="Fill-18" fill="#89B571"></path>
                                <path d="M26.2906391,8.45949758 C23.7294679,9.33913456 21.9207232,11.2279748 20.8794817,13.7071659 C20.0573251,15.664794 19.6069057,18.8276237 21.2531037,20.4596871 C21.5895047,20.7927901 22.2090669,20.4903119 22.2227303,20.054027 C20.7310695,17.0047444 21.703523,11.9601418 26.6802801,9.49696979 C27.4181009,9.18553967 27.0303445,8.2060189 26.2906391,8.45949758" id="Fill-19" fill="#89B571"></path>
                                <path d="M75.2209761,11.1869847 C74.9759781,10.7865072 74.3078875,10.854824 74.1373312,11.2816859 C72.6046804,15.1295676 74.1137737,17.100859 76.0464308,19.1230347 C77.0212401,20.142132 78.3776809,20.7645211 78.9515415,22.4776224 C79.0919442,22.897417 79.3044328,22.6651401 79.3732207,22.2429897 C80.0535613,18.0398609 77.2497479,14.5071785 75.2209761,11.1869847" id="Fill-20" fill="#89B571"></path>
                                <path d="M95.3268296,28.2265943 C95.1341293,27.6150416 94.1225703,27.8256456 94.0104366,28.3816026 C93.2273854,32.2860223 91.2320653,36.0806641 91.5086303,40.161294 C91.6306582,41.9672118 97.2651406,34.4061972 95.3268296,28.2265943" id="Fill-21" fill="#89B571"></path>
                                <path d="M69.2307755,25.2234844 C72.3384806,21.4924478 76.2080353,21.4062274 79.9103317,23.3949514 C80.4097506,23.6630357 81.2243689,24.2962613 81.702115,24.622297 C82.0488814,24.8583432 82.0182566,25.1810809 81.5786737,25.2526957 C80.555336,25.4213674 78.8511866,25.0844952 77.0834319,25.1641195 C74.4883379,25.2809647 71.5874676,26.0790927 69.6599931,26.2477644 C69.1214687,26.2948794 68.9278261,25.5886256 69.2307755,25.2234844" id="Fill-22" fill="#89B571"></path>
                                <path d="M64.7006686,4.25354186 C64.3619118,3.7974687 63.3305645,3.94917899 63.391814,4.62716378 C63.8530698,9.72359293 67.2034172,19.444359 73.5728935,19.425513 C73.8951601,19.4250418 73.0579266,16.3988456 72.408682,14.4035255 C71.0649623,10.2757807 67.2250901,7.64063894 64.7006686,4.25354186" id="Fill-23" fill="#89B571"></path>
                                <path d="M25.9174883,25.6828556 C25.759653,23.2733947 23.3412403,20.5543883 22.3584215,20.8662895 C21.5178899,21.1334316 21.1682967,23.3586728 21.5160053,25.7535281 C21.8641852,28.1578064 23.5146235,30.4777488 24.6307777,30.0268583 C25.7073554,29.5910445 26.0663717,27.9401351 25.9174883,25.6828556" id="Fill-24" fill="#D2D0DD"></path>
                                <path d="M23.7219295,24.7245366 C24.4705868,26.1756785 25.8355082,27.4181009 27.4468411,27.7813575 C27.7676942,27.8534435 28.1224701,27.7040889 28.1592198,27.3464861 C28.3208242,25.7507012 27.5523787,23.4788161 26.1822746,22.1544135 C25.3191278,21.3195358 24.0790611,20.6820699 23.4194512,21.0778359 C22.9864644,21.3369684 22.8201484,22.1694903 23.1179152,23.2390008 C23.277635,23.8119191 23.5348829,24.3626934 23.7219295,24.7245366" id="Fill-25" fill="#FFFFFF"></path>
                                <path d="M19.8330577,23.7516119 C19.3779268,25.3200701 19.5126757,27.1603819 20.4318893,28.5323706 C20.6156378,28.8051664 20.9760675,28.9417999 21.2483922,28.7071672 C22.4639591,27.6612143 23.4703354,25.4840303 23.387413,23.579171 C23.334173,22.3800944 22.8733884,21.0637014 22.1233176,20.8969143 C21.6300236,20.7871363 20.9364909,21.27619 20.4168125,22.2575954 C20.1383628,22.7838699 19.9461337,23.3605574 19.8330577,23.7516119" id="Fill-26" fill="#FFFFFF"></path>
                                <path d="M23.9056779,20.1077381 C23.5739884,19.5673291 22.7603124,19.0090164 22.1949324,19.0547179 C21.4217753,19.1173809 20.9204718,19.6347035 20.6990313,20.3371881 C20.5685228,20.7503866 20.6787719,21.1569891 21.1829023,21.4556981 C21.6832636,21.7525226 22.3565369,21.8156567 22.9987143,21.6549946 C23.6964874,21.4801979 24.3452609,20.8262418 23.9056779,20.1077381" id="Fill-27" fill="#89B571"></path>
                                <path d="M40.2357356,26.1629574 C40.8958167,23.2446545 38.9777652,19.1635536 37.7009488,19.1885245 C36.6083521,19.2101974 35.4102177,21.7308497 34.980529,24.6986233 C34.5489556,27.6772334 35.6947923,31.0139174 37.1784435,30.8706878 C38.6121529,30.7316986 39.618058,28.8970406 40.2357356,26.1629574" id="Fill-28" fill="#D2D0DD"></path>
                                <path d="M38.2733961,24.144551 C39.2307728,26.0974676 41.0126619,27.7893671 43.1465001,28.3179973 C43.5724197,28.4230638 44.0492234,28.2346038 44.1081172,27.7587423 C44.3686631,25.6395098 43.4089306,22.5930542 41.6209165,20.7909055 C40.4953393,19.6559053 38.8609201,18.7724991 37.9728024,19.2808699 C37.3885764,19.6139729 37.1435784,20.7174062 37.5106043,22.149702 C37.7075449,22.9172053 38.0354653,23.6578531 38.2733961,24.144551" id="Fill-29" fill="#FFFFFF"></path>
                                <path d="M33.2848603,20.9313082 C31.845026,22.3527677 30.8782262,24.4248852 31.0431287,26.4640222 C31.0761092,26.8701535 31.383299,27.2357659 31.8205262,27.1467185 C33.7673178,26.7504814 36.1715961,25.0034574 37.2330969,22.8936478 C37.9011876,21.5650049 38.1984832,19.862269 37.4870468,19.2281011 C37.0206083,18.8116046 35.9741842,18.9209113 34.8193957,19.6686263 C34.2003046,20.0691038 33.6438765,20.5770035 33.2848603,20.9313082" id="Fill-30" fill="#FFFFFF"></path>
                                <path d="M39.6698845,18.4356269 C39.3725889,17.7081713 38.4891827,16.8624572 37.7890539,16.8049769 C36.8302637,16.7262948 36.1150581,17.2586943 35.7028019,18.0733126 C35.4601596,18.5524721 35.5133996,19.0712082 36.0712411,19.5381178 C36.6229577,20.0007871 37.4333357,20.2132757 38.251252,20.1449589 C39.1388985,20.0714596 40.0628236,19.4014843 39.6698845,18.4356269" id="Fill-31" fill="#89B571"></path>
                                <path d="M53.7586819,24.4988557 C52.7480652,25.4665978 52.0111867,27.8920778 53.4076751,28.8715986 C57.4548533,31.7093348 60.9140364,22.4305074 59.6395757,22.2170765 C57.5820638,21.8707813 55.1933335,23.1240402 53.7586819,24.4988557" id="Fill-32" fill="#FFFFFF"></path>
                                <path d="M60.2973011,22.9572531 C58.283135,23.4218069 58.367942,28.0433169 56.2915841,28.2379019 C55.7601269,28.0287113 55.6908679,28.7217729 55.9198467,29.0223665 C57.4336516,31.0120328 59.8944678,30.1281555 61.0624486,28.3387279 C63.5487069,24.5271247 59.9618423,21.9339154 60.2973011,22.9572531" id="Fill-33" fill="#E6E7E3"></path>
                                <g id="Group-37" transform="translate(54.653396, 0.000000)">
                                    <mask id="mask-2" fill="white">
                                        <use xlink:href="#path-1"></use>
                                    </mask>
                                    <g id="Clip-35"></g>
                                    <path d="M3.47708672,21.9518191 C3.41960643,22.0903371 3.47708672,22.2976431 3.59251846,22.3928154 C4.17627327,22.8743307 4.84436391,23.1918858 5.59349235,23.32475 C6.18054521,23.428403 7.22696927,23.6130938 7.61519684,23.0359351 C8.25454734,21.4519289 4.86132531,18.3578871 3.47708672,21.9518191" id="Fill-34" fill="#89B571" mask="url(#mask-2)"></path>
                                    <path d="M5.01916055,2.09237698 C4.77840292,0.653484998 3.32019379,0.000942299925 2.08059823,0.369852721 C0.702955744,0.780224338 -0.760436039,2.81559218 0.768916739,3.79322835 C0.88199273,3.86625659 1.05207787,3.82903575 1.02239542,3.66554671 C3.32537644,12.3549655 6.34214965,8.95844539 5.01916055,2.09237698" id="Fill-36" fill="#E6E7E3" mask="url(#mask-2)"></path>
                                </g>
                                <path d="M61.6447899,5.63118435 C62.000037,4.02032263 61.7432603,2.17435708 60.727461,0.851839132 C60.5248665,0.588466303 60.1521869,0.474919162 59.8930544,0.728868992 C58.7368524,1.8624558 57.8642826,4.12303332 58.0730021,6.03731562 C58.2039818,7.24251722 58.7552272,8.53912192 59.5227305,8.65832286 C60.0263898,8.73653375 60.693067,8.19800935 61.1533805,7.17514278 C61.3988497,6.62672422 61.5552715,6.03260412 61.6447899,5.63118435 Z M56.9233962,4.78876822 C56.0739128,3.37484718 54.6171171,2.21204907 52.9699768,1.95103199 C52.6411142,1.8992055 52.2934055,2.07305983 52.2797421,2.43584531 C52.2208484,4.05471658 53.1438312,6.2945635 54.6114633,7.540284 C55.5363307,8.32474869 56.8282239,8.88635944 57.4671032,8.44442078 C57.8864267,8.15466355 58.000445,7.30518017 57.62965,6.2465062 C57.4312958,5.67924165 57.1358848,5.14071724 56.9233962,4.78876822 L56.9233962,4.78876822 Z" id="Fill-38" fill="#FFFFFF"></path>
                                <path d="M60.6167407,8.64513066 C60.6341733,8.49624727 60.5220396,8.31249879 60.3858772,8.25266274 C59.6923445,7.94829987 58.9630044,7.82485858 58.2058664,7.90118487 C57.6122174,7.96196322 56.5558992,8.06891426 56.3396414,8.73040881 C56.156364,10.4284333 60.2643206,12.4807625 60.6167407,8.64513066" id="Fill-39" fill="#89B571"></path>
                            </g>
                        </g>
                    </g>
                </g>
            </g>
        </g>
    </g>
</svg>