<?xml version="1.0" encoding="UTF-8" standalone="no"?>
<svg width="150px" height="143px" viewBox="0 0 150 143" version="1.1" xmlns="http://www.w3.org/2000/svg" xmlns:xlink="http://www.w3.org/1999/xlink">
    <!-- Generator: Sketch 41.2 (35397) - http://www.bohemiancoding.com/sketch -->
    <title>deer</title>
    <desc>Created with Sketch.</desc>
    <defs>
        <polygon id="path-1" points="0.126576667 117.801818 102.016519 117.801818 102.016519 0.152886246 0.126576667 0.152886246"></polygon>
        <polygon id="path-3" points="0.0163636364 0.16897983 0.0163636364 35.1200083 20.1391232 35.1200083 20.1391232 0.16897983 0.0163636364 0.16897983"></polygon>
        <polygon id="path-5" points="10.6565455 9.11956035 10.6565455 0.0786958379 0.216417741 0.0786958379 0.216417741 9.11956035 10.6565455 9.11956035"></polygon>
    </defs>
    <g id="Templates" stroke="none" stroke-width="1" fill="none" fill-rule="evenodd">
        <g id="Template1-Wedding-day" transform="translate(-192.000000, -488.000000)">
            <g id="deer" transform="translate(192.160156, 488.406250)">
                <g id="Group-3" transform="translate(36.545455, 24.818182)">
                    <mask id="mask-2" fill="white">
                        <use xlink:href="#path-1"></use>
                    </mask>
                    <g id="Clip-2"></g>
                    <path d="M62.1403636,0.226909091 C61.6737273,-0.0403636364 61.1948182,0.473454545 61.3873636,0.856363636 C61.6431818,2.79518182 62.1493636,4.61863636 62.3839091,6.56536364 C62.5333636,7.80709091 62.8568182,10.2062727 63.8138182,11.4021818 C63.0730909,11.7902727 62.3410909,12.2451818 61.6194545,12.7726364 C58.4342727,15.1003636 55.6273636,18.6951818 53.2118182,21.7693636 C50.715,24.9477273 47.8262727,27.3728182 44.2265455,29.1668182 C43.0489091,29.7537273 41.6847273,30.5539091 41.0293636,31.6167273 C38.6656364,35.4501818 45.513,37.5992727 48.2089091,37.8327273 C48.9763636,37.899 49.8414545,37.9314545 50.7362727,37.9003636 C51.5075455,39.6676364 55.5430909,39.1249091 56.8802727,39.0038182 C58.4626364,38.8603636 60.0351818,38.6080909 61.6022727,38.3517273 C63.6471818,38.0173636 65.5625455,37.9726364 67.4558182,37.8499091 C66.6109091,42.9141818 65.9056364,46.5103636 63.7873636,51.3957273 C57.8438182,65.1046364 52.7383636,64.7479091 39.2901818,65.1155455 C32.3127273,65.3061818 25.1045455,65.6443636 18.5956364,68.394 C13.0546364,70.7345455 8.46136364,75.0139091 4.92572727,79.8079091 C2.28981818,83.3817273 -0.334363636,88.3099091 0.195272727,92.9514545 C0.445090909,95.142 1.69854545,97.2256364 3.87272727,94.6172727 C3.83890909,95.5928182 4.03718182,96.5689091 4.34372727,97.5332727 C4.72118182,98.7215455 5.13136364,99.9321818 5.58245455,101.114182 C6.56672727,103.693636 5.34163636,106.585909 5.42345455,108.750545 C5.49436364,110.636182 7.04727273,112.017 8.78290909,112.352182 C12.6111818,113.091818 18.3223636,113.129727 22.1397273,112.996636 C27.2877273,112.816909 31.4604545,112.344545 36.6349091,113.151 C38.8630909,113.498182 40.9118182,114.129 41.6176364,115.442455 C42.2828182,116.909182 43.0903636,117.036545 44.6907273,116.824909 C48.6769091,116.296909 50.151,116.243727 52.746,116.902909 C53.4049091,119.050636 61.0780909,117.018818 60.8037273,114.920455 C60.7554545,114.551455 60.561,114.160909 60.3010909,113.815091 C63.3973636,114.208091 67.6101818,114.673636 70.7525455,115.244727 C73.743,115.788273 76.7866364,115.992545 79.8220909,116.067273 C86.5153636,116.232545 90.4693636,115.478182 90.1682727,111.336545 C90.189,111.337909 90.2102727,111.337364 90.2329091,111.335182 C91.4509091,111.213818 92.5977273,110.245091 93.2045455,109.566273 C95.6037273,106.881545 93.5449091,101.238273 92.3271818,98.6585455 C91.5070909,96.9207273 90.5612727,95.2598182 89.5456364,93.63 C88.707,92.2824545 87.8719091,90.8230909 86.8003636,89.6421818 C91.0674545,82.9322727 91.6101818,77.5748182 91.6486364,69.147 C91.6759091,63.2896364 91.3625455,57.4017273 90.9908182,51.5577273 C90.6193636,45.7178182 90.1017273,39.888 89.6132727,34.0568182 C89.1561818,28.6077273 88.5021818,23.1807273 89.7905455,17.784 C89.7992727,17.7471818 89.8022727,17.7122727 89.8009091,17.6798182 C90.8506364,17.1597273 91.9148182,16.8488182 93.0403636,16.4596364 C94.4334545,15.9785455 95.6675455,14.9353636 96.7216364,13.9352727 C98.6661818,12.0897273 100.164,9.44045455 101.262818,6.84818182 C101.463545,6.37445455 102.521455,4.68627273 101.721273,4.63554545 C100.879364,4.58181818 96.4925455,5.36290909 95.2325455,5.59390909 C92.6083636,6.075 87.888,6.97745455 85.7945455,8.71963636 C84.8018182,9.546 83.2557273,11.1109091 82.86,12.3829091 C78.7309091,10.5381818 74.5153636,9.35454545 70.428,9.58963636 C71.1572727,4.82918182 65.5159091,2.16190909 62.1403636,0.226909091" id="Fill-1" fill="#EF9E9E" mask="url(#mask-2)"></path>
                </g>
                <path d="M117.899182,121.468909 C118.575,120.906273 119.129727,120.133636 119.674091,119.487 C120.616909,118.367727 121.486091,117.192 122.323636,115.992545 C122.562273,115.650818 122.790818,115.313455 123.010091,114.979364 C123.434727,116.108455 124.127182,117.169909 124.721727,118.203273 C125.599364,119.728364 126.465545,121.261091 127.250727,122.836091 C128.610545,125.565 131.481818,131.940818 128.608636,134.337545 C127.996909,134.848091 127.311273,135.078818 126.624818,135.434727 C126.437727,134.347636 126.001091,133.057364 125.292,131.529273 C124.177091,129.125182 122.650364,126.896727 120.956182,124.867091 C119.981455,123.699818 118.929273,122.593636 117.899182,121.468909" id="Fill-4" fill="#D2B584"></path>
                <path d="M69.3676364,136.495909 C66.6343636,136.377273 63.8915455,136.611545 61.1656364,136.782818 C57.093,137.039182 53.0293636,136.871727 48.9591818,136.673182 C46.392,136.548 43.7495455,136.109727 43.1795455,134.039182 C42.9580909,133.233 43.0426364,132.326727 43.1116364,131.505818 C43.2613636,129.715909 43.6568182,127.461818 43.2076364,125.722636 C42.9545455,124.742727 42.5168182,123.796636 42.1554545,122.862545 C41.5371818,121.264091 41.2314545,119.734636 41.2690909,118.034455 C41.2805455,117.490636 40.7487273,116.895 40.4135455,117.387 C40.0911818,117.860182 39.8918182,118.399636 39.5691818,118.873364 C38.1340909,120.982091 37.9186364,118.676455 37.8820909,117.461727 C37.7329091,112.487455 40.3947273,107.803364 43.4331818,103.95 C47.3743636,98.952 52.4885455,95.0719091 58.5777273,93.1240909 C64.8864545,91.1064545 71.8887273,91.0521818 78.4581818,90.9684545 C81.21,90.9335455 83.9765455,90.8975455 86.7010909,90.4704545 C94.2444545,89.2862727 98.1891818,83.8516364 101.197909,77.2270909 C102.962455,73.3401818 105.039,66.9823636 104.785909,62.6116364 C105.965727,62.517 107.142818,62.3724545 108.343091,62.0877273 C110.410636,61.5970909 113.068364,60.2896364 113.561182,58.005 C113.647364,57.6051818 113.115273,57.4922727 112.895182,57.7606364 C112.186364,58.623 111.586091,59.4700909 110.640818,60.1006364 C109.676182,60.7437273 108.534818,61.0999091 107.418273,61.3696364 C104.687727,62.0296364 101.675182,61.8343636 99.0057273,62.2423636 C97.629,62.4523636 96.2593636,62.7024545 94.8793636,62.8900909 C92.8641818,63.1636364 90.0065455,63.6938182 88.0584545,62.6749091 C90.3256364,62.4995455 92.469,61.7080909 94.5979091,60.9654545 C94.8793636,60.8672727 95.1079091,60.5664545 94.9090909,60.2738182 C94.686,59.9451818 93.8757273,59.5720909 93.4761818,59.8491818 C91.4334545,61.2662727 88.1217273,61.9459091 85.656,61.9055455 C84.0384545,61.8790909 76.1724545,60.4554545 78.4006364,56.8832727 C79.2763636,55.4792727 81.4186364,54.7096364 82.818,54.0040909 C85.8095455,52.4964545 88.239,49.9666364 90.3381818,47.4092727 C93.2329091,43.8823636 96.5102727,39.8653636 100.579364,37.4710909 C105.052636,34.839 109.310727,35.2840909 114.112909,36.3793636 C114.619364,36.4947273 117.413455,37.62 118.927091,38.0637273 C120.228818,38.4455455 119.837455,38.1583636 120.655091,37.0363636 C123.508091,33.1208182 126.881727,32.2082727 133.001455,31.1770909 C133.423909,31.1059091 133.904182,31.0494545 134.407636,30.9864545 C129.159273,32.7867273 124.955455,34.5610909 121.98,39.6332727 C121.780636,39.9730909 122.268,40.2068182 122.522182,39.9954545 C123.590182,39.1060909 124.446273,37.9516364 125.429455,36.969 C129.239182,33.1636364 132.897818,33.1546364 137.094545,30.9665455 C136.563273,31.8755455 135.892091,33.1390909 135.375545,34.035 C134.467364,35.6110909 133.455818,37.0483636 132.114,38.2876364 C130.843636,39.4606364 129.487909,40.1282727 127.854,40.608 C125.465727,41.3094545 125.381455,41.5532727 124.937727,43.7195455 C124.807364,44.3555455 124.672636,45.0398182 124.614,45.4082727 C124.000909,49.2493636 124.453909,53.6402727 124.810091,57.4936364 C125.341091,63.2454545 125.776636,69.0133636 126.169909,74.7763636 C126.560455,80.4932727 126.787909,86.2251818 126.903,91.9540909 C126.96,94.7978182 126.904909,97.6418182 126.643364,100.474909 C126.015,107.287364 125.307545,109.868727 121.588364,115.111636 C120.764727,116.273455 119.876455,117.385091 118.975364,118.486909 C118.41,119.179364 117.664364,119.841818 117.096,120.580636 C116.926091,120.389727 116.757545,120.197727 116.591182,120.004091 C115.437545,118.663636 113.733545,116.522727 111.778091,116.462182 C111.535909,116.454818 111.389455,116.777727 111.640909,116.892545 C113.464091,117.725727 114.699818,119.394818 115.922455,120.929727 C117.101182,122.408727 118.341818,123.743727 119.594182,125.177727 C121.248545,127.072364 122.653364,129.211091 123.811364,131.440636 C126.030818,135.714818 127.146818,138.744 121.583455,139.648091 C119.468455,139.992273 117.296727,139.959545 115.162909,139.869545 C112.084091,139.739727 109.044,139.425 106.021091,138.81 C102.375,138.068182 99.708,137.779909 96.0171818,137.835545 L95.9926364,137.819727 C95.9773636,137.796 95.9582727,137.775273 95.9367273,137.758091 C95.9263636,137.725091 95.91,137.691545 95.8849091,137.658545 C94.0851818,135.308455 91.0178182,134.171727 88.2804545,133.317273 C87.4041818,133.043727 86.5178182,132.797727 85.6273636,132.568091 C85.8158182,132.376364 85.9750909,132.155727 86.1433636,131.927727 C86.8366364,130.988727 88.0568182,129.659455 89.1706364,128.743364 C90.5124545,127.640182 90.6068182,128.318455 92.5115455,129.079909 C96.2230909,130.563545 97.6145455,129.995455 101.815636,130.281273 C104.037818,130.432364 106.265182,131.037818 108.482727,131.215364 L108.551182,131.299364 C109.334455,132.259364 109.913455,133.567091 110.838545,134.372182 C111.031364,134.539636 111.479455,134.462182 111.460364,134.147727 C111.358364,132.450273 108.097909,129.188182 106.774364,128.133273 C106.636364,128.022545 106.239,128.103273 106.352455,128.340818 L106.364727,128.365364 C105.041182,127.579364 103.539545,127.095273 102.176182,126.381545 C100.380818,125.441727 98.9956364,124.123091 97.5679091,122.714455 C97.3928182,122.542091 97.0494545,122.733545 97.1765455,122.969727 C98.9367273,126.245182 103.098273,128.694273 106.714091,129.270818 C106.768909,129.279545 106.830545,129.271364 106.888909,129.250909 C107.152636,129.631909 107.447727,129.993 107.748545,130.348636 C106.163455,129.907364 104.414182,129.793364 102.852818,129.634364 C98.3048182,129.171818 97.107,129.963818 92.9852727,128.356364 C92.1141818,128.016818 91.1822727,127.203545 90.2323636,127.278273 C89.7859091,127.312636 88.0300909,128.61 87.5727273,129.117 C86.3037273,128.656909 85.2916364,129.411273 84.4617273,130.269818 C84.0995455,130.644273 83.4327273,131.339455 83.2404545,131.985545 C81.5991818,131.601 79.9532727,131.236636 78.3275455,130.821545 C73.8114545,129.668727 69.2236364,128.121273 64.5796364,127.546909 C64.8379091,127.272273 65.0855455,126.985091 65.349,126.714273 C66.0864545,125.956909 66.8986364,125.268545 67.7053636,124.586727 C69.1565455,123.360545 70.6595455,122.163545 71.8388182,120.659182 C74.2628182,117.566182 76.0210909,113.071909 74.2579091,109.270636 C74.1624545,109.064727 73.7209091,109.043455 73.7435455,109.329545 C73.8949091,111.268909 74.0814545,112.994182 73.5234545,114.900273 C72.9253636,116.945455 71.7455455,118.969091 70.3216364,120.545455 C69.0820909,121.917273 67.5818182,123.046091 66.1797273,124.242 C65.2060909,125.071909 63.819,126.151636 63.2318182,127.409182 C61.0352727,127.233273 58.8267273,127.303091 56.6075455,127.763455 C56.2712727,127.833 56.367,128.270727 56.6874545,128.268545 C60.393,128.242636 64.0780909,128.299636 67.6939091,129.186818 C71.1452727,130.033636 74.5780909,130.957364 78.0196364,131.846182 C81.0531818,132.630273 84.1254545,133.277727 87.1464545,134.110091 C90.1107273,134.927182 92.5205455,136.275818 95.0522727,137.923636 C94.8818182,138.065182 94.7348182,138.247091 94.5591818,138.418636 C94.0892727,138.878455 93.5839091,139.299273 93.0679091,139.705364 C91.8673636,140.650909 91.2526364,140.777727 90.0597273,141.406909 C88.5261818,140.571818 86.2197273,140.473091 85.7391818,140.448273 C84.8650909,140.402727 83.958,140.444727 82.9570909,140.580273 C82.1015455,140.695909 80.7725455,140.980364 79.9606364,140.975727 C79.2310909,140.971909 79.3088182,139.550182 77.8775455,138.383455 C76.0936364,136.929818 71.6792727,136.595727 69.3676364,136.495909" id="Fill-5" fill="#F6E6D7"></path>
                <path d="M113.794909,36.3076364 C113.901,36.3313636 114.006818,36.3550909 114.112909,36.3793636 C114.316909,36.4257273 114.891818,36.6362727 115.604455,36.8997273 C115.536273,36.8811818 115.462091,36.8601818 115.381636,36.8364545 C114.934364,36.7052727 114.374455,36.5143636 113.794909,36.3076364" id="Fill-6" fill="#B69064"></path>
                <path d="M118.494273,37.5692727 C119.149909,37.3982727 119.631273,32.4349091 122.785636,30.3425455 C123.397909,29.8857273 124.107818,29.3918182 124.414909,28.6655455 C124.676182,28.0478182 124.032273,27.4633636 123.444273,27.4603636 C123.020727,27.4581818 122.627182,27.5994545 122.245636,27.7699091 C122.343273,27.5078182 122.427818,27.2408182 122.524364,26.9991818 C124.149545,22.9262727 125.733545,23.9323636 126.911455,21.6411818 C127.234364,21.012 126.814909,20.5595455 126.210273,20.391 C125.299091,20.1370909 124.383545,20.7248182 123.652091,21.3114545 C124.113273,20.0462727 124.346182,18.6736364 124.591091,17.3574545 C124.778727,16.3459091 125.228727,14.526 124.374273,13.6925455 C122.969182,12.3220909 121.838182,16.6508182 121.620818,18.966 C121.169182,17.9844545 120.735545,16.9502727 119.986091,16.2019091 C119.808273,16.0246364 119.455091,16.068 119.322,16.2774545 C118.299818,17.8846364 119.594182,20.5862727 119.827364,22.2739091 C119.966182,23.2723636 119.721818,24.0531818 119.43,24.9875455 C119.413636,25.0420909 119.225182,24.5765455 119.199,24.5132727 C118.891909,23.766 118.533,22.9996364 118.05,22.3480909 C117.726545,21.9117273 117.318545,21.4674545 116.748,21.4219091 C114.627545,21.2530909 116.115273,25.5109091 116.603182,26.4703636 C117.439909,28.1170909 117.686182,29.4886364 117.191455,31.2687273 C116.803909,32.6642727 116.373,34.0483636 115.897909,35.4166364 C115.811455,35.6648182 115.552091,36.5361818 115.932818,36.75 C116.214545,36.9084545 118.208455,37.6224545 118.494273,37.5692727" id="Fill-7" fill="#EF9E9E"></path>
                <path d="M111.611182,35.4008182 C111.887182,34.0647273 111.508091,30.834 112.084636,29.9121818 C112.398818,29.4095455 113.426727,28.974 114.028636,28.4296364 C114.458727,28.0407273 114.655091,27.6125455 114.294545,26.988 C113.995909,26.3784545 113.074909,26.3803636 112.314545,26.6721818 C112.254,25.3936364 112.257273,24.3038182 112.721727,23.4403636 C113.052818,22.8231818 114.136364,22.2619091 114.509182,21.5814545 C114.832091,20.9937273 114.223636,20.4902727 112.449,20.5129091 C112.663636,19.7413636 113.023636,18.0286364 113.292545,17.2055455 C113.415545,16.3794545 113.697,15.0308182 112.667182,14.7526364 C111.770182,14.5104545 111.204,15.3788182 110.857091,16.0682727 C110.583545,16.6118182 110.187,18.2634545 110.090727,19.0341818 C108.743182,17.3050909 107.034818,16.5027273 107.589818,18.7232727 C107.687727,19.1162727 107.866636,19.4972727 108.046909,19.8553636 C108.350455,20.3839091 108.913091,21.0291818 109.068273,21.6548182 C109.300364,22.5913636 109.042636,23.5265455 109.030091,24.3013636 C108.562909,23.9252727 107.566091,23.2456364 107.020364,23.0350909 C105.388364,22.4061818 104.358545,22.9524545 104.831727,23.9743636 C105.077182,24.5050909 107.605909,26.3457273 108.204,26.8827273 C110.220818,28.6933636 108.822545,32.7591818 109.042091,35.148 C109.071818,35.4646364 111.561273,35.4973636 111.611182,35.4008182" id="Fill-8" fill="#EF9E9E"></path>
                <path d="M101.413091,50.4488182 C100.723091,51.1947273 100.583182,52.4138182 100.287545,52.7378182 C100.165364,52.8711818 100.110545,53.0427273 100.218818,53.2066364 C100.335273,53.3825455 100.632,53.4698182 100.816364,53.3454545 C100.862182,53.3143636 100.907455,53.2827273 100.953273,53.2513636 C101.527636,54.8953636 104.135455,54.6171818 105.471545,53.6841818 C105.627545,53.7250909 105.746727,53.7818182 105.914182,53.8009091 C106.281,53.8437273 106.463182,53.394 106.218273,53.1512727 C105.790909,52.7277273 105.645,51.4786364 104.683636,50.613 C103.915364,49.9213636 102.411273,49.3693636 101.413091,50.4488182" id="Fill-9" fill="#CE8282"></path>
                <path d="M102.984273,46.407 C103.114909,46.4432727 103.241727,46.416 103.372364,46.3988182 C103.918636,46.3268182 103.724455,45.8863636 103.435909,45.6081818 C102.660545,44.8611818 101.976,46.1500909 102.984273,46.407" id="Fill-10" fill="#CE8282"></path>
                <path d="M72.1472727,93.7778182 C71.295,93.3766364 70.3039091,93.5762727 69.6248182,94.2109091 C69.3695455,94.4492727 69.5806364,94.8428182 69.9144545,94.8267273 C70.113,94.8166364 70.2804545,94.7732727 70.4361818,94.7119091 C70.5297273,94.7072727 70.6235455,94.6993636 70.7173636,94.6854545 C71.1733636,94.6186364 71.6075455,94.4233636 72.0583636,94.3685455 C72.366,94.3311818 72.4167273,93.9046364 72.1472727,93.7778182 Z M64.8242727,94.0415455 C64.1241818,93.8544545 63.5901818,94.0093636 62.991,94.3835455 C62.7564545,94.53 62.5674545,94.8531818 62.7837273,95.1084545 C63.1671818,95.562 64.4588182,94.8496364 64.9069091,94.5878182 C65.1605455,94.4394545 65.1051818,94.1162727 64.8242727,94.0415455 Z M71.2982727,96.1330909 C71.7548182,96.3158182 72.2375455,96.1843636 72.6357273,96.0237273 C72.7322727,95.985 72.8127273,95.8685455 72.8078182,95.7638182 C72.7827273,95.2371818 70.8188182,95.9410909 71.2982727,96.1330909 Z M76.6791818,93.0428182 C75.2724545,92.3089091 73.7525455,93.4546364 74.1019091,93.7930909 C74.1092727,93.9711818 74.241,94.1419091 74.43,94.1743636 C75.2509091,94.3150909 76.2886364,94.3099091 77.0269091,93.8800909 C77.3920909,93.6673636 76.785,93.0979091 76.6791818,93.0428182 Z M77.8156364,94.5400909 C77.7913636,94.3930909 77.5930909,94.359 77.4777273,94.3767273 C77.3383636,94.3982727 76.4184545,94.6003636 75.9891818,94.8927273 C75.5391818,95.199 75.5890909,95.5958182 75.9141818,95.6138182 C76.3300909,95.637 76.7364545,95.5775455 77.1130909,95.394 C77.4384545,95.2355455 77.8816364,94.9426364 77.8156364,94.5400909 Z M60.6158182,96.1191818 C60.1415455,95.6814545 59.334,95.9885455 58.8597273,96.2528182 C58.2392727,96.5983636 57.6220909,97.1833636 57.4707273,97.9022727 C57.4224545,98.1305455 57.5517273,98.3596364 57.7922727,98.4068182 C60.1868182,98.8791818 61.7896364,97.2010909 60.6158182,96.1191818 Z M57.1317273,95.6462727 C56.6675455,95.7646364 56.3678182,96.1570909 56.115,96.5413636 C55.8919091,96.7494545 55.6865455,96.9717273 55.5024545,97.2152727 C55.3557273,97.4097273 55.6246364,97.5927273 55.8035455,97.5477273 C56.6080909,97.3445455 57.1129091,96.7944545 57.5601818,96.1333636 C57.7516364,95.8502727 57.405,95.577 57.1317273,95.6462727 Z M54.1330909,98.6915455 C53.7782727,98.4220909 53.3522727,98.2966364 52.9287273,98.4998182 C52.8040909,98.5595455 51.7696364,99.2350909 51.6152727,99.7437273 C51.411,100.414636 52.1446364,100.933909 52.644,100.739727 C53.3934545,100.448455 54.0256364,99.8574545 54.2454545,99.069 C54.282,98.9378182 54.246,98.7777273 54.1330909,98.6915455 Z M50.0383636,100.258909 C48.2675455,102.023455 49.764,102.162818 50.5704545,100.613727 C50.7395455,100.290273 50.2827273,100.015909 50.0383636,100.258909 Z M59.3500909,100.288364 C58.767,100.057364 57.2304545,100.673455 56.7790909,101.179909 C56.2808182,101.738455 56.9072727,102.204818 57.1636364,102.171818 C58.116,102.048 58.9025455,101.523545 59.4981818,100.785545 C59.6247273,100.629 59.529,100.359545 59.3500909,100.288364 Z M63.9970909,97.68 C63.2749091,97.3780909 61.7020909,98.4152727 61.5417273,99.297 C61.5065455,99.4898182 61.6543636,99.6910909 61.869,99.6684545 C62.8442727,99.5656364 63.5994545,98.9907273 64.1525455,98.205 C64.2747273,98.0312727 64.1931818,97.7620909 63.9970909,97.68 Z M84.8097273,93.1055455 C83.8191818,92.3042727 82.5111818,92.3495455 81.5582727,93.1906364 C80.8557273,93.8105455 83.6680909,94.8280909 84.8097273,93.6444545 C84.9556364,93.4933636 84.9902727,93.252 84.8097273,93.1055455 Z M82.4143636,96.1658182 C81.1971818,95.5985455 79.542,96.0166364 78.7557273,97.1026364 C78.5386364,97.4031818 78.8530909,97.8013636 79.1869091,97.779 C80.4313636,97.6955455 81.3100909,97.5351818 82.4143636,96.8569091 C82.6742727,96.6970909 82.7290909,96.3125455 82.4143636,96.1658182 Z M74.5819091,98.4245455 C74.2033636,98.157 73.7350909,97.9729091 73.2638182,98.0672727 C71.8903636,98.3424545 72.2102727,99.4996364 72.5650909,99.6117273 C73.3573636,99.8612727 74.2246364,99.6226364 74.649,98.8849091 C74.7313636,98.7422727 74.7316364,98.5303636 74.5819091,98.4245455 Z M90.018,91.584 C89.4970909,91.2368182 88.6958182,91.314 88.1612727,91.581 C87.9043636,91.7094545 87.6684545,91.9374545 87.6013636,92.2227273 C87.3643636,93.2263636 88.6003636,93.0935455 89.3773636,92.7594545 C89.877,92.5442727 89.9569091,92.2461818 90.096,92.1133636 C90.2814545,91.9363636 90.2116364,91.713 90.018,91.584 Z M88.893,93.7453636 C88.2215455,94.0120909 87.8299091,94.4751818 88.4604545,94.7991818 C89.2562727,95.1343636 90.1906364,94.7048182 90.7941818,94.1746364 C91.6647273,93.4107273 89.4488182,93.5244545 88.893,93.7453636 Z M94.4601818,89.0143636 C93.972,89.0149091 93.5056364,89.1591818 93.1693636,89.5257273 C92.3260909,90.4450909 92.9083636,91.5002727 93.5768182,91.2340909 C94.3551818,90.9245455 94.8769091,90.2656364 94.9159091,89.4204545 C94.9270909,89.1793636 94.6772727,89.0140909 94.4601818,89.0143636 Z M94.7323636,91.1509091 C93.3368182,91.2259091 92.6318182,93.6092727 94.6208182,91.9778182 C94.7738182,91.8526364 95.5568182,91.1059091 94.7323636,91.1509091 Z M95.6888182,88.8043636 C96.1066364,88.9047273 96.4459091,88.1361818 96.2765455,87.8779091 C96.1243636,87.6471818 95.8060909,87.6766364 95.6170909,87.8299091 C95.454,87.9613636 95.4092727,88.2349091 95.3893636,88.4304545 C95.3631818,88.6862727 95.5909091,88.7806364 95.6888182,88.8043636 Z M98.0356364,85.0606364 C97.8758182,84.921 97.6598182,84.9458182 97.4975455,85.0606364 C97.479,85.074 97.1271818,85.4135455 96.978,85.7577273 C96.336,87.237 98.8385455,85.7626364 98.0356364,85.0606364 Z M98.5898182,86.7957273 C97.5755455,87.0591818 97.1533636,88.9802727 98.9176364,87.3526364 C99.1900909,87.1688182 98.9716364,86.6964545 98.5898182,86.7957273 Z M99.6662727,85.6115455 C99.6654545,85.6210909 99.6679091,85.6175455 99.6711818,85.602 C99.6976364,85.5436364 99.7202727,85.482 99.7418182,85.4195455 C99.7450909,85.4108182 99.7450909,85.4020909 99.7472727,85.3936364 C99.7772727,85.3224545 99.8075455,85.2515455 99.8320909,85.1781818 C99.849,85.1260909 99.8678182,85.0750909 99.8847273,85.023 C99.897,84.9859091 99.8991818,84.9302727 99.9038182,84.8871818 C99.9070909,84.8645455 99.9212727,84.7696364 99.9043636,84.8768182 C99.9212727,84.7693636 99.9310909,84.6921818 99.9008182,84.5871818 C99.8678182,84.4731818 99.7475455,84.4276364 99.6414545,84.4197273 C99.3190909,84.396 99.1325455,84.7628182 99.0223636,85.0058182 C98.9536364,85.1577273 98.8363636,85.4596364 98.8939091,85.6268182 C98.9498182,85.7882727 99.1101818,85.8831818 99.2776364,85.8831818 C99.4917273,85.8829091 99.5950909,85.7634545 99.6662727,85.6115455 Z M99.6711818,85.602 C99.6695455,85.6052727 99.6679091,85.6085455 99.6662727,85.6115455 C99.6662727,85.608 99.6700909,85.5973636 99.6722727,85.5891818 C99.6717273,85.5927273 99.6717273,85.5992727 99.6711818,85.602 Z M99.0804545,82.9309091 C98.8993636,83.0784545 98.7799091,83.34 98.8587273,83.5690909 C98.9536364,83.844 99.3845455,83.8971818 99.5410909,83.6468182 C99.8964545,83.0768182 99.8239091,82.3221818 99.0804545,82.9309091 Z M64.3849091,96.0619091 C64.2785455,96.2192727 64.392,96.4309091 64.5714545,96.4636364 C67.3344545,96.9638182 68.2778182,95.8360909 67.5820909,95.211 C67.11,94.7871818 65.6563636,94.182 64.3849091,96.0619091 L64.3849091,96.0619091 Z" id="Fill-11" fill="#EF9E9E"></path>
                <path d="M82.3390909,53.9721818 C82.3311818,53.9623636 78.3370909,54.4862727 77.6888182,57.3545455 C77.4785455,58.284 77.3956364,59.2480909 77.9138182,59.1766364 C80.1433636,59.7051818 82.2398182,58.8559091 82.9990909,57.6583636 C83.5617273,56.7709091 83.4406364,55.3131818 82.3390909,53.9721818" id="Fill-12" fill="#CE8282"></path>
                <path d="M101.323091,35.7553636 C101.030455,34.9150909 100.719818,34.2297273 100.453636,33.3771818 C99.7677273,31.1787273 99.7265455,28.2739091 98.7608182,26.2407273 C102.140182,28.146 106.209273,30.0796364 106.228909,34.4659091 L106.228909,34.4661818 C104.564727,34.6341818 102.925091,35.0465455 101.323091,35.7553636" id="Fill-13" fill="#D2B584"></path>
                <path d="M112.591091,55.7470909 C112.222909,52.4991818 107.610273,52.7230909 106.431273,55.6445455 C105.628636,57.6327273 106.969909,59.2148182 108.974182,59.3165455 C110.971364,59.418 112.826455,57.8192727 112.591091,55.7470909" id="Fill-14" fill="#F3C796"></path>
                <path d="M79.5837273,55.9963636 C80.2415455,56.5407273 79.6388182,57.1156364 78.9087273,56.6206364 C77.9350909,55.9603636 79.1590909,55.6445455 79.5837273,55.9963636" id="Fill-15" fill="#FFFFFF"></path>
                <path d="M101.985273,50.9547273 C103.450364,50.2082727 106.211182,51.3589091 105.231273,53.2819091 C104.488636,54.738 102.890182,54.5277273 102.073909,54.0638182 C100.834091,53.3585455 100.637455,51.6411818 101.985273,50.9547273" id="Fill-16" fill="#CE8282"></path>
                <path d="M103.250182,51.4161818 C103.636364,51.2195455 104.364545,51.5225455 104.106273,52.0295455 C103.910182,52.4135455 103.488818,52.3579091 103.273636,52.2357273 C102.946636,52.0497273 102.894818,51.597 103.250182,51.4161818" id="Fill-17" fill="#FFFFFF"></path>
                <path d="M136.088182,116.841545 C134.371364,118.137273 132.151909,121.614 131.559,123.739364 C131.455091,124.001182 131.358545,124.255636 131.268,124.499182 C130.517455,126.530727 129.938455,128.636727 129.736091,130.798091 C129.433364,134.025818 130.186364,137.364273 130.764273,140.528727 C130.824,140.852455 131.350091,140.816182 131.350636,140.482909 C131.357727,137.364 130.416818,134.357727 130.661455,131.214 C130.799455,129.441273 131.237727,127.705636 131.782636,126.018273 C132.679636,123.240273 133.564364,122.078455 135.748909,120.073091 C137.045182,118.883455 138.338182,117.722455 139.344,116.266636 C139.899,115.463455 138.789,115.616455 137.702182,116.014636 C137.008636,116.268818 136.324636,116.663182 136.088182,116.841545" id="Fill-18" fill="#89B571"></path>
                <path d="M131.177727,123.093 C131.039727,121.394455 130.191545,119.683636 129.575182,118.118727 C129.415364,117.712364 128.672455,117.828 128.719909,118.289727 C129.059727,121.588909 128.490818,125.077636 130.053273,128.137636 C130.243909,128.509909 130.948364,128.449364 130.905818,127.967182 C130.740818,126.096545 131.312727,124.754727 131.177727,123.093" id="Fill-19" fill="#89B571"></path>
                <path d="M136.641818,123.491727 C134.464091,126.286091 130.512273,126.460909 129.868364,130.659818 C129.811909,131.028818 130.098,131.474455 130.333909,131.227636 C130.798909,130.740545 131.692091,129.831 132.267273,129.456545 C133.094182,128.918727 133.995818,128.499818 134.838545,127.987364 C136.446818,127.009364 137.457273,125.652273 137.473091,123.727909 C137.475818,123.336818 136.858364,123.213818 136.641818,123.491727" id="Fill-20" fill="#89B571"></path>
                <path d="M124.627909,128.181818 C124.235182,128.033182 123.835636,128.512636 124.122818,128.844273 C125.261182,130.155545 125.806636,131.840727 126.801273,133.252636 C127.615091,134.407909 128.818636,135.425727 129.991909,136.203273 C131.318727,137.083364 130.782818,130.510636 124.627909,128.181818" id="Fill-21" fill="#89B571"></path>
                <path d="M134.900455,130.869273 C133.837636,133.591636 129.785727,134.684182 130.467818,138.004091 C130.509,138.205091 130.852636,138.236182 130.897364,138.019364 C131.410909,136.521545 135.505909,135.463364 135.823091,131.138455 C135.897545,130.634182 135.088364,130.387636 134.900455,130.869273" id="Fill-22" fill="#89B571"></path>
                <path d="M135.376909,106.234364 C135.178364,105.793636 134.455091,106.057909 134.513182,106.512 C134.866364,109.294364 134.978727,112.356273 134.426182,115.124182 C133.961182,117.454364 132.776182,119.561727 132.676364,121.971273 C132.669,122.152364 132.956182,122.142545 132.986182,121.981364 C133.237364,120.619091 136.434545,116.294455 137.236636,114.129 C138.348273,111.126273 136.556455,108.850364 135.376909,106.234364" id="Fill-23" fill="#89B571"></path>
                <path d="M133.321636,120.020727 C133.269273,120.207273 133.597909,120.267545 133.668818,120.112636 C135.167182,117.338182 140.436,111.440182 143.037545,114.957273 C143.223818,115.135909 143.687455,114.976091 143.634545,114.687818 C140.966455,109.466727 134.099727,117.246545 133.321636,120.020727" id="Fill-24" fill="#89B571"></path>
                <path d="M146.032091,117.702545 C145.745182,116.334818 144.137455,114.973909 143.599364,115.232455 C143.139818,115.453636 143.120455,116.757818 143.515091,118.101818 C143.910818,119.451545 145.045636,120.646091 145.648636,120.296727 C146.230364,119.959364 146.301273,118.984364 146.032091,117.702545" id="Fill-25" fill="#D2D0DD"></path>
                <path d="M144.695727,117.332455 C145.243364,118.102909 146.126455,118.703727 147.079364,118.780636 C147.268909,118.795909 147.460364,118.681364 147.452182,118.473545 C147.414818,117.545727 146.789727,116.306182 145.896273,115.658727 C145.333909,115.250727 144.570545,114.986727 144.224727,115.267091 C143.997818,115.451182 143.970273,115.941545 144.228545,116.530364 C144.366545,116.845636 144.558818,117.140182 144.695727,117.332455" id="Fill-26" fill="#FFFFFF"></path>
                <path d="M142.387636,117.091636 C142.254545,118.027636 142.482,119.071091 143.120455,119.782364 C143.247818,119.924182 143.465182,119.973 143.602636,119.816182 C144.213545,119.117727 144.613091,117.787909 144.410182,116.703273 C144.282273,116.020364 143.911091,115.303636 143.467364,115.269273 C143.175818,115.246636 142.818273,115.583182 142.600364,116.188091 C142.483364,116.512091 142.420636,116.858455 142.387636,117.091636" id="Fill-27" fill="#FFFFFF"></path>
                <path d="M144.424636,114.671727 C144.190636,114.388909 143.678182,114.135273 143.358545,114.207545 C142.920273,114.306273 142.675364,114.643636 142.605545,115.064455 C142.564364,115.311818 142.660364,115.535727 142.974,115.666091 C143.285182,115.795091 143.676273,115.776545 144.030818,115.632 C144.416455,115.475182 144.735,115.047273 144.424636,114.671727" id="Fill-28" fill="#89B571"></path>
                <g id="Group-32" transform="translate(10.909091, 107.727273)" fill="#89B571">
                    <path d="M42.5200909,14.8415455 C42.4366364,14.3874545 41.8388182,14.3539091 41.6154545,14.718 C38.5014545,19.7975455 36.5451818,28.8561818 39.3021818,34.4479091 C39.4546364,34.7571818 40.0925455,34.6797273 40.0175455,34.2883636 C39.9591818,33.9818182 39.2457273,32.4046364 39.3867273,30.792 C39.6248182,28.0723636 40.8229091,24.8359091 40.9731818,24.3954545 C42.0321818,21.2888182 43.1331818,18.1636364 42.5200909,14.8415455" id="Fill-29"></path>
                    <path d="M5.73763636,0.941181818 C4.719,0.0886363636 3.22009091,-0.00245454545 2.19681818,0.907363636 C0.0965454545,2.77609091 -0.125454545,6.74781818 0.243545455,9.34227273 C0.582272727,11.7245455 1.75772727,14.088 2.72918182,16.2619091 C3.96818182,19.0344545 5.28327273,21.7824545 6.00354545,24.747 C6.519,26.8671818 6.61636364,29.8960909 6.78354545,32.13 C6.80372727,32.4019091 6.79636364,33.3114545 6.80481818,33.9185455 C6.81954545,35.0064545 7.30009091,34.3805455 7.41,33.906 C7.72854545,32.535 7.35190909,29.3288182 7.335,28.9330909 C7.15281818,24.7388182 5.87536364,21.0294545 4.16590909,17.214 C3.048,14.7174545 1.91754545,12.2233636 1.24745455,9.56154545 C0.916090909,8.24672727 1.07345455,6.741 1.25918182,5.42018182 C1.45418182,4.03336364 1.87036364,1.94536364 3.27218182,1.26272727 C5.54536364,0.156 6.21681818,3.64663636 6.22990909,5.06454545 C6.234,5.52736364 6.92890909,5.45536364 6.97854545,5.01190909 C7.14218182,3.55227273 6.93709091,1.94481818 5.73763636,0.941181818" id="Fill-31"></path>
                </g>
                <path d="M15.816,103.886727 C14.6858182,104.871 13.8488182,106.158818 13.1451818,107.469 C12.5604545,108.557727 11.8876364,109.877727 11.9427273,111.142364 C11.9457273,111.213273 12.0561818,111.195273 12.0752727,111.143455 C12.825,109.076727 13.7541818,107.16 15.1756364,105.461455 C15.7464545,104.779364 16.5133636,103.946455 17.4313636,103.783091 C18.6275455,103.570364 18.7756364,105.815455 19.0161818,106.523182 C19.1091818,106.796727 19.6614545,106.759364 19.6786364,106.455273 C19.8136364,104.024182 17.9541818,102.024273 15.816,103.886727" id="Fill-33" fill="#89B571"></path>
                <path d="M12.5239091,119.499273 C11.0380909,116.712545 11.3601818,112.615636 10.8133636,109.381909 C10.4787273,107.401091 9.68618182,105.447545 8.54890909,103.795091 C8.35609091,103.514455 7.77436364,103.754182 7.93145455,104.095636 C9.21572727,106.887818 8.42590909,110.096455 8.766,113.042455 C9.048,115.490455 10.2951818,117.959182 11.9031818,119.801455 C12.1153636,120.045 12.7101818,119.848364 12.5239091,119.499273" id="Fill-34" fill="#89B571"></path>
                <path d="M19.9581818,121.863273 C15.0379091,125.008636 15.8814545,128.332091 17.5298182,133.198909 C17.6323636,133.502182 17.8549091,133.594364 17.8783636,133.261091 C18.1374545,129.617182 18.6305455,125.538545 20.5554545,122.289 C20.7722727,121.922727 20.2306364,121.689273 19.9581818,121.863273" id="Fill-35" fill="#89B571"></path>
                <path d="M19.7503636,98.9468182 C16.3126364,101.387455 14.0525455,102.474818 13.5231818,106.947 C13.4923636,107.206091 13.9202727,107.306182 14.0110909,107.066727 C15.2664545,103.768909 18.8029091,102.441818 20.3233636,99.3531818 C20.4938182,99.0065455 20.0244545,98.7523636 19.7503636,98.9468182" id="Fill-36" fill="#89B571"></path>
                <path d="M20.5519091,116.129727 C20.4032727,114.306273 18.5383636,112.275818 17.7979091,112.524 C17.1640909,112.736182 16.926,114.426273 17.2178182,116.236364 C17.511,118.053 18.7892727,119.790545 19.629,119.435455 C20.4398182,119.092364 20.6915455,117.837818 20.5519091,116.129727" id="Fill-37" fill="#D2D0DD"></path>
                <path d="M19.1634545,115.206818 C19.8801818,116.215364 21.0357273,117.001636 22.2829091,117.102273 C22.5313636,117.122455 22.782,116.972455 22.7710909,116.700273 C22.7225455,115.486364 21.9038182,113.863909 20.7346364,113.016545 C19.9982727,112.482818 19.0000909,112.136727 18.5473636,112.503818 C18.2500909,112.744636 18.2138182,113.386364 18.5517273,114.157091 C18.7328182,114.569727 18.9845455,114.955364 19.1634545,115.206818" id="Fill-38" fill="#FFFFFF"></path>
                <path d="M15.5847273,114.847364 C15.4107273,116.072182 15.7085455,117.438 16.5441818,118.369091 C16.7105455,118.554545 16.9955455,118.618364 17.1752727,118.413273 C17.9751818,117.498818 18.4974545,115.758545 18.2323636,114.339 C18.0649091,113.445 17.5786364,112.507091 16.9977273,112.462091 C16.6164545,112.432091 16.1484545,112.873091 15.8634545,113.664545 C15.7107273,114.088636 15.6280909,114.541909 15.5847273,114.847364" id="Fill-39" fill="#FFFFFF"></path>
                <path d="M18.8083636,111.724636 C18.5020909,111.354545 17.8322727,111.022364 17.4130909,111.117273 C16.8398182,111.246545 16.5190909,111.687818 16.428,112.238455 C16.3742727,112.562455 16.5,112.855364 16.9104545,113.026091 C17.3170909,113.194909 17.829,113.170636 18.2934545,112.981636 C18.7982727,112.776 19.215,112.216091 18.8083636,111.724636" id="Fill-40" fill="#89B571"></path>
                <path d="M21.6215455,109.222091 C21.3346364,107.854091 19.7269091,106.493182 19.1890909,106.752 C18.7292727,106.973455 18.7101818,108.277091 19.1045455,109.621636 C19.5,110.970818 20.6353636,112.165636 21.2378182,111.816273 C21.8198182,111.478636 21.8904545,110.503636 21.6215455,109.222091" id="Fill-41" fill="#D2D0DD"></path>
                <path d="M20.2849091,108.851727 C20.8328182,109.622455 21.7159091,110.223273 22.6685455,110.299909 C22.8583636,110.315455 23.0498182,110.200909 23.0416364,109.992818 C23.0045455,109.065273 22.3791818,107.826 21.4857273,107.178273 C20.9230909,106.770545 20.1602727,106.506 19.8144545,106.786364 C19.5875455,106.970455 19.5597273,107.461091 19.8177273,108.049636 C19.956,108.364909 20.1485455,108.659727 20.2849091,108.851727" id="Fill-42" fill="#FFFFFF"></path>
                <path d="M17.9770909,108.611182 C17.844,109.547182 18.0714545,110.590364 18.7101818,111.302182 C18.8372727,111.443455 19.0549091,111.492273 19.1920909,111.335727 C19.8032727,110.637273 20.2025455,109.307455 19.9999091,108.222818 C19.872,107.539636 19.5005455,106.822909 19.0568182,106.788545 C18.7652727,106.765909 18.4077273,107.102727 18.1895455,107.707636 C18.0730909,108.031636 18.0100909,108.377727 17.9770909,108.611182" id="Fill-43" fill="#FFFFFF"></path>
                <g id="Group-47" transform="translate(0.000000, 105.545455)">
                    <mask id="mask-4" fill="white">
                        <use xlink:href="#path-3"></use>
                    </mask>
                    <g id="Clip-45"></g>
                    <path d="M20.0138182,0.645818182 C19.7798182,0.362727273 19.2679091,0.109363636 18.948,0.181363636 C18.5097273,0.280363636 18.2648182,0.617727273 18.195,1.03827273 C18.1538182,1.28590909 18.2500909,1.50954545 18.5634545,1.63990909 C18.8746364,1.76918182 19.2654545,1.75036364 19.6205455,1.60609091 C20.0059091,1.449 20.3244545,1.02109091 20.0138182,0.645818182" id="Fill-44" fill="#89B571" mask="url(#mask-4)"></path>
                    <path d="M7.86490909,19.0431818 C6.42790909,18.7595455 5.31272727,19.8998182 4.67918182,21.1663636 C4.18690909,22.1500909 4.07536364,23.6653636 4.31972727,25.572 C4.31481818,25.6123636 4.31072727,25.653 4.30663636,25.6933636 C3.24654545,24.5307273 1.84309091,23.5898182 0.601909091,22.8531818 C0.262909091,22.6519091 -0.249,23.082 0.139090909,23.3473636 C1.77545455,24.4660909 1.90909091,26.5382727 2.83009091,28.1511818 C3.82827273,29.8985455 4.86081818,30.6848182 5.94954545,31.9074545 C6.47945455,33.3608182 7.05027273,34.5823636 7.49236364,34.9840909 C7.90609091,35.3607273 7.89845455,34.8679091 7.78909091,34.5548182 C7.47790909,33.6646364 7.03690909,32.7788182 6.73445455,31.8657273 C6.56318182,31.3489091 6.38890909,30.7900909 6.21872727,30.2236364 C6.20536364,29.0792727 6.38563636,27.8492727 6.53945455,26.7253636 C6.70445455,25.5196364 7.14954545,24.3531818 7.56381818,23.2167273 C7.64590909,22.9911818 7.52863636,22.8005455 7.29,22.758 C6.16145455,22.5564545 5.38554545,23.0230909 4.90418182,23.7848182 C4.98981818,22.386 5.46572727,21.0308182 6.55963636,20.1065455 C8.61545455,18.7099091 9.58690909,22.0843636 9.84327273,22.9210909 C9.98154545,23.157 10.4053636,23.1040909 10.3985455,22.7986364 C10.365,21.3962727 9.42381818,19.3502727 7.86490909,19.0431818" id="Fill-46" fill="#89B571" mask="url(#mask-4)"></path>
                </g>
                <path d="M12.8590909,132.026182 C12.7281818,130.421455 11.0871818,128.634818 10.4353636,128.853 C9.87790909,129.040091 9.66845455,130.527273 9.92536364,132.12 C10.1830909,133.718727 11.3080909,135.247909 12.0469091,134.935091 C12.7606364,134.633455 12.9818182,133.529455 12.8590909,132.026182" id="Fill-48" fill="#D2D0DD"></path>
                <path d="M11.6372727,131.214 C12.2678182,132.101727 13.2850909,132.793364 14.3822727,132.882273 C14.601,132.899727 14.8216364,132.768 14.8120909,132.528273 C14.7692727,131.46 14.0492727,130.032273 13.02,129.286636 C12.372,128.816727 11.4935455,128.512364 11.0953636,128.835545 C10.8338182,129.047455 10.8016364,129.612273 11.0989091,130.290273 C11.2581818,130.653545 11.4799091,130.992818 11.6372727,131.214" id="Fill-49" fill="#FFFFFF"></path>
                <path d="M8.48809091,130.897636 C8.33509091,131.975455 8.59690909,133.177636 9.33245455,133.996909 C9.47890909,134.16 9.72954545,134.215909 9.88772727,134.035636 C10.5916364,133.231091 11.0511818,131.699727 10.8177273,130.450636 C10.6707273,129.663818 10.2428182,128.838273 9.73145455,128.798727 C9.396,128.772545 8.98390909,129.160364 8.73327273,129.856909 C8.59881818,130.23 8.52627273,130.629 8.48809091,130.897636" id="Fill-50" fill="#FFFFFF"></path>
                <path d="M11.325,128.149909 C11.0552727,127.824 10.4659091,127.532182 10.0969091,127.615091 C9.59236364,127.729091 9.31036364,128.117455 9.22990909,128.602091 C9.18272727,128.887091 9.29345455,129.145091 9.65454545,129.294818 C10.0126364,129.443727 10.4629091,129.422182 10.8717273,129.255818 C11.3157273,129.075 11.6828182,128.582455 11.325,128.149909" id="Fill-51" fill="#89B571"></path>
                <path d="M31.8087273,128.623091 C30.6556364,126.492818 29.4807273,124.378636 28.6898182,122.080636 C27.6962727,119.446364 27.7415455,116.964818 28.497,114.379909 C28.5474545,114.090273 28.0876364,114.010636 27.9728182,114.250091 C25.9982727,118.372636 27.8732727,122.968364 29.829,126.701455 C31.0731818,129.075818 32.3577273,131.232273 32.9080909,133.894091 C33.4685455,136.606636 33.3526364,139.444091 33.1298182,142.186364 C33.1172727,142.344273 33.3769091,142.366909 33.4058182,142.219636 C34.3238182,137.529 34.1184545,132.889909 31.8087273,128.623091" id="Fill-52" fill="#89B571"></path>
                <path d="M33.6777273,116.952273 C31.7847273,118.866273 30.9984545,121.104273 31.2024545,123.774818 C31.302,125.085 31.6464545,126.377727 31.9052727,127.662273 C32.3239091,129.738 32.5363636,131.591727 32.8849091,133.469455 C32.9410909,133.769727 33.4399091,133.786636 33.498,133.477636 C33.9635455,131.013 34.1667273,128.383909 34.3617273,125.881364 C34.5859091,122.998909 34.1075455,120.112909 34.407,117.236727 C34.4492727,116.829545 33.9384545,116.688273 33.6777273,116.952273" id="Fill-53" fill="#89B571"></path>
                <path d="M23.0770909,121.969909 C22.8294545,121.564909 22.0505455,121.832727 22.2902727,122.296091 C23.8423636,125.291182 25.0459091,128.590909 27.5585455,130.956 C29.805,133.070455 32.9263636,134.484545 33.3496364,137.867455 C33.3919091,138.205636 33.8290909,138.178909 33.8702727,137.859818 C34.7980909,130.704273 26.1316364,126.965727 23.0770909,121.969909" id="Fill-54" fill="#89B571"></path>
                <path d="M27.9190909,108.706909 C27.0940909,110.448545 27.7251818,113.282727 28.5313636,113.446636 C29.2213636,113.587091 30.3286364,112.171091 31.0164545,110.366455 C31.7064545,108.554727 31.4555455,106.296545 30.5029091,106.178182 C29.5821818,106.063636 28.6917273,107.075455 27.9190909,108.706909" id="Fill-55" fill="#D2D0DD"></path>
                <path d="M28.8684545,110.251364 C28.5414545,108.889091 27.6597273,107.575364 26.3923636,106.942909 C26.1398182,106.816909 25.8133636,106.868727 25.7097273,107.159182 C25.2482727,108.454636 25.4225455,110.504182 26.2928182,111.888273 C26.8407273,112.759909 27.7434545,113.545091 28.3737273,113.350636 C28.7874545,113.223273 29.0967273,112.564364 29.0675455,111.612273 C29.0514545,111.102273 28.9497273,110.590909 28.8684545,110.251364" id="Fill-56" fill="#FFFFFF"></path>
                <path d="M31.5518182,112.972636 C32.6571818,112.281818 33.5558182,111.115091 33.7390909,109.810364 C33.7753636,109.550455 33.6335455,109.277455 33.3466364,109.271727 C32.067,109.247727 30.3106364,110.007273 29.3465455,111.183818 C28.7394545,111.925091 28.3134545,112.953273 28.6712727,113.452091 C28.9060909,113.779636 29.5789091,113.857636 30.4099091,113.550273 C30.8552727,113.385545 31.2766364,113.145 31.5518182,112.972636" id="Fill-57" fill="#FFFFFF"></path>
                <path d="M27.1881818,113.643273 C27.2727273,114.142364 27.7090909,114.798 28.1410909,114.932455 C28.7323636,115.116818 29.2570909,114.883091 29.6304545,114.429 C29.8502727,114.161727 29.8898182,113.828182 29.6053636,113.456182 C29.3233636,113.088 28.8436364,112.840364 28.3202727,112.768364 C27.7516364,112.689818 27.0766364,112.980545 27.1881818,113.643273" id="Fill-58" fill="#89B571"></path>
                <path d="M43.4299091,95.6353636 C43.548,95.3266364 43.1552727,95.2039091 42.9504545,95.3855455 C38.457,99.3709091 42.0403636,106.189909 43.0390909,110.852455 C43.9911818,115.297091 44.1575455,119.648727 43.887,124.147364 C43.6606364,127.918364 43.4214545,131.704364 43.4667273,135.483545 C43.4787273,136.461818 43.2125455,141.234545 45.0621818,141.088909 C45.3649091,141.065182 45.4178182,140.608636 45.0891818,140.601545 C43.8152727,140.574545 44.1471818,134.576182 44.1567273,133.824545 C44.202,130.321091 44.4829091,126.827727 44.7695455,123.337636 C45.0905455,119.430273 44.9083636,115.647 44.2060909,111.765818 C42.9788182,105.258545 39.3504545,101.071364 43.4299091,95.6353636" id="Fill-59" fill="#89B571"></path>
                <path d="M47.1242727,102.154091 C45.9632727,105.695182 42.8659091,108.310091 43.8940909,112.176 C43.9134545,112.248 44.1409091,112.468636 44.2047273,112.252909 C44.6746364,110.668364 46.5635455,108.882273 47.295,107.415273 C48.0578182,105.885273 47.7499091,103.905 47.928,102.264 C47.9817273,101.766818 47.265,101.725364 47.1242727,102.154091" id="Fill-60" fill="#89B571"></path>
                <path d="M42.5263636,107.181 C41.3601818,103.319455 41.8224545,101.778 37.4157273,96.633 C37.1844545,96.3526364 36.5899091,96.5743636 36.7510909,96.9578182 C37.5657273,98.8930909 37.401,101.040545 38.1970909,102.979909 C39.1150909,105.216 43.8057273,109.241727 42.5263636,107.181" id="Fill-61" fill="#89B571"></path>
                <path d="M47.8175455,114.697364 C47.4321818,113.781273 47.3359091,115.156091 47.3899091,115.477364 C47.8865455,118.453636 46.8788182,121.685182 45.6891818,124.403455 C44.9263636,126.135273 43.2128182,129.050455 43.7926364,130.489636 C43.818,130.691727 43.9658182,130.432636 44.1837273,129.986182 C45.8656364,126.534818 46.806,126.958364 48.489,124.463455 C50.5911818,121.345364 49.1165455,117.788455 47.8175455,114.697364" id="Fill-62" fill="#89B571"></path>
                <path d="M39.6357273,116.043545 C40.6480909,117.834818 41.4957273,119.405727 42.5637273,121.324364 C43.0761818,122.245364 43.566,123.316636 44.0255455,124.264364 C44.175,124.571455 44.4638182,124.527818 44.4919091,124.119818 C44.8000909,119.618182 42.3474545,117.063273 39.2541818,114.126273 C38.6841818,113.585182 39.2296364,115.311545 39.6357273,116.043545" id="Fill-63" fill="#89B571"></path>
                <path d="M46.158,91.1064545 C44.547,91.9731818 43.4331818,94.4948182 43.9570909,95.0740909 C44.4051818,95.5696364 46.0489091,95.1111818 47.5909091,94.119 C49.1383636,93.123 50.2186364,91.2559091 49.557,90.6286364 C48.9177273,90.0226364 47.6675455,90.2948182 46.158,91.1064545" id="Fill-64" fill="#D2D0DD"></path>
                <path d="M45.8689091,92.7482727 C46.5057273,91.6879091 46.7637273,90.3141818 46.3562727,89.1310909 C46.2752727,88.8954545 46.0377273,88.7255455 45.7922727,88.8447273 C44.6994545,89.3751818 43.5406364,90.7748182 43.2324545,92.1856364 C43.038,93.0741818 43.1209091,94.1274545 43.6382727,94.3952727 C43.9778182,94.5709091 44.5808182,94.3472727 45.1516364,93.7292727 C45.4573636,93.3979091 45.7099091,93.0128182 45.8689091,92.7482727" id="Fill-65" fill="#FFFFFF"></path>
                <path d="M46.9718182,96.1715455 C48.1641818,95.8404545 49.2962727,95.0206364 49.815,93.8822727 C49.9180909,93.6556364 49.8624545,93.369 49.6028182,93.2863636 C48.4448182,92.9195455 46.6407273,93.1377273 45.4464545,93.9493636 C44.6937273,94.4604545 44.0290909,95.2816364 44.2205455,95.8317273 C44.346,96.1930909 44.9372727,96.4456364 45.7767273,96.39 C46.2264545,96.36 46.6748182,96.2541818 46.9718182,96.1715455" id="Fill-66" fill="#FFFFFF"></path>
                <path d="M42.8198182,94.4678182 C42.6032727,94.8968182 42.5675455,95.6438182 42.8217273,95.9896364 C43.17,96.4636364 43.7029091,96.5803636 44.244,96.4434545 C44.5625455,96.363 44.7804545,96.1306364 44.7722727,95.6863636 C44.7643636,95.2459091 44.5371818,94.7866364 44.1777273,94.4367273 C43.7874545,94.0562727 43.1075455,93.8986364 42.8198182,94.4678182" id="Fill-67" fill="#89B571"></path>
                <path d="M94.8621818,23.1605455 C94.7882727,22.6516364 94.392,22.338 93.9545455,22.1247273 C94.6101818,21.3905455 94.7694545,20.2835455 93.7930909,19.6581818 C93.285,19.3325455 92.8508182,19.3475455 92.5093636,19.5561818 C92.2772727,18.9335455 91.7419091,18.4682727 90.9919091,18.6190909 C90.1911818,18.7805455 89.9618182,20.0318182 90.2743636,20.8475455 C89.5505455,20.8399091 88.875,21.21 88.7871818,22.0554545 C88.7151818,22.7454545 89.0421818,23.2775455 89.5611818,23.544 C89.1275455,24.0234545 89.1068182,24.8787273 89.7062727,25.4015455 C90.8432727,26.394 91.9292727,25.6355455 92.568,24.609 C92.9307273,25.0249091 93.6365455,24.9755455 94.2351818,24.5179091 C94.6418182,24.2075455 94.9374545,23.6784545 94.8621818,23.1605455" id="Fill-68" fill="#FFFFFF"></path>
                <path d="M80.9048182,17.9713636 C82.6194545,16.9472727 82.7179091,14.2745455 80.2947273,14.82 C80.949,11.6923636 76.875,11.9593636 77.1010909,14.6817273 C74.3018182,14.1891818 73.0336364,18.0447273 76.1648182,18.9357273 C74.9659091,20.5977273 77.2480909,23.5017273 79.2763636,20.5510909 C79.7653636,21.0826364 80.4379091,21.2841818 81.1148182,20.6241818 C81.9583636,19.8021818 81.6302727,18.6736364 80.9048182,17.9713636" id="Fill-69" fill="#FFFFFF"></path>
                <path d="M87.675,28.5968182 C88.7162727,27.3875455 86.583,23.7943636 84.1764545,26.4400909 C81.6057273,25.4719091 80.2096364,28.4659091 81.7909091,30.2195455 C81.1437273,30.9610909 80.949,32.067 81.4521818,32.9871818 C82.1255455,34.2204545 83.3132727,34.1811818 84.3583636,33.6400909 C84.6327273,34.4034545 85.1255455,35.0544545 86.0683636,34.7800909 C87.3117273,34.4661818 87.405,32.907 87.1895455,31.9900909 C89.6781818,31.7361818 89.8279091,28.9300909 87.675,28.5968182" id="Fill-70" fill="#FFFFFF"></path>
                <path d="M141.764455,19.017 C142.217727,17.1616364 138.432818,14.9983636 138.607364,18.3275455 C137.418273,17.7905455 135.566182,20.7409091 138.250909,21.2972727 C137.691545,22.4601818 137.739545,23.7908182 138.960818,24.5421818 C140.227636,25.3213636 141.463909,23.4913636 141.648818,22.5943636 C144.819818,22.3614545 143.989364,18.0709091 141.764455,19.017" id="Fill-71" fill="#FFFFFF"></path>
                <path d="M135.245455,27.1963636 C134.558455,23.3105455 130.797273,22.1765455 128.485364,23.7253636 C127.849909,24.4489091 130.455818,29.2952727 134.939727,27.8206364 C135.165545,27.7707273 135.294818,27.4729091 135.245455,27.1963636" id="Fill-72" fill="#A2BC73"></path>
                <path d="M131.812909,11.3577273 C131.564182,10.5073636 130.607727,11.2022727 129.901909,12.0032727 C128.461091,13.6401818 128.323091,17.6577273 129.562636,16.5220909 C131.041091,15.1660909 132.335455,13.4650909 131.812909,11.3577273" id="Fill-73" fill="#A2BC73"></path>
                <path d="M134.700545,13.0262727 C134.033182,13.5668182 133.068545,13.8021818 132.474545,14.4087273 C131.879727,15.0160909 131.565273,15.8179091 131.214273,16.6265455 C130.779545,17.6274545 133.897909,15.9054545 133.933636,15.8754545 C135.637636,14.4589091 135.600545,12.2964545 134.700545,13.0262727" id="Fill-74" fill="#A2BC73"></path>
                <g id="Group-78" transform="translate(71.454545, 0.000000)" fill="#A2BC73">
                    <path d="M48.7974545,40.305 C49.8717273,38.3539091 51.0256364,36.2307273 50.1057273,33.9946364 C49.7912727,33.231 49.3502727,33.0553636 49.182,33.7044545 C47.5892727,35.5464545 46.4803636,38.1973636 48.0490909,40.3969091 C48.2419091,40.6674545 48.6504545,40.5711818 48.7974545,40.305" id="Fill-75"></path>
                    <path d="M1.24309091,0.33 C0.163636364,1.629 -0.261545455,4.16563636 0.618818182,6.17072727 C0.962454545,6.954 1.59272727,8.11854545 2.33072727,8.40272727 C3.00572727,8.66372727 3.40663636,6.83236364 3.40281818,5.76054545 C3.39572727,3.77072727 2.40872727,1.64727273 2.12372727,0.996272727 C1.80218182,0.262090909 1.65381818,-0.163909091 1.24309091,0.33" id="Fill-77"></path>
                </g>
                <path d="M75.8383636,12.555 C74.9424545,9.07009091 72.5165455,8.08472727 69.4955455,7.60090909 C69.1641818,7.48772727 68.8382727,7.79918182 68.9097273,8.12454545 C69.6283636,11.388 72.024,13.3090909 75.3692727,13.2384545 C75.7339091,13.2305455 76.0213636,12.8901818 75.8383636,12.555" id="Fill-79" fill="#A2BC73"></path>
                <path d="M94.1986364,37.7416364 C93.9954545,37.7869091 93.7639091,38.0364545 93.8689091,38.2595455 C95.1515455,40.9810909 98.1349091,41.4395455 100.868727,41.307 C102.063818,41.2489091 100.770273,36.2708182 94.1986364,37.7416364" id="Fill-80" fill="#A2BC73"></path>
                <path d="M101.033727,38.7460909 C101.532273,37.5594545 100.682182,35.9451818 99.7985455,35.0080909 C98.6713636,33.8132727 96.9886364,32.9435455 96.2056364,32.7117273 C95.9413636,32.5581818 95.6479091,32.8718182 95.6329091,33.1167273 C95.5600909,34.2951818 96.3564545,37.1637273 97.9985455,38.2339091 C98.7373636,38.7152727 99.954,39.3100909 101.033727,38.7460909" id="Fill-81" fill="#A2BC73"></path>
                <path d="M88.3382727,10.4661818 C88.2586364,9.033 85.7615455,12.378 85.6055455,12.5629091 C83.8022727,14.7062727 84.2211818,15.3872727 84.8629091,17.9282727 C85.2624545,19.5070909 86.6067273,18.9932727 87.9414545,16.0538182 C88.734,14.307 88.4457273,12.3760909 88.3382727,10.4661818" id="Fill-82" fill="#A2BC73"></path>
                <path d="M117.831818,25.0914545 C116.481273,24.4431818 117.624818,28.2409091 118.102636,29.0487273 C118.725273,30.102 119.750182,30.9913636 121.115455,30.9859091 C121.810091,27.7884545 118.723636,25.5196364 117.831818,25.0914545" id="Fill-83" fill="#A2BC73"></path>
                <path d="M81.9261818,36.9430909 C80.1040909,35.3269091 77.6457273,36.3106364 76.6341818,38.4676364 C76.5452727,38.6571818 76.7440909,38.8347273 76.9030909,38.8813636 C78.8694545,39.4587273 80.6522727,38.9089091 81.9891818,37.3720909 C82.0988182,37.2460909 82.0371818,37.0418182 81.9261818,36.9430909" id="Fill-84" fill="#A2BC73"></path>
                <path d="M132.797455,19.4980909 C131.625273,19.8370909 128.395909,20.6211818 128.588455,23.4815455 C128.654182,23.6086364 128.826273,23.6672727 128.959091,23.6691818 C130.725818,23.7005455 132.937636,21.6349091 133.339091,19.9791818 C133.414909,19.6666364 133.097182,19.4113636 132.797455,19.4980909" id="Fill-85" fill="#A2BC73"></path>
                <path d="M128.833909,23.8314545 C129.84,22.8463636 130.270091,21.3602727 129.495818,20.025 C128.797636,18.8195455 127.771364,19.0666364 126.887455,19.719 C126.638182,18.5165455 125.349,18.135 124.255364,18.264 C122.415545,18.4805455 121.639091,19.8730909 121.942636,21.2997273 C120.880909,21.1388182 119.980364,21.6245455 120.011455,23.208 C120.033,24.3242727 120.640364,25.3802727 121.522909,25.7539091 C121.255909,26.4935455 121.444636,27.5029091 121.861636,28.2469091 C122.278636,28.9930909 123.040364,29.4949091 123.898091,29.499 C124.681091,29.5028182 125.319273,29.001 125.823273,28.3966364 C126.557727,29.4987273 128.607545,29.0108182 129.392455,27.6490909 C130.096636,26.4297273 129.977455,24.5026364 128.833909,23.8314545" id="Fill-86" fill="#FFFFFF"></path>
                <path d="M126.173727,23.0948182 C125.625545,21.9602727 124.127727,22.308 123.628091,23.1619091 C122.493545,25.0999091 125.604818,26.8369091 126.408545,24.4497273 C126.530455,24.0867273 126.445909,23.6582727 126.173727,23.0948182" id="Fill-87" fill="#F5BF8E"></path>
                <path d="M119.646545,29.3307273 C116.761909,28.4809091 115.665,32.5780909 117.627273,33.4808182 C117.354273,33.8724545 117.302455,34.4045455 117.582545,34.9644545 C118.162364,36.1270909 119.659091,36.4857273 120.679636,35.6847273 C123.093818,37.7143636 127.824273,33.8080909 124.683,31.7626364 C125.899909,30.1854545 124.908,28.1716364 123.084273,29.214 C122.664545,28.0513636 119.91,27.5457273 119.646545,29.3307273" id="Fill-88" fill="#FFFFFF"></path>
                <path d="M120.145636,31.6060909 C119.154273,32.9217273 121.695545,34.3857273 122.067273,32.424 C122.254909,31.4342727 120.799091,30.7390909 120.145636,31.6060909" id="Fill-89" fill="#F1AB7B"></path>
                <path d="M92.6389091,22.3805455 C92.6612727,21.5266364 91.9895455,21.3706364 91.5250909,21.6316364 C90.9812727,21.9370909 90.993,22.6085455 91.3232727,22.9262727 C91.7833636,23.3694545 92.5314545,22.9265455 92.6389091,22.3805455" id="Fill-90" fill="#EFA388"></path>
                <path d="M79.4255455,16.1124545 C77.9631818,15.3679091 77.0961818,17.6809091 78.4767273,17.9675455 C78.9237273,18.1399091 79.686,17.6157273 79.8403636,17.1908182 C79.9718182,16.8278182 79.893,16.3876364 79.4255455,16.1124545" id="Fill-91" fill="#F5BF8E"></path>
                <path d="M107.575364,35.5685455 C108.283364,32.7730909 104.369182,31.6966364 103.474636,33.6627273 C100.505727,31.4604545 98.493,35.1079091 100.688455,36.7652727 C97.5128182,40.2807273 102.454364,43.488 104.855455,40.4664545 C107.271545,41.9484545 111.223636,37.1844545 107.575364,35.5685455" id="Fill-92" fill="#FFFFFF"></path>
                <path d="M103.681636,37.9491818 L103.681636,37.9491818 C103.629545,37.9150909 103.581545,37.875 103.535182,37.8305455 C103.833545,37.7345455 103.98,37.5357273 104.113091,37.2632727 C104.114455,37.2878182 104.121,37.311 104.119909,37.3363636 C104.109273,37.5638182 103.886727,37.7795455 103.681636,37.9491818 Z M104.782636,35.9817273 C104.670818,35.7632727 104.349545,35.6950909 104.133,35.7477273 C102.630273,36.1118182 102.348273,37.6431818 103.178182,38.4526364 C103.643727,38.9061818 104.062636,38.6724545 104.508818,38.3301818 C105.342545,37.6903636 105.209455,36.819 104.782636,35.9817273 L104.782636,35.9817273 Z" id="Fill-93" fill="#EFA388"></path>
                <path d="M84.4939091,29.2960909 C83.9691818,29.7589091 83.7842727,30.8746364 84.3951818,31.3600909 C84.6722727,31.5804545 85.0579091,31.5365455 85.2769091,31.2613636 C85.3194545,31.2079091 85.347,31.1503636 85.368,31.0911818 C85.4825455,31.1209091 85.6123636,31.1239091 85.7547273,31.089 C85.8755455,31.0592727 86.0140909,30.9714545 86.046,30.8413636 C86.2595455,30.4521818 86.3465455,30.0965455 86.3356364,29.8003636 C86.3048182,28.9549091 85.4740909,28.5902727 84.4939091,29.2960909" id="Fill-94" fill="#F5BF8E"></path>
                <g id="Group-98" transform="translate(139.090909, 12.272727)">
                    <mask id="mask-6" fill="white">
                        <use xlink:href="#path-5"></use>
                    </mask>
                    <g id="Clip-96"></g>
                    <path d="M1.56381818,8.23909091 C1.49263636,7.89654545 1.22509091,7.65709091 0.912,7.54854545 C0.654,7.45881818 0.348272727,7.62518182 0.255272727,7.86709091 C0.166636364,8.09509091 0.239181818,8.39045455 0.376636364,8.59118182 C0.446454545,8.69127273 0.528545455,8.832 0.622636364,8.92990909 C0.827181818,9.21681818 1.30990909,9.15463636 1.52809091,8.90072727 C1.68218182,8.721 1.60609091,8.44336364 1.56381818,8.23909091" id="Fill-95" fill="#EFA388" mask="url(#mask-6)"></path>
                    <path d="M10.3009091,0.148090909 C8.643,-0.178636364 6.21245455,0.661363636 4.87227273,2.39345455 C4.34918182,3.07009091 3.62809091,4.18036364 3.73145455,4.96445455 C3.82445455,5.682 5.62527273,5.15836364 6.56427273,4.64236364 C8.30863636,3.68427273 9.70145455,1.80163636 10.1367273,1.24009091 C10.6279091,0.606545455 10.9306364,0.272727273 10.3009091,0.148090909" id="Fill-97" fill="#A2BC73" mask="url(#mask-6)"></path>
                </g>
            </g>
        </g>
    </g>
</svg>