<?xml version="1.0" encoding="UTF-8" standalone="no"?>
<svg width="166px" height="76px" viewBox="0 0 166 76" version="1.1" xmlns="http://www.w3.org/2000/svg" xmlns:xlink="http://www.w3.org/1999/xlink">
    <!-- Generator: Sketch 41.2 (35397) - http://www.bohemiancoding.com/sketch -->
    <title>flower</title>
    <desc>Created with Sketch.</desc>
    <defs>
        <polygon id="path-1" points="0.0399725253 0.0861610887 0.0399725253 29.3313544 10.3909924 29.3313544 10.3909924 0.0861610887 0.0399725253 0.0861610887"></polygon>
        <polygon id="path-3" points="0.0399725253 0.0861610887 0.0399725253 29.3313544 10.3909924 29.3313544 10.3909924 0.0861610887 0.0399725253 0.0861610887"></polygon>
    </defs>
    <g id="Templates" stroke="none" stroke-width="1" fill="none" fill-rule="evenodd">
        <g id="flower">
            <g>
                <g id="blue-flower3" transform="translate(130.136941, 44.395470) rotate(-328.000000) translate(-130.136941, -44.395470) translate(115.136941, 2.395470)">
                    <path d="M14.8371352,3.49892838 C14.5593261,1.18585158 11.5307411,-1.43168262 10.0504253,1.02529527 C8.10709434,-0.794120836 5.09183352,-0.0286469765 5.12247912,2.66683365 C3.84202589,2.1232073 2.92532264,3.12851631 2.59554931,4.74540496 C2.03460154,7.50883888 3.70945035,9.998461 5.68475931,11.7485914 C6.5061947,12.481421 12.162307,16.4253769 12.8644911,15.4880211 C15.4706997,12.0397246 15.3361255,7.65806964 14.8378014,3.50159322 L14.8371352,3.49892838" id="Fill-1" fill="#C2BFD5"></path>
                    <path d="M12.643976,7.79064518 C12.433454,7.58212184 12.0630419,7.80330315 12.1509815,8.08510945 C12.7712218,10.1510228 13.4840652,11.9011532 12.4561051,13.9897177 C12.3401848,14.2182273 12.5973414,14.5126915 12.8345117,14.3567987 C14.5693193,13.192932 13.9390858,9.0704322 12.643976,7.79064518" id="Fill-3" fill="#948EB9"></path>
                    <path d="M12.3681655,13.8091751 C11.99309,11.9944224 11.6939623,9.57142119 10.4181725,8.14640066 C10.2189761,7.92255452 9.83923711,8.16838555 9.92584424,8.44086493 C10.2203085,9.3748896 10.6633373,10.2402948 10.9364829,11.1883098 C11.2036326,12.1223345 11.3761807,13.0823413 11.6986257,14.000377 C11.8485227,14.4240858 12.4574375,14.2475404 12.3681655,13.8111737 L12.3681655,13.8091751" id="Fill-4" fill="#948EB9"></path>
                    <g id="Group-8" transform="translate(4.663461, 9.326923)">
                        <path d="M7.244354,4.78937474 C5.37363982,3.77673743 4.71542557,2.15918258 3.58220448,0.483667556 C3.3936674,0.206524714 2.9066688,0.375075529 3.01725945,0.724168917 C3.61751354,2.57889409 5.01055605,4.84666869 6.98586501,5.43359861 C7.36826883,5.54618789 7.58545289,4.97524698 7.24502021,4.79070716 L7.244354,4.78937474" id="Fill-5" fill="#948EB9"></path>
                        <path d="M13.0037287,21.6777667 C12.8345117,18.822396 12.2342576,16.0456379 11.3002329,13.3474924 C10.3748689,10.6699994 8.99714924,8.1950339 8.51148306,5.37896949 C8.4308718,4.90196402 7.72202568,5.11648324 7.79797348,5.58083074 C8.21435395,8.20369461 9.37622202,10.5853909 10.3229047,13.0443674 C11.4694499,16.0096626 12.0303977,19.1308506 12.2082754,22.2960084 C12.5507067,28.3305273 11.9984197,34.2671135 10.7526093,40.1737204 C9.53744454,45.9377585 7.95453254,51.8443653 5.72339942,57.3052785 C3.65082398,62.3831216 0.913372203,67.25444 0.259155206,72.7833065 C0.199196418,73.2942886 0.972664783,73.5021458 1.05327604,72.9758408 C1.94266473,67.0885541 4.8393404,62.0247013 6.94522627,56.5384722 C9.08908605,50.9576415 10.6393538,45.0197228 11.8285364,39.1684113 C13.0037287,33.3857194 13.3481586,27.5663859 13.0037287,21.6777667" id="Fill-7" fill="#A5B78B"></path>
                    </g>
                    <path d="M19.1681583,25.7136593 C19.1555003,25.2839547 18.55458,25.3172651 18.519271,25.7249849 C18.3513864,27.6203488 18.3380622,29.5290369 18.1821693,31.4237346 C17.9883026,33.7601287 17.4480073,35.9546203 16.9736667,38.2377177 C16.8977189,38.5954718 17.4560018,38.8479649 17.6005691,38.4788853 C19.1255209,34.6175393 19.2987352,29.8181715 19.1694907,25.715658 L19.1681583,25.7136593" id="Fill-9" fill="#A5B78B"></path>
                    <path d="M14.8211462,39.2303688 C13.6626092,36.7187618 11.3148895,35.0592357 9.96914781,32.6668801 C9.74796651,32.2744831 9.21433329,32.624909 9.3822179,33.0133087 C10.3535503,35.2144624 12.3808235,36.7420791 13.6626092,38.7480336 C15.3387904,41.3722299 15.2401915,44.3401899 15.8371145,47.2575181 C15.9143947,47.6385895 16.4413659,47.5026829 16.4666818,47.1655812 C16.6765376,44.5227311 15.9157272,41.6094002 14.8211462,39.2303688" id="Fill-10" fill="#A5B78B"></path>
                    <path d="M19.0355828,53.0282183 C17.2827875,56.5964324 14.1842506,59.1173663 12.2415859,62.5350172 C11.9884266,62.9753812 12.6506381,63.3171463 12.9237836,62.9060955 C14.9757066,59.8082248 18.6858232,56.9541865 19.6631514,53.2693859 C19.7590855,52.9009724 19.2061322,52.6804573 19.0355828,53.0282183" id="Fill-11" fill="#A5B78B"></path>
                    <g id="Group-15" transform="translate(6.662088, 45.302195)">
                        <path d="M3.25975944,23.8942432 C2.84737622,21.168117 2.28909328,18.4812971 1.96198478,15.7351846 C1.66552189,13.2622177 1.45166888,10.7626024 0.944017806,8.31894873 C0.861407921,7.9365449 0.214519219,8.03048034 0.263818667,8.42420971 C0.582932661,11.0570667 0.923365335,13.6925885 1.23781587,16.3281104 C1.54027464,18.8770251 1.73813864,21.6491197 2.59954656,24.0794492 C2.75010974,24.5044904 3.32304927,24.3206168 3.25909323,23.8942432 L3.25975944,23.8942432" id="Fill-12" fill="#A5B78B"></path>
                        <path d="M15.1022863,4.36699839 C14.1715926,5.34832389 13.0503633,6.33697768 12.7665584,7.71869464 C12.2955488,10.0197797 15.5146695,9.78660661 16.8004524,9.43618081 C19.278749,8.76664101 21.6917571,6.574148 22.0248614,3.95061792 C22.9149163,-3.09787071 16.2681516,3.1425067 15.1036187,4.3676646 L15.1022863,4.36699839" id="Fill-14" fill="#948EB9"></path>
                    </g>
                    <path d="M25.3032747,44.6652998 C24.1713861,38.4735556 12.9224512,57.4251961 21.0888381,54.3013432 C22.524518,53.751721 23.7903146,52.500581 24.8715715,51.4533008 C25.7942706,50.5559176 26.5604107,49.6831841 26.9141675,48.4420372 C27.3831785,46.8031637 27.3831785,43.9218108 25.3032747,44.6652998" id="Fill-16" fill="#C2BFD5"></path>
                    <path d="M20.2380896,48.9929919 C19.2067984,50.29543 18.7571075,52.2241043 18.6105416,53.8483213 C18.5725677,54.2420506 19.1834811,54.2833556 19.278749,53.9222704 C19.7011253,52.3193722 20.1668052,50.8237335 20.7444082,49.2714671 C20.8496692,48.9969891 20.4186321,48.7664809 20.2380896,48.9929919" id="Fill-17" fill="#948EB9"></path>
                    <path d="M22.51186,49.9696539 C21.4652461,51.2154643 20.3380209,52.519901 19.4952668,53.9136097 C19.3014001,54.2287265 19.7737421,54.571824 20.0142434,54.2940149 C21.0875057,53.0701894 22.1807543,51.7397706 23.0528216,50.3673805 C23.2566814,50.0476003 22.7570249,49.6785207 22.5091952,49.9709863 L22.51186,49.9696539" id="Fill-18" fill="#948EB9"></path>
                    <path d="M24.0234877,51.0169341 C22.8349713,51.8576895 21.627801,52.749743 20.5452118,53.7217416 C20.1941198,54.0321949 20.711764,54.5025383 21.0615236,54.2167347 C22.1614342,53.3140218 23.4652048,52.5911853 24.4565234,51.5658901 C24.729669,51.2874148 24.3552597,50.7830948 24.0221553,51.0169341 L24.0234877,51.0169341" id="Fill-19" fill="#948EB9"></path>
                    <path d="M5.60214942,44.9091322 C4.14581708,43.6579921 2.43166196,43.3921749 2.27576911,45.1889399 C1.95665511,45.058363 1.61155898,45.0077311 1.17519224,44.8458424 C0.97932687,44.7758904 0.700185402,44.943775 0.676201887,45.1502998 C0.289800809,48.3660894 0.730164796,52.9003062 4.31370169,54.2120712 C10.853873,56.6090904 8.96250638,47.8044754 5.59948459,44.9097984 L5.60214942,44.9091322" id="Fill-20" fill="#C2BFD5"></path>
                    <path d="M7.07247215,53.4892347 C6.89859166,52.6944477 6.52351613,51.9296401 6.25436779,51.1648324 C5.96390078,50.3360687 5.71207387,49.4260276 5.20842005,48.6991938 C5.00589259,48.4073944 4.54754096,48.5872707 4.63614673,48.9443586 C4.86532254,49.8690564 5.27437472,50.7790975 5.59748596,51.6778131 C5.85664117,52.4039807 6.11179912,53.1701208 6.63144195,53.7530534 C6.82197765,53.9649078 7.12510264,53.7264051 7.07247215,53.4892347" id="Fill-21" fill="#948EB9"></path>
                    <path d="M6.82730732,48.3154576 C6.63743783,48.0256567 6.10380462,48.2168587 6.24104362,48.5686169 C6.8865999,50.2254781 7.31896939,51.6924697 7.45420976,53.4785754 C7.4795257,53.7757045 7.94787045,53.8636441 8.00116715,53.5365356 C8.28297345,51.8377032 7.76466304,49.7551347 6.82797353,48.3174562 L6.82730732,48.3154576" id="Fill-22" fill="#948EB9"></path>
                    <g id="Group-26" transform="translate(0.000000, 24.649724)">
                        <mask id="mask-2" fill="white">
                            <use xlink:href="#path-1"></use>
                        </mask>
                        <g id="Clip-24"></g>
                        <path d="M6.03718374,28.7595658 C4.6494709,28.1000191 3.67613991,27.0554038 2.47696415,26.1353695 C2.18716334,25.9115233 1.91868122,26.3645453 2.11388038,26.6083777 C2.99394215,27.7122856 4.38032257,29.2132539 5.88528814,29.3305067 C6.18574829,29.353824 6.30366724,28.8894765 6.03718374,28.7595658" id="Fill-23" fill="#948EB9" mask="url(#mask-2)"></path>
                        <path d="M1.4150274,1.95065924 C1.41169635,1.95265786 1.40636668,1.95132544 1.40170322,1.95332407 C-1.49830349,3.17115367 0.742822762,6.30633208 2.38436113,7.48152432 C4.27972504,8.83925776 7.86392815,10.304917 9.59673712,7.85127018 C13.7332273,2.26710839 0.311785697,-2.75144216 1.4150274,1.95065924" id="Fill-25" fill="#948EB9" mask="url(#mask-2)"></path>
                    </g>
                    <path d="M7.91122897,23.8096347 C5.63212882,22.3433092 2.830721,22.4065991 2.68215645,25.4052047 C1.65486255,25.4358503 0.8294299,25.9341744 1.03262357,27.1446757 C1.29311119,28.7202594 2.87402457,30.1939132 3.99725253,31.1945588 C5.23373598,32.2984667 6.80132518,33.4503416 8.50548718,33.5895792 C10.3315654,33.73881 10.9957755,31.7341878 11.1063662,29.8088445 C11.2775818,26.7682678 10.4861258,25.4605 7.91122897,23.8096347" id="Fill-27" fill="#C2BFD5"></path>
                    <path d="M10.3648758,31.88142 C10.0923964,30.4284187 9.61205992,28.06471 8.27564516,27.1926428 C8.08044599,27.0627321 7.77865343,27.2932403 7.86992403,27.5170864 C8.17904489,28.2765644 8.68536354,28.9234531 8.98315886,29.7022511 C9.27229346,30.4737209 9.44084427,31.2858294 9.70066569,32.0679584 C9.84123573,32.4969969 10.4454871,32.3157881 10.3648758,31.88142" id="Fill-28" fill="#948EB9"></path>
                    <path d="M9.28428521,31.9273884 C8.67004074,31.0586522 8.08910671,30.14528 7.39958064,29.3338377 C7.12710126,29.0140575 6.67874277,29.3691468 6.88526749,29.7182402 C7.43022625,30.6342772 8.10442951,31.4810285 8.72533607,32.3417702 C8.99048715,32.7088513 9.542108,32.2951356 9.28428521,31.9273884" id="Fill-29" fill="#948EB9"></path>
                    <path d="M8.29030175,33.1139062 C6.97120841,32.4363719 4.84267144,31.3024846 4.38831707,29.7762003 C4.32102999,29.551688 4.62681981,29.3298404 4.81602309,29.4790712 C5.45425108,29.9913857 5.9272593,30.6635904 6.59213563,31.1679104 C7.24968367,31.6662346 7.97984847,32.0579653 8.6593814,32.5289749 C9.02912726,32.7861315 8.68070008,33.3124364 8.29030175,33.1139062" id="Fill-30" fill="#948EB9"></path>
                    <path d="M16.0169909,18.005624 C15.7251915,20.15015 16.0036667,25.718989 18.5505828,26.3512211 C22.8029933,27.4031647 22.4838793,19.8963245 20.9509329,15.9643604 C19.4692847,12.1683029 16.8550815,11.8465241 16.0169909,18.005624" id="Fill-31" fill="#948EB9"></path>
                    <path d="M23.6390853,14.3727877 C22.5918051,14.0097039 21.8529796,14.4633921 21.337334,15.2022176 C20.928948,14.1709264 20.0675401,13.2748757 18.91833,14.0823207 C17.6398754,14.9797039 16.9163727,21.3966266 17.7204867,24.5231443 C19.0608987,29.7435561 25.3285907,23.4758641 25.6703558,18.4726364 C25.7736181,16.9849922 25.2519767,14.932403 23.6390853,14.3727877" id="Fill-32" fill="#C2BFD5"></path>
                    <path d="M19.7983918,20.1095113 C18.9809536,21.5778354 19.0735567,23.4358916 18.6678355,25.032794 C18.6052119,25.2792912 18.9669633,25.4218599 19.0862146,25.1940165 C19.8423616,23.7123682 20.0102462,21.943584 20.3633368,20.328694 C20.4386184,19.9862627 19.9676088,19.799058 19.7970594,20.1101775 L19.7983918,20.1095113" id="Fill-33" fill="#948EB9"></path>
                    <path d="M21.8409878,22.6950675 C21.9235977,22.3246554 21.3859673,22.1034741 21.2100881,22.4558985 C20.6857819,23.497849 20.0808643,24.4372034 19.4586253,25.4258571 C19.2314481,25.7916058 19.8163794,26.219978 20.0781995,25.8695522 C20.7923753,24.9195385 21.5771692,23.877588 21.8409878,22.6950675" id="Fill-34" fill="#948EB9"></path>
                </g>
                <g id="blue-flower3-copy-2" transform="translate(35.136941, 44.395470) scale(-1, 1) rotate(-328.000000) translate(-35.136941, -44.395470) translate(20.136941, 2.395470)">
                    <path d="M14.8371352,3.49892838 C14.5593261,1.18585158 11.5307411,-1.43168262 10.0504253,1.02529527 C8.10709434,-0.794120836 5.09183352,-0.0286469765 5.12247912,2.66683365 C3.84202589,2.1232073 2.92532264,3.12851631 2.59554931,4.74540496 C2.03460154,7.50883888 3.70945035,9.998461 5.68475931,11.7485914 C6.5061947,12.481421 12.162307,16.4253769 12.8644911,15.4880211 C15.4706997,12.0397246 15.3361255,7.65806964 14.8378014,3.50159322 L14.8371352,3.49892838" id="Fill-1" fill="#C2BFD5"></path>
                    <path d="M12.643976,7.79064518 C12.433454,7.58212184 12.0630419,7.80330315 12.1509815,8.08510945 C12.7712218,10.1510228 13.4840652,11.9011532 12.4561051,13.9897177 C12.3401848,14.2182273 12.5973414,14.5126915 12.8345117,14.3567987 C14.5693193,13.192932 13.9390858,9.0704322 12.643976,7.79064518" id="Fill-3" fill="#948EB9"></path>
                    <path d="M12.3681655,13.8091751 C11.99309,11.9944224 11.6939623,9.57142119 10.4181725,8.14640066 C10.2189761,7.92255452 9.83923711,8.16838555 9.92584424,8.44086493 C10.2203085,9.3748896 10.6633373,10.2402948 10.9364829,11.1883098 C11.2036326,12.1223345 11.3761807,13.0823413 11.6986257,14.000377 C11.8485227,14.4240858 12.4574375,14.2475404 12.3681655,13.8111737 L12.3681655,13.8091751" id="Fill-4" fill="#948EB9"></path>
                    <g id="Group-8" transform="translate(4.663461, 9.326923)">
                        <path d="M7.244354,4.78937474 C5.37363982,3.77673743 4.71542557,2.15918258 3.58220448,0.483667556 C3.3936674,0.206524714 2.9066688,0.375075529 3.01725945,0.724168917 C3.61751354,2.57889409 5.01055605,4.84666869 6.98586501,5.43359861 C7.36826883,5.54618789 7.58545289,4.97524698 7.24502021,4.79070716 L7.244354,4.78937474" id="Fill-5" fill="#948EB9"></path>
                        <path d="M13.0037287,21.6777667 C12.8345117,18.822396 12.2342576,16.0456379 11.3002329,13.3474924 C10.3748689,10.6699994 8.99714924,8.1950339 8.51148306,5.37896949 C8.4308718,4.90196402 7.72202568,5.11648324 7.79797348,5.58083074 C8.21435395,8.20369461 9.37622202,10.5853909 10.3229047,13.0443674 C11.4694499,16.0096626 12.0303977,19.1308506 12.2082754,22.2960084 C12.5507067,28.3305273 11.9984197,34.2671135 10.7526093,40.1737204 C9.53744454,45.9377585 7.95453254,51.8443653 5.72339942,57.3052785 C3.65082398,62.3831216 0.913372203,67.25444 0.259155206,72.7833065 C0.199196418,73.2942886 0.972664783,73.5021458 1.05327604,72.9758408 C1.94266473,67.0885541 4.8393404,62.0247013 6.94522627,56.5384722 C9.08908605,50.9576415 10.6393538,45.0197228 11.8285364,39.1684113 C13.0037287,33.3857194 13.3481586,27.5663859 13.0037287,21.6777667" id="Fill-7" fill="#A5B78B"></path>
                    </g>
                    <path d="M19.1681583,25.7136593 C19.1555003,25.2839547 18.55458,25.3172651 18.519271,25.7249849 C18.3513864,27.6203488 18.3380622,29.5290369 18.1821693,31.4237346 C17.9883026,33.7601287 17.4480073,35.9546203 16.9736667,38.2377177 C16.8977189,38.5954718 17.4560018,38.8479649 17.6005691,38.4788853 C19.1255209,34.6175393 19.2987352,29.8181715 19.1694907,25.715658 L19.1681583,25.7136593" id="Fill-9" fill="#A5B78B"></path>
                    <path d="M14.8211462,39.2303688 C13.6626092,36.7187618 11.3148895,35.0592357 9.96914781,32.6668801 C9.74796651,32.2744831 9.21433329,32.624909 9.3822179,33.0133087 C10.3535503,35.2144624 12.3808235,36.7420791 13.6626092,38.7480336 C15.3387904,41.3722299 15.2401915,44.3401899 15.8371145,47.2575181 C15.9143947,47.6385895 16.4413659,47.5026829 16.4666818,47.1655812 C16.6765376,44.5227311 15.9157272,41.6094002 14.8211462,39.2303688" id="Fill-10" fill="#A5B78B"></path>
                    <path d="M19.0355828,53.0282183 C17.2827875,56.5964324 14.1842506,59.1173663 12.2415859,62.5350172 C11.9884266,62.9753812 12.6506381,63.3171463 12.9237836,62.9060955 C14.9757066,59.8082248 18.6858232,56.9541865 19.6631514,53.2693859 C19.7590855,52.9009724 19.2061322,52.6804573 19.0355828,53.0282183" id="Fill-11" fill="#A5B78B"></path>
                    <g id="Group-15" transform="translate(6.662088, 45.302195)">
                        <path d="M3.25975944,23.8942432 C2.84737622,21.168117 2.28909328,18.4812971 1.96198478,15.7351846 C1.66552189,13.2622177 1.45166888,10.7626024 0.944017806,8.31894873 C0.861407921,7.9365449 0.214519219,8.03048034 0.263818667,8.42420971 C0.582932661,11.0570667 0.923365335,13.6925885 1.23781587,16.3281104 C1.54027464,18.8770251 1.73813864,21.6491197 2.59954656,24.0794492 C2.75010974,24.5044904 3.32304927,24.3206168 3.25909323,23.8942432 L3.25975944,23.8942432" id="Fill-12" fill="#A5B78B"></path>
                        <path d="M15.1022863,4.36699839 C14.1715926,5.34832389 13.0503633,6.33697768 12.7665584,7.71869464 C12.2955488,10.0197797 15.5146695,9.78660661 16.8004524,9.43618081 C19.278749,8.76664101 21.6917571,6.574148 22.0248614,3.95061792 C22.9149163,-3.09787071 16.2681516,3.1425067 15.1036187,4.3676646 L15.1022863,4.36699839" id="Fill-14" fill="#948EB9"></path>
                    </g>
                    <path d="M25.3032747,44.6652998 C24.1713861,38.4735556 12.9224512,57.4251961 21.0888381,54.3013432 C22.524518,53.751721 23.7903146,52.500581 24.8715715,51.4533008 C25.7942706,50.5559176 26.5604107,49.6831841 26.9141675,48.4420372 C27.3831785,46.8031637 27.3831785,43.9218108 25.3032747,44.6652998" id="Fill-16" fill="#C2BFD5"></path>
                    <path d="M20.2380896,48.9929919 C19.2067984,50.29543 18.7571075,52.2241043 18.6105416,53.8483213 C18.5725677,54.2420506 19.1834811,54.2833556 19.278749,53.9222704 C19.7011253,52.3193722 20.1668052,50.8237335 20.7444082,49.2714671 C20.8496692,48.9969891 20.4186321,48.7664809 20.2380896,48.9929919" id="Fill-17" fill="#948EB9"></path>
                    <path d="M22.51186,49.9696539 C21.4652461,51.2154643 20.3380209,52.519901 19.4952668,53.9136097 C19.3014001,54.2287265 19.7737421,54.571824 20.0142434,54.2940149 C21.0875057,53.0701894 22.1807543,51.7397706 23.0528216,50.3673805 C23.2566814,50.0476003 22.7570249,49.6785207 22.5091952,49.9709863 L22.51186,49.9696539" id="Fill-18" fill="#948EB9"></path>
                    <path d="M24.0234877,51.0169341 C22.8349713,51.8576895 21.627801,52.749743 20.5452118,53.7217416 C20.1941198,54.0321949 20.711764,54.5025383 21.0615236,54.2167347 C22.1614342,53.3140218 23.4652048,52.5911853 24.4565234,51.5658901 C24.729669,51.2874148 24.3552597,50.7830948 24.0221553,51.0169341 L24.0234877,51.0169341" id="Fill-19" fill="#948EB9"></path>
                    <path d="M5.60214942,44.9091322 C4.14581708,43.6579921 2.43166196,43.3921749 2.27576911,45.1889399 C1.95665511,45.058363 1.61155898,45.0077311 1.17519224,44.8458424 C0.97932687,44.7758904 0.700185402,44.943775 0.676201887,45.1502998 C0.289800809,48.3660894 0.730164796,52.9003062 4.31370169,54.2120712 C10.853873,56.6090904 8.96250638,47.8044754 5.59948459,44.9097984 L5.60214942,44.9091322" id="Fill-20" fill="#C2BFD5"></path>
                    <path d="M7.07247215,53.4892347 C6.89859166,52.6944477 6.52351613,51.9296401 6.25436779,51.1648324 C5.96390078,50.3360687 5.71207387,49.4260276 5.20842005,48.6991938 C5.00589259,48.4073944 4.54754096,48.5872707 4.63614673,48.9443586 C4.86532254,49.8690564 5.27437472,50.7790975 5.59748596,51.6778131 C5.85664117,52.4039807 6.11179912,53.1701208 6.63144195,53.7530534 C6.82197765,53.9649078 7.12510264,53.7264051 7.07247215,53.4892347" id="Fill-21" fill="#948EB9"></path>
                    <path d="M6.82730732,48.3154576 C6.63743783,48.0256567 6.10380462,48.2168587 6.24104362,48.5686169 C6.8865999,50.2254781 7.31896939,51.6924697 7.45420976,53.4785754 C7.4795257,53.7757045 7.94787045,53.8636441 8.00116715,53.5365356 C8.28297345,51.8377032 7.76466304,49.7551347 6.82797353,48.3174562 L6.82730732,48.3154576" id="Fill-22" fill="#948EB9"></path>
                    <g id="Group-26" transform="translate(0.000000, 24.649724)">
                        <mask id="mask-4" fill="white">
                            <use xlink:href="#path-3"></use>
                        </mask>
                        <g id="Clip-24"></g>
                        <path d="M6.03718374,28.7595658 C4.6494709,28.1000191 3.67613991,27.0554038 2.47696415,26.1353695 C2.18716334,25.9115233 1.91868122,26.3645453 2.11388038,26.6083777 C2.99394215,27.7122856 4.38032257,29.2132539 5.88528814,29.3305067 C6.18574829,29.353824 6.30366724,28.8894765 6.03718374,28.7595658" id="Fill-23" fill="#948EB9" mask="url(#mask-4)"></path>
                        <path d="M1.4150274,1.95065924 C1.41169635,1.95265786 1.40636668,1.95132544 1.40170322,1.95332407 C-1.49830349,3.17115367 0.742822762,6.30633208 2.38436113,7.48152432 C4.27972504,8.83925776 7.86392815,10.304917 9.59673712,7.85127018 C13.7332273,2.26710839 0.311785697,-2.75144216 1.4150274,1.95065924" id="Fill-25" fill="#948EB9" mask="url(#mask-4)"></path>
                    </g>
                    <path d="M7.91122897,23.8096347 C5.63212882,22.3433092 2.830721,22.4065991 2.68215645,25.4052047 C1.65486255,25.4358503 0.8294299,25.9341744 1.03262357,27.1446757 C1.29311119,28.7202594 2.87402457,30.1939132 3.99725253,31.1945588 C5.23373598,32.2984667 6.80132518,33.4503416 8.50548718,33.5895792 C10.3315654,33.73881 10.9957755,31.7341878 11.1063662,29.8088445 C11.2775818,26.7682678 10.4861258,25.4605 7.91122897,23.8096347" id="Fill-27" fill="#C2BFD5"></path>
                    <path d="M10.3648758,31.88142 C10.0923964,30.4284187 9.61205992,28.06471 8.27564516,27.1926428 C8.08044599,27.0627321 7.77865343,27.2932403 7.86992403,27.5170864 C8.17904489,28.2765644 8.68536354,28.9234531 8.98315886,29.7022511 C9.27229346,30.4737209 9.44084427,31.2858294 9.70066569,32.0679584 C9.84123573,32.4969969 10.4454871,32.3157881 10.3648758,31.88142" id="Fill-28" fill="#948EB9"></path>
                    <path d="M9.28428521,31.9273884 C8.67004074,31.0586522 8.08910671,30.14528 7.39958064,29.3338377 C7.12710126,29.0140575 6.67874277,29.3691468 6.88526749,29.7182402 C7.43022625,30.6342772 8.10442951,31.4810285 8.72533607,32.3417702 C8.99048715,32.7088513 9.542108,32.2951356 9.28428521,31.9273884" id="Fill-29" fill="#948EB9"></path>
                    <path d="M8.29030175,33.1139062 C6.97120841,32.4363719 4.84267144,31.3024846 4.38831707,29.7762003 C4.32102999,29.551688 4.62681981,29.3298404 4.81602309,29.4790712 C5.45425108,29.9913857 5.9272593,30.6635904 6.59213563,31.1679104 C7.24968367,31.6662346 7.97984847,32.0579653 8.6593814,32.5289749 C9.02912726,32.7861315 8.68070008,33.3124364 8.29030175,33.1139062" id="Fill-30" fill="#948EB9"></path>
                    <path d="M16.0169909,18.005624 C15.7251915,20.15015 16.0036667,25.718989 18.5505828,26.3512211 C22.8029933,27.4031647 22.4838793,19.8963245 20.9509329,15.9643604 C19.4692847,12.1683029 16.8550815,11.8465241 16.0169909,18.005624" id="Fill-31" fill="#948EB9"></path>
                    <path d="M23.6390853,14.3727877 C22.5918051,14.0097039 21.8529796,14.4633921 21.337334,15.2022176 C20.928948,14.1709264 20.0675401,13.2748757 18.91833,14.0823207 C17.6398754,14.9797039 16.9163727,21.3966266 17.7204867,24.5231443 C19.0608987,29.7435561 25.3285907,23.4758641 25.6703558,18.4726364 C25.7736181,16.9849922 25.2519767,14.932403 23.6390853,14.3727877" id="Fill-32" fill="#C2BFD5"></path>
                    <path d="M19.7983918,20.1095113 C18.9809536,21.5778354 19.0735567,23.4358916 18.6678355,25.032794 C18.6052119,25.2792912 18.9669633,25.4218599 19.0862146,25.1940165 C19.8423616,23.7123682 20.0102462,21.943584 20.3633368,20.328694 C20.4386184,19.9862627 19.9676088,19.799058 19.7970594,20.1101775 L19.7983918,20.1095113" id="Fill-33" fill="#948EB9"></path>
                    <path d="M21.8409878,22.6950675 C21.9235977,22.3246554 21.3859673,22.1034741 21.2100881,22.4558985 C20.6857819,23.497849 20.0808643,24.4372034 19.4586253,25.4258571 C19.2314481,25.7916058 19.8163794,26.219978 20.0781995,25.8695522 C20.7923753,24.9195385 21.5771692,23.877588 21.8409878,22.6950675" id="Fill-34" fill="#948EB9"></path>
                </g>
            </g>
        </g>
    </g>
</svg>