<?xml version="1.0" encoding="UTF-8" standalone="no"?>
<svg width="92px" height="92px" viewBox="0 0 92 92" version="1.1" xmlns="http://www.w3.org/2000/svg" xmlns:xlink="http://www.w3.org/1999/xlink">
    <!-- Generator: Sketch 41.2 (35397) - http://www.bohemiancoding.com/sketch -->
    <title>broom</title>
    <desc>Created with Sketch.</desc>
    <defs>
        <circle id="path-1" cx="46" cy="46" r="46"></circle>
        <mask id="mask-2" maskContentUnits="userSpaceOnUse" maskUnits="objectBoundingBox" x="0" y="0" width="92" height="92" fill="white">
            <use xlink:href="#path-1"></use>
        </mask>
        <polygon id="path-3" points="0 62.2340426 39 62.2340426 39 0 0 0"></polygon>
    </defs>
    <g id="Templates" stroke="none" stroke-width="1" fill="none" fill-rule="evenodd">
        <g id="Template1-Bio" transform="translate(-142.000000, -120.000000)">
            <g id="All">
                <g id="bridegroom" transform="translate(70.000000, 120.000000)">
                    <g id="broom" transform="translate(72.000000, 0.000000)">
                        <use id="Oval" stroke="#EFEFEF" mask="url(#mask-2)" stroke-width="6" fill="#F5F5F5" xlink:href="#path-1"></use>
                        <g id="Page-1" transform="translate(26.000000, 17.000000)">
                            <mask id="mask-4" fill="white">
                                <use xlink:href="#path-3"></use>
                            </mask>
                            <g id="Clip-2"></g>
                            <path d="M15.283627,0.0112851064 C15.4421537,0.00377553191 15.6016513,5.55840096e-14 15.7620367,5.55840096e-14 L22.4081761,5.55840096e-14 C27.902326,5.55840096e-14 32.3617021,4.45811489 32.3617021,9.9574883 L32.3617021,20.7446394 C32.3617021,26.2459794 27.9053547,30.7021277 22.4081761,30.7021277 L15.7620367,30.7021277 C10.2678868,30.7021277 5.80851064,26.2440045 5.80851064,20.7446394 L5.80851064,9.9574883 C5.80851064,8.53884255 6.1048567,7.18965 6.63898245,5.96849362 L5.01332968,1.83341489 C5.01332968,1.83341489 11.0032111,-0.281712766 15.283627,0.0112851064 Z" id="Fill-1" fill="#F9DD8E" mask="url(#mask-4)"></path>
                            <path d="M0.889606181,47.4126319 L0.829787234,47.4126319 C3.24047888,42.6701448 8.68198085,39.0721334 15.3510638,37.9879293 L15.3510638,32.3617021 L23.5797859,32.3617021 L23.5797859,37.9528127 C29.8763276,38.919772 35.1050783,42.1229374 37.766708,46.423733 C38.255714,46.71264 38.5851064,47.245604 38.5851064,47.8552902 L38.5851064,59.5842465 C38.5851064,60.4988533 37.8424468,61.2452324 36.9263285,61.2452324 L2.48856262,61.2452324 C1.57547719,61.2452324 0.829787234,60.5015821 0.829787234,59.5842465 L0.829787234,47.8552902 C0.829787234,47.7021156 0.850618213,47.5536543 0.889606181,47.4126319 Z" id="Fill-3" fill="#F6E6D7" mask="url(#mask-4)"></path>
                            <path d="M31.1170213,20.186317 L31.1170213,16.1820957 C31.1170213,9.76551702 25.9173131,4.56382979 19.5,4.56382979 C13.0840976,4.56382979 7.88297872,9.76775745 7.88297872,16.1820957 L7.88297872,20.0086181 C6.92519266,20.3041053 6.22340426,21.2647832 6.22340426,22.4042553 C6.22340426,23.5437274 6.92519266,24.5043887 7.88297872,24.7999133 L7.88297872,24.8923889 C7.88297872,31.3089718 13.0826869,36.5106383 19.5,36.5106383 C25.9159024,36.5106383 31.1170213,31.3067272 31.1170213,24.8923889 L31.1170213,24.6221812 C31.8558804,24.210142 32.3617021,23.371642 32.3617021,22.4042553 C32.3617021,21.4368686 31.8558804,20.5983479 31.1170213,20.186317 Z" id="Fill-4" fill="#F6E6D7" mask="url(#mask-4)"></path>
                            <path d="M19.5,31.9468085 C20.6456997,31.9468085 21.5744681,30.9716011 21.5744681,29.768617 C21.5744681,28.565633 20.537234,29.768617 19.5,29.768617 C18.462766,29.768617 17.4255319,28.565633 17.4255319,29.768617 C17.4255319,30.9716011 18.3543003,31.9468085 19.5,31.9468085 Z" id="Fill-5" fill="#E5CFC2" mask="url(#mask-4)"></path>
                            <path d="M14.106383,19.5 C14.106383,20.1874372 13.5491186,20.7446809 12.8617021,20.7446809 C12.1742856,20.7446809 11.6170213,20.1874372 11.6170213,19.5 C11.6170213,18.8125628 12.1742856,18.2553191 12.8617021,18.2553191 C13.5491186,18.2553191 14.106383,18.8125628 14.106383,19.5 Z" id="Fill-6" fill="#86C7C1" mask="url(#mask-4)"></path>
                            <path d="M26.5531915,19.5 C26.5531915,20.1874372 25.9959271,20.7446809 25.3085106,20.7446809 C24.6210941,20.7446809 24.0638298,20.1874372 24.0638298,19.5 C24.0638298,18.8125628 24.6210941,18.2553191 25.3085106,18.2553191 C25.9959271,18.2553191 26.5531915,18.8125628 26.5531915,19.5 Z" id="Fill-7" fill="#86C7C1" mask="url(#mask-4)"></path>
                            <path d="M21.2564895,24.0638298 C20.9438671,22.8456233 20.2039749,21.9893617 19.3410128,21.9893617 C18.4780465,21.9893617 17.7381584,22.8456233 17.4255319,24.0638298 L21.2564895,24.0638298 L21.2564895,24.0638298 L21.2564895,24.0638298 Z" id="Fill-8" fill-opacity="0.5" fill="#D5B9AE" mask="url(#mask-4)"></path>
                            <path d="M1.11464282,42.9675779 C3.65165256,40.2438843 8.93288362,38.1937289 15.3510638,37.5592695 L23.5797859,37.537919 C30.1898046,38.1551604 35.6230688,40.2709104 38.1449706,43.0842128 C38.6551114,43.3681826 39,43.9126972 39,44.537776 L39,59.5826114 C39,60.5023513 38.2553157,61.2452324 37.3366915,61.2452324 L1.66330519,61.2452324 C0.744251936,61.2452324 0,60.5008506 0,59.5826114 L0,44.537776 C0,43.8105214 0.465605649,43.1938443 1.11464282,42.9675779 Z" id="Fill-9" fill="#9FDCD7" mask="url(#mask-4)"></path>
                            <path d="M9.42667755,10.0949011 C9.42667755,10.0949011 15.5566436,11.3064319 17.5343336,8.77508298 C19.5120195,6.24377553 21.7466489,4.68502021 19.9585861,3.28803191 C18.170519,1.89104362 15.1177733,2.81061383 13.1400874,5.34192128 L9.42667755,10.0949011 Z" id="Fill-10" fill="#F9DD8E" mask="url(#mask-4)"></path>
                            <path d="M15.7659574,34.8510638 L22.4042553,34.8510638 C23.3208134,34.8510638 24.0638298,35.5940802 24.0638298,36.5106383 L24.0638298,60.5744681 C24.0638298,61.4910249 23.3208134,62.2340426 22.4042553,62.2340426 L15.7659574,62.2340426 C14.8493994,62.2340426 14.106383,61.4910249 14.106383,60.5744681 L14.106383,36.5106383 C14.106383,35.5940802 14.8493994,34.8510638 15.7659574,34.8510638 Z" id="Fill-11" fill="#FFFFFF" mask="url(#mask-4)"></path>
                            <path d="M13.2765957,37.3404255 L14.9361702,37.3404255 C15.8527283,37.3404255 16.5957447,38.0834419 16.5957447,39 L16.5957447,60.5744681 C16.5957447,61.4910249 15.8527283,62.2340426 14.9361702,62.2340426 L13.2765957,62.2340426 C12.3600377,62.2340426 11.6170213,61.4910249 11.6170213,60.5744681 L11.6170213,39 C11.6170213,38.0834419 12.3600377,37.3404255 13.2765957,37.3404255 Z" id="Fill-12" fill="#86C7C1" mask="url(#mask-4)"></path>
                            <path d="M22.8191489,37.3404255 L24.4787234,37.3404255 C25.3952815,37.3404255 26.1382979,38.0834419 26.1382979,39 L26.1382979,60.5744681 C26.1382979,61.4910249 25.3952815,62.2340426 24.4787234,62.2340426 L22.8191489,62.2340426 C21.9025909,62.2340426 21.1595745,61.4910249 21.1595745,60.5744681 L21.1595745,39 C21.1595745,38.0834419 21.9025909,37.3404255 22.8191489,37.3404255 Z" id="Fill-13" fill="#86C7C1" mask="url(#mask-4)"></path>
                            <path d="M22.266075,38.1277691 C20.9221765,38.410237 19.8327364,39.7566124 19.8327364,41.1315409 L19.8327364,41.0173953 C19.8327364,42.3938671 20.9232386,43.7389232 22.266075,44.021167 L23.5786615,44.2970547 C24.92256,44.5795226 26.0120001,43.6904636 26.0120001,42.3217462 L26.0120001,39.82719 C26.0120001,38.4537884 24.9214979,37.5696335 23.5786615,37.8518815 L22.266075,38.1277691 Z" id="Fill-14" fill="#EF9E9E" mask="url(#mask-4)"></path>
                            <path d="M16.6076272,38.1277691 C17.9515257,38.410237 19.04097,39.7566124 19.04097,41.1315409 L19.04097,41.0173953 C19.04097,42.3938671 17.9504636,43.7389232 16.6076272,44.021167 L15.2950407,44.2970547 C13.9511464,44.5795226 12.8617021,43.6904636 12.8617021,42.3217462 L12.8617021,39.82719 C12.8617021,38.4537884 13.9522085,37.5696335 15.2950407,37.8518815 L16.6076272,38.1277691 Z" id="Fill-15" fill="#EF9E9E" mask="url(#mask-4)"></path>
                            <path d="M18.4230399,39.6133206 L20.1620665,39.6133206 C20.6203455,39.6133206 20.9918537,39.9848288 20.9918537,40.4431079 L20.9918537,42.0305282 C20.9918537,42.4888072 20.6203455,42.8603154 20.1620665,42.8603154 L18.4230399,42.8603154 C17.9647609,42.8603154 17.5932527,42.4888072 17.5932527,42.0305282 L17.5932527,40.4431079 C17.5932527,39.9848288 17.9647609,39.6133206 18.4230399,39.6133206 Z" id="Fill-16" fill="#EF9E9E" mask="url(#mask-4)"></path>
                        </g>
                    </g>
                </g>
            </g>
        </g>
    </g>
</svg>