<?xml version="1.0" encoding="UTF-8" standalone="no"?>
<svg width="57px" height="67px" viewBox="0 0 57 67" version="1.1" xmlns="http://www.w3.org/2000/svg" xmlns:xlink="http://www.w3.org/1999/xlink">
    <!-- Generator: Sketch 41.2 (35397) - http://www.bohemiancoding.com/sketch -->
    <title>illus-guests</title>
    <desc>Created with Sketch.</desc>
    <defs></defs>
    <g id="Templates" stroke="none" stroke-width="1" fill="none" fill-rule="evenodd">
        <g id="Template1-RSVP" transform="translate(-159.000000, -142.000000)">
            <g id="illus-guests" transform="translate(159.000000, 142.000000)">
                <path d="M1.31034483,0 L49.7931034,0 C50.5167872,0 51.1034483,0.586641379 51.1034483,1.31034483 L51.1034483,61.5862069 C51.1034483,62.3098894 50.5167872,62.8965517 49.7931034,62.8965517 L1.31034483,62.8965517 C0.586661034,62.8965517 0,62.3098894 0,61.5862069 L0,1.31034483 C0,0.586641379 0.586661034,0 1.31034483,0 Z" id="Fill-1" fill="#D5B9AE"></path>
                <path d="M7.20689655,3.93103448 L55.6896552,3.93103448 C56.413339,3.93103448 57,4.51769552 57,5.24137931 L57,65.5172414 C57,66.2409242 56.413339,66.8275862 55.6896552,66.8275862 L7.20689655,66.8275862 C6.48321276,66.8275862 5.89655172,66.2409242 5.89655172,65.5172414 L5.89655172,5.24137931 C5.89655172,4.51769552 6.48321276,3.93103448 7.20689655,3.93103448 Z" id="Fill-3" fill="#F6E6D7"></path>
                <path d="M25.7612286,19.6551724 C22.3889448,19.6551724 19.6551724,22.3402066 19.6551724,25.6523586 C19.6551724,26.6485221 19.9024607,27.5879607 20.3400307,28.4146769 L20.6772086,28.9750328 C20.9405486,29.3629538 21.2486893,29.7190334 21.5943779,30.0361303 L31.8672914,41.9212331 L42.1402048,30.0361303 C42.4858869,29.7190334 42.7940276,29.3629538 43.0573741,28.9750328 C43.0573741,28.9750328 43.4620545,28.4479924 43.3940934,28.4155417 C43.8319452,27.5886159 44.0794038,26.6488693 44.0794038,25.6523586 C44.0794038,22.3402066 41.3456314,19.6551724 37.9733476,19.6551724 C34.9462938,19.6551724 32.4337141,21.818591 31.9509962,24.6570534 C31.9228828,24.6566538 31.8949724,24.6564507 31.8672914,24.6564507 C31.8395645,24.6564507 31.8116607,24.6566341 31.78358,24.6570076 C31.3008359,21.8185648 28.7882628,19.6551724 25.7612286,19.6551724 Z" id="Fill-4" fill="#9FDCD7"></path>
                <path d="M16.7068966,52.4137931 L47.506971,52.4137931" id="Stroke-5" stroke="#FFFFFF" stroke-width="2" stroke-linecap="round" stroke-dasharray="8,7,23,5"></path>
                <path d="M16.7068966,55.6896552 L47.506971,55.6896552" id="Stroke-6" stroke="#FFFFFF" stroke-width="2" stroke-linecap="round" stroke-dasharray="22,7,23,5"></path>
            </g>
        </g>
    </g>
</svg>