<?xml version="1.0" encoding="UTF-8" standalone="no"?>
<svg width="70px" height="113px" viewBox="0 0 70 113" version="1.1" xmlns="http://www.w3.org/2000/svg" xmlns:xlink="http://www.w3.org/1999/xlink">
    <!-- Generator: Sketch 41.2 (35397) - http://www.bohemiancoding.com/sketch -->
    <title>img-placeholder</title>
    <desc>Created with Sketch.</desc>
    <defs></defs>
    <g id="Templates" stroke="none" stroke-width="1" fill="none" fill-rule="evenodd">
        <g id="Template1-Gallery1" transform="translate(-153.000000, -231.000000)">
            <g id="Group" transform="translate(40.000000, 139.000000)">
                <g id="Group-4">
                    <g id="img-placeholder" transform="translate(113.000000, 92.000000)">
                        <path d="M29.6359602,111.029235 C29.6359602,111.769531 30.3749043,112.369662 31.2864398,112.369662 C32.1979677,112.369662 32.9369118,111.769531 32.9369118,111.029235 L32.9369118,56.0719495 C32.9369118,55.3316505 32.1979677,54.7315247 31.2864398,54.7315247 C30.3749043,54.7315247 29.6359602,55.3316505 29.6359602,56.0719495 L29.6359602,111.029235 Z" id="Fill-1" fill="#D5B9AE"></path>
                        <path d="M32.8117849,111.029235 C32.8117849,111.769531 33.550729,112.369662 34.4622645,112.369662 C35.3737925,112.369662 36.1127366,111.769531 36.1127366,111.029235 L36.1127366,56.0719495 C36.1127366,55.3316505 35.3737925,54.7315247 34.4622645,54.7315247 C33.550729,54.7315247 32.8117849,55.3316505 32.8117849,56.0719495 L32.8117849,111.029235 Z" id="Fill-3" fill="#D5B9AE"></path>
                        <path d="M36.1127366,111.029235 C36.1127366,111.769531 36.8516731,112.369662 37.7632086,112.369662 C38.6747366,112.369662 39.4136806,111.769531 39.4136806,111.029235 L39.4136806,56.0719495 C39.4136806,55.3316505 38.6747366,54.7315247 37.7632086,54.7315247 C36.8516731,54.7315247 36.1127366,55.3316505 36.1127366,56.0719495 L36.1127366,111.029235 Z" id="Fill-4" fill="#D5B9AE"></path>
                        <path d="M40.3254118,58.5688344 C39.8724817,61.4877742 39.2136989,66.2248097 38.3100215,73.1947473 C37.8880495,76.4493183 37.7185817,80.0760634 37.773114,84.0122613 C37.8533054,89.8012763 38.4072839,95.9904505 39.2805903,102.20496 C39.6122097,104.564781 39.9675613,106.764102 40.323071,108.744789 C40.4476559,109.438915 40.5634419,110.056469 40.667471,110.590159 C40.7302,110.911972 40.7752935,111.135311 40.7997935,111.252896 C40.9518892,111.982809 41.8037742,112.474395 42.7025215,112.350861 C43.6012763,112.227339 44.2065581,111.535487 44.0544624,110.805574 C44.0318817,110.697201 43.9886849,110.483232 43.9278151,110.170975 C43.8258559,109.647909 43.7121022,109.041174 43.5894892,108.358085 C43.2387366,106.403882 42.8878108,104.231942 42.5602484,101.900972 C41.6987591,95.7706054 41.1526312,89.6690516 41.0738473,83.9821011 C41.0206699,80.1432032 41.1854032,76.6178226 41.5928183,73.4754774 C42.494343,66.5221817 43.1507849,61.8019839 43.6004559,58.9040215 C43.8627226,57.2138075 43.9988161,56.4936656 44.0290516,56.394672 C44.2485129,55.6761634 43.7092194,54.9491946 42.8245022,54.7709581 C41.9397849,54.5927215 41.0446731,55.0307032 40.8252043,55.7492269 C40.7522839,55.987957 40.6047043,56.7689161 40.3254118,58.5688344 Z" id="Fill-5" fill="#F6E6D7"></path>
                        <path d="M25.5743118,58.9040215 C26.0239828,61.8019839 26.6804247,66.5221817 27.5819419,73.4754774 C27.9893645,76.6178226 28.1540978,80.1432032 28.1009129,83.9821011 C28.022129,89.6690516 27.4760011,95.7706054 26.6145118,101.900972 C26.2869495,104.231942 25.9360312,106.403882 25.585271,108.358085 C25.4626656,109.041174 25.3489118,109.647909 25.2469452,110.170975 C25.1860828,110.483232 25.142886,110.697201 25.1202978,110.805574 C24.9682022,111.535487 25.5734914,112.227339 26.4722387,112.350861 C27.3709935,112.474395 28.2228785,111.982809 28.3749667,111.252896 C28.3994742,111.135311 28.4445602,110.911972 28.5072892,110.590159 C28.6113258,110.056469 28.7271043,109.438915 28.8516968,108.744789 C29.2072065,106.764102 29.5625505,104.564781 29.8941699,102.20496 C30.7674839,95.9904505 31.3214548,89.8012763 31.4016538,84.0122613 C31.4561785,80.0760634 31.2867108,76.4493183 30.8647462,73.1947473 C29.9610613,66.2248097 29.302286,61.4877742 28.8493559,58.5688344 C28.5700634,56.7689161 28.4224763,55.987957 28.3495559,55.7492269 C28.1300946,55.0307032 27.2349753,54.5927215 26.3502581,54.7709581 C25.4655409,54.9491946 24.9262473,55.6761634 25.1457161,56.394672 C25.1759516,56.4936656 25.3120376,57.2138075 25.5743118,58.9040215 Z" id="Fill-6" fill="#F6E6D7"></path>
                        <path d="M32.6682323,111.364336 C32.6682323,112.104632 33.4071763,112.704763 34.3187043,112.704763 C35.2302398,112.704763 35.9691763,112.104632 35.9691763,111.364336 L35.9691763,56.4070538 C35.9691763,55.6667624 35.2302398,55.0666366 34.3187043,55.0666366 C33.4071763,55.0666366 32.6682323,55.6667624 32.6682323,56.4070538 L32.6682323,111.364336 Z" id="Fill-7" fill="#F6E6D7"></path>
                        <polygon id="Fill-8" fill="#9FDCD7" points="25.4372323 56.5451645 23.3447667 57.7538312 22.2731194 55.663571 19.8241806 55.6069011 20.1135968 53.2986774 18.0857043 51.9946677 19.6442806 50.201343 18.6812763 48.0639946 21.0141957 47.3549323 21.4218215 45.0628387 23.788386 45.6631602 25.4372323 43.9440505 27.0860785 45.6631602 29.452643 45.0628387 29.8602688 47.3549323 32.1931882 48.0639946 31.2301839 50.201343 32.7887602 51.9946677 30.7608753 53.2986774 31.0502839 55.6069011 28.6013452 55.663571 27.5296978 57.7538312"></polygon>
                        <polygon id="Fill-9" fill="#9FDCD7" points="7.42712796 37.4750645 5.33466387 38.6837763 4.26301731 36.5935161 1.81407935 36.5368387 2.10348871 34.2286452 0.0755974409 32.9246129 1.6341786 31.1312581 0.671174677 28.9939247 3.00408914 28.2848925 3.41171946 25.9928065 5.77828247 26.5930753 7.42712796 24.8740108 9.07597419 26.5930753 11.4425387 25.9928065 11.8501645 28.2848925 14.1830839 28.9939247 13.2200796 31.1312581 14.7786559 32.9246129 12.7507634 34.2286452 13.0401796 36.5368387 10.5912409 36.5935161 9.51959355 38.6837763"></polygon>
                        <polygon id="Fill-10" fill="#9FDCD7" points="8.9325043 25.8672581 6.84004022 27.0759247 5.76839366 24.9856344 3.3194557 24.928957 3.60886505 22.6207634 1.58097409 21.3167312 3.13955495 19.5234516 2.1765514 17.386043 4.50946548 16.6770108 4.91709581 14.3849247 7.28365882 14.9852688 8.9325043 13.266129 10.5813505 14.9852688 12.9479151 14.3849247 13.3555409 16.6770108 15.6884602 17.386043 14.7254559 19.5234516 16.2840323 21.3167312 14.2561398 22.6207634 14.5455559 24.928957 12.0966172 24.9856344 11.0249699 27.0759247"></polygon>
                        <polygon id="Fill-11" fill="#9FDCD7" points="17.184872 16.7467849 15.0924065 17.9554516 14.0207591 15.8651613 11.5718204 15.8084839 11.861229 13.5002903 9.83333656 12.1962581 11.3919204 10.4029785 10.4289161 8.26556989 12.761828 7.55653763 13.1694613 5.26445161 15.5360258 5.8647957 17.184872 4.14565591 18.8337108 5.8647957 21.2002753 5.26445161 21.6079086 7.55653763 23.9408204 8.26556989 22.9778161 10.4029785 24.5364 12.1962581 22.5085075 13.5002903 22.7979161 15.8084839 20.3489774 15.8651613 19.2773301 17.9554516"></polygon>
                        <polygon id="Fill-12" fill="#9FDCD7" points="28.7381763 12.601129 26.6457108 13.8097957 25.5740634 11.7195054 23.1251323 11.662828 23.4145409 9.35463441 21.3866484 8.05060215 22.9452323 6.25732258 21.982228 4.11991398 24.3151398 3.41088172 24.7227731 1.1187957 27.0893301 1.71913978 28.7381763 0 30.3870226 1.71913978 32.7535871 1.1187957 33.1612129 3.41088172 35.4941323 4.11991398 34.531128 6.25732258 36.0897118 8.05060215 34.0618194 9.35463441 34.351228 11.662828 31.9022892 11.7195054 30.8306419 13.8097957"></polygon>
                        <polygon id="Fill-13" fill="#9FDCD7" points="40.2914882 12.601129 38.1990226 13.8097957 37.1273753 11.7195054 34.6784366 11.662828 34.9678527 9.35463441 32.9399602 8.05060215 34.4985366 6.25732258 33.5355398 4.11991398 35.8684516 3.41088172 36.2760774 1.1187957 38.6426419 1.71913978 40.2914882 0 41.9403344 1.71913978 44.3068989 1.1187957 44.7145247 3.41088172 47.0474441 4.11991398 46.0844398 6.25732258 47.6430161 8.05060215 45.6151237 9.35463441 45.9045398 11.662828 43.4556011 11.7195054 42.3839538 13.8097957"></polygon>
                        <polygon id="Fill-14" fill="#9FDCD7" points="51.0195602 16.7467849 48.9270946 17.9554516 47.8554473 15.8651613 45.4065161 15.8084839 45.6959247 13.5002903 43.6680323 12.1962581 45.2266086 10.4029785 44.2636118 8.26556989 46.5965237 7.55653763 47.004157 5.26445161 49.370714 5.8647957 51.0195602 4.14565591 52.6684065 5.8647957 55.034971 5.26445161 55.4425968 7.55653763 57.7755161 8.26556989 56.8125118 10.4029785 58.3710882 12.1962581 56.3431957 13.5002903 56.6326118 15.8084839 54.1836731 15.8651613 53.1120258 17.9554516"></polygon>
                        <polygon id="Fill-15" fill="#9FDCD7" points="59.271928 24.2089355 57.1794624 25.4176774 56.1078151 23.3273871 53.6588763 23.2707097 53.9482925 20.9625161 51.9204 19.6584839 53.4789763 17.865129 52.515972 15.7277957 54.8488914 15.0187634 55.2565172 12.7266774 57.6230817 13.3269462 59.271928 11.6078817 60.9207742 13.3269462 63.2873312 12.7266774 63.6949645 15.0187634 66.0278839 15.7277957 65.0648796 17.865129 66.6234559 19.6584839 64.5955634 20.9625161 64.884972 23.2707097 62.4360409 23.3273871 61.3643935 25.4176774"></polygon>
                        <polygon id="Fill-16" fill="#9FDCD7" points="62.572872 33.3294086 60.4804065 34.5380753 59.4087591 32.4478602 56.9598204 32.3911828 57.249229 30.0829892 55.2213366 28.778957 56.7799204 26.9856022 55.8169161 24.8482688 58.1498355 24.1392366 58.5574688 21.8470753 60.9240333 22.4474194 62.572872 20.7283548 64.2217183 22.4474194 66.5882828 21.8470753 66.9959086 24.1392366 69.328828 24.8482688 68.3658237 26.9856022 69.9244075 28.778957 67.8965151 30.0829892 68.1859237 32.3911828 65.7369849 32.4478602 64.6653376 34.5380753"></polygon>
                        <polygon id="Fill-17" fill="#9FDCD7" points="59.271928 44.1081667 57.1794624 45.3168409 56.1078151 43.2265731 53.6588763 43.1699032 53.9482925 40.8616871 51.9204 39.5576699 53.4789763 37.7643452 52.515972 35.6269892 54.8488914 34.917957 55.2565172 32.625871 57.6230817 33.2261398 59.271928 31.5070753 60.9207742 33.2261398 63.2873312 32.625871 63.6949645 34.917957 66.0278839 35.6269892 65.0648796 37.7643452 66.6234559 39.5576699 64.5955634 40.8616871 64.884972 43.1699032 62.4360409 43.2265731 61.3643935 45.3168409"></polygon>
                        <polygon id="Fill-18" fill="#9FDCD7" points="52.6700398 52.3995011 50.5775742 53.6081677 49.5059269 51.5179 47.0569882 51.4612376 47.3463968 49.153014 45.3185043 47.8490043 46.8770882 46.0556796 45.9140839 43.9183237 48.2469957 43.2092613 48.6546215 40.9171753 51.021186 41.5174892 52.6700398 39.7983871 54.3188785 41.5174892 56.685443 40.9171753 57.0930763 43.2092613 59.4259882 43.9183237 58.4629839 46.0556796 60.0215677 47.8490043 57.9936753 49.153014 58.2830839 51.4612376 55.8341452 51.5179 54.7624978 53.6081677"></polygon>
                        <polygon id="Fill-19" fill="#9FDCD7" points="18.0826559 54.6575656 15.9901903 55.8662323 14.918543 53.7759645 12.4696043 53.7193022 12.7590129 51.4110785 10.7311204 50.1070688 12.2897043 48.3137441 11.3267 46.1763882 13.6596118 45.4673258 14.0672452 43.1752398 16.4338097 43.7755538 18.0826559 42.0564516 19.7314946 43.7755538 22.0980591 43.1752398 22.5056925 45.4673258 24.8386043 46.1763882 23.8756 48.3137441 25.4341839 50.1070688 23.4062914 51.4110785 23.6957 53.7193022 21.2467613 53.7759645 20.175114 55.8662323"></polygon>
                        <polygon id="Fill-20" fill="#9FDCD7" points="10.728072 47.4246989 8.63560645 48.6333731 7.56395914 46.5431054 5.11502495 46.4864355 5.4044343 44.1782194 3.37654333 42.8742022 4.93512419 41.0808774 3.97212065 38.943529 6.30503473 38.2344667 6.71266505 35.9423656 9.07922581 36.5427097 10.728072 34.8235699 12.3769183 36.5427097 14.7434828 35.9423656 15.1511161 38.2344667 17.484028 38.943529 16.5210237 41.0808774 18.0796075 42.8742022 16.0517151 44.1782194 16.3411237 46.4864355 13.8921849 46.5431054 12.8205376 48.6333731"></polygon>
                        <polygon id="Fill-21" fill="#FBD4D5" points="13.0586882 30.842 10.9662226 32.0507419 9.89457527 29.9604516 7.44563731 29.9037742 7.73504516 27.5955806 5.7071557 26.2915484 7.26573656 24.4981935 6.30273301 22.3608602 8.63564409 21.651828 9.04327742 19.3597419 11.4098419 19.9600108 13.0586882 18.2409462 14.7075344 19.9600108 17.0740914 19.3597419 17.4817247 21.651828 19.8146366 22.3608602 18.8516323 24.4981935 20.4102161 26.2915484 18.3823237 27.5955806 18.6717323 29.9037742 16.2227935 29.9604516 15.1511462 32.0507419"></polygon>
                        <polygon id="Fill-22" fill="#FBD4D5" points="18.8353441 22.5506882 16.7428785 23.7593548 15.6712312 21.6691398 13.2222925 21.6124624 13.5117011 19.3041935 11.4838086 18.0002366 13.0423925 16.2068817 12.0793882 14.0695484 14.4123 13.3604409 14.8199333 11.0683548 17.1864978 11.6686989 18.8353441 9.94963441 20.4841828 11.6686989 22.8507473 11.0683548 23.2583806 13.3604409 25.5912925 14.0695484 24.6282882 16.2068817 26.186872 18.0002366 24.1589796 19.3041935 24.4483882 21.6124624 21.9994495 21.6691398 20.9278022 23.7593548"></polygon>
                        <polygon id="Fill-23" fill="#FFFFFF" points="29.5634161 17.575871 27.4709505 18.7846129 26.3993032 16.6943226 23.9503645 16.6376452 24.2397731 14.3294516 22.2118806 13.0254194 23.7704645 11.2320645 22.8074602 9.09473118 25.140372 8.38569892 25.5480054 6.0936129 27.9145699 6.69388172 29.5634161 4.9748172 31.2122624 6.69388172 33.5788269 6.0936129 33.9864527 8.38569892 36.319372 9.09473118 35.3563677 11.2320645 36.9149441 13.0254194 34.8870516 14.3294516 35.1764602 16.6376452 32.7275215 16.6943226 31.6558742 18.7846129"></polygon>
                        <polygon id="Fill-24" fill="#EF9E9E" points="41.9419602 18.4050323 39.8495022 19.6136989 38.7778548 17.5234839 36.3289161 17.4668065 36.6183247 15.1585376 34.5904323 13.8545806 36.1490161 12.0612258 35.1860043 9.92389247 37.5189237 9.21478495 37.9265495 6.92269892 40.293114 7.52304301 41.9419602 5.80390323 43.5908065 7.52304301 45.957371 6.92269892 46.3650043 9.21478495 48.6979086 9.92389247 47.7349118 12.0612258 49.2934882 13.8545806 47.2656032 15.1585376 47.5550118 17.4668065 45.1060731 17.5234839 44.0344258 19.6136989"></polygon>
                        <polygon id="Fill-25" fill="#FBD4D5" points="51.8448 25.0380968 49.7523344 26.2467634 48.6806871 24.1565484 46.2317484 24.099871 46.521157 21.7916022 44.4932645 20.4876452 46.0518484 18.6942903 45.0888441 16.556957 47.4217559 15.8478495 47.8293892 13.5557634 50.1959538 14.1561075 51.8448 12.4369677 53.4936462 14.1561075 55.8602032 13.5557634 56.2678366 15.8478495 58.6007559 16.556957 57.6377516 18.6942903 59.196328 20.4876452 57.1684355 21.7916022 57.4578441 24.099871 55.0089129 24.1565484 53.9372656 26.2467634"></polygon>
                        <polygon id="Fill-26" fill="#EF9E9E" points="55.9709763 32.5003226 53.8785183 33.7089892 52.806871 31.6186989 50.3579323 31.5620215 50.6473409 29.253828 48.6194484 27.9497957 50.1780323 26.1565161 49.215028 24.0191075 51.5479398 23.3100753 51.9555731 21.0179892 54.3221376 21.6183333 55.9709763 19.8991935 57.6198301 21.6183333 59.9863946 21.0179892 60.3940204 23.3100753 62.7269323 24.0191075 61.763928 26.1565161 63.3225118 27.9497957 61.2946194 29.253828 61.584028 31.5620215 59.1350892 31.6186989 58.0634419 33.7089892"></polygon>
                        <polygon id="Fill-27" fill="#FBD4D5" points="27.9129441 24.6238925 25.8204785 25.8326344 24.7488312 23.7423441 22.2998925 23.6856667 22.5893011 21.3774731 20.5614086 20.0734409 22.1199925 18.280086 21.1569882 16.1427527 23.4899 15.4337204 23.8975333 13.1416344 26.2640978 13.7419032 27.9129441 12.0228387 29.5617828 13.7419032 31.9283473 13.1416344 32.3359806 15.4337204 34.6688925 16.1427527 33.7058957 18.280086 35.264472 20.0734409 33.2365796 21.3774731 33.5259882 23.6856667 31.077057 23.7423441 30.0054097 25.8326344"></polygon>
                        <polygon id="Fill-28" fill="#FBD4D5" points="39.4662484 23.7948065 37.3737903 25.0034731 36.302143 22.9131828 33.8532043 22.8565054 34.1426129 20.5483118 32.1147204 19.2442796 33.6733043 17.451 32.7103 15.3135914 35.0432118 14.6045591 35.4508452 12.3124731 37.8174097 12.9128172 39.4662484 11.1936774 41.1150946 12.9128172 43.4816591 12.3124731 43.8892925 14.6045591 46.2222043 15.3135914 45.2592 17.451 46.8177839 19.2442796 44.7898914 20.5483118 45.0793 22.8565054 42.6303613 22.9131828 41.558714 25.0034731"></polygon>
                        <polygon id="Fill-29" fill="#9FDCD7" points="44.417672 55.7160333 42.3252065 56.9247 41.2535591 54.8344323 38.8046204 54.7777699 39.094029 52.4695462 37.0661366 51.1655366 38.6247204 49.3722118 37.6617161 47.2348559 39.994628 46.5257935 40.4022613 44.2337075 42.7688258 44.8340215 44.417672 43.1149194 46.0665183 44.8340215 48.4330753 44.2337075 48.8407086 46.5257935 51.173628 47.2348559 50.2106237 49.3722118 51.7692 51.1655366 49.7413075 52.4695462 50.0307161 54.7777699 47.5817849 54.8344323 46.5101301 56.9247"></polygon>
                        <polygon id="Fill-30" fill="#9FDCD7" points="33.6896 56.5451645 31.5971344 57.7538312 30.5254871 55.663571 28.0765484 55.6069011 28.365957 53.2986774 26.3380645 51.9946677 27.8966484 50.201343 26.9336441 48.0639946 29.2665559 47.3549323 29.6741892 45.0628387 32.0407538 45.6631602 33.6896 43.9440505 35.3384462 45.6631602 37.7050032 45.0628387 38.1126366 47.3549323 40.4455484 48.0639946 39.4825441 50.201343 41.041128 51.9946677 39.0132355 53.2986774 39.3026441 55.6069011 36.8537054 55.663571 35.7820581 57.7538312"></polygon>
                        <polygon id="Fill-31" fill="#FFFFFF" points="20.4858161 30.012914 18.3933505 31.2215806 17.3217032 29.1312903 14.8727645 29.0746129 15.1621731 26.7664194 13.1342806 25.4623871 14.6928645 23.6691075 13.7298602 21.5316989 16.062772 20.8226667 16.4704054 18.5305806 18.8369699 19.1309247 20.4858161 17.4117849 22.1346624 19.1309247 24.5012194 18.5305806 24.9088527 20.8226667 27.2417645 21.5316989 26.2787677 23.6691075 27.8373441 25.4623871 25.8094516 26.7664194 26.0988602 29.0746129 23.6499215 29.1312903 22.5782742 31.2215806"></polygon>
                        <polygon id="Fill-32" fill="#FBD4D5" points="33.6896 30.012914 31.5971344 31.2215806 30.5254871 29.1312903 28.0765484 29.0746129 28.365957 26.7664194 26.3380645 25.4623871 27.8966484 23.6691075 26.9336441 21.5316989 29.2665559 20.8226667 29.6741892 18.5305806 32.0407538 19.1309247 33.6896 17.4117849 35.3384462 19.1309247 37.7050032 18.5305806 38.1126366 20.8226667 40.4455484 21.5316989 39.4825441 23.6691075 41.041128 25.4623871 39.0132355 26.7664194 39.3026441 29.0746129 36.8537054 29.1312903 35.7820581 31.2215806"></polygon>
                        <polygon id="Fill-33" fill="#FBD4D5" points="46.0681441 30.012914 43.9756785 31.2215806 42.9040312 29.1312903 40.4550925 29.0746129 40.7445011 26.7664194 38.7166161 25.4623871 40.2751925 23.6691075 39.3121882 21.5316989 41.6451075 20.8226667 42.0527333 18.5305806 44.4192978 19.1309247 46.0681441 17.4117849 47.7169903 19.1309247 50.0835473 18.5305806 50.4911882 20.8226667 52.8241 21.5316989 51.8610957 23.6691075 53.4196796 25.4623871 51.3917871 26.7664194 51.6811957 29.0746129 49.232257 29.1312903 48.1606097 31.2215806"></polygon>
                        <polygon id="Fill-34" fill="#FFFFFF" points="23.7867602 49.0829688 21.6942946 50.2916355 20.6226473 48.2013677 18.1737086 48.1447054 18.4631247 45.8364892 16.4352323 44.532472 17.9938086 42.7391473 17.0308043 40.6017914 19.3637237 39.892729 19.7713495 37.6006129 22.137914 38.200957 23.7867602 36.4818925 25.4356065 38.200957 27.802171 37.6006129 28.2097968 39.892729 30.5427086 40.6017914 29.5797118 42.7391473 31.1382882 44.532472 29.1103957 45.8364892 29.3998118 48.1447054 26.9508731 48.2013677 25.8792258 50.2916355"></polygon>
                        <polygon id="Fill-35" fill="#FBD4D5" points="44.417672 49.0829688 42.3252065 50.2916355 41.2535591 48.2013677 38.8046204 48.1447054 39.094029 45.8364892 37.0661366 44.532472 38.6247204 42.7391473 37.6617161 40.6017914 39.994628 39.892729 40.4022613 37.6006129 42.7688258 38.200957 44.417672 36.4818925 46.0665183 38.200957 48.4330753 37.6006129 48.8407086 39.892729 51.173628 40.6017914 50.2106237 42.7391473 51.7692 44.532472 49.7413075 45.8364892 50.0307161 48.1447054 47.5817849 48.2013677 46.5101301 50.2916355"></polygon>
                        <polygon id="Fill-36" fill="#EF9E9E" points="16.3596323 39.9625032 14.2671667 41.1711699 13.1955194 39.0809097 10.7465806 39.0242398 11.0359968 36.7160538 9.0081043 35.4120215 10.5666806 33.6186667 9.60367634 31.4813333 11.9365957 30.7723011 12.3442215 28.4802151 14.710786 29.0804839 16.3596323 27.3614194 18.0084785 29.0804839 20.375043 28.4802151 20.7826688 30.7723011 23.1155882 31.4813333 22.1525839 33.6186667 23.7111602 35.4120215 21.6832677 36.7160538 21.9726839 39.0242398 19.5237452 39.0809097 18.4520978 41.1711699"></polygon>
                        <polygon id="Fill-37" fill="#FBD4D5" points="33.6896 45.766429 31.5971344 46.9751032 30.5254871 44.8848355 28.0765484 44.8281731 28.365957 42.519957 26.3380645 41.2159398 27.8966484 39.4226151 26.9336441 37.2852366 29.2665559 36.5762043 29.6741892 34.2841183 32.0407538 34.8844624 33.6896 33.1653226 35.3384462 34.8844624 37.7050032 34.2841183 38.1126366 36.5762043 40.4455484 37.2852366 39.4825441 39.4226151 41.041128 41.2159398 39.0132355 42.519957 39.3026441 44.8281731 36.8537054 44.8848355 35.7820581 46.9751032"></polygon>
                        <polygon id="Fill-38" fill="#FBD4D5" points="26.262472 38.3042333 24.1700065 39.5129075 23.0983591 37.4226774 20.6494204 37.366 20.938829 35.0577312 18.9109366 33.7537742 20.4695204 31.9604194 19.5065161 29.823086 21.839428 29.1139785 22.2470613 26.8218925 24.6136258 27.4222366 26.262472 25.7030968 27.9113183 27.4222366 30.2778753 26.8218925 30.6855086 29.1139785 33.0184204 29.823086 32.0554161 31.9604194 33.614 33.7537742 31.5861075 35.0577312 31.8755161 37.366 29.4265774 37.4226774 28.3549301 39.5129075"></polygon>
                        <polygon id="Fill-39" fill="#FBD4D5" points="51.0195602 39.1333645 48.9270946 40.3420387 47.8554473 38.251771 45.4065161 38.1951086 45.6959247 35.8868925 43.6680323 34.5828602 45.2266086 32.7895806 44.2636118 30.652172 46.5965237 29.9431398 47.004157 27.6510538 49.370714 28.2513978 51.0195602 26.5322581 52.6684065 28.2513978 55.034971 27.6510538 55.4425968 29.9431398 57.7755161 30.652172 56.8125118 32.7895806 58.3710882 34.5828602 56.3431957 35.8868925 56.6326118 38.1951086 54.1836731 38.251771 53.1120258 40.3420387"></polygon>
                        <polygon id="Fill-40" fill="#FFFFFF" points="40.2914882 37.4750645 38.1990226 38.6837763 37.1273753 36.5935161 34.6784366 36.5368387 34.9678527 34.2286452 32.9399602 32.9246129 34.4985366 31.1312581 33.5355398 28.9939247 35.8684516 28.2848925 36.2760774 25.9928065 38.6426419 26.5930753 40.2914882 24.8740108 41.9403344 26.5930753 44.3068989 25.9928065 44.7145247 28.2848925 47.0474441 28.9939247 46.0844398 31.1312581 47.6430161 32.9246129 45.6151237 34.2286452 45.9045398 36.5368387 43.4556011 36.5935161 42.3839538 38.6837763"></polygon>
                        <path d="M26.3189989,66.2195409 L42.1756247,66.2195409 C43.4227237,66.2195409 44.4336892,67.230514 44.4336892,68.4776054 L44.4336892,96.3270677 C44.4336892,97.5741667 43.4227237,98.5851323 42.1756247,98.5851323 L26.3189989,98.5851323 C25.0719,98.5851323 24.0609344,97.5741667 24.0609344,96.3270677 L24.0609344,68.4776054 C24.0609344,67.230514 25.0719,66.2195409 26.3189989,66.2195409 Z" id="Fill-41" fill="#F6E6D7"></path>
                        <path d="M31.6129032,79.5850172 C30.1579645,79.5850172 28.9784946,80.6740591 28.9784946,82.0174645 C28.9784946,84.7917677 31.0054161,86.7895978 32.5602591,87.816957 C33.2561871,88.2767892 33.5721505,88.640586 34.2473118,88.6161086 C34.9224731,88.5916237 35.0833075,88.3371172 35.8554753,87.816957 C37.4165505,86.7653538 39.516129,84.7280452 39.516129,82.0174645 C39.516129,80.6740591 38.3366591,79.5850172 36.8817204,79.5850172 C35.5757237,79.5850172 34.2111903,80.7923817 34.2111903,80.7923817 C34.2111903,80.7923817 32.9188925,79.5850172 31.6129032,79.5850172 Z" id="Fill-42" fill="#F4B5B5"></path>
                    </g>
                </g>
            </g>
        </g>
    </g>
</svg>