<?xml version="1.0" encoding="UTF-8" standalone="no"?>
<svg width="14px" height="21px" viewBox="0 0 14 21" version="1.1" xmlns="http://www.w3.org/2000/svg" xmlns:xlink="http://www.w3.org/1999/xlink">
    <!-- Generator: Sketch 41.2 (35397) - http://www.bohemiancoding.com/sketch -->
    <title>location</title>
    <desc>Created with Sketch.</desc>
    <defs></defs>
    <g id="Templates" stroke="none" stroke-width="1" fill="none" fill-rule="evenodd">
        <g id="Template1-location" transform="translate(-181.000000, -252.000000)">
            <g id="Group" transform="translate(70.000000, 122.000000)">
                <g id="location" transform="translate(111.000000, 130.000000)">
                    <path d="M6.85284091,20.3079545 C6.85284091,20.3079545 13.475,13.1130022 13.475,7.50511364 C13.475,1.89722798 9.94318182,0 6.85284091,0 C3.7625,0 0.230681818,1.89722798 0.230681818,7.50511364 C0.230681818,13.1130022 6.85284091,20.3079545 6.85284091,20.3079545 Z" id="Fill-5" fill="#FBD4D5"></path>
                    <path d="M5.27095715,6 C4.56902594,6 4,6.54987466 4,7.22818094 C4,8.62896184 4.97787805,9.63769326 5.7280068,10.1564202 C6.0637532,10.388599 6.21618648,10.5722859 6.54191724,10.5599246 C6.86764506,10.5475632 6.9452391,10.419058 7.3177694,10.1564202 C8.07090019,9.62545551 9.08383153,8.59678698 9.08383153,7.22818094 C9.08383153,6.54987466 8.51480559,6 7.81287439,6 C7.18280391,6 6.52449066,6.60961831 6.52449066,6.60961831 C6.52449066,6.60961831 5.90102468,6 5.27095715,6 Z" id="Fill-6" fill="#F4B5B5"></path>
                </g>
            </g>
        </g>
    </g>
</svg>