<?xml version="1.0" encoding="UTF-8" standalone="no"?>
<svg width="130px" height="130px" viewBox="0 0 130 130" version="1.1" xmlns="http://www.w3.org/2000/svg" xmlns:xlink="http://www.w3.org/1999/xlink">
    <!-- Generator: Sketch 41.2 (35397) - http://www.bohemiancoding.com/sketch -->
    <title>logo</title>
    <desc>Created with Sketch.</desc>
    <defs></defs>
    <g id="Templates" stroke="none" stroke-width="1" fill="none" fill-rule="evenodd">
        <g id="Template1-Ads" transform="translate(-123.000000, -158.000000)">
            <g id="logo" transform="translate(123.000000, 158.000000)">
                <rect id="Rectangle-5" fill="#FFFFFF" x="0" y="0" width="130" height="130" rx="6"></rect>
                <g transform="translate(18.200000, 30.466667)">
                    <path d="M78.5755334,7.29726246 L88.6966175,17.4183592 C90.8391859,19.5608771 90.8392489,23.0278907 88.7009668,25.1662106 C86.8902063,26.976927 84.1152869,27.2529502 82.0083324,25.987208 C79.8886452,27.3647084 77.0189236,27.1285349 75.1595643,25.2691504 L75.0436459,25.1532131 C72.9089567,26.6599635 69.9298091,26.4617045 68.0171866,24.5490631 L64.7570991,21.2889819 C64.6128786,21.1447741 64.4783969,20.9945529 64.3536412,20.8391252 C63.7366828,20.6116943 63.1579921,20.2503302 62.6626126,19.7549507 C60.8335031,17.9258348 60.8303388,14.9499082 62.6638922,13.1163611 L68.7355152,7.04471284 C68.9588425,6.67703901 69.2293189,6.32999601 69.5470072,6.01228245 C69.8639392,5.69536942 70.2104338,5.4254667 70.5776664,5.20261211 L70.6950976,5.08513676 C72.5275416,3.25268645 75.5008902,3.25101607 77.3337124,5.08385718 C77.9660004,5.71614523 78.3800668,6.48546159 78.5755334,7.29726246 Z" id="Fill-1" fill="#9FDCD7"></path>
                    <path d="M75.1665561,23.7178609 L74.4082916,24.2530748 C72.6838325,25.4702681 70.3058255,25.2795617 68.7962681,23.7699893 L65.536176,20.5099035 C65.4212732,20.3950108 65.3134293,20.2747068 65.2127173,20.1492848 L65.0214017,19.9110292 L64.7346998,19.8053438 C64.2531113,19.6278183 63.8139124,19.3480951 63.4416902,18.975873 C62.0414943,17.5756723 62.0410477,15.297356 63.4429685,13.8954401 L69.6083557,7.7300253 L69.6771936,7.61669509 C69.8578509,7.31927231 70.0748193,7.04264567 70.3261119,6.79133557 C70.576485,6.54097645 70.8524231,6.3246641 71.1492623,6.14452865 L71.2629176,6.07555749 L71.4743362,5.86405154 C72.8768326,4.46154984 75.1525665,4.46085335 76.5546302,5.86293343 C77.0276695,6.33596949 77.3510607,6.91848869 77.5043648,7.55518121 L77.5770126,7.85689732 L87.9175394,18.1974364 C89.6293216,19.9091782 89.6304111,22.6785807 87.9218823,24.3871398 C86.4967517,25.8122357 84.2834938,26.0686894 82.5757119,25.0427481 L81.9853947,24.688118 L81.4079648,25.0633668 C79.6915578,26.1787914 77.4025938,25.9540445 75.9386472,24.490078 L75.8228146,24.3742266 L75.1665561,23.7178609 Z M78.1127873,4.30477997 C75.8499708,2.04193705 72.179008,2.04306056 69.9160185,4.3060587 C69.4855105,4.59020082 69.1101904,4.89096557 68.7679513,5.23318563 C68.4249852,5.57617548 68.123657,5.95204212 67.8670483,6.35502297 L61.8848128,12.3372852 C59.6222102,14.5998799 59.6229304,18.2734159 61.8835336,20.534027 C62.4087102,21.0592036 63.0203308,21.472177 63.6884525,21.7595453 C63.7814613,21.8651731 63.8780163,21.9680632 63.9780555,22.0680936 L67.2381097,25.3281415 C69.2919881,27.3820403 72.4097712,27.8130542 74.9078673,26.5218613 C76.9331162,28.1525541 79.7362917,28.424876 82.0305572,27.2462916 C84.5022422,28.4077451 87.4958751,27.9294092 89.480035,25.9452977 C92.0493872,23.3759001 92.0477487,19.2112745 89.475686,16.6392724 L79.5617069,6.7252815 C79.2889397,5.81901872 78.7967575,4.98874537 78.1127873,4.30477997 Z" id="Stroke-3" fill="#9FDCD7"></path>
                    <path d="M13.5329993,7.29726246 L3.41190441,17.4183592 C1.26938681,19.5608771 1.26927026,23.0278907 3.40758725,25.1662106 C5.21830617,26.976927 7.99324576,27.2529502 10.1001939,25.987208 C12.2199253,27.3647084 15.0896091,27.1285349 16.9489936,25.2691504 L17.0649309,25.1532131 C19.1995634,26.6599635 22.1787299,26.4617045 24.0913776,24.5490631 L27.3514525,21.2889819 C27.4956603,21.1447741 27.6301484,20.9945529 27.7549041,20.8391252 C28.3718624,20.6116943 28.9505532,20.2503302 29.4459327,19.7549507 C31.2750485,17.9258348 31.2782065,14.9499082 29.4446594,13.1163611 L23.3730048,7.04471284 C23.1497216,6.67703901 22.8792201,6.32999601 22.5615128,6.01228245 C22.2445935,5.69536942 21.8981493,5.4254667 21.5309104,5.20261211 L21.4134288,5.08513676 C19.5809785,3.25268645 16.6076866,3.25101607 14.7748455,5.08385718 C14.1425575,5.71614523 13.7284658,6.48546159 13.5329993,7.29726246 Z" id="Fill-4" fill="#9FDCD7"></path>
                    <path d="M2.63282671,16.6392816 C0.0608020063,19.2113071 0.0591555327,23.3759304 2.62850903,25.9452876 C4.61263283,27.9294087 7.60628711,28.4077475 10.0779741,27.2462898 C12.3722877,28.4248863 15.1754688,28.152555 17.2006962,26.5218619 C19.6987538,27.8130547 22.8165518,27.3820375 24.870454,25.3281421 L28.1305309,22.0680588 C28.2306005,21.9679893 28.3271578,21.8651 28.4201191,21.7595247 C29.088233,21.4721516 29.6998567,21.0591819 30.2250103,20.5340283 C32.4856181,18.2734206 32.4863382,14.5998846 30.2237371,12.3372834 L24.2414991,6.35504981 C23.9849336,5.95208566 23.6835777,5.57619796 23.3405944,5.23321119 C22.9982954,4.89091766 22.6229684,4.59012923 22.2204495,4.33399985 C19.9295114,2.04306145 16.2586095,2.04193795 13.9957673,4.30478322 C13.3117929,4.98875288 12.819595,5.81902985 12.546827,6.72528005 L2.63282671,16.6392816 Z M4.19098218,18.1974367 L14.53152,7.85689762 L14.6041679,7.55518121 C14.7574659,6.91851387 15.0808716,6.33598624 15.5539204,5.8629407 C16.9560068,4.46085246 19.231688,4.46154894 20.634351,5.86421239 L20.751839,5.98169855 L20.8457647,6.07562274 L20.9593216,6.144533 C21.2560943,6.324625 21.5319876,6.54091899 21.7824414,6.79136882 C22.0337653,7.04269524 22.2507219,7.31930046 22.4312764,7.61661253 L22.5001304,7.72999189 L28.665582,13.895439 C30.0675007,15.2973577 30.0670541,17.5756739 28.666855,18.975873 C28.2946508,19.3480773 27.8554262,19.6278106 27.3738198,19.8053463 L27.0870124,19.9110728 L26.895673,20.1494543 C26.795223,20.2746006 26.687394,20.3948852 26.5723749,20.5099043 L23.3122992,23.7699862 C21.8027208,25.2795597 19.4246973,25.4702674 17.7002964,24.2530827 L16.9420918,23.7178969 L16.1699159,24.4900728 C14.7059407,25.954048 12.4170056,26.1787922 10.7005528,25.0633611 L10.1231246,24.6881212 L9.53281319,25.0427489 C7.82503809,26.0686892 5.61176774,25.8122338 4.18666436,24.3871324 C2.47813193,22.6785974 2.47922681,19.9091926 4.19098218,18.1974367 Z" id="Stroke-5" fill="#9FDCD7"></path>
                    <path d="M33.8604328,1.4690429 C27.4592522,1.4690429 22.2700653,6.48356428 22.2700653,12.6692967 C22.2700653,31.1612228 45.4508003,43.0527797 45.4508003,43.0527797 C45.4508003,43.0527797 68.6315101,31.3237292 68.6315101,12.6692967 C68.6315101,6.48356428 63.4423547,1.4690429 57.0411741,1.4690429 C51.2953014,1.4690429 45.2918994,7.02838088 45.2918994,7.02838088 C45.2918994,7.02838088 39.606274,1.4690429 33.8604328,1.4690429 Z" id="Fill-6" fill="#F4B5B5"></path>
                    <path d="M45.0208318,5.31478175 C44.2100787,4.63631242 43.3068015,3.9585733 42.331033,3.32474738 C39.4941126,1.48198053 36.6258973,0.367260726 33.8604328,0.367260726 C26.8590346,0.367260726 21.1682831,5.86646909 21.1682831,12.6692967 C21.1682831,21.1243304 25.6670829,28.8154122 33.1180618,35.6096398 C35.7019707,37.9657954 38.4662957,40.0454286 41.230991,41.8312771 C42.1994218,42.4568327 43.0996538,43.0015077 43.9091663,43.4629085 C44.1939962,43.625254 44.4476372,43.7658357 44.6672716,43.8843469 C44.80143,43.9567366 44.8959142,44.006422 44.9479049,44.0330929 L45.4473595,44.2893096 L45.9482322,44.0358764 C46.0003398,44.0095109 46.0949415,43.9604161 46.2292183,43.8888724 C46.448981,43.7717811 46.7027509,43.6328148 46.9877107,43.4722501 C47.797518,43.0159524 48.6980463,42.4766822 49.666776,41.8565922 C52.4322505,40.0863944 55.1973355,38.0197562 57.7819645,35.6720011 C65.2339029,28.9030117 69.7332923,21.1951423 69.7332923,12.6692967 C69.7332923,5.86646625 64.042563,0.367260726 57.0411741,0.367260726 C56.7789994,0.367260726 56.5144279,0.3775592 56.2475805,0.397887755 C53.7137943,0.590912685 51.068568,1.66052036 48.4270117,3.31495362 C47.4181581,3.94680879 46.4790066,4.62248521 45.6321489,5.29881586 C45.5201289,5.38827895 45.4126731,5.47542549 45.3099383,5.55996729 C45.2196277,5.48230239 45.1231946,5.40044288 45.0208318,5.31478175 Z M45.0003399,41.5484801 C44.2252319,41.106689 43.3597438,40.5830354 42.42663,39.9802927 C39.7583405,38.2567174 37.0896807,36.2490542 34.6028039,33.9813779 C27.5658233,27.5646576 23.3718475,20.3946983 23.3718475,12.6692967 C23.3718475,7.10066583 28.0594672,2.57082508 33.8604328,2.57082508 C36.1225794,2.57082508 38.6185093,3.54085772 41.1306801,5.17267829 C42.0270936,5.75495797 42.8603893,6.38018914 43.6066516,7.00469009 C43.8668045,7.22239608 44.0968634,7.4238537 44.2939566,7.60359458 C44.4092948,7.70877835 44.4861258,7.7814546 44.5216197,7.8161601 L45.2712495,8.54913959 L46.0405051,7.83678462 C46.0787551,7.80136384 46.1605397,7.72797027 46.2827228,7.62206502 C46.4910549,7.44148792 46.7336298,7.23919604 47.0072716,7.02065598 C47.7919094,6.39401635 48.6638119,5.76672249 49.5966573,5.18247206 C51.9626592,3.7006213 54.2978785,2.75636615 56.4149639,2.59508566 C56.6267535,2.57895144 56.8355226,2.57082508 57.0411741,2.57082508 C62.8421287,2.57082508 67.5297279,7.10066126 67.5297279,12.6692967 C67.5297279,20.4660795 63.3363511,27.6497212 56.3003459,34.0408965 C53.8141947,36.299199 51.1463008,38.2931961 48.4787965,40.0006825 C47.5459835,40.597782 46.6807937,41.1158902 45.9059822,41.552469 C45.7439221,41.6437841 45.5930815,41.727411 45.4540772,41.8032823 C45.3145534,41.7262077 45.1630996,41.6412488 45.0003399,41.5484801 Z" id="Stroke-7" fill="#F4B5B5"></path>
                </g>
                <path d="M27.3578437,92.3345132 C27.4882672,92.2752298 27.6927918,92.2070549 27.9714238,92.1299865 C28.2500557,92.0529181 28.5316476,92.0143845 28.8162079,92.0143845 C29.3141884,92.0143845 29.7291659,92.0884876 30.0611529,92.2366961 C30.3931399,92.3849046 30.5947004,92.6012857 30.6658404,92.885846 C30.7962639,93.3719698 30.917793,93.8254809 31.0304315,94.246393 C31.1430699,94.6673051 31.2527425,95.0704261 31.3594526,95.4557681 C31.4661627,95.8411102 31.5699071,96.2234823 31.6706889,96.602896 C31.7714706,96.9823097 31.8692868,97.3795025 31.9641402,97.7944862 L32.0530648,97.7944862 C32.1597749,97.0712288 32.2546269,96.3805877 32.3376237,95.722542 C32.4206204,95.0644964 32.4976877,94.4183171 32.5688278,93.7839848 C32.6399678,93.1496526 32.7111068,92.521258 32.7822469,91.8987824 C32.853387,91.2763068 32.924526,90.6449482 32.995666,90.0046876 C33.4343631,89.7556973 33.9026949,89.6312041 34.4006754,89.6312041 C34.8393725,89.6312041 35.2187805,89.7260561 35.5389108,89.9157629 C35.8590411,90.1054698 36.0191039,90.4255953 36.0191039,90.8761491 C36.0191039,91.136996 35.9924267,91.5075116 35.9390717,91.9877071 C35.8857166,92.4679025 35.8145776,93.0044092 35.7256525,93.5972431 C35.6367275,94.190077 35.5329831,94.8125433 35.4144163,95.4646606 C35.2958495,96.1167779 35.1713563,96.7392441 35.0409328,97.3320781 C34.9105093,97.924912 34.7771237,98.4614186 34.6407719,98.9416141 C34.5044201,99.4218095 34.3769627,99.7923252 34.258396,100.053172 C34.0805458,100.219166 33.7900615,100.355515 33.3869345,100.462225 C32.9838074,100.568936 32.5688299,100.62229 32.1419895,100.62229 C31.5847256,100.62229 31.1134297,100.548187 30.7280877,100.399978 C30.3427456,100.25177 30.1085798,100.041317 30.025583,99.7686132 C29.8714462,99.2943461 29.7054552,98.7311623 29.527605,98.079045 C29.3497548,97.4269277 29.1600508,96.7096095 28.9584873,95.9270687 C28.7924938,96.6977528 28.6205746,97.4506406 28.4427244,98.1857546 C28.2648742,98.9208687 28.1048115,99.5433349 27.9625313,100.053172 C27.7846811,100.219166 27.5179099,100.355515 27.1622095,100.462225 C26.8065092,100.568936 26.4152447,100.62229 25.9884043,100.62229 C25.4548537,100.62229 24.9717014,100.548187 24.5389326,100.399978 C24.1061638,100.25177 23.824572,100.041317 23.6941485,99.7686132 C23.5874384,99.555193 23.4718375,99.2380317 23.3473424,98.8171196 C23.2228473,98.3962075 23.0953899,97.9160192 22.9649664,97.3765404 C22.834543,96.8370615 22.7011573,96.2531289 22.5648055,95.6247249 C22.4284538,94.996321 22.3039605,94.3679265 22.1913221,93.7395225 C22.0786836,93.1111186 21.9749392,92.4975447 21.8800858,91.8987824 C21.7852324,91.3000202 21.7140934,90.751657 21.6666667,90.2536766 C21.8326602,90.0995397 22.0638619,89.9572617 22.3602789,89.8268383 C22.6566958,89.6964148 22.9768213,89.6312041 23.320665,89.6312041 C23.7712188,89.6312041 24.1417344,89.7290202 24.432223,89.9246554 C24.7227116,90.1202906 24.9035233,90.4493085 24.9746633,90.9117189 C25.1643702,92.1211001 25.3214688,93.1289026 25.4459639,93.9351567 C25.5704591,94.7414109 25.6712393,95.4024107 25.7483077,95.9181763 C25.8253761,96.4339418 25.8816945,96.8340986 25.9172645,97.1186589 C25.9528346,97.4032192 25.9884041,97.6284927 26.0239741,97.7944862 L26.1128988,97.7944862 C26.2196089,97.3202191 26.3203891,96.8815286 26.4152425,96.4784015 C26.510096,96.0752744 26.6079121,95.6691893 26.7086939,95.2601339 C26.8094756,94.8510785 26.91322,94.412388 27.0199301,93.9440492 C27.1266402,93.4757104 27.239277,92.9392038 27.3578437,92.3345132 Z M37.726457,91.3563421 C37.726457,90.846505 37.8746632,90.4433839 38.1710802,90.146967 C38.4674972,89.85055 38.8706182,89.7023438 39.3804553,89.7023438 L45.2494817,89.7023438 C45.3324784,89.8327672 45.4065816,90.0046865 45.4717933,90.2181067 C45.537005,90.4315269 45.5696104,90.6568004 45.5696104,90.893934 C45.5696104,91.3444878 45.4717943,91.6646133 45.2761591,91.8543201 C45.0805239,92.044027 44.822645,92.138879 44.5025147,92.138879 L40.7498948,92.138879 L40.7498948,93.7928773 L44.7515037,93.7928773 C44.8345004,93.9233008 44.9086036,94.0922559 44.9738153,94.2997478 C45.039027,94.5072396 45.0716324,94.729549 45.0716324,94.9666826 C45.0716324,95.4172364 44.9767804,95.7373619 44.7870736,95.9270687 C44.5973667,96.1167756 44.342452,96.2116276 44.0223216,96.2116276 L40.7498948,96.2116276 L40.7498948,98.079045 L45.3206214,98.079045 C45.4036182,98.2094685 45.4777213,98.3813878 45.542933,98.594808 C45.6081447,98.8082282 45.6407501,99.0335017 45.6407501,99.2706353 C45.6407501,99.721189 45.542934,100.044279 45.3472988,100.239914 C45.1516636,100.435549 44.8937847,100.533365 44.5736544,100.533365 L39.3804553,100.533365 C38.8706182,100.533365 38.4674972,100.385159 38.1710802,100.088742 C37.8746632,99.792325 37.726457,99.389204 37.726457,98.8793668 L37.726457,91.3563421 Z M50.5671753,98.1679697 C50.6975987,98.191683 50.8576615,98.2124319 51.0473683,98.2302169 C51.2370752,98.248002 51.4149227,98.2568943 51.5809162,98.2568943 C51.9840433,98.2568943 52.3545589,98.1976118 52.6924742,98.079045 C53.0303896,97.9604783 53.3208738,97.7767025 53.5639357,97.5277123 C53.8069976,97.278722 53.9967016,96.9556324 54.1330534,96.5584337 C54.2694052,96.161235 54.3375801,95.6840108 54.3375801,95.1267469 C54.3375801,94.0596459 54.0885936,93.256368 53.5906131,92.7168891 C53.0926326,92.1774103 52.4286686,91.9076749 51.5987011,91.9076749 C51.4327076,91.9076749 51.2637525,91.9136032 51.0918307,91.9254598 C50.9199088,91.9373165 50.7450255,91.9551013 50.5671753,91.9788146 L50.5671753,98.1679697 Z M51.5631313,100.764569 C51.3615677,100.764569 51.130366,100.758641 50.8695191,100.746784 C50.6086721,100.734928 50.3389368,100.711215 50.0603048,100.675645 C49.7816729,100.640075 49.5030451,100.595613 49.2244132,100.542258 C48.9457813,100.488903 48.6879024,100.414799 48.4507688,100.319946 C47.7986515,100.070956 47.4725977,99.6381935 47.4725977,99.0216463 L47.4725977,90.7160847 C47.4725977,90.4670945 47.5407726,90.2744263 47.6771244,90.1380745 C47.8134762,90.0017227 48.0002161,89.8920501 48.2373497,89.8090534 C48.7471868,89.6430599 49.2866576,89.5333872 49.8557781,89.4800322 C50.4248987,89.4266771 50.9347282,89.4 51.385282,89.4 C52.3101029,89.4 53.1489503,89.5126368 53.9018494,89.7379136 C54.6547484,89.9631905 55.3009277,90.3099932 55.8404065,90.7783319 C56.3798854,91.2466707 56.797827,91.8365316 57.094244,92.5479323 C57.390661,93.259333 57.5388672,94.1011445 57.5388672,95.0733922 C57.5388672,96.0219264 57.3965892,96.8489173 57.1120289,97.5543897 C56.8274686,98.259862 56.4213835,98.852687 55.8937613,99.3328825 C55.3661392,99.813078 54.7347805,100.171737 53.9996665,100.408871 C53.2645524,100.646004 52.4523821,100.764569 51.5631313,100.764569 Z M58.819382,92.1922338 C58.7363853,92.0618103 58.659318,91.8839628 58.588178,91.6586859 C58.5170379,91.433409 58.4814684,91.196279 58.4814684,90.9472888 C58.4814684,90.4848783 58.5852128,90.1528963 58.7927047,89.9513328 C59.0001965,89.7497693 59.2699319,89.648989 59.6019189,89.648989 L67.3561477,89.648989 C67.4391444,89.7794125 67.5162117,89.95726 67.5873517,90.1825368 C67.6584918,90.4078137 67.6940613,90.6449437 67.6940613,90.893934 C67.6940613,91.3563444 67.5903169,91.6883264 67.3828251,91.88989 C67.1753332,92.0914535 66.9055978,92.1922338 66.5736108,92.1922338 L64.5994838,92.1922338 L64.5994838,100.408871 C64.4690603,100.444441 64.2645357,100.48001 63.9859037,100.51558 C63.7072718,100.55115 63.4316082,100.568935 63.1589046,100.568935 C62.886201,100.568935 62.6461068,100.548186 62.438615,100.506688 C62.2311231,100.465189 62.0562397,100.391086 61.9139596,100.284376 C61.7716794,100.177666 61.6649709,100.02946 61.5938309,99.839753 C61.5226908,99.6500461 61.4871213,99.4010596 61.4871213,99.092786 L61.4871213,92.1922338 L58.819382,92.1922338 Z M71.500036,90.0224725 C71.7015995,89.9039057 72.0069044,89.791269 72.4159598,89.6845589 C72.8250152,89.5778488 73.2370286,89.5244945 73.6520123,89.5244945 C74.2448462,89.5244945 74.7694964,89.6104541 75.2259785,89.782376 C75.6824606,89.9542978 75.975909,90.2240332 76.1063324,90.5915902 C76.3197526,91.2081375 76.5509544,91.9254557 76.7999446,92.7435665 C77.0489349,93.5616773 77.2979214,94.406453 77.5469116,95.2779188 C77.7959019,96.1493847 78.0389601,97.008981 78.2760937,97.8567334 C78.5132273,98.7044859 78.720716,99.4544096 78.8985662,100.106527 C78.7562861,100.27252 78.542869,100.405906 78.2583088,100.506688 C77.9737485,100.60747 77.6358382,100.65786 77.2445678,100.65786 C76.9600076,100.65786 76.7199134,100.634147 76.5242783,100.58672 C76.3286431,100.539293 76.1685803,100.468154 76.0440852,100.373301 C75.9195901,100.278447 75.8188098,100.153954 75.7417414,99.9998173 C75.664673,99.8456805 75.5964981,99.667833 75.5372147,99.4662695 L75.217086,98.2391094 L71.998014,98.2391094 C71.9031606,98.5948098 71.8083085,98.9623613 71.7134551,99.341775 C71.6186017,99.7211887 71.5237497,100.08874 71.4288963,100.444441 C71.2629028,100.503724 71.0880194,100.554114 70.9042409,100.595612 C70.7204624,100.637111 70.498153,100.65786 70.2373061,100.65786 C69.6326155,100.65786 69.1850326,100.554115 68.894544,100.346623 C68.6040554,100.139132 68.4588132,99.8516114 68.4588132,99.4840544 C68.4588132,99.3180609 68.4825262,99.1520699 68.5299529,98.9860764 C68.5773797,98.8200829 68.6307339,98.6244506 68.6900173,98.3991738 C68.773014,98.0790434 68.8886149,97.6818507 69.0368234,97.2075836 C69.1850319,96.7333164 69.3480588,96.2205228 69.5259089,95.6691873 C69.7037591,95.1178517 69.8934631,94.5517038 70.0950266,93.9707266 C70.2965902,93.3897494 70.4862942,92.8413862 70.6641443,92.3256207 C70.8419945,91.8098552 71.0050214,91.3504158 71.1532299,90.9472888 C71.3014384,90.5441617 71.4170392,90.2358927 71.500036,90.0224725 Z M73.6342274,92.3167283 C73.4682339,92.8147087 73.281494,93.3690001 73.0740021,93.9796191 C72.8665103,94.590238 72.6797704,95.2097401 72.5137769,95.8381441 L74.719108,95.8381441 C74.5531145,95.1978835 74.3841594,94.5724531 74.2122376,93.9618341 C74.0403157,93.3512152 73.8832171,92.8028521 73.740937,92.3167283 L73.6342274,92.3167283 Z M82.0109287,100.533365 C81.5010915,100.533365 81.0979705,100.385159 80.8015535,100.088742 C80.5051366,99.792325 80.3569303,99.389204 80.3569303,98.8793668 L80.3569303,89.6845589 C80.4873538,89.6608455 80.6948425,89.6282401 80.9794028,89.5867417 C81.2639631,89.5452434 81.5366626,89.5244945 81.7975095,89.5244945 C82.0702131,89.5244945 82.3103072,89.5452434 82.5177991,89.5867417 C82.725291,89.6282401 82.9001744,89.7023432 83.0424545,89.8090534 C83.1847346,89.9157635 83.2914431,90.0639697 83.3625832,90.2536766 C83.4337233,90.4433834 83.4692928,90.6923699 83.4692928,91.0006436 L83.4692928,98.0256903 L87.5420414,98.0256903 C87.6250381,98.1561137 87.7021054,98.3309971 87.7732455,98.5503457 C87.8443855,98.7696942 87.879955,98.9979318 87.879955,99.2350654 C87.879955,99.7093325 87.7791748,100.044279 87.5776112,100.239914 C87.3760477,100.435549 87.1092765,100.533365 86.7772895,100.533365 L82.0109287,100.533365 Z M89.4805986,91.3563421 C89.4805986,90.846505 89.6288048,90.4433839 89.9252218,90.146967 C90.2216387,89.85055 90.6247598,89.7023438 91.1345969,89.7023438 L97.0036233,89.7023438 C97.08662,89.8327672 97.1607232,90.0046865 97.2259349,90.2181067 C97.2911466,90.4315269 97.323752,90.6568004 97.323752,90.893934 C97.323752,91.3444878 97.2259359,91.6646133 97.0303007,91.8543201 C96.8346655,92.044027 96.5767866,92.138879 96.2566563,92.138879 L92.5040364,92.138879 L92.5040364,93.7928773 L96.5056453,93.7928773 C96.588642,93.9233008 96.6627452,94.0922559 96.7279569,94.2997478 C96.7931686,94.5072396 96.825774,94.729549 96.825774,94.9666826 C96.825774,95.4172364 96.730922,95.7373619 96.5412151,95.9270687 C96.3515083,96.1167756 96.0965935,96.2116276 95.7764632,96.2116276 L92.5040364,96.2116276 L92.5040364,98.079045 L97.074763,98.079045 C97.1577597,98.2094685 97.2318629,98.3813878 97.2970746,98.594808 C97.3622863,98.8082282 97.3948917,99.0335017 97.3948917,99.2706353 C97.3948917,99.721189 97.2970756,100.044279 97.1014404,100.239914 C96.9058052,100.435549 96.6479263,100.533365 96.327796,100.533365 L91.1345969,100.533365 C90.6247598,100.533365 90.2216387,100.385159 89.9252218,100.088742 C89.6288048,99.792325 89.4805986,99.389204 89.4805986,98.8793668 L89.4805986,91.3563421 Z M102.285747,96.1938426 C101.764053,96.0159925 101.289793,95.8351808 100.862953,95.6514023 C100.436112,95.4676238 100.068561,95.2453144 99.7602872,94.9844675 C99.4520135,94.7236206 99.2119194,94.4123875 99.0399976,94.0507588 C98.8680757,93.6891301 98.7821161,93.2474754 98.7821161,92.7257816 C98.7821161,91.717964 99.1704165,90.9117219 99.9470289,90.3070313 C100.723641,89.7023408 101.811475,89.4 103.210563,89.4 C103.7204,89.4 104.19466,89.4355695 104.633358,89.5067096 C105.072055,89.5778496 105.448499,89.6875223 105.762701,89.8357307 C106.076902,89.9839392 106.322925,90.1736432 106.500775,90.4048485 C106.678625,90.6360537 106.767549,90.9057891 106.767549,91.2140627 C106.767549,91.5223363 106.69641,91.7861435 106.55413,92.005492 C106.41185,92.2248406 106.23993,92.4115804 106.038367,92.5657173 C105.77752,92.3997238 105.427753,92.2544816 104.989056,92.1299865 C104.550359,92.0054914 104.070171,91.9432448 103.548477,91.9432448 C103.014926,91.9432448 102.623662,92.0173479 102.374672,92.1655564 C102.125681,92.3137648 102.001188,92.5005047 102.001188,92.7257816 C102.001188,92.9036318 102.078255,93.0488739 102.232392,93.1615124 C102.386529,93.2741508 102.617731,93.3778952 102.926004,93.4727486 L103.868606,93.7750924 C104.983133,94.1307927 105.839766,94.5843039 106.438528,95.1356394 C107.03729,95.6869749 107.336667,96.4368986 107.336667,97.3854328 C107.336667,98.3932505 106.939474,99.2083849 106.145076,99.8308605 C105.350679,100.453336 104.182814,100.764569 102.641446,100.764569 C102.096038,100.764569 101.589173,100.720107 101.120834,100.631182 C100.652495,100.542257 100.243446,100.411836 99.8936741,100.239914 C99.5439021,100.067992 99.2712026,99.854575 99.0755674,99.5996564 C98.8799322,99.3447378 98.7821161,99.0512895 98.7821161,98.7193025 C98.7821161,98.3754588 98.8828964,98.0820104 99.0844599,97.8389485 C99.2860234,97.5958866 99.5053687,97.4091467 99.7425022,97.2787233 C100.074489,97.5395702 100.480574,97.7648437 100.96077,97.9545506 C101.440965,98.1442574 101.965615,98.2391094 102.534736,98.2391094 C103.115713,98.2391094 103.524762,98.1501857 103.761896,97.9723355 C103.99903,97.7944853 104.117595,97.5869965 104.117595,97.349863 C104.117595,97.1127294 104.022743,96.9319178 103.833036,96.8074227 C103.643329,96.6829275 103.376558,96.5613984 103.032714,96.4428316 L102.285747,96.1938426 Z" id="WEDTALES" fill="#545454"></path>
            </g>
        </g>
    </g>
</svg>