<?xml version="1.0" encoding="UTF-8" standalone="no"?>
<svg width="118px" height="91px" viewBox="0 0 118 91" version="1.1" xmlns="http://www.w3.org/2000/svg" xmlns:xlink="http://www.w3.org/1999/xlink">
    <!-- Generator: Sketch 41.2 (35397) - http://www.bohemiancoding.com/sketch -->
    <title>logo-loading</title>
    <desc>Created with Sketch.</desc>
    <defs></defs>
    <g id="Template1" stroke="none" stroke-width="1" fill="none" fill-rule="evenodd">
        <g id="logo-loading" transform="translate(-0.784909, -1.000000)">
            <g id="logo" transform="translate(0.258065, 0.602151)">
                <path d="M101.387785,9.41582253 L114.447248,22.4753022 C117.211853,25.2398414 117.211934,29.7134073 114.45286,32.4725298 C112.116395,34.808938 108.535854,35.1650971 105.817203,33.5318813 C103.082123,35.3093012 99.3792562,35.0045612 96.980083,32.6053554 L96.8305108,32.4557588 C94.0760732,34.3999529 90.2320117,34.1441349 87.7641117,31.6762105 L83.5575472,27.4696541 C83.3714563,27.2835795 83.1979315,27.0897457 83.0369563,26.8891937 C82.2408811,26.5957346 81.4941833,26.1294583 80.854984,25.4902589 C78.4948427,23.1301094 78.4907597,19.2902041 80.8566351,16.9243369 L88.6909874,9.08995205 C88.9791517,8.6155342 89.3281534,8.16773679 89.7380738,7.75778381 C90.1470183,7.34886377 90.5941081,7.0006022 91.0679566,6.71304789 L91.2194808,6.56146679 C93.5839246,4.19701478 97.4205034,4.19485944 99.7854353,6.55981572 C100.601291,7.37567127 101.13557,8.36833754 101.387785,9.41582253 Z" id="Fill-1" fill="#9FDCD7"></path>
                <path d="M96.9891046,30.6036915 L96.0106989,31.29429 C93.7855903,32.8648621 90.7171942,32.6187893 88.7693782,30.670954 L84.5628077,26.4643916 C84.414546,26.3161429 84.2753926,26.1609121 84.1454417,25.9990772 L83.8985828,25.6916506 L83.5286448,25.5552823 C82.9072404,25.3262172 82.3405321,24.965284 81.8602455,24.4849974 C80.0535411,22.6782868 80.0529648,19.7385239 81.8618948,17.9296001 L89.8172332,9.97422619 L89.9060562,9.82799367 C90.1391625,9.44422233 90.4191216,9.08728473 90.7433702,8.76301364 C91.0664322,8.43996961 91.4224814,8.1608569 91.8054998,7.92842406 L91.9521518,7.83942901 L92.2249499,7.56651811 C94.0346227,5.7568385 96.9710535,5.7559398 98.780168,7.56507539 C99.3905413,8.17544451 99.8078202,8.92708218 100.005632,9.74862091 L100.099371,10.137932 L113.441986,23.4805631 C115.650737,25.6892622 115.652143,29.2626848 113.44759,31.4672772 C111.608712,33.3061106 108.752895,33.6370186 106.549306,32.3132234 L105.787606,31.8556362 L105.042535,32.3398281 C102.827816,33.7790857 99.8743146,33.4890897 97.9853513,31.6001007 L97.8358899,31.4506149 L96.9891046,30.6036915 Z M100.790693,5.5545548 C97.8709301,2.63475748 93.1342039,2.63620717 90.2142174,5.55620477 C89.6587232,5.92283976 89.1744392,6.31092331 88.7328403,6.75249759 C88.2903035,7.19506513 87.9014929,7.68005435 87.5703849,8.20002964 L79.8513713,15.9190776 C76.9318842,18.8385548 76.9328134,23.5786012 79.8497208,26.4955187 C80.5273681,27.1731659 81.3165559,27.7060349 82.1786484,28.0768327 C82.2986597,28.2131266 82.4232468,28.345888 82.5523296,28.4749595 L86.7588512,32.681473 C89.4090169,35.3316648 93.4319628,35.8878119 96.6553127,34.2217565 C99.2685371,36.3258763 102.885538,36.6772593 105.84588,35.1565053 C109.035151,36.6551549 112.897903,36.0379474 115.45811,33.4778035 C118.773403,30.1624517 118.771289,24.7887413 115.452498,21.4700289 L102.660267,8.67778257 C102.308309,7.50841125 101.673235,6.4370908 100.790693,5.5545548 Z" id="Stroke-3" fill="#9FDCD7"></path>
                <path d="M17.4619345,9.41582253 L4.4024573,22.4753022 C1.63791847,25.2398414 1.63776808,29.7134073 4.39688678,32.4725298 C6.73329828,34.808938 10.3138655,35.1650971 13.0325083,33.5318813 C15.7676455,35.3093012 19.4704634,35.0045612 21.8696691,32.6053554 L22.0192657,32.4557588 C24.7736301,34.3999529 28.617716,34.1441349 31.0856485,31.6762105 L35.2921968,27.4696541 C35.4782714,27.2835795 35.6518044,27.0897457 35.8127795,26.8891937 C36.6088547,26.5957346 37.3555525,26.1294583 37.9947518,25.4902589 C40.3549013,23.1301094 40.3589761,19.2902041 37.9931089,16.9243369 L30.1587159,9.08995205 C29.8706086,8.6155342 29.5215743,8.16773679 29.1116295,7.75778381 C28.7027013,7.34886377 28.2556766,7.0006022 27.7818199,6.71304789 L27.6302307,6.56146679 C25.2657787,4.19701478 21.4292731,4.19485944 19.0643168,6.55981572 C18.2484612,7.37567127 17.7141495,8.36833754 17.4619345,9.41582253 Z" id="Fill-4" fill="#9FDCD7"></path>
                <path d="M3.39719576,21.4700408 C0.0784542017,24.7887833 0.0763297196,30.1624908 3.39162455,33.4777905 C5.95178429,36.0379467 9.81456402,36.655158 13.0038375,35.156503 C15.9642422,36.6772726 19.5812501,36.3258774 22.1944467,34.2217573 C25.4177468,35.8878125 29.440712,35.3316613 32.0909084,32.6814736 L36.2974593,28.4749146 C36.4265813,28.3457926 36.5511713,28.2130323 36.6711214,28.076806 C37.5332038,27.7060021 38.3223958,27.1731379 39.0000133,26.4955204 C41.9169265,23.5786072 41.9178557,18.8385607 38.9983704,15.9190754 L31.2793537,8.20006427 C30.9483015,7.68011053 30.5594551,7.19509415 30.1168959,6.75253057 C29.6752198,6.31086149 29.190927,5.92274739 28.6715478,5.59225787 C25.7154986,2.63620832 20.978851,2.63475864 18.0590546,5.554559 C17.176507,6.43710049 16.5414129,7.50842561 16.1894542,8.67778072 L3.39719576,21.4700408 Z M5.40771894,23.4805635 L18.7503484,10.1379324 L18.8440876,9.74862091 C19.0418915,8.92711467 19.4591892,8.17546612 20.0695748,7.56508478 C21.8787184,5.75593865 24.8150813,5.75683735 26.624969,7.56672566 L26.7765665,7.71832071 L26.897761,7.83951321 L27.044286,7.92842967 C27.4272185,8.16080645 27.7832098,8.43989546 28.106376,8.76305655 C28.4306649,9.0873487 28.710609,9.44425866 28.9435824,9.82788714 L29.0324264,9.97418309 L36.9878478,17.9295987 C38.7967751,19.738526 38.7961988,22.678289 36.9894904,24.4849974 C36.5092268,24.965261 35.9424854,25.3262072 35.3210577,25.5552856 L34.9509837,25.6917068 L34.7040941,25.9992959 C34.5744813,26.160775 34.4353471,26.3159809 34.2869353,26.4643926 L30.0803861,30.67095 C28.1325429,32.6187867 25.0641256,32.8648611 22.8390921,31.2943003 L21.8607636,30.6037379 L20.8644077,31.6000939 C18.9754073,33.4890942 16.0219427,33.7790868 13.8071649,32.3398207 L13.0620962,31.8556403 L12.3004041,32.3132243 C10.0968233,33.6370183 7.24099063,33.3061081 5.40214756,31.4672676 C3.19758959,29.2627064 3.19900233,25.6892808 5.40771894,23.4805635 Z" id="Stroke-5" fill="#9FDCD7"></path>
                <path d="M43.690881,1.89553923 C35.4312932,1.89553923 28.7355681,8.3658894 28.7355681,16.3474796 C28.7355681,40.2080294 58.6461939,55.5519737 58.6461939,55.5519737 C58.6461939,55.5519737 88.5567872,40.4177151 88.5567872,16.3474796 C88.5567872,8.3658894 81.8611028,1.89553923 73.601515,1.89553923 C66.1874857,1.89553923 58.4411605,9.06887856 58.4411605,9.06887856 C58.4411605,9.06887856 51.1048697,1.89553923 43.690881,1.89553923 Z" id="Fill-6" fill="#F4B5B5"></path>
                <path d="M58.0913958,6.8577829 C57.0452628,5.9823386 55.8797438,5.10783652 54.6206878,4.28999662 C50.9601453,1.91223295 47.2592223,0.473884808 43.690881,0.473884808 C34.6568188,0.473884808 27.3139137,7.56963754 27.3139137,16.3474796 C27.3139137,27.2572005 33.1188167,37.181177 42.7329829,45.9479224 C46.0670589,48.9881231 49.6339299,51.6715208 53.2012786,53.9758414 C54.4508668,54.78301 55.6124565,55.4858164 56.6569888,56.0811722 C57.0245113,56.2906503 57.3517899,56.4720461 57.6351891,56.6249637 C57.8082968,56.7183698 57.9302118,56.78248 57.9972967,56.816894 L58.6417542,57.1474962 L59.2880416,56.8204857 C59.3552771,56.7864656 59.4773439,56.7231176 59.6506043,56.6308031 C59.934169,56.4797176 60.2616141,56.3004062 60.6293041,56.0932259 C61.6742167,55.5044548 62.8361888,54.8086222 64.0861625,54.008506 C67.6545168,51.7243798 71.2223683,49.05775 74.5573735,46.0283885 C84.172778,37.2942086 89.9784416,27.3485707 89.9784416,16.3474796 C89.9784416,7.56963387 82.6355652,0.473884808 73.601515,0.473884808 C73.263225,0.473884808 72.9218425,0.487173161 72.5775232,0.513403554 C69.3081217,0.76246798 65.8949265,2.14260691 62.4864667,4.27735951 C61.1847201,5.0926565 59.9729117,5.96449704 58.8801921,6.83718175 C58.7356503,6.952618 58.5969975,7.06506514 58.4644365,7.17415134 C58.3479067,7.07393857 58.2234769,6.96831339 58.0913958,6.8577829 Z M58.0649547,53.610942 C57.0648153,53.040889 55.9480565,52.3652069 54.7440387,51.5874744 C51.3010845,49.3635063 47.8576525,46.7729731 44.6487792,43.8469393 C35.5688043,35.5673001 30.1572226,26.3157398 30.1572226,16.3474796 C30.1572226,9.16214945 36.2057642,3.31719365 43.690881,3.31719365 C46.6097798,3.31719365 49.8303345,4.56884868 53.0718453,6.67442361 C54.2285079,7.42575222 55.3037281,8.23250211 56.2666472,9.03830979 C56.6023284,9.31922075 56.8991785,9.57916607 57.1534923,9.81108978 C57.3023159,9.94681077 57.4014527,10.0405866 57.4472512,10.0853679 L58.4145155,11.0311479 L59.4071033,10.1119802 C59.4564582,10.0662759 59.5619867,9.97157455 59.7196423,9.83492261 C59.988458,9.60191989 60.3014578,9.34089812 60.654544,9.05891094 C61.6669798,8.25034367 62.7920154,7.44093224 63.9956868,6.68706072 C67.0485925,4.77499523 70.0617788,3.55660148 72.7935019,3.34849763 C73.0667787,3.32767928 73.3361581,3.31719365 73.601515,3.31719365 C81.0866177,3.31719365 87.1351328,9.16214356 87.1351328,16.3474796 C87.1351328,26.4078446 81.724324,35.6770596 72.6456077,43.9237374 C69.4376705,46.8376762 65.9952268,49.4105756 62.5532857,51.6137839 C61.3496562,52.3842349 60.2332822,53.0527616 59.2335254,53.6160891 C59.0244156,53.733915 58.8297825,53.8418206 58.6504222,53.9397191 C58.4703915,53.840268 58.2749673,53.7306436 58.0649547,53.610942 Z" id="Stroke-7" fill="#F4B5B5"></path>
            </g>
            <path d="M12.0746371,80.4316299 C12.2429254,80.3551352 12.5068282,80.2671676 12.8663533,80.1677245 C13.2258783,80.0682814 13.5892227,80.0185606 13.9563973,80.0185606 C14.5989527,80.0185606 15.1344076,80.1141775 15.5627779,80.3054143 C15.9911482,80.496651 16.2512263,80.7758525 16.3430199,81.143027 C16.5113082,81.7702836 16.66812,82.3554592 16.8134599,82.8985716 C16.9587999,83.4416839 17.1003129,83.9618401 17.2380034,84.4590556 C17.3756939,84.9562712 17.5095576,85.4496546 17.6395986,85.9392206 C17.7696395,86.4287867 17.8958539,86.9412935 18.0182454,87.4767564 L18.1329869,87.4767564 C18.2706773,86.5435211 18.393067,85.6523712 18.5001596,84.80328 C18.6072522,83.9541889 18.7066938,83.1204092 18.7984874,82.3019159 C18.8902811,81.4834227 18.9820733,80.672591 19.073867,79.8693967 C19.1656606,79.0662024 19.2574529,78.251546 19.3492465,77.4254033 C19.9153073,77.1041256 20.5196063,76.9434891 21.1621618,76.9434891 C21.7282226,76.9434891 22.2177813,77.0658788 22.6308526,77.3106618 C23.043924,77.5554449 23.2504566,77.96851 23.2504566,78.5498697 C23.2504566,78.8864464 23.2160345,79.3645311 23.1471893,79.9841382 C23.078344,80.6037452 22.9865518,81.2960119 22.8718097,82.0609588 C22.7570677,82.8259058 22.623204,83.6290881 22.4702146,84.4705298 C22.3172252,85.3119715 22.1565887,86.1151537 21.9883004,86.8801007 C21.8200121,87.6450477 21.6479016,88.3373143 21.4719638,88.9569214 C21.296026,89.5765284 21.1315648,90.0546131 20.9785754,90.3911898 C20.7490913,90.605375 20.3742729,90.7813101 19.854109,90.9190006 C19.333945,91.056691 18.7984902,91.1255352 18.2477284,91.1255352 C17.5286782,91.1255352 16.9205545,91.0299183 16.4233389,90.8386816 C15.9261234,90.6474448 15.6239739,90.3758927 15.5168813,90.0240171 C15.3179951,89.4120595 15.1038131,88.6853708 14.874329,87.8439291 C14.644845,87.0024874 14.4000656,86.0769155 14.1399836,85.0671854 C13.9257985,86.0616165 13.7039672,87.0330846 13.4744831,87.9816189 C13.244999,88.9301531 13.0384664,89.7333354 12.8548791,90.3911898 C12.625395,90.605375 12.281174,90.7813101 11.8222059,90.9190006 C11.3632377,91.056691 10.8583802,91.1255352 10.3076184,91.1255352 C9.61916612,91.1255352 8.99574368,91.0299183 8.43733239,90.8386816 C7.87892109,90.6474448 7.51557673,90.3758927 7.34728839,90.0240171 C7.20959793,89.7486362 7.06043551,89.3393957 6.89979664,88.7962833 C6.73915778,88.253171 6.57469664,87.6335732 6.40640831,86.9374715 C6.23811997,86.2413697 6.06600948,85.4879082 5.89007168,84.6770644 C5.71413387,83.8662206 5.55349742,83.055389 5.40815749,82.2445452 C5.26281756,81.4337014 5.12895385,80.6419931 5.00656233,79.8693967 C4.88417081,79.0968002 4.79237855,78.3892349 4.7311828,77.7466794 C4.94536795,77.5477932 5.2436928,77.3642087 5.62616629,77.1959204 C6.00863978,77.027632 6.42170495,76.9434891 6.8653742,76.9434891 C7.44673391,76.9434891 7.9248186,77.0697035 8.29964262,77.322136 C8.67446664,77.5745685 8.90777197,77.9991077 8.99956561,78.5957663 C9.24434864,80.1562582 9.44705655,81.4566485 9.60769542,82.4969764 C9.76833428,83.5373043 9.89837332,84.3902074 9.99781643,85.0557113 C10.0972595,85.7212152 10.1699284,86.2375466 10.2158252,86.6047212 C10.261722,86.9718957 10.3076182,87.2625712 10.353515,87.4767564 L10.4682565,87.4767564 C10.6059469,86.8647988 10.735986,86.2987465 10.8583775,85.7785826 C10.980769,85.2584186 11.1069834,84.7344378 11.2370243,84.2066244 C11.3670653,83.678811 11.500929,83.1127587 11.6386195,82.5084506 C11.77631,81.9041425 11.9216477,81.2118758 12.0746371,80.4316299 Z M25.4534929,79.1694737 C25.4534929,78.5116193 25.6447268,77.9914632 26.0272003,77.6089897 C26.4096738,77.2265162 26.9298299,77.0352823 27.5876843,77.0352823 L35.1606215,77.0352823 C35.2677141,77.2035706 35.3633311,77.4254019 35.4474752,77.7007828 C35.5316194,77.9761638 35.5736908,78.2668393 35.5736908,78.572818 C35.5736908,79.1541777 35.4474765,79.5672429 35.195044,79.812026 C34.9426115,80.056809 34.6098645,80.1791987 34.1967932,80.1791987 L29.354703,80.1791987 L29.354703,82.3133901 L34.5180693,82.3133901 C34.6251619,82.4816784 34.7207788,82.699685 34.804923,82.9674165 C34.8890671,83.2351479 34.9311386,83.5219987 34.9311386,83.8279775 C34.9311386,84.4093372 34.8087489,84.8224024 34.5639659,85.0671854 C34.3191828,85.3119685 33.9902606,85.4343582 33.5771892,85.4343582 L29.354703,85.4343582 L29.354703,87.8439291 L35.2524147,87.8439291 C35.3595073,88.0122174 35.4551242,88.2340487 35.5392684,88.5094296 C35.6234126,88.7848106 35.665484,89.075486 35.665484,89.3814648 C35.665484,89.9628245 35.5392697,90.3797144 35.2868372,90.6321469 C35.0344047,90.8845794 34.7016577,91.0107938 34.2885863,91.0107938 L27.5876843,91.0107938 C26.9298299,91.0107938 26.4096738,90.8195599 26.0272003,90.4370864 C25.6447268,90.0546129 25.4534929,89.5344568 25.4534929,88.8766024 L25.4534929,79.1694737 Z M42.0221617,87.9586706 C42.19045,87.9892684 42.3969826,88.0160412 42.6417656,88.0389896 C42.8865486,88.061938 43.1160293,88.073412 43.3302145,88.073412 C43.8503784,88.073412 44.3284631,87.9969185 44.7644829,87.8439291 C45.2005026,87.6909397 45.575321,87.4538097 45.8889493,87.132532 C46.2025776,86.8112542 46.4473569,86.3943644 46.6232947,85.8818499 C46.7992325,85.3693354 46.8872001,84.7535623 46.8872001,84.0345122 C46.8872001,82.6576076 46.5659272,81.62112 45.9233718,80.9250182 C45.2808163,80.2289165 44.4240885,79.8808708 43.3531627,79.8808708 C43.1389776,79.8808708 42.920971,79.8885202 42.6991363,79.9038191 C42.4773017,79.9191181 42.2516457,79.9420661 42.0221617,79.972664 L42.0221617,87.9586706 Z M43.3072662,91.3091216 C43.0471842,91.3091216 42.7488593,91.3014722 42.4122827,91.2861733 C42.075706,91.2708744 41.7276603,91.2402769 41.3681353,91.1943801 C41.0086102,91.1484833 40.6490905,91.0911131 40.2895654,91.0222679 C39.9300403,90.9534227 39.5972934,90.8578057 39.2913146,90.7354142 C38.4498729,90.4141365 38.0291584,89.8557336 38.0291584,89.0601887 L38.0291584,78.3433351 C38.0291584,78.0220574 38.117126,77.7734533 38.2930638,77.5975155 C38.4690016,77.4215777 38.7099563,77.2800646 39.0159351,77.1729721 C39.6737895,76.9587869 40.3698808,76.8172738 41.1042299,76.7484286 C41.838579,76.6795834 42.4964235,76.6451613 43.0777832,76.6451613 C44.2711005,76.6451613 45.3534842,76.790499 46.3249669,77.0811789 C47.2964496,77.3718587 48.1302293,77.819346 48.826331,78.4236541 C49.5224328,79.0279622 50.0617123,79.7890731 50.4441858,80.7070094 C50.8266593,81.6249458 51.0178932,82.7111542 51.0178932,83.9656673 C51.0178932,85.1895825 50.8343086,86.2566675 50.4671341,87.1669544 C50.0999595,88.0772413 49.5759787,88.8421768 48.8951759,89.4617839 C48.2143731,90.0813909 47.3997168,90.5441769 46.4511825,90.8501557 C45.5026483,91.1561345 44.4546866,91.3091216 43.3072662,91.3091216 Z M52.6701704,80.2480436 C52.5630778,80.0797552 52.4636362,79.8502746 52.3718426,79.5595947 C52.2800489,79.2689149 52.2341528,78.9629407 52.2341528,78.6416629 C52.2341528,78.0450043 52.3680165,77.6166404 52.6357479,77.3565584 C52.9034794,77.0964765 53.251525,76.9664374 53.6798954,76.9664374 L63.6853518,76.9664374 C63.7924444,77.1347258 63.891886,77.3642064 63.9836797,77.6548863 C64.0754733,77.9455661 64.1213694,78.2515403 64.1213694,78.572818 C64.1213694,79.1694767 63.9875057,79.5978406 63.7197743,79.8579225 C63.4520428,80.1180045 63.1039972,80.2480436 62.6756269,80.2480436 L60.1283662,80.2480436 L60.1283662,90.8501557 C59.9600778,90.8960525 59.6961751,90.9419486 59.33665,90.9878455 C58.9771249,91.0337423 58.6214299,91.0566904 58.2695543,91.0566904 C57.9176787,91.0566904 57.6078798,91.0299176 57.3401484,90.9763713 C57.0724169,90.922825 56.8467609,90.8272081 56.6631737,90.6895176 C56.4795864,90.5518272 56.341898,90.3605933 56.2501044,90.1158103 C56.1583107,89.8710272 56.1124146,89.5497543 56.1124146,89.1519819 L56.1124146,80.2480436 L52.6701704,80.2480436 Z M69.0323045,77.4483516 C69.2923865,77.2953622 69.6863283,77.1500245 70.2141417,77.012334 C70.7419551,76.8746435 71.2735853,76.8057994 71.8090482,76.8057994 C72.5739951,76.8057994 73.2509631,76.916715 73.8399722,77.1385496 C74.4289814,77.3603843 74.8076245,77.7084299 74.9759128,78.182697 C75.2512937,78.9782419 75.5496186,79.9038139 75.8708963,80.9594407 C76.192174,82.0150675 76.513447,83.1051006 76.8347247,84.2295727 C77.1560024,85.3540447 77.469626,86.4632012 77.7756048,87.5570754 C78.0815836,88.6509496 78.349311,89.618593 78.5787951,90.4600347 C78.3952078,90.6742198 78.119831,90.8463303 77.7526565,90.9763713 C77.3854819,91.1064123 76.9494687,91.1714318 76.4446037,91.1714318 C76.0774291,91.1714318 75.7676302,91.1408344 75.5151977,91.0796386 C75.2627652,91.0184429 75.0562327,90.9266506 74.8955938,90.8042591 C74.7349549,90.6818676 74.6049159,90.5212311 74.5054728,90.3223449 C74.4060297,90.1234587 74.3180621,89.8939781 74.2415674,89.6338961 L73.8284981,88.0504637 L69.6748567,88.0504637 C69.5524652,88.5094319 69.4300755,88.9836919 69.307684,89.473258 C69.1852925,89.9628241 69.0629028,90.4370841 68.9405113,90.8960523 C68.7263262,90.972547 68.5006702,91.0375665 68.2635366,91.0911128 C68.0264031,91.1446591 67.7395522,91.1714318 67.4029756,91.1714318 C66.6227297,91.1714318 66.0452033,91.0375681 65.6703793,90.7698367 C65.2955553,90.5021052 65.1081461,90.1311115 65.1081461,89.6568444 C65.1081461,89.4426592 65.1387435,89.2284773 65.1999393,89.0142921 C65.261135,88.800107 65.3299792,88.5476783 65.4064739,88.2569984 C65.5135665,87.843927 65.6627289,87.3314202 65.8539657,86.7194627 C66.0452024,86.1075051 66.2555597,85.4458359 66.4850438,84.7344352 C66.7145279,84.0230345 66.9593072,83.2925211 67.2193892,82.542873 C67.4794712,81.793225 67.7242506,81.0856596 67.9537346,80.4201558 C68.1832187,79.7546519 68.393576,79.1618269 68.5848127,78.6416629 C68.7760495,78.121499 68.9252119,77.7237325 69.0323045,77.4483516 Z M71.7860999,80.4086816 C71.5719147,81.0512371 71.33096,81.7664518 71.0632286,82.5543472 C70.7954971,83.3422426 70.5545424,84.1416002 70.3403573,84.952444 L73.1859458,84.952444 C72.9717607,84.1263012 72.7537541,83.3192943 72.5319194,82.5313989 C72.3100848,81.7435035 72.1073769,81.0359381 71.9237896,80.4086816 L71.7860999,80.4086816 Z M82.5947467,91.0107938 C81.9368922,91.0107938 81.4167361,90.8195599 81.0342626,90.4370864 C80.6517891,90.0546129 80.4605552,89.5344568 80.4605552,88.8766024 L80.4605552,77.012334 C80.6288436,76.9817361 80.896571,76.9396647 81.2637456,76.8861184 C81.6309201,76.8325721 81.9827904,76.8057994 82.3193671,76.8057994 C82.6712427,76.8057994 82.9810416,76.8325721 83.2487731,76.8861184 C83.5165045,76.9396647 83.7421605,77.0352816 83.9257477,77.1729721 C84.109335,77.3106625 84.2470234,77.5018964 84.338817,77.7466794 C84.4306107,77.9914625 84.4765068,78.3127354 84.4765068,78.7105078 L84.4765068,87.7750842 L89.7316663,87.7750842 C89.8387589,87.9433725 89.9382005,88.1690285 90.0299941,88.4520589 C90.1217878,88.7350893 90.1676839,89.0295895 90.1676839,89.3355682 C90.1676839,89.9475258 90.0376449,90.3797144 89.7775629,90.6321469 C89.5174809,90.8845794 89.1732599,91.0107938 88.7448896,91.0107938 L82.5947467,91.0107938 Z M92.2330304,79.1694737 C92.2330304,78.5116193 92.4242643,77.9914632 92.8067378,77.6089897 C93.1892113,77.2265162 93.7093674,77.0352823 94.3672218,77.0352823 L101.940159,77.0352823 C102.047252,77.2035706 102.142869,77.4254019 102.227013,77.7007828 C102.311157,77.9761638 102.353228,78.2668393 102.353228,78.572818 C102.353228,79.1541777 102.227014,79.5672429 101.974582,79.812026 C101.722149,80.056809 101.389402,80.1791987 100.976331,80.1791987 L96.1342405,80.1791987 L96.1342405,82.3133901 L101.297607,82.3133901 C101.404699,82.4816784 101.500316,82.699685 101.584461,82.9674165 C101.668605,83.2351479 101.710676,83.5219987 101.710676,83.8279775 C101.710676,84.4093372 101.588286,84.8224024 101.343503,85.0671854 C101.09872,85.3119685 100.769798,85.4343582 100.356727,85.4343582 L96.1342405,85.4343582 L96.1342405,87.8439291 L102.031952,87.8439291 C102.139045,88.0122174 102.234662,88.2340487 102.318806,88.5094296 C102.40295,88.7848106 102.445022,89.075486 102.445022,89.3814648 C102.445022,89.9628245 102.318807,90.3797144 102.066375,90.6321469 C101.813942,90.8845794 101.481195,91.0107938 101.068124,91.0107938 L94.3672218,91.0107938 C93.7093674,91.0107938 93.1892113,90.8195599 92.8067378,90.4370864 C92.4242643,90.0546129 92.2330304,89.5344568 92.2330304,88.8766024 L92.2330304,79.1694737 Z M108.755803,85.4114099 C108.082649,85.1819258 107.470701,84.9486204 106.919939,84.7114869 C106.369177,84.4743533 105.894917,84.1875025 105.497145,83.8509258 C105.099372,83.5143491 104.789573,83.112758 104.567739,82.6461403 C104.345904,82.1795227 104.234989,81.6096457 104.234989,80.9364924 C104.234989,79.6360825 104.736021,78.5957702 105.738102,77.8155243 C106.740182,77.0352784 108.143839,76.6451613 109.949114,76.6451613 C110.606968,76.6451613 111.218917,76.6910574 111.784977,76.7828511 C112.351038,76.8746447 112.836772,77.0161578 113.242194,77.2073945 C113.647616,77.3986313 113.965064,77.6434106 114.194548,77.9417399 C114.424033,78.2400693 114.538773,78.5881149 114.538773,78.9858873 C114.538773,79.3836598 114.446981,79.7240561 114.263393,80.0070865 C114.079806,80.2901168 113.857975,80.5310715 113.597893,80.7299577 C113.261316,80.5157726 112.810004,80.3283634 112.243943,80.1677245 C111.677883,80.0070857 111.058285,79.9267674 110.385132,79.9267674 C109.696679,79.9267674 109.191822,80.0223844 108.870544,80.2136211 C108.549266,80.4048579 108.38863,80.6458125 108.38863,80.9364924 C108.38863,81.1659765 108.488071,81.3533857 108.686958,81.4987256 C108.885844,81.6440655 109.184169,81.7779293 109.581941,81.9003208 L110.798201,82.2904418 C112.236301,82.74941 113.341633,83.3345856 114.114229,84.0459863 C114.886826,84.757387 115.273118,85.7250304 115.273118,86.9489456 C115.273118,88.2493555 114.760611,89.3011418 113.735583,90.1043361 C112.710554,90.9075305 111.203631,91.3091216 109.214768,91.3091216 C108.511017,91.3091216 107.856997,91.2517514 107.252689,91.1370094 C106.648381,91.0222673 106.120576,90.8539815 105.669257,90.6321469 C105.217938,90.4103123 104.866068,90.1349355 104.613635,89.8060083 C104.361203,89.4770811 104.234989,89.098438 104.234989,88.6700677 C104.234989,88.2263985 104.365028,87.8477554 104.62511,87.5341271 C104.885192,87.2204989 105.168218,86.9795442 105.474196,86.8112558 C105.902567,87.1478325 106.426548,87.438508 107.046155,87.683291 C107.665762,87.9280741 108.34273,88.0504637 109.077079,88.0504637 C109.826727,88.0504637 110.354532,87.9357234 110.660511,87.7062393 C110.96649,87.4767552 111.119477,87.2090278 111.119477,86.903049 C111.119477,86.5970702 110.997087,86.3637649 110.752304,86.203126 C110.507521,86.0424872 110.1633,85.8856754 109.719631,85.732686 L108.755803,85.4114099 Z" id="WEDTALES" fill="#545454" opacity="0.800000012"></path>
        </g>
    </g>
</svg>