<?xml version="1.0" encoding="UTF-8" standalone="no"?>
<svg width="112px" height="48px" viewBox="0 0 112 48" version="1.1" xmlns="http://www.w3.org/2000/svg" xmlns:xlink="http://www.w3.org/1999/xlink">
    <!-- Generator: Sketch 41.2 (35397) - http://www.bohemiancoding.com/sketch -->
    <title>RSVP</title>
    <desc>Created with Sketch.</desc>
    <defs></defs>
    <g id="Templates" stroke="none" stroke-width="1" fill="none" fill-rule="evenodd">
        <g id="Template1-RSVP" transform="translate(-132.000000, -219.000000)" fill="#FFFFFF">
            <path d="M162.4625,244.5 C162.852502,244.259999 163.204998,244.1175 163.52,244.0725 C163.835002,244.0275 163.9925,244.214998 163.9925,244.635 C163.9625,244.635 163.872501,244.792498 163.7225,245.1075 C163.572499,245.422502 163.392501,245.812498 163.1825,246.2775 C162.972499,246.742502 162.740001,247.259997 162.485,247.83 C162.229999,248.400003 161.997501,248.939997 161.7875,249.45 C161.577499,249.960003 161.390001,250.402498 161.225,250.7775 C161.059999,251.152502 160.9625,251.385 160.9325,251.475 C160.602498,252.315004 160.370001,253.184996 160.235,254.085 C160.099999,254.985005 159.822502,255.839996 159.4025,256.65 C159.192499,257.070002 158.982501,257.467498 158.7725,257.8425 C158.562499,258.217502 158.352501,258.614998 158.1425,259.035 C157.992499,259.335001 157.820001,259.597499 157.625,259.8225 C157.429999,260.047501 157.212501,260.264999 156.9725,260.475 C156.462497,260.955002 155.915003,261.344998 155.33,261.645 C154.744997,261.945001 154.092504,262.11 153.3725,262.14 C153.2825,262.14 153.2075,262.155 153.1475,262.185 C152.247496,262.545002 151.362504,262.545002 150.4925,262.185 C150.342499,262.125 150.177501,262.065 149.9975,262.005 C149.337497,261.854999 148.775002,261.600002 148.31,261.24 C147.844998,260.879998 147.447502,260.430003 147.1175,259.89 C146.727498,259.229997 146.390001,258.562503 146.105,257.8875 C145.819999,257.212497 145.542501,256.530003 145.2725,255.84 C144.822498,254.729994 144.440002,253.612506 144.125,252.4875 C143.809998,251.362494 143.487502,250.230006 143.1575,249.09 C142.917499,248.309996 142.595002,247.590003 142.19,246.93 C141.784998,246.269997 141.267503,245.685003 140.6375,245.175 C140.397499,244.964999 140.142501,244.792501 139.8725,244.6575 C139.602499,244.522499 139.302502,244.380001 138.9725,244.23 L138.8375,244.5 L138.5675,246.03 C138.4775,246.540003 138.4025,247.049997 138.3425,247.56 C138.2525,248.220003 138.102501,248.819997 137.8925,249.36 C137.562498,250.230004 137.3675,251.189995 137.3075,252.24 C137.2475,253.290005 137.1875,254.279995 137.1275,255.21 C137.0675,256.080004 137,256.964995 136.925,257.865 C136.85,258.765005 136.7675,259.649996 136.6775,260.52 C136.6775,260.760001 136.67,260.984999 136.655,261.195 C136.64,261.405001 136.6175,261.629999 136.5875,261.87 C136.5275,262.260002 136.4825,262.642498 136.4525,263.0175 C136.4225,263.392502 136.3925,263.774998 136.3625,264.165 C136.3625,264.315001 136.3325,264.42 136.2725,264.48 C136.2125,264.54 136.1375,264.6 136.0475,264.66 C135.897499,264.75 135.7775,264.705001 135.6875,264.525 C135.567499,264.344999 135.4625,264.195001 135.3725,264.075 C135.3425,264.315001 135.237501,264.4425 135.0575,264.4575 C134.877499,264.4725 134.7725,264.584999 134.7425,264.795 C134.412498,264.554999 134.127501,264.307501 133.8875,264.0525 C133.647499,263.797499 133.4825,263.475002 133.3925,263.085 C133.062498,261.494992 132.875,259.867508 132.83,258.2025 C132.785,256.537492 132.7775,254.895008 132.8075,253.275 C132.8075,251.744992 132.7925,250.215008 132.7625,248.685 C132.7325,247.154992 132.71,245.625008 132.695,244.095 C132.68,242.564992 132.695,241.035008 132.74,239.505 C132.785,237.974992 132.882499,236.445008 133.0325,234.915 C133.1225,234.134996 133.227499,233.355004 133.3475,232.575 C133.467501,231.794996 133.5725,231.015004 133.6625,230.235 C133.7225,229.814998 133.7675,229.380002 133.7975,228.93 C133.8275,228.479998 133.8725,228.030002 133.9325,227.58 C133.9925,227.069997 134.104999,226.575002 134.27,226.095 C134.435001,225.614998 134.622499,225.135002 134.8325,224.655 C134.9225,224.444999 135.005,224.325 135.08,224.295 C135.155,224.265 135.312499,224.265 135.5525,224.295 C136.242503,224.445001 136.827498,224.879996 137.3075,225.6 C137.457501,225.840001 137.5625,226.102499 137.6225,226.3875 C137.6825,226.672501 137.7425,226.949999 137.8025,227.22 L138.3425,229.515 L138.4775,230.325 C138.5075,230.475001 138.5375,230.602499 138.5675,230.7075 C138.5975,230.812501 138.6425,230.924999 138.7025,231.045 C138.7325,231.075 138.7775,231.09 138.8375,231.09 C138.8375,231.03 138.8675,230.97 138.9275,230.91 C139.287502,230.159996 139.759997,229.522503 140.345,228.9975 C140.930003,228.472497 141.567497,228.015002 142.2575,227.625 C142.737502,227.354999 143.224998,227.107501 143.72,226.8825 C144.215002,226.657499 144.732497,226.470001 145.2725,226.32 C145.842503,226.169999 146.502496,226.14 147.2525,226.23 C147.402501,226.26 147.567499,226.29 147.7475,226.32 C147.927501,226.35 148.107499,226.365 148.2875,226.365 C148.707502,226.365 149.067498,226.462499 149.3675,226.6575 C149.667502,226.852501 149.967498,227.069999 150.2675,227.31 C150.747502,227.640002 151.122499,228.089997 151.3925,228.66 C151.512501,228.840001 151.61,229.034999 151.685,229.245 C151.76,229.455001 151.8275,229.664999 151.8875,229.875 C152.277502,230.835005 152.390001,231.802495 152.225,232.7775 C152.059999,233.752505 151.812502,234.719995 151.4825,235.68 C151.062498,236.820006 150.537503,237.907495 149.9075,238.9425 C149.277497,239.977505 148.482505,240.884996 147.5225,241.665 C147.342499,241.815001 147.177501,241.92 147.0275,241.98 C146.337497,242.370002 145.632504,242.729998 144.9125,243.06 C144.192496,243.390002 143.442504,243.644999 142.6625,243.825 C142.6025,243.885 142.512501,243.93 142.3925,243.96 C142.932503,244.290002 143.427498,244.604998 143.8775,244.905 C144.177502,245.145001 144.462499,245.377499 144.7325,245.6025 C145.002501,245.827501 145.287498,246.059999 145.5875,246.3 C145.767501,246.450001 145.947499,246.622499 146.1275,246.8175 C146.307501,247.012501 146.487499,247.199999 146.6675,247.38 C146.6975,247.38 146.7275,247.395 146.7575,247.425 C147.207502,248.025003 147.619998,248.624997 147.995,249.225 C148.370002,249.825003 148.677499,250.469997 148.9175,251.16 C148.9775,251.400001 149.0525,251.624999 149.1425,251.835 C149.2325,252.045001 149.3075,252.269999 149.3675,252.51 C149.3975,252.6 149.4125,252.719999 149.4125,252.87 C149.4725,253.110001 149.5325,253.327499 149.5925,253.5225 C149.6525,253.717501 149.7125,253.934999 149.7725,254.175 L150.4475,256.335 L150.8075,257.415 C150.8675,257.595001 150.9125,257.774999 150.9425,257.955 C150.9725,258.135001 150.9725,258.314999 150.9425,258.495 C150.9425,259.035003 151.137498,259.454998 151.5275,259.755 C151.6175,259.845 151.714999,259.935 151.82,260.025 C151.925001,260.115 152.037499,260.205 152.1575,260.295 C152.397501,260.475001 152.682498,260.535 153.0125,260.475 C153.0725,260.445 153.177499,260.43 153.3275,260.43 C153.687502,260.46 153.994999,260.392501 154.25,260.2275 C154.505001,260.062499 154.752499,259.860001 154.9925,259.62 C155.952505,258.509994 156.702497,257.340006 157.2425,256.11 C158.052504,254.249991 158.869996,252.412509 159.695,250.5975 C160.520004,248.782491 161.352496,246.960009 162.1925,245.13 C162.312501,244.829998 162.4025,244.620001 162.4625,244.5 Z M139.2425,243.69 C139.752503,243.449999 140.247498,243.217501 140.7275,242.9925 C141.207502,242.767499 141.687498,242.535001 142.1675,242.295 C142.677503,242.054999 143.179998,241.777502 143.675,241.4625 C144.170002,241.147498 144.597498,240.765002 144.9575,240.315 C145.347502,239.834998 145.707498,239.355002 146.0375,238.875 C146.367502,238.394998 146.697498,237.900003 147.0275,237.39 C147.177501,237.209999 147.275,237.022501 147.32,236.8275 C147.365,236.632499 147.4025,236.415001 147.4325,236.175 C147.4925,235.604997 147.545,235.042503 147.59,234.4875 C147.635,233.932497 147.6875,233.355003 147.7475,232.755 C147.7775,232.634999 147.7925,232.522501 147.7925,232.4175 C147.7925,232.312499 147.8075,232.200001 147.8375,232.08 C148.077501,231.089995 148.1525,230.175004 148.0625,229.335 C147.9725,228.704997 147.747502,228.120003 147.3875,227.58 C147.147499,227.279999 146.877501,227.175 146.5775,227.265 C146.397499,227.325 146.217501,227.37 146.0375,227.4 C145.857499,227.43 145.692501,227.475 145.5425,227.535 C145.242499,227.655001 144.950001,227.774999 144.665,227.895 C144.379999,228.015001 144.102501,228.134999 143.8325,228.255 C142.662494,228.795003 141.777503,229.634994 141.1775,230.775 C141.027499,231.075001 140.9075,231.374999 140.8175,231.675 C140.7275,231.975001 140.622501,232.289998 140.5025,232.62 C140.4725,232.68 140.4425,232.7475 140.4125,232.8225 C140.3825,232.8975 140.3525,232.965 140.3225,233.025 L139.2425,235.365 C139.1825,235.455 139.1525,235.604999 139.1525,235.815 C139.1825,236.415003 139.1675,236.999997 139.1075,237.57 C139.0475,238.140003 138.9875,238.724997 138.9275,239.325 C138.8675,239.745002 138.86,240.172498 138.905,240.6075 C138.95,241.042502 138.9275,241.469998 138.8375,241.89 C138.7775,242.190001 138.7775,242.489999 138.8375,242.79 C138.8975,243.090001 138.9425,243.404998 138.9725,243.735 C139.0325,243.735 139.0775,243.7275 139.1075,243.7125 C139.1375,243.6975 139.1825,243.69 139.2425,243.69 Z M188.6975,244.095 C189.237503,243.794999 189.604999,243.764999 189.8,244.005 C189.995001,244.245001 189.987501,244.574998 189.7775,244.995 C189.597499,245.145001 189.417501,245.279999 189.2375,245.4 L188.6975,245.76 C188.397499,245.970001 188.097502,246.172499 187.7975,246.3675 C187.497499,246.562501 187.197501,246.749999 186.8975,246.93 C186.627499,247.110001 186.357501,247.282499 186.0875,247.4475 C185.817499,247.612501 185.547501,247.769999 185.2775,247.92 C185.037499,248.070001 184.782501,248.219999 184.5125,248.37 L183.7025,248.82 C183.552499,248.91 183.402501,248.985 183.2525,249.045 L182.8025,249.225 C182.502499,249.315 182.202502,249.449999 181.9025,249.63 C181.752499,249.66 181.617501,249.734999 181.4975,249.855 C181.4375,249.885 181.37,249.915 181.295,249.945 C181.22,249.975 181.1525,250.005 181.0925,250.035 C181.0325,250.365002 181.077499,250.634999 181.2275,250.845 C181.2875,250.935 181.3475,251.032499 181.4075,251.1375 C181.4675,251.242501 181.5275,251.354999 181.5875,251.475 C181.707501,251.715001 181.819999,251.962499 181.925,252.2175 C182.030001,252.472501 182.1125,252.734999 182.1725,253.005 C182.2325,253.155001 182.27,253.312499 182.285,253.4775 C182.3,253.642501 182.3225,253.799999 182.3525,253.95 C182.4125,254.100001 182.45,254.249999 182.465,254.4 C182.48,254.550001 182.5175,254.699999 182.5775,254.85 C182.6075,255.030001 182.63,255.209999 182.645,255.39 C182.66,255.570001 182.6675,255.749999 182.6675,255.93 C182.6975,256.110001 182.7125,256.289999 182.7125,256.47 C182.7125,256.650001 182.7275,256.814999 182.7575,256.965 L182.7575,257.235 C182.8175,257.655002 182.787501,258.014998 182.6675,258.315 C182.6075,258.465001 182.5475,258.629999 182.4875,258.81 L182.3075,259.35 C182.2175,259.830002 182.022502,260.324997 181.7225,260.835 C181.572499,261.075001 181.430001,261.307499 181.295,261.5325 C181.159999,261.757501 181.017501,261.989999 180.8675,262.23 C180.8075,262.29 180.755,262.365 180.71,262.455 C180.665,262.545 180.6125,262.62 180.5525,262.68 L180.1025,263.13 C179.142495,264.240006 178.002507,265.049997 176.6825,265.56 C175.872496,265.860002 175.032504,266.099999 174.1625,266.28 C173.742498,266.34 173.315002,266.4 172.88,266.46 C172.444998,266.52 172.002502,266.565 171.5525,266.595 C170.172493,266.685 168.852506,266.505002 167.5925,266.055 L166.2425,265.515 C166.032499,265.394999 165.822501,265.282501 165.6125,265.1775 C165.402499,265.072499 165.192501,264.945001 164.9825,264.795 C163.722494,264.104997 162.957501,263.010008 162.6875,261.51 C162.6275,260.969997 162.6425,260.520002 162.7325,260.16 C162.7925,259.949999 162.86,259.740001 162.935,259.53 C163.01,259.319999 163.0925,259.095001 163.1825,258.855 C163.602502,257.864995 164.127497,257.010004 164.7575,256.29 C165.417503,255.479996 166.152496,254.760003 166.9625,254.13 L167.9525,253.41 C168.282502,253.169999 168.627498,252.960001 168.9875,252.78 L170.0675,252.24 C170.427502,252.059999 170.802498,251.880001 171.1925,251.7 C171.492502,251.549999 171.777499,251.422501 172.0475,251.3175 C172.317501,251.212499 172.587499,251.085001 172.8575,250.935 C173.397503,250.724999 173.952497,250.470001 174.5225,250.17 C174.6125,250.17 174.6575,250.155 174.6575,250.125 C174.6575,250.095 174.6725,250.08 174.7025,250.08 L174.7925,250.035 C174.7925,249.975 174.785,249.9225 174.77,249.8775 C174.755,249.8325 174.7475,249.795 174.7475,249.765 C174.567499,249.434998 174.395001,249.120002 174.23,248.82 C174.064999,248.519998 173.907501,248.205002 173.7575,247.875 C173.277498,246.884995 172.685004,245.977504 171.98,245.1525 C171.274996,244.327496 170.547504,243.525004 169.7975,242.745 C169.197497,242.084997 168.620003,241.432503 168.065,240.7875 C167.509997,240.142497 166.947503,239.490003 166.3775,238.83 C165.957498,238.349998 165.530002,237.877502 165.095,237.4125 C164.659998,236.947498 164.255002,236.452503 163.88,235.9275 C163.504998,235.402497 163.190001,234.855003 162.935,234.285 C162.679999,233.714997 162.5075,233.100003 162.4175,232.44 C162.297499,231.269994 162.372499,230.100006 162.6425,228.93 C162.792501,228.329997 162.957499,227.685003 163.1375,226.995 C163.317501,226.304997 163.557499,225.705003 163.8575,225.195 C164.097501,224.774998 164.359999,224.332502 164.645,223.8675 C164.930001,223.402498 165.327497,223.080001 165.8375,222.9 C166.017501,222.84 166.189999,222.765 166.355,222.675 C166.520001,222.585 166.677499,222.495 166.8275,222.405 C167.907505,221.624996 169.122493,220.935003 170.4725,220.335 C171.372504,219.914998 172.302495,219.615001 173.2625,219.435 C174.222505,219.254999 175.182495,219.135 176.1425,219.075 C176.802503,219.015 177.439997,219.044999 178.055,219.165 C178.670003,219.285001 179.277497,219.419999 179.8775,219.57 C180.387503,219.66 180.844998,219.817499 181.25,220.0425 C181.655002,220.267501 182.067498,220.514999 182.4875,220.785 C182.757501,220.995001 183.019999,221.212499 183.275,221.4375 C183.530001,221.662501 183.732499,221.954998 183.8825,222.315 C183.9725,222.525001 184.055,222.719999 184.13,222.9 C184.205,223.080001 184.2725,223.289999 184.3325,223.53 C184.3925,223.890002 184.4375,224.249998 184.4675,224.61 C184.4975,224.970002 184.5275,225.314998 184.5575,225.645 L184.5575,226.7025 C184.5575,227.047502 184.5425,227.399998 184.5125,227.76 C184.4525,228.180002 184.3925,228.614998 184.3325,229.065 C184.2725,229.515002 184.2125,229.949998 184.1525,230.37 C184.0925,230.730002 183.987501,231.067498 183.8375,231.3825 C183.687499,231.697502 183.507501,232.004998 183.2975,232.305 C182.907498,232.965003 182.487502,233.489998 182.0375,233.88 C181.797499,234.090001 181.557501,234.15 181.3175,234.06 C181.137499,234.06 181.0175,233.985001 180.9575,233.835 C180.9575,233.775 180.9725,233.7 181.0025,233.61 C181.0325,233.52 181.0775,233.46 181.1375,233.43 C181.347501,233.279999 181.4975,233.107501 181.5875,232.9125 C181.6775,232.717499 181.7675,232.515001 181.8575,232.305 C182.067501,231.794997 182.239999,231.277503 182.375,230.7525 C182.510001,230.227497 182.637499,229.695003 182.7575,229.155 C182.877501,228.644997 182.9375,228.127503 182.9375,227.6025 L182.9375,226.05 C182.9375,225.929999 182.9075,225.750001 182.8475,225.51 C182.727499,225.179998 182.615001,224.857502 182.51,224.5425 C182.404999,224.227498 182.3075,223.905002 182.2175,223.575 C182.067499,223.004997 181.767502,222.600001 181.3175,222.36 C180.957498,222.179999 180.612502,222.000001 180.2825,221.82 C179.952498,221.639999 179.577502,221.55 179.1575,221.55 L178.7075,221.55 C178.557499,221.55 178.407501,221.565 178.2575,221.595 C177.747497,221.655 177.245002,221.73 176.75,221.82 C176.254998,221.91 175.752503,222.014999 175.2425,222.135 C175.002499,222.195 174.777501,222.2625 174.5675,222.3375 C174.357499,222.4125 174.132501,222.48 173.8925,222.54 C173.352497,222.690001 172.827503,222.877499 172.3175,223.1025 C171.807497,223.327501 171.312502,223.574999 170.8325,223.845 C170.592499,223.995001 170.375001,224.159999 170.18,224.34 C169.984999,224.520001 169.782501,224.714999 169.5725,224.925 C169.362499,225.105001 169.160001,225.284999 168.965,225.465 C168.769999,225.645001 168.597501,225.854999 168.4475,226.095 C168.327499,226.245001 168.2225,226.409999 168.1325,226.59 C168.0425,226.770001 167.9675,226.964999 167.9075,227.175 C167.787499,227.745003 167.6975,228.359997 167.6375,229.02 C167.6375,229.440002 167.63,229.852498 167.615,230.2575 C167.6,230.662502 167.6225,231.074998 167.6825,231.495 C167.6825,231.915002 167.787499,232.379997 167.9975,232.89 C168.147501,233.280002 168.357499,233.639998 168.6275,233.97 C168.897501,234.300002 169.152499,234.629998 169.3925,234.96 C170.352505,236.250006 171.357495,237.487494 172.4075,238.6725 C173.457505,239.857506 174.507495,241.079994 175.5575,242.34 C176.007502,242.880003 176.472498,243.412497 176.9525,243.9375 C177.432502,244.462503 177.912498,244.979997 178.3925,245.49 C178.692501,245.760001 178.962499,246.059998 179.2025,246.39 C179.442501,246.720002 179.682499,247.064998 179.9225,247.425 C179.9525,247.485 179.9825,247.53 180.0125,247.56 C180.0425,247.59 180.0725,247.635 180.1025,247.695 C180.1625,247.755 180.2,247.815 180.215,247.875 C180.23,247.935 180.2675,247.995 180.3275,248.055 C180.477501,247.995 180.604999,247.95 180.71,247.92 C180.815001,247.89 180.927499,247.845 181.0475,247.785 C181.167501,247.755 181.279999,247.725 181.385,247.695 C181.490001,247.665 181.617499,247.635 181.7675,247.605 C182.187502,247.424999 182.599998,247.245001 183.005,247.065 C183.410002,246.884999 183.822498,246.705001 184.2425,246.525 C184.662502,246.314999 185.067498,246.097501 185.4575,245.8725 C185.847502,245.647499 186.252498,245.415001 186.6725,245.175 C186.792501,245.145 186.912499,245.085 187.0325,244.995 C187.0925,244.965 187.16,244.935 187.235,244.905 C187.31,244.875 187.3775,244.845 187.4375,244.815 C187.4975,244.755 187.5725,244.71 187.6625,244.68 C187.7525,244.65 187.8275,244.605 187.8875,244.545 C187.9775,244.485 188.06,244.44 188.135,244.41 C188.21,244.38 188.2925,244.335 188.3825,244.275 C188.4425,244.245 188.495,244.215 188.54,244.185 C188.585,244.155 188.6375,244.125 188.6975,244.095 Z M177.4025,257.82 C177.4625,257.249997 177.402501,256.665003 177.2225,256.065 C177.102499,255.374997 176.847502,254.700003 176.4575,254.04 C176.127498,253.379997 175.827501,252.690004 175.5575,251.97 L175.4675,251.925 C175.4375,251.955 175.3775,251.97 175.2875,251.97 C175.2275,251.97 175.1675,252 175.1075,252.06 C174.777498,252.210001 174.462502,252.344999 174.1625,252.465 L173.2625,252.825 C172.962498,252.975001 172.670001,253.102499 172.385,253.2075 C172.099999,253.312501 171.792502,253.439999 171.4625,253.59 C171.132498,253.740001 170.802502,253.904999 170.4725,254.085 C170.322499,254.175 170.165001,254.2575 170,254.3325 C169.834999,254.4075 169.662501,254.49 169.4825,254.58 C169.332499,254.64 169.197501,254.729999 169.0775,254.85 C169.0175,254.91 168.9575,254.9625 168.8975,255.0075 C168.8375,255.0525 168.7775,255.105 168.7175,255.165 L166.7375,256.83 C166.617499,257.010001 166.467501,257.159999 166.2875,257.28 C166.2275,257.34 166.16,257.415 166.085,257.505 C166.01,257.595 165.9425,257.67 165.8825,257.73 C165.702499,257.850001 165.5825,257.94 165.5225,258 C165.372499,258.150001 165.2825,258.27 165.2525,258.36 C165.1625,258.480001 165.08,258.599999 165.005,258.72 C164.93,258.840001 164.8625,258.974999 164.8025,259.125 C164.7425,259.275001 164.675,259.409999 164.6,259.53 C164.525,259.650001 164.4575,259.769999 164.3975,259.89 C164.3075,260.100001 164.2925,260.369998 164.3525,260.7 C164.3825,261.000001 164.472499,261.284999 164.6225,261.555 C164.6825,261.705001 164.7275,261.847499 164.7575,261.9825 C164.7875,262.117501 164.8325,262.259999 164.8925,262.41 C165.012501,263.040003 165.432496,263.504998 166.1525,263.805 C166.782503,264.105002 167.442497,264.329999 168.1325,264.48 C168.432502,264.600001 168.702499,264.66 168.9425,264.66 C169.092501,264.69 169.234999,264.7125 169.37,264.7275 C169.505001,264.7425 169.647499,264.75 169.7975,264.75 C170.457503,264.84 171.162496,264.765001 171.9125,264.525 C172.242502,264.404999 172.572498,264.277501 172.9025,264.1425 C173.232502,264.007499 173.562498,263.850001 173.8925,263.67 C174.312502,263.429999 174.687498,263.175001 175.0175,262.905 C175.347502,262.634999 175.662498,262.335002 175.9625,262.005 C176.532503,261.284996 176.907499,260.475005 177.0875,259.575 C177.237501,259.064997 177.3425,258.480003 177.4025,257.82 Z M219.1175,244.14 C219.0875,244.17 219.0275,244.289999 218.9375,244.5 C218.8475,244.710001 218.750001,244.934999 218.645,245.175 C218.539999,245.415001 218.45,245.647499 218.375,245.8725 C218.3,246.097501 218.2475,246.225 218.2175,246.255 C217.617497,247.155005 216.980003,248.024996 216.305,248.865 C215.629997,249.705004 214.902504,250.484996 214.1225,251.205 C213.792498,251.505001 213.440002,251.774999 213.065,252.015 C212.689998,252.255001 212.247503,252.39 211.7375,252.42 C211.317498,252.45 210.897502,252.4875 210.4775,252.5325 C210.057498,252.5775 209.637502,252.6 209.2175,252.6 C208.137495,252.6 207.222504,252.210004 206.4725,251.43 C206.4125,251.37 206.36,251.325 206.315,251.295 C206.27,251.265 206.2175,251.22 206.1575,251.16 C205.977499,251.430001 205.85,251.707499 205.775,251.9925 C205.7,252.277501 205.602501,252.569998 205.4825,252.87 C205.362499,253.200002 205.2575,253.514998 205.1675,253.815 C205.0775,254.115002 204.972501,254.429998 204.8525,254.76 C204.492498,255.600004 204.132502,256.424996 203.7725,257.235 L202.6925,259.665 C202.572499,259.905001 202.475,260.152499 202.4,260.4075 C202.325,260.662501 202.182501,260.909999 201.9725,261.15 C201.792499,261.360001 201.650001,261.599999 201.545,261.87 C201.439999,262.140001 201.312501,262.394999 201.1625,262.635 L200.825,263.31 C200.719999,263.520001 200.6375,263.744999 200.5775,263.985 C200.5175,264.165001 200.427501,264.329999 200.3075,264.48 C200.187499,264.630001 200.0975,264.779999 200.0375,264.93 C199.917499,265.170001 199.775001,265.349999 199.61,265.47 C199.444999,265.590001 199.272501,265.695 199.0925,265.785 C198.912499,265.905001 198.732501,265.92 198.5525,265.83 C198.222498,265.709999 197.885002,265.635 197.54,265.605 C197.194998,265.575 196.857502,265.56 196.5275,265.56 C196.197498,265.59 195.875002,265.530001 195.56,265.38 C195.244998,265.229999 194.997501,264.975002 194.8175,264.615 C194.7575,264.464999 194.6975,264.322501 194.6375,264.1875 C194.5775,264.052499 194.5175,263.910001 194.4575,263.76 L193.5125,260.655 C193.4225,260.294998 193.34,259.935002 193.265,259.575 C193.19,259.214998 193.1075,258.855002 193.0175,258.495 C192.777499,257.504995 192.560001,256.515005 192.365,255.525 C192.169999,254.534995 191.952501,253.530005 191.7125,252.51 L191.1725,250.53 L190.5425,247.83 C190.332499,246.929995 190.137501,246.030005 189.9575,245.13 C189.807499,244.499997 189.695,243.870003 189.62,243.24 C189.545,242.609997 189.447501,241.965003 189.3275,241.305 C189.2675,241.004998 189.2225,240.705002 189.1925,240.405 L188.8325,236.805 C188.7425,235.904995 188.6675,235.005004 188.6075,234.105 C188.5475,233.714998 188.5025,233.325002 188.4725,232.935 C188.4425,232.544998 188.3975,232.155002 188.3375,231.765 C188.2775,231.254997 188.21,230.752502 188.135,230.2575 C188.06,229.762498 187.9925,229.260003 187.9325,228.75 C187.9025,228.599999 187.865,228.457501 187.82,228.3225 C187.775,228.187499 187.647501,228.12 187.4375,228.12 C187.857502,227.609997 188.389997,227.31 189.035,227.22 C189.680003,227.13 190.242498,227.189999 190.7225,227.4 C191.232503,227.640001 191.622499,227.962498 191.8925,228.3675 C192.162501,228.772502 192.417499,229.214998 192.6575,229.695 C192.6875,229.815001 192.762499,229.994999 192.8825,230.235 C193.032501,230.595002 193.189999,230.954998 193.355,231.315 C193.520001,231.675002 193.677499,232.049998 193.8275,232.44 C194.037501,233.100003 194.217499,233.804996 194.3675,234.555 C194.4275,234.825001 194.48,235.102499 194.525,235.3875 C194.57,235.672501 194.6225,235.949999 194.6825,236.22 C194.7425,236.370001 194.7875,236.512499 194.8175,236.6475 C194.8475,236.782501 194.8775,236.924999 194.9075,237.075 C194.9675,237.375001 195.02,237.667499 195.065,237.9525 C195.11,238.237501 195.1625,238.529998 195.2225,238.83 C195.2825,239.160002 195.3425,239.482498 195.4025,239.7975 C195.4625,240.112502 195.5225,240.434998 195.5825,240.765 L195.6725,241.035 C195.7025,241.125 195.7025,241.2 195.6725,241.26 C195.6425,241.680002 195.687499,242.077498 195.8075,242.4525 C195.927501,242.827502 196.047499,243.194998 196.1675,243.555 C196.347501,244.245003 196.504999,244.942496 196.64,245.6475 C196.775001,246.352504 196.917499,247.049997 197.0675,247.74 C197.1275,247.920001 197.1725,248.092499 197.2025,248.2575 C197.2325,248.422501 197.2625,248.594999 197.2925,248.775 C197.3225,248.925001 197.3375,249.074999 197.3375,249.225 C197.3375,249.375001 197.3525,249.524999 197.3825,249.675 L197.3825,249.765 C197.502501,250.305003 197.54,250.852497 197.495,251.4075 C197.45,251.962503 197.487499,252.509997 197.6075,253.05 C197.6675,253.440002 197.7125,253.829998 197.7425,254.22 C197.7725,254.610002 197.8175,254.984998 197.8775,255.345 C197.9675,255.765002 198.05,256.192498 198.125,256.6275 C198.2,257.062502 198.2825,257.489998 198.3725,257.91 C198.4625,258.420003 198.559999,258.922498 198.665,259.4175 C198.770001,259.912502 198.8075,260.429997 198.7775,260.97 C198.7475,261.150001 198.792499,261.329999 198.9125,261.51 C199.032501,261.690001 199.1225,261.884999 199.1825,262.095 C199.332501,262.035 199.4375,261.96 199.4975,261.87 C199.5575,261.78 199.6175,261.660001 199.6775,261.51 C199.977502,260.729996 200.277499,259.957504 200.5775,259.1925 C200.877501,258.427496 201.177498,257.655004 201.4775,256.875 C201.807502,256.004996 202.122499,255.127504 202.4225,254.2425 C202.722501,253.357496 203.037498,252.480004 203.3675,251.61 C203.517501,251.129998 203.689999,250.657502 203.885,250.1925 C204.080001,249.727498 204.282499,249.270002 204.4925,248.82 C204.642501,248.399998 204.642501,248.040001 204.4925,247.74 C204.252499,247.259998 204.042501,246.765003 203.8625,246.255 C203.682499,245.744997 203.517501,245.235003 203.3675,244.725 C203.3375,244.635 203.3225,244.537501 203.3225,244.4325 C203.3225,244.327499 203.3075,244.215001 203.2775,244.095 C203.2475,243.914999 203.2325,243.742501 203.2325,243.5775 C203.2325,243.412499 203.2025,243.255001 203.1425,243.105 C202.992499,242.594997 202.895,242.085003 202.85,241.575 C202.805,241.064997 202.7975,240.555003 202.8275,240.045 C202.8575,239.594998 202.865,239.137502 202.85,238.6725 C202.835,238.207498 202.8425,237.750002 202.8725,237.3 C202.9325,236.549996 202.97,235.800004 202.985,235.05 C203,234.299996 203.082499,233.550004 203.2325,232.8 C203.2625,232.649999 203.3,232.522501 203.345,232.4175 C203.39,232.312499 203.4275,232.185001 203.4575,232.035 C203.577501,231.704998 203.6825,231.360002 203.7725,231 C203.8625,230.639998 203.9525,230.295002 204.0425,229.965 C204.162501,229.634998 204.402498,229.365001 204.7625,229.155 C205.572504,228.674998 206.367496,228.330001 207.1475,228.12 C207.477502,227.999999 207.799998,227.9625 208.115,228.0075 C208.430002,228.0525 208.752498,228.134999 209.0825,228.255 C209.1425,228.285 209.2025,228.3075 209.2625,228.3225 C209.3225,228.3375 209.3825,228.36 209.4425,228.39 C210.072503,228.570001 210.4175,229.004997 210.4775,229.695 L210.5675,230.415 C210.5975,230.655001 210.6425,230.894999 210.7025,231.135 C210.852501,231.645003 210.9425,232.154997 210.9725,232.665 C211.0025,233.175003 211.0025,233.684997 210.9725,234.195 C210.9725,234.705003 210.935,235.192498 210.86,235.6575 C210.785,236.122502 210.7025,236.609997 210.6125,237.12 C210.462499,238.020004 210.260001,238.904996 210.005,239.775 C209.749999,240.645004 209.427502,241.499996 209.0375,242.34 C208.827499,242.820002 208.632501,243.344997 208.4525,243.915 C208.4225,244.035001 208.4075,244.214999 208.4075,244.455 C208.4675,244.845002 208.5125,245.227498 208.5425,245.6025 C208.5725,245.977502 208.662499,246.344998 208.8125,246.705 C208.8725,246.825001 208.9025,246.944999 208.9025,247.065 C208.9025,247.185001 208.9175,247.319999 208.9475,247.47 C209.0075,247.620001 209.045,247.784999 209.06,247.965 C209.075,248.145001 209.157499,248.309999 209.3075,248.46 C209.3675,248.49 209.39,248.535 209.375,248.595 C209.36,248.655 209.3675,248.715 209.3975,248.775 C209.517501,249.465003 209.832497,249.982498 210.3425,250.3275 C210.852503,250.672502 211.452497,250.740001 212.1425,250.53 C212.412501,250.47 212.659999,250.365001 212.885,250.215 C213.110001,250.064999 213.327499,249.900001 213.5375,249.72 C214.317504,249.029997 214.999997,248.295004 215.585,247.515 C216.170003,246.734996 216.687498,245.895004 217.1375,244.995 C217.257501,244.754999 217.384999,244.545001 217.52,244.365 C217.655001,244.184999 217.842499,244.020001 218.0825,243.87 C218.1725,243.81 218.352499,243.81 218.6225,243.87 C218.892501,243.93 219.0575,244.019999 219.1175,244.14 Z M207.1475,230.415 C206.997499,230.565001 206.9,230.729999 206.855,230.91 C206.81,231.090001 206.7725,231.269999 206.7425,231.45 L206.7425,232.7325 C206.7425,233.167502 206.7125,233.609998 206.6525,234.06 C206.5925,234.690003 206.614999,235.312497 206.72,235.9275 C206.825001,236.542503 206.9075,237.164997 206.9675,237.795 C206.9975,238.215002 207.064999,238.627498 207.17,239.0325 C207.275001,239.437502 207.387499,239.849998 207.5075,240.27 C207.5675,240.119999 207.6125,239.985001 207.6425,239.865 C207.6725,239.744999 207.7175,239.625001 207.7775,239.505 C207.987501,238.874997 208.13,238.237503 208.205,237.5925 C208.28,236.947497 208.3625,236.295003 208.4525,235.635 C208.5125,235.334998 208.52,235.035001 208.475,234.735 C208.43,234.434999 208.4225,234.120002 208.4525,233.79 C208.4825,233.399998 208.4525,233.017502 208.3625,232.6425 C208.2725,232.267498 208.152501,231.900002 208.0025,231.54 C207.9125,231.329999 207.807501,231.127501 207.6875,230.9325 C207.567499,230.737499 207.387501,230.565001 207.1475,230.415 Z M218.7575,225.78 C218.907501,225.72 219.034999,225.675 219.14,225.645 C219.245001,225.615 219.357499,225.6 219.4775,225.6 C220.347504,225.6 221.052497,225.914997 221.5925,226.545 C221.862501,226.875002 222.049999,227.212498 222.155,227.5575 C222.260001,227.902502 222.3425,228.269998 222.4025,228.66 C222.4325,228.990002 222.485,229.297499 222.56,229.5825 C222.635,229.867501 222.7025,230.174998 222.7625,230.505 C222.8225,230.685001 222.8525,230.82 222.8525,230.91 C222.9125,231.570003 223.017499,232.214997 223.1675,232.845 C223.317501,233.475003 223.4225,234.119997 223.4825,234.78 C223.5125,235.110002 223.5275,235.424999 223.5275,235.725 C223.5275,236.025002 223.5425,236.339998 223.5725,236.67 L223.5725,237.66 C223.6025,237.66 223.625,237.6675 223.64,237.6825 C223.655,237.6975 223.6775,237.705 223.7075,237.705 L223.9775,237.165 C224.127501,236.834998 224.262499,236.505002 224.3825,236.175 C224.502501,235.844998 224.637499,235.515002 224.7875,235.185 C225.207502,234.254995 225.679997,233.362504 226.205,232.5075 C226.730003,231.652496 227.292497,230.805004 227.8925,229.965 C228.432503,229.154996 229.062496,228.390004 229.7825,227.67 C230.292503,227.159997 230.847497,226.747502 231.4475,226.4325 C232.047503,226.117498 232.707496,225.900001 233.4275,225.78 C233.697501,225.72 233.967499,225.705 234.2375,225.735 C234.507501,225.765 234.792498,225.78 235.0925,225.78 C235.422502,225.78 235.744998,225.832499 236.06,225.9375 C236.375002,226.042501 236.682499,226.169999 236.9825,226.32 C237.672503,226.680002 238.182498,227.249996 238.5125,228.03 C238.752501,228.570003 238.947499,229.117497 239.0975,229.6725 C239.247501,230.227503 239.382499,230.789997 239.5025,231.36 C239.5925,231.870003 239.6375,232.379997 239.6375,232.89 C239.6375,234.600009 239.427502,236.339991 239.0075,238.11 C238.767499,239.130005 238.565001,240.149995 238.4,241.17 C238.234999,242.190005 238.032501,243.224995 237.7925,244.275 C237.7025,244.695002 237.597501,245.107498 237.4775,245.5125 C237.357499,245.917502 237.237501,246.329998 237.1175,246.75 C237.0875,246.870001 237.065,246.975 237.05,247.065 C237.035,247.155 237.0125,247.274999 236.9825,247.425 C237.0725,247.365 237.1475,247.3275 237.2075,247.3125 C237.2675,247.2975 237.3275,247.275 237.3875,247.245 C238.137504,246.734997 238.992495,246.315002 239.9525,245.985 C240.222501,245.895 240.469999,245.775001 240.695,245.625 C240.920001,245.474999 241.152499,245.340001 241.3925,245.22 C241.632501,245.069999 241.872499,244.942501 242.1125,244.8375 C242.352501,244.732499 242.592499,244.620001 242.8325,244.5 C243.012501,244.41 243.237499,244.365 243.5075,244.365 C243.747501,244.335 243.9125,244.454999 244.0025,244.725 C244.0625,244.875001 244.055,244.9875 243.98,245.0625 C243.905,245.1375 243.8225,245.19 243.7325,245.22 C243.312498,245.370001 242.937502,245.557499 242.6075,245.7825 C242.277498,246.007501 241.947502,246.239999 241.6175,246.48 C241.467499,246.57 241.122503,246.779998 240.5825,247.11 C240.042497,247.440002 239.465003,247.777498 238.85,248.1225 C238.234997,248.467502 237.665003,248.789998 237.14,249.09 C236.614997,249.390002 236.3075,249.57 236.2175,249.63 C236.1575,249.66 236.0825,249.749999 235.9925,249.9 C235.842499,250.140001 235.707501,250.357499 235.5875,250.5525 C235.467499,250.747501 235.347501,250.964999 235.2275,251.205 C235.077499,251.475001 234.950001,251.752499 234.845,252.0375 C234.739999,252.322501 234.627501,252.599999 234.5075,252.87 C234.4475,252.990001 234.395,253.102499 234.35,253.2075 C234.305,253.312501 234.2525,253.41 234.1925,253.5 C234.042499,253.740001 233.915001,253.964999 233.81,254.175 C233.704999,254.385001 233.577501,254.609999 233.4275,254.85 C233.307499,255.000001 233.180001,255.149999 233.045,255.3 C232.909999,255.450001 232.767501,255.599999 232.6175,255.75 C232.377499,256.050002 232.077502,256.319999 231.7175,256.56 L230.9075,257.19 C230.637499,257.400001 230.337502,257.579999 230.0075,257.73 C229.677498,257.880001 229.355002,258 229.04,258.09 C228.724998,258.18 228.387502,258.195 228.0275,258.135 C227.487497,257.984999 227.157501,257.700002 227.0375,257.28 C226.9775,256.949998 226.895001,256.627502 226.79,256.3125 C226.684999,255.997498 226.5875,255.675002 226.4975,255.345 C226.4375,255.074999 226.4375,254.820001 226.4975,254.58 C226.5575,254.339999 226.662499,254.100001 226.8125,253.86 C227.052501,253.439998 227.322498,253.065002 227.6225,252.735 C227.922502,252.404998 228.237498,252.075002 228.5675,251.745 C228.987502,251.324998 229.444998,250.972501 229.94,250.6875 C230.435002,250.402499 230.952497,250.155001 231.4925,249.945 C231.732501,249.855 231.8975,249.705001 231.9875,249.495 C232.197501,248.834997 232.407499,248.190003 232.6175,247.56 C232.827501,246.929997 233.052499,246.300003 233.2925,245.67 C233.592502,244.919996 233.817499,244.170004 233.9675,243.42 C234.117501,242.669996 234.282499,241.905004 234.4625,241.125 C234.5525,240.704998 234.6275,240.300002 234.6875,239.91 L234.8675,238.74 C234.8675,238.589999 234.8525,238.485 234.8225,238.425 C234.672499,238.004998 234.6275,237.570002 234.6875,237.12 L234.8675,235.77 C234.8975,235.409998 234.9125,235.057502 234.9125,234.7125 C234.9125,234.367498 234.8825,234.015002 234.8225,233.655 C234.7625,233.324998 234.725,232.980002 234.71,232.62 C234.695,232.259998 234.6575,231.915002 234.5975,231.585 L234.4175,230.145 C234.3875,229.964999 234.365,229.792501 234.35,229.6275 C234.335,229.462499 234.2975,229.290001 234.2375,229.11 C234.1775,228.929999 234.1325,228.742501 234.1025,228.5475 C234.0725,228.352499 234.0275,228.165001 233.9675,227.985 C233.847499,227.654998 233.622502,227.549999 233.2925,227.67 C233.052499,227.790001 232.805001,227.902499 232.55,228.0075 C232.294999,228.112501 232.047501,228.239999 231.8075,228.39 C231.537499,228.570001 231.267501,228.764999 230.9975,228.975 C230.727499,229.185001 230.502501,229.439999 230.3225,229.74 C230.172499,229.950001 230.015001,230.137499 229.85,230.3025 C229.684999,230.467501 229.527501,230.654999 229.3775,230.865 C229.137499,231.135001 228.905001,231.412499 228.68,231.6975 C228.454999,231.982501 228.237501,232.274998 228.0275,232.575 C227.847499,232.875001 227.675001,233.174999 227.51,233.475 C227.344999,233.775002 227.187501,234.074998 227.0375,234.375 C226.767499,234.975003 226.497501,235.559997 226.2275,236.13 C225.957499,236.700003 225.702501,237.269997 225.4625,237.84 C225.342499,238.110001 225.245,238.387499 225.17,238.6725 C225.095,238.957501 224.997501,239.249999 224.8775,239.55 C224.727499,239.970002 224.585001,240.374998 224.45,240.765 C224.314999,241.155002 224.172501,241.559998 224.0225,241.98 C223.9325,242.160001 223.8875,242.354999 223.8875,242.565 L223.8875,243.555 C223.8875,243.885002 223.8725,244.214998 223.8425,244.545 C223.8425,244.665001 223.835,244.777499 223.82,244.8825 C223.805,244.987501 223.7825,245.114999 223.7525,245.265 C223.6925,245.505001 223.64,245.759999 223.595,246.03 C223.55,246.300001 223.4975,246.569999 223.4375,246.84 C223.4075,246.960001 223.3775,247.072499 223.3475,247.1775 C223.3175,247.282501 223.3025,247.394999 223.3025,247.515 C223.2425,247.755001 223.1975,248.009999 223.1675,248.28 C223.1375,248.550001 223.1075,248.804999 223.0775,249.045 C223.0475,249.465002 223.025,249.884998 223.01,250.305 C222.995,250.725002 222.9725,251.144998 222.9425,251.565 C222.9125,251.835001 222.875,252.097499 222.83,252.3525 C222.785,252.607501 222.7475,252.854999 222.7175,253.095 C222.7175,253.395002 222.7325,253.619999 222.7625,253.77 C222.7925,254.010001 222.815,254.234999 222.83,254.445 C222.845,254.655001 222.777501,254.879999 222.6275,255.12 C222.6275,255.15 222.6125,255.18 222.5825,255.21 C222.5525,255.570002 222.5225,255.922498 222.4925,256.2675 C222.4625,256.612502 222.4175,256.949998 222.3575,257.28 C222.3275,257.460001 222.3125,257.639999 222.3125,257.82 C222.3125,258.000001 222.2825,258.164999 222.2225,258.315 C222.1325,258.795002 222.05,259.259998 221.975,259.71 C221.9,260.160002 221.802501,260.624998 221.6825,261.105 C221.6225,261.405002 221.5475,261.704998 221.4575,262.005 C221.3675,262.305002 221.2925,262.604999 221.2325,262.905 L220.9625,264.075 C220.8725,264.465002 220.767501,264.869998 220.6475,265.29 C220.5875,265.590001 220.467501,265.844999 220.2875,266.055 C220.107499,266.265001 219.912501,266.459999 219.7025,266.64 C219.552499,266.790001 219.387501,266.85 219.2075,266.82 C219.027499,266.79 218.862501,266.73 218.7125,266.64 C217.932496,266.189998 217.4975,265.530004 217.4075,264.66 C217.3475,264.209998 217.3175,263.760002 217.3175,263.31 L217.3175,262.005 C217.2875,261.404997 217.2725,260.820003 217.2725,260.25 L217.2725,258.495 L217.1825,256.335 C217.1525,255.614996 217.1675,254.895004 217.2275,254.175 C217.2875,253.754998 217.31,253.327502 217.295,252.8925 C217.28,252.457498 217.2725,252.015002 217.2725,251.565 C217.2725,250.844996 217.31,250.125004 217.385,249.405 C217.46,248.684996 217.5425,247.980003 217.6325,247.29 C217.7225,246.419996 217.8125,245.542504 217.9025,244.6575 C217.9925,243.772496 218.0525,242.895004 218.0825,242.025 C218.1125,240.974995 218.165,239.925005 218.24,238.875 C218.315,237.824995 218.3825,236.775005 218.4425,235.725 C218.4725,235.304998 218.495,234.900002 218.51,234.51 C218.525,234.119998 218.5625,233.715002 218.6225,233.295 L218.9825,230.055 L219.2525,228.03 C219.3425,227.249996 219.177502,226.500004 218.7575,225.78 Z M228.0275,255.66 C228.0875,255.69 228.1475,255.705 228.2075,255.705 C228.627502,255.494999 228.987499,255.232502 229.2875,254.9175 C229.587501,254.602498 229.857499,254.265002 230.0975,253.905 C230.217501,253.724999 230.142501,253.560001 229.8725,253.41 C229.122496,253.950003 228.507502,254.699995 228.0275,255.66 Z" id="RSVP"></path>
        </g>
    </g>
</svg>